<?xml version="1.0" encoding="utf-8"?>
<!-- Generator: Adobe Illustrator 27.8.1, SVG Export Plug-In . SVG Version: 6.00 Build 0)  -->
<svg version="1.1" id="Layer_1" xmlns="http://www.w3.org/2000/svg" xmlns:xlink="http://www.w3.org/1999/xlink" x="0px" y="0px"
	 viewBox="0 0 50 50" style="enable-background:new 0 0 50 50;" xml:space="preserve">
<style type="text/css">
	.st0{display:none;}
	.st1{display:inline;fill:#FDC70A;}
	.st2{display:inline;fill:#11B482;}
	.st3{fill:#FFFFFF;filter:url(#Adobe_OpacityMaskFilter);}
	.st4{mask:url(#mask0_905_2_00000054223887008675167480000017647938831365587100_);}
	.st5{fill:#5EA304;}
	.st6{fill:#D9DD6C;}
	.st7{fill:#E8E365;}
	.st8{fill:#DFD72A;}
	.st9{fill:#E8DD43;}
	.st10{fill:#EFE864;}
	.st11{fill:#D0D01A;}
	.st12{fill:#F0E646;}
	.st13{fill:#F1EA77;}
	.st14{fill:#D5CB01;}
	.st15{fill:#DAD62D;}
	.st16{fill:#99B839;}
	.st17{fill:#C7D154;}
	.st18{fill:#D3CE00;}
	.st19{fill:#A7C54B;}
	.st20{fill:#9FBE32;}
	.st21{fill:#C0D461;}
	.st22{fill:#B3C60A;}
	.st23{fill:#ACC142;}
	.st24{fill:#C9C905;}
	.st25{fill:#D8D623;}
	.st26{fill:#C4C529;}
	.st27{fill:#C4CB2F;}
	.st28{fill:#C0C10B;}
	.st29{fill:#BCCA2C;}
	.st30{fill:#A1C036;}
	.st31{fill:#BFC94C;}
	.st32{fill:#B2C14C;}
	.st33{fill:#9DB929;}
	.st34{fill:#B7C742;}
	.st35{fill:#8BBC3F;}
	.st36{fill:#76AA2C;}
	.st37{fill:#75A02D;}
	.st38{fill:#87B426;}
	.st39{fill:#549D34;}
	.st40{fill:#78AB2A;}
	.st41{fill:#DBD952;}
	.st42{fill:#7EB02A;}
	.st43{fill:#DCD839;}
	.st44{fill:#7FAF29;}
	.st45{fill:#CFC806;}
	.st46{fill:#D6D235;}
	.st47{fill:#E9E23C;}
	.st48{fill:#1A8738;}
	.st49{fill:#D5D400;}
	.st50{fill:#D0CF25;}
	.st51{fill:#AEC64A;}
	.st52{fill:#C1D274;}
	.st53{fill:#CBD75B;}
	.st54{fill:#DDDC4C;}
	.st55{fill:#579333;}
	.st56{fill:#8AB625;}
	.st57{fill:#ABCB66;}
	.st58{fill:#DBD819;}
	.st59{fill:#C2C208;}
	.st60{fill:#92B523;}
	.st61{fill:#A3BD16;}
	.st62{fill:#CACF10;}
	.st63{fill:#D0D12D;}
	.st64{fill:#D1DA59;}
	.st65{fill:#95B621;}
	.st66{fill:#579A33;}
	.st67{fill:#78A42B;}
	.st68{fill:#6FB350;}
	.st69{fill:#DEE170;}
	.st70{fill:#D4D436;}
	.st71{fill:#D1DD91;}
	.st72{fill:#D1E1A2;}
	.st73{fill:#BDCA84;}
	.st74{fill:#BACD9F;}
	.st75{fill:#8FAA77;}
	.st76{fill:#669390;}
	.st77{fill:#337665;}
	.st78{fill:#147F79;}
	.st79{fill:#A3B583;}
	.st80{fill:#A0B688;}
	.st81{fill:#ADBDA3;}
	.st82{fill:#98AB7D;}
	.st83{fill:#BBC678;}
	.st84{fill:#B3BD7E;}
	.st85{fill:#8FB39A;}
	.st86{fill:#B5BE87;}
	.st87{fill:#BBC69E;}
	.st88{fill:#C7CFA6;}
	.st89{fill:#8A9B8B;}
	.st90{fill:#B0BB77;}
	.st91{fill:#A2AE66;}
	.st92{fill:#B6AF18;}
	.st93{fill:#A3AC1D;}
	.st94{fill:#B4B914;}
	.st95{fill:#AEC53F;}
	.st96{fill:#B8C10E;}
	.st97{fill:#C1CA21;}
	.st98{fill:#88B631;}
	.st99{fill:#58A545;}
	.st100{fill:#0D7737;}
	.st101{fill:#018C3B;}
	.st102{fill:#048238;}
	.st103{fill:#8FBC23;}
	.st104{fill:#2A8D3B;}
	.st105{fill:#158739;}
	.st106{fill:#0C8C39;}
	.st107{fill:#22933B;}
	.st108{fill:#429835;}
	.st109{fill:#358D36;}
	.st110{fill:#A3C115;}
	.st111{fill:#008B3A;}
	.st112{fill:#2E8E37;}
	.st113{fill:#469D3F;}
	.st114{fill:#267E34;}
	.st115{fill:#248E38;}
	.st116{fill:#4E9839;}
	.st117{fill:#78B357;}
	.st118{fill:#A9C942;}
	.st119{fill:#A8C012;}
	.st120{fill:#97BD32;}
	.st121{fill:#9EB71B;}
	.st122{fill:#90BE41;}
	.st123{fill:#75A72E;}
	.st124{fill:#95B523;}
	.st125{fill:#93B522;}
	.st126{fill:#98AF21;}
	.st127{fill:#7AA32B;}
	.st128{fill:#6DA42F;}
	.st129{fill:#128B3B;}
	.st130{fill:#00883A;}
	.st131{fill:#027D37;}
	.st132{fill:#8CA226;}
	.st133{fill:#8FB126;}
	.st134{fill:#94B52A;}
	.st135{fill:#ADC958;}
	.st136{fill:#D1CE41;}
	.st137{fill:#D5CC25;}
	.st138{fill:#A9C733;}
	.st139{fill:#8BAC27;}
	.st140{fill:#99A623;}
	.st141{fill:#B7BC45;}
	.st142{fill:#8DA229;}
	.st143{fill:#BFAF0E;}
	.st144{fill:#D5D100;}
	.st145{fill:#C1C860;}
	.st146{fill:#BCC538;}
	.st147{fill:#AFC235;}
	.st148{fill:#C4D06A;}
	.st149{fill:#CFCF3D;}
	.st150{fill:#D5CF00;}
	.st151{fill:#E5DD30;}
	.st152{fill:#A0AD1F;}
	.st153{fill:#D8CF02;}
	.st154{fill:#D8D843;}
	.st155{fill:#CDD96B;}
	.st156{fill:#D0D988;}
	.st157{fill:#D8E28B;}
	.st158{fill:#CCCD58;}
	.st159{fill:#519E34;}
	.st160{fill:#299437;}
	.st161{fill:#67AF59;}
	.st162{fill:#49A155;}
	.st163{fill:#098B41;}
	.st164{fill:#61AA50;}
	.st165{fill:#CBD059;}
	.st166{fill:#D6DD74;}
	.st167{fill:#A1B61D;}
	.st168{fill:#DBD00F;}
	.st169{fill:#E1DA41;}
	.st170{fill:#E3E896;}
	.st171{fill:#DEE061;}
	.st172{fill:#BFCC70;}
	.st173{fill:#C5D686;}
	.st174{fill:#91A826;}
	.st175{fill:#9CBA1A;}
	.st176{fill:#9DA222;}
	.st177{fill:#A6B222;}
	.st178{fill:#BFBD42;}
	.st179{fill:#5F872F;}
	.st180{fill:#8AAB28;}
	.st181{fill:#6E922E;}
	.st182{fill:#779B2D;}
	.st183{fill:#738D2A;}
	.st184{fill:#80A32B;}
	.st185{fill:#9AAB21;}
	.st186{fill:#53A133;}
	.st187{fill:#93B926;}
	.st188{fill:#C5D982;}
	.st189{fill:#D1D962;}
	.st190{fill:#80A22A;}
	.st191{fill:#CCD153;}
	.st192{fill:#B7B812;}
	.st193{fill:#C9C82F;}
	.st194{fill:#CDC719;}
	.st195{fill:#C4CD58;}
	.st196{fill:#9BC65C;}
	.st197{fill:#98BD4B;}
	.st198{fill:#B2BF10;}
	.st199{fill:#C5C106;}
	.st200{fill:#068037;}
	.st201{fill:#37A336;}
	.st202{fill:#73982E;}
	.st203{fill:#399E38;}
	.st204{fill:#099439;}
	.st205{fill:#328535;}
	.st206{fill:#289538;}
	.st207{fill:#6EA82F;}
	.st208{fill:#95BC21;}
	.st209{fill:#5DAC2F;}
	.st210{fill:#117C36;}
	.st211{fill:#A9C443;}
	.st212{fill:#7EB130;}
	.st213{fill:#4B9936;}
	.st214{fill:#7EAF53;}
	.st215{fill:#D5D460;}
	.st216{fill:#C9CA30;}
	.st217{fill:#277833;}
	.st218{fill:#E0E378;}
	.st219{fill:#BCD18E;}
	.st220{fill:#D4D647;}
	.st221{fill:#D4DC6F;}
	.st222{fill:#D1D76B;}
	.st223{fill:#BCC75E;}
	.st224{fill:#CFD25D;}
	.st225{fill:#DCE17A;}
	.st226{fill:#D5DE73;}
	.st227{fill:#D4D26B;}
	.st228{fill:#B3C741;}
	.st229{fill:#C2CB5E;}
	.st230{fill:#9BB93B;}
	.st231{fill:#2E9C47;}
	.st232{fill:#02693C;}
	.st233{fill:#269338;}
	.st234{fill:#017B3A;}
	.st235{fill:#006B3D;}
	.st236{fill:#017739;}
	.st237{fill:#00763C;}
	.st238{fill:#077C36;}
	.st239{fill:#01873A;}
	.st240{fill:#00823A;}
	.st241{fill:#067236;}
	.st242{fill:#B3C74B;}
	.st243{fill:#89B03D;}
	.st244{fill:#0F7D36;}
	.st245{fill:#95B722;}
	.st246{fill:#CDD778;}
	.st247{fill:#B0BF6E;}
	.st248{fill:#2E8A35;}
	.st249{fill:#CDD331;}
	.st250{fill:#75C914;}
	.st251{fill:#238765;}
	.st252{fill:#0C6D37;}
	.st253{fill:#215C3C;}
	.st254{fill:#55A1A1;}
	.st255{fill:#06826A;}
	.st256{fill:#349A37;}
	.st257{fill:#67A72F;}
	.st258{fill:#72B278;}
	.st259{fill:#208C38;}
	.st260{fill:#6BA666;}
	.st261{fill:#6BA785;}
	.st262{fill:#037655;}
	.st263{fill:#258991;}
	.st264{fill:#6CAA2D;}
	.st265{fill:#13898D;}
	.st266{fill:#007E61;}
	.st267{fill:#96C895;}
	.st268{fill:#449C5F;}
	.st269{fill:#0B8C5D;}
	.st270{fill:#00626D;}
	.st271{fill:#006F5C;}
	.st272{fill:#008364;}
	.st273{fill:#6DA0A1;}
	.st274{fill:#A2CD88;}
	.st275{fill:#299138;}
	.st276{fill:#79AC5D;}
	.st277{fill:#489E61;}
	.st278{fill:#007447;}
	.st279{fill:#00814B;}
	.st280{fill:#007342;}
	.st281{fill:#008359;}
	.st282{fill:#006E4B;}
	.st283{fill:#017A5B;}
	.st284{fill:#016E43;}
	.st285{fill:#2F974C;}
	.st286{fill:#51A05E;}
	.st287{fill:#016644;}
	.st288{fill:#007D50;}
	.st289{fill:#0A8371;}
	.st290{fill:#028238;}
	.st291{fill:#A1C0BB;}
	.st292{fill:#BFC956;}
	.st293{fill:#8AAD2F;}
	.st294{fill:#B6D1A8;}
	.st295{fill:#448D82;}
	.st296{fill:#9AB737;}
	.st297{fill:#A3C4A9;}
	.st298{fill:#D1D57E;}
	.st299{fill:#DBE199;}
	.st300{fill:#B6D0B5;}
	.st301{fill:#A5C38F;}
	.st302{fill:#C2CC53;}
	.st303{fill:#9FBE92;}
	.st304{fill:#0D6340;}
	.st305{fill:#CDD125;}
	.st306{fill:#C4D15F;}
	.st307{fill:#CFD57D;}
	.st308{fill:#DADB63;}
	.st309{fill:#99B83A;}
	.st310{fill:#2D6534;}
	.st311{fill:#619D57;}
	.st312{fill:#75942E;}
	.st313{fill:#B4CD93;}
	.st314{fill:#90B124;}
	.st315{fill:#BCCA5B;}
	.st316{fill:#92AA81;}
	.st317{fill:#DDE079;}
	.st318{fill:#769F37;}
	.st319{fill:#6BA849;}
	.st320{fill:#B5D1C5;}
	.st321{fill:#A6C3AF;}
	.st322{fill:#71A273;}
	.st323{fill:#85B085;}
	.st324{fill:#769E86;}
	.st325{fill:#80A78C;}
	.st326{fill:#589337;}
	.st327{fill:#8DBA7F;}
	.st328{fill:#88B37B;}
	.st329{fill:#5F915E;}
	.st330{fill:#1B7F36;}
	.st331{fill:#2D7631;}
	.st332{fill:#5FA255;}
	.st333{fill:#81A87C;}
	.st334{fill:#95B88F;}
	.st335{fill:#6C9249;}
	.st336{fill:#90B07E;}
	.st337{fill:#A0B572;}
	.st338{fill:#90AB82;}
	.st339{fill:#9ABD59;}
	.st340{fill:#A6BD91;}
	.st341{fill:#8FA76D;}
	.st342{fill:#A7C5BD;}
	.st343{fill:#B0C5A8;}
	.st344{fill:#91B024;}
	.st345{fill:#257834;}
	.st346{fill:#789D2C;}
	.st347{fill:#097E37;}
	.st348{fill:#2C8B37;}
	.st349{fill:#3C732F;}
	.st350{fill:#2B6036;}
	.st351{fill:#226635;}
	.st352{fill:#37692E;}
	.st353{fill:#016E3F;}
	.st354{fill:#9AB73A;}
	.st355{fill:#72992E;}
	.st356{fill:#5F9847;}
	.st357{fill:#59924B;}
	.st358{fill:#799E2C;}
	.st359{fill:#8CAC25;}
	.st360{fill:#538432;}
	.st361{fill:#A0B92A;}
	.st362{fill:#9AAD5B;}
	.st363{fill:#A3BDA4;}
	.st364{fill:#91AC8D;}
	.st365{fill:#A9BF91;}
	.st366{fill:#046343;}
	.st367{fill:#138D5C;}
	.st368{fill:#00745A;}
	.st369{fill:#016958;}
	.st370{fill:#027868;}
	.st371{fill:#007670;}
	.st372{fill:#1D877B;}
	.st373{fill:#61A977;}
	.st374{fill:#017278;}
	.st375{fill:#3C86A1;}
	.st376{fill:#00777D;}
	.st377{fill:#6399B1;}
	.st378{fill:#038078;}
	.st379{fill:#045D47;}
	.st380{fill:#7DB0AB;}
	.st381{fill:#609D95;}
	.st382{fill:#AACBC0;}
	.st383{fill:#72A48B;}
	.st384{fill:#8DB3A6;}
	.st385{fill:#5E9DA2;}
	.st386{fill:#5492A1;}
	.st387{fill:#7DA897;}
	.st388{fill:#9ABBAA;}
	.st389{fill:#A7C7BC;}
	.st390{fill:#40798A;}
	.st391{fill:#658D97;}
	.st392{fill:#5E968B;}
	.st393{fill:#7597A3;}
	.st394{fill:#5A8F87;}
	.st395{fill:#3B8180;}
	.st396{fill:#54848E;}
	.st397{fill:#8FADA5;}
	.st398{fill:#ACC4B8;}
	.st399{fill:#93B1B3;}
	.st400{fill:#628D93;}
	.st401{fill:#6D9594;}
	.st402{fill:#8FACAA;}
	.st403{fill:#67937A;}
	.st404{fill:#759169;}
	.st405{fill:#8AA94C;}
	.st406{fill:#84A729;}
	.st407{fill:#8FAA27;}
	.st408{fill:#99B222;}
	.st409{fill:#879E4C;}
	.st410{fill:#92AE57;}
	.st411{fill:#6EA68B;}
	.st412{fill:#559676;}
	.st413{fill:#75998F;}
	.st414{fill:#82AF90;}
	.st415{fill:#5C9C68;}
	.st416{fill:#A2BABA;}
	.st417{fill:#7DA099;}
	.st418{fill:#55709D;}
	.st419{fill:#9EBDB7;}
	.st420{fill:#90B490;}
	.st421{fill:#679A95;}
	.st422{fill:#7AA766;}
	.st423{fill:#81B175;}
	.st424{fill:#7FAA7C;}
	.st425{fill:#70A174;}
	.st426{fill:#9FC19E;}
	.st427{fill:#689088;}
	.st428{fill:#76A26F;}
	.st429{fill:#7CA75F;}
	.st430{fill:#468C36;}
	.st431{fill:#619531;}
</style>
<g class="st0">
	<path class="st1" d="M0.5,40.2c0.4-0.5,0.8-0.9,1.1-1.4c1.2-1.6,2.2-3.3,2.7-5.3c0.3-0.9,0.4-1.8,0.6-2.6c0-0.2,0-0.2-0.2-0.3
		c-1.6-1-1.5-3.3,0.2-4.1c0.2-0.1,0.2-0.2,0.2-0.3c0-1.1,0.1-2.1,0.3-3.2c0.3-1.4,1-2.6,2-3.7l0.1-0.1c-0.6-0.2-1.1-0.4-1.7-0.6
		c-1.2-0.4-2.4-0.8-3.5-1.2C2,17.3,1.8,17.2,1.6,17c-0.4-0.3-0.4-0.6,0-0.9c0.2-0.2,0.5-0.4,0.8-0.5c4.1-1.4,8.2-2.8,12.4-4.2
		c3.1-1.1,6.3-2.1,9.4-3.2c1.4-0.5,1-0.5,2.5,0c3.3,1.2,6.7,2.3,10.1,3.5c2.8,1,5.6,1.9,8.4,2.9c1,0.3,2,0.7,3,1
		c0.3,0.1,0.7,0.3,0.9,0.5c0.4,0.3,0.4,0.7,0,0.9c-0.2,0.2-0.5,0.3-0.8,0.4c-2.9,1-5.7,2-8.6,3c-2.7,0.9-5.4,1.9-8.1,2.8
		c-1.8,0.6-3.6,1.2-5.4,1.9c-0.5,0.2-0.9,0-1.4-0.1c-3.4-1.2-6.8-2.3-10.3-3.5c-0.4-0.1-0.9-0.3-1.4-0.5c0.1,0,0.2-0.1,0.2-0.1
		c3.9-1.6,7.8-3.1,11.7-4.7c0.2-0.1,0.4-0.2,0.6-0.2c0.6-0.3,0.9-0.9,0.6-1.5c-0.2-0.6-0.9-0.8-1.5-0.6c-0.8,0.3-1.6,0.6-2.4,1
		c-2.8,1.1-5.6,2.3-8.3,3.4c-1.2,0.5-2.4,1-3.7,1.5C9.9,20,9.4,20.5,8.9,21c-0.9,1.1-1.3,2.3-1.4,3.7c-0.1,0.5-0.1,1.1-0.1,1.6
		c0,0.1,0.1,0.2,0.1,0.3c1.3,0.9,1.3,2.8,0.1,3.7c-0.1,0.1-0.1,0.2-0.1,0.3c0.1,1.1,0.1,2.1,0.2,3.2c0.1,1.6,0,3.1-0.4,4.6
		c-0.5,1.6-1.4,2.8-3,3.6c-0.1,0-0.2,0.1-0.3,0.1c0,0,0,0-0.1,0S3.7,42,3.7,42c-0.7-0.3-1.3-0.6-2-1C1.3,40.8,0.9,40.5,0.5,40.2
		L0.5,40.2z"/>
	<path class="st1" d="M41,22.9c0,0.1,0,0.2,0,0.3c0,2.4,0,4.8,0,7.2c0,0.6-0.2,1-0.6,1.4c-0.3,0.5-0.8,0.7-1.3,1
		c-2.7,1.3-5.5,2.3-8.4,2.8c-2.4,0.4-4.8,0.6-7.3,0.4c-2.8-0.2-5.6-0.7-8.2-1.7c-1.2-0.4-2.3-1-3.4-1.5c-0.4-0.2-0.6-0.7-0.8-1.1
		c0,0,0-0.1,0.1-0.2c1.1-1.5,1-3.6-0.2-4.9c0,0-0.1-0.1-0.1-0.2c0-1.1,0-2.2,0-3.4c0.6,0.2,1.2,0.4,1.8,0.6c2.2,0.8,4.5,1.5,6.7,2.3
		c1.9,0.6,3.8,1.3,5.7,2c0.5,0.2,0.9,0.2,1.4,0c2.3-0.8,4.6-1.6,6.9-2.4c2.5-0.8,4.9-1.7,7.4-2.5C40.7,22.9,40.8,22.9,41,22.9z"/>
</g>
<g class="st0">
	<path class="st2" d="M44,37.5c-1-6-4-10.6-9.2-13.8c-0.6-0.3-1.2-0.6-1.8-1c-2.7,7.3-5.3,14.5-8,21.7h-0.1
		c-2.7-7.2-5.3-14.4-8-21.7c-0.2,0.1-0.4,0.2-0.6,0.3c-5.6,3-9,7.6-10.2,13.8c-0.2,1-0.3,2.1-0.3,3.1c0.1,1.5,1,2.6,1.9,3.6
		c1.7,1.7,3.8,3,6,3.9c4.1,1.7,8.3,2.4,12.7,2.2c3.9-0.2,7.6-1.1,11.1-2.8c2-1,3.9-2.3,5.3-4c0.7-0.9,1.2-1.8,1.2-2.9
		C44.1,38.9,44.1,38.2,44,37.5z"/>
	<path class="st2" d="M25,21.5c5.7,0.1,10.5-4.6,10.5-10.4c0.1-5.7-4.7-10.5-10.3-10.6c-5.8-0.1-10.6,4.6-10.7,10.3
		C14.4,16.7,19,21.4,25,21.5z"/>
	<path class="st2" d="M26.8,24.1c-0.6-0.6-1.2-1.3-1.9-2c-0.6,0.7-1.2,1.3-1.8,2c0.7,0.6,1.3,1.2,1.9,1.8
		C25.6,25.4,26.2,24.8,26.8,24.1z"/>
	<path class="st2" d="M24.1,37.9c0.1,0.2,0.2,0.4,0.2,0.6c0.2,0.5,0.4,1,0.7,1.7l0,0l0,0l2.8-7.2l-1.5-5.9L25,26.2l-1.4,1l-1.3,5.9
		L24.1,37.9z"/>
</g>
<defs>
	<filter id="Adobe_OpacityMaskFilter" filterUnits="userSpaceOnUse" x="2.2" y="9.3" width="45.7" height="31.4">
		<feColorMatrix  type="matrix" values="1 0 0 0 0  0 1 0 0 0  0 0 1 0 0  0 0 0 1 0"/>
	</filter>
</defs>
<mask maskUnits="userSpaceOnUse" x="2.2" y="9.3" width="45.7" height="31.4" id="mask0_905_2_00000054223887008675167480000017647938831365587100_">
	<path class="st3" d="M136.5,9.3H-3.9v64h140.5V9.3z"/>
</mask>
<g class="st4">
	<path class="st5" d="M22.8,38.2c0,0,0.5-5.6-2.9-5.7c0,0-1.7-0.2-2.2,0.9c-0.5,1-1.7-0.5-1.7-1.4c0,0-0.6-0.3-1.4,0.6
		c-0.8,0.9-3.1,2.9-4.4,0c0,0-1-0.7-2.1-0.4S5.8,31.8,6.2,31c0.4-0.8,0.9-0.4,0.7-2.1c0,0-1.1,0.1-0.8-1c0,0,0.2-0.3,0.9-0.2
		c0,0,0.7-0.2,0.1-0.8c-0.6-0.6-1.4-1.3-0.8-1.7c0,0,0.9-0.1,1.4,1.2c0,0,0.9,0.2,0.9-0.4c0,0-0.3-1-1-1v-1h1.4c0,0,0.5-0.6,0.2-1.5
		c-0.3-0.9-0.1-1.7,0.6-1.6c0.7,0.1,1-0.9,1-0.9s0.2-0.6,0.8-0.6c0.6,0.1,0.3-0.9,1.4-0.2c1,0.7,0.2-2.3,1.7-2.5
		c1.5-0.2,1.1,0,1.7-0.6s0.9-0.2,1.4-0.9c0.5-0.7,0.6-1.2,1.4-1.2s0.4,0.5,1,0.5c0.6-0.1,1-0.9,1.5,0.3c0.6,1.2,0.7-0.5,0.6-0.7
		s-0.4-2.2,1-1.6s1.5,0.1,1.5,0.1s0.9-0.3,1.6,0.3c0.7,0.6,1.9-0.5,3,0.2c0,0,0.6,0.5-0.3,1s1.4,0,0.6,1.3c0,0-2,0.5-2.1-0.8
		s-0.6-0.2-1.1-0.5c-0.6-0.3-2.1-1.4-2.6-0.8c-0.6,0.6,0.7,0.5,1.4,1.1c0.7,0.6,0,0.9-0.6,0.6c-0.6-0.4-0.5,0.5-0.5,0.5
		s-0.6,1-2.9,1c0,0-0.9,0.1-0.6,1.5c0.2,1.4-1,1.3-1,1.3s-0.2,0.5,0.5,0.7c0,0,0,0.4-0.8,0.6c-0.7,0.2,0.1,1.4,0.8,0.8
		c0.7-0.6,1.8,0.6,1.6,1.1c-0.2,0.6,0.6,0.6-0.2,1c-0.8,0.4-1.4,0.4-1,0.8s1-0.4,1.8-0.5s-0.1-1.3,0.2-1.7c0.2-0.5,0.3,0.2,0.9,0.3
		c0.5,0.1,1-0.3,0.5-0.8c-0.6-0.5-1.8-0.4-1.9-1.7c0,0-1-0.6-0.1-1.7c0,0,0.8-0.7,1.7,1.1c1,1.8,0.7,0.4,1.3,1.3
		c0.6,0.9,1.5,0.8,1.1-0.2c-0.4-0.9-0.9-1.5-0.5-1.4c0.4,0.1,1.3,1.3,1.5,0.1c0.2-1.2-1.7-1.8-0.3-2.2c1.4-0.4,2.6,0.6,2.6,0.6
		s1,0.9,1.6-0.2c0.6-1,0.9-2.1,1.9-1.7c1,0.4,1.2-0.4,1.7,0.4c0.6,0.8-0.8,0.5-1.4,1.3c-0.7,0.8-0.8,1.7-3.5,1.7
		c0,0-0.7-0.1-0.3,0.8c0.4,0.9,0.2,1.4,1,0.9c0.9-0.6,1.7-0.8,1.7-0.3c0.1,0.5,0.3,2.5-0.7,1.8c-1-0.7-0.9-0.2-1.6-0.2
		c-0.7,0-2.5,0.3-2.8-0.2c-0.2-0.6-1.3,0.1-1,1.2c0.3,1-1.1,0.7-1.3,0.6c-0.2-0.1-0.7,0.3-1.1,1.1c-0.4,0.8-0.7,1.6-0.2,1.7
		c0.6,0.1,0.7,0.4,0.5,0.9c-0.2,0.5,0.3,1.6,0.6,1c0.3-0.6,0.1-1.9,0.8-1.9c0.7,0,2.5,0.9,2.4,1.7c0,0.9-0.2,1.4-1,1.4
		c-0.9-0.1-1.7-0.2-2.2,0.2c-0.5,0.4-0.6,0.3-0.2,1.3c0.5,1,0,2.1,0,2.1s-0.3,2.5,0.9,3.4l0.5-0.1c0,0-0.3-1.8,1.4-2.1
		c1.7-0.3-1.4-1.8-0.8-3.3c0,0,0.2-1.4,1.7,1.4c0,0,0.3,0.8,0.9,0.5c0.6-0.3,1.7,0.1,1.7,0.1s0.6,0.1,0-0.7
		c-0.6-0.8-1.7-0.6-0.9-1.4c0.9-0.9-0.7-0.8-0.8-1.6c-0.1-0.8,0.6,0.3,1.6-0.2c1-0.5,1.4-2.1,0.8-2.7c-0.6-0.6-0.3,0.7-1.3,0.4
		c-1-0.3-1.6,0.1-1.7-1.1s-2.5,1.2-2.9-0.2c-0.4-1.4,0.7,0.3,0.8-1c0.1-1.3,1.1-1,1.4-0.6c0.3,0.3,1,0.4,1.4-0.2
		c0.3-0.6,0.8-1.4,1.7-0.5c1,0.9,1.4,1.7,2.1,1.1c0.6-0.6,1.1-1.4,2.4-0.5c1.3,1,1,1.5,0.4,1.7s-2.5,0-2.4,0.9
		c0.1,0.9,1,0.3,2.1,0.6c1,0.3,2,0.7,1.3,1.4c-0.7,0.7-1.7-0.2-2.5,0.6c-0.8,0.7-0.1,0.9-1,1.1c-0.9,0.2-1.5,0.6-1.4,1
		c0.2,0.5,1.4,0.4,1.4,0.4s1-0.4,2.5-0.2c1.5,0.2-0.5-1.9,1.7-1.4s2.4,2.1,1.5,1.9c-0.9-0.1-2.5-1-1.9,0.1c0.5,1.1-0.1,1.8-0.9,1
		c-0.8-0.8-2.6-1-2.9-0.3c-0.3,0.6,0.3,0.7-1,0.8c-1.3,0.2-4-0.5-5.2,4.8h-3.6V38.2z"/>
	<path class="st6" d="M3.9,37.9l-0.1-1.5l1.4,1.5H3.9z"/>
	<path class="st7" d="M5.4,35.9l-1.6,0.5l1.4,1.5L5.4,35.9z"/>
	<path class="st8" d="M4,34.6l-1,0.5l0.8,1.4L4,34.6z"/>
	<path class="st9" d="M5.4,35.9L4,34.6l-0.2,1.8L5.4,35.9z"/>
	<path class="st10" d="M4.8,34.6H4l1.4,1.4L4.8,34.6z"/>
	<path class="st11" d="M6.2,35.9H5.4l-0.6-1.4L6.2,35.9z"/>
	<path class="st12" d="M6.7,35l-1.9-0.4l1.4,1.4L6.7,35z"/>
	<path class="st13" d="M3.8,33.9l2.6-0.1l-1.6,0.8L3.8,33.9z"/>
	<path class="st14" d="M6.7,35l-0.3-1.2l-1.6,0.8L6.7,35z"/>
	<path class="st15" d="M3.8,33.9l0.1-1.2l0.6,0.2L3.8,33.9z"/>
	<path class="st16" d="M4.7,32.6l1.7,1.2l-2.6,0.1L4.7,32.6z"/>
	<path class="st17" d="M5.8,31.2l-1.9,1.4l0.6,0.2L5.8,31.2z"/>
	<path class="st18" d="M6.4,33.8l-0.6-2.5l-1,1.4L6.4,33.8z"/>
	<path class="st19" d="M3.8,32.7v-2l1.9,0.6L3.8,32.7z"/>
	<path class="st20" d="M2.9,32.6L3.1,31l0.7-0.3v2L2.9,32.6z"/>
	<path class="st21" d="M2.2,29.9l0.7,2.7l0.2-2.2L2.2,29.9z"/>
	<path class="st16" d="M3.2,29.7l-1,0.2l1,0.5V31l0.7-0.3L3.2,29.7z"/>
	<path class="st22" d="M5.8,31.2l0.6,2.5l1.2-0.1L5.8,31.2z"/>
	<path class="st23" d="M6.7,35l-0.3-1.2l2.7-0.2L6.7,35z"/>
	<path class="st24" d="M7.3,35.9l-0.6-1l1.2,0.2L7.3,35.9z"/>
	<path class="st25" d="M9.1,33.6L6.7,35l1.2,0.2L9.1,33.6z"/>
	<path class="st9" d="M9,34.7l0.1-1l-1.2,1.6L9,34.7z"/>
	<path class="st12" d="M7.3,35.9l0.6-0.7L9,34.7L7.3,35.9z"/>
	<path class="st26" d="M8.3,36.2l-0.6-0.6l0.5-0.3L8.3,36.2z"/>
	<path class="st26" d="M9,34.7l-0.2,0.7l-0.6-0.2L9,34.7z"/>
	<path class="st27" d="M9.6,35.5L9,34.7l-0.2,0.7L9.6,35.5z"/>
	<path class="st9" d="M8.3,36.2l0.5-0.8l-0.6-0.2L8.3,36.2z"/>
	<path class="st28" d="M9.6,35.5l-0.8-0.1l-0.5,0.8L9.6,35.5z"/>
	<path class="st29" d="M10,33.8l-0.2-0.6l-0.7,0.4L10,33.8z"/>
	<path class="st16" d="M7.6,33.7l0.8-1l0.7,1L7.6,33.7z"/>
	<path class="st30" d="M9.8,33.2l-2.7-2.5l-1.4,0.6l1.8,2.5l0.8-1l0.7,1L9.8,33.2z"/>
	<path class="st31" d="M10,33.8l1.7-0.6L11,32.5L10,33.8z"/>
	<path class="st32" d="M9.8,33.2l1.2-0.7l-1,1.3L9.8,33.2z"/>
	<path class="st33" d="M7.1,30.7l1.3-0.6l1.4,3.1L7.1,30.7z"/>
	<path class="st34" d="M11,32.5l-2.6-2.4l1.4,3.1L11,32.5z"/>
	<path class="st35" d="M5.8,31.2l0.3-1.5l1,1L5.8,31.2z"/>
	<path class="st36" d="M5.1,29.7l1,0.1l-0.3,1.5L5.1,29.7z"/>
	<path class="st37" d="M8.4,30.1l-2.3-0.4l1,1L8.4,30.1z"/>
	<path class="st16" d="M5.1,29.7l0.2-0.7l0.8,0.8L5.1,29.7z"/>
	<path class="st38" d="M6.4,28.4l-1.1,0.6l0.8,0.8L6.4,28.4z"/>
	<path class="st39" d="M8.4,30.1l-2-1.7l-0.3,1.4L8.4,30.1z"/>
	<path class="st40" d="M5.1,29.7l-0.9-0.8l1,0.1L5.1,29.7z"/>
	<path class="st16" d="M3.1,26.9l1.1,1.9l0.1-0.8L3.1,26.9z"/>
	<path class="st41" d="M4.6,28.4l-0.3-0.3l-0.1,0.8L4.6,28.4z"/>
	<path class="st42" d="M5.3,28.9l-0.6-0.6l-0.4,0.5L5.3,28.9z"/>
	<path class="st41" d="M5.4,27.5l-0.2,1.4l-0.6-0.6L5.4,27.5z"/>
	<path class="st43" d="M3.1,26.9l1.3-0.4l-0.1,1.5L3.1,26.9z"/>
	<path class="st16" d="M5.4,27.5l-1-1l-0.1,1.5l0.3,0.3L5.4,27.5z"/>
	<path class="st44" d="M5.3,28.9l0.2-1.4l1,0.9L5.3,28.9z"/>
	<path class="st45" d="M4.4,26.6l-0.8-2.9l1.1,2.4L4.4,26.6z"/>
	<path class="st46" d="M5.8,24.6l-2.2-1l1.1,2.4L5.8,24.6z"/>
	<path class="st41" d="M5.4,27.5l-1-1l0.3-0.5L5.4,27.5z"/>
	<path class="st47" d="M5.8,24.6l-0.4,2.9l-0.7-1.4L5.8,24.6z"/>
	<path class="st48" d="M6.4,28.4l-1-0.9l1.4-0.8L6.4,28.4z"/>
	<path class="st16" d="M5.8,24.6l1,2.1l-1.4,0.8L5.8,24.6z"/>
	<path class="st16" d="M8.4,30.1l-1.6-3.4l-0.4,1.7L8.4,30.1z"/>
	<path class="st49" d="M5.8,24.6L7.4,23l1,7.2L5.8,24.6z"/>
	<path class="st50" d="M6,23.2l-0.2,1.4L7.4,23v-0.3L6,23.2z"/>
	<path class="st51" d="M4.7,22.8l0.3-1l1,1.4L4.7,22.8z"/>
	<path class="st52" d="M7.4,22.7l-0.2-1.1L5,21.9l1,1.4L7.4,22.7z"/>
	<path class="st53" d="M7.9,22.5l-0.6-1l0.2,1.1L7.9,22.5z"/>
	<path class="st16" d="M7.4,23v-0.3l0.5-0.2L7.4,23z"/>
	<path class="st54" d="M8.4,30.1l1.7-4.5l-2.1-3.1L7.4,23L8.4,30.1z"/>
	<path class="st55" d="M10.4,27.3L10,25.6l-1.7,4.5L10.4,27.3z"/>
	<path class="st56" d="M10.9,29.6l-0.6-2.2l-2,2.8L10.9,29.6z"/>
	<path class="st57" d="M11,32.5l-0.1-2.9l-2.5,0.6L11,32.5z"/>
	<path class="st58" d="M7.9,22.5l2.9,1.4L10,25.6L7.9,22.5z"/>
	<path class="st59" d="M8.5,21.9l-0.6,0.6l2.9,1.4L8.5,21.9z"/>
	<path class="st16" d="M11,23.1l-2.5-1.2l2.3,2L11,23.1z"/>
	<path class="st60" d="M10,25.6l0.7-1.7l0.1,2.9L10,25.6z"/>
	<path class="st16" d="M10.4,27.3L10,25.6l0.8,1.1L10.4,27.3z"/>
	<path class="st61" d="M10.9,29.6l-0.6-2.2l0.5-0.6L10.9,29.6z"/>
	<path class="st62" d="M11,32.5l2.7-1.6l-2.8-1.4L11,32.5z"/>
	<path class="st63" d="M13.2,31.8L13,31.4l-2,1.1L13.2,31.8z"/>
	<path class="st64" d="M11.7,33.2l1.5-1.4L11,32.5L11.7,33.2z"/>
	<path class="st65" d="M13.7,30.9l-0.5,0.9L13,31.4L13.7,30.9z"/>
	<path class="st66" d="M10.9,29.6l1.7-0.3l1.1,1.7L10.9,29.6z"/>
	<path class="st67" d="M10.8,26.7l1.7,2.5l-1.7,0.3L10.8,26.7z"/>
	<path class="st68" d="M10.8,23.8l0.7,0.6l1.6,4.7l-0.5,0.1l-1.7-2.5L10.8,23.8z"/>
	<path class="st69" d="M11,23.1l0.5,1.4l-0.7-0.6L11,23.1z"/>
	<path class="st70" d="M8.5,21.9l1.4-2.1l1.1,3.3L8.5,21.9z"/>
	<path class="st71" d="M8.1,19.9l0.3,2l1.4-2.1L8.1,19.9z"/>
	<path class="st72" d="M9.3,19.1l-1.1,0.8l1.7-0.1L9.3,19.1z"/>
	<path class="st73" d="M11,23.1l0.8-2.1l-1.9-1.2L11,23.1z"/>
	<path class="st74" d="M9.9,18.5v1.3l1.9,1.2L9.9,18.5z"/>
	<path class="st75" d="M10.8,18.4l-1,0.2l1.9,2.5L10.8,18.4z"/>
	<path class="st76" d="M11,16.9l-0.2,1.4l2.1-1.4H11z"/>
	<path class="st77" d="M11.7,14.9L11,16.9h1.9L11.7,14.9z"/>
	<path class="st78" d="M12.2,14.5l-0.5,0.3l1.2,2.1L12.2,14.5z"/>
	<path class="st79" d="M10.8,18.4l2.1-1.4l0.2,0.4L10.8,18.4z"/>
	<path class="st16" d="M11.8,21l1.4-3.7l-2.3,1L11.8,21z"/>
	<path class="st80" d="M14.1,19.6L11.8,21l1.4-3.7L14.1,19.6z"/>
	<path class="st81" d="M12.9,16.9l-0.7-2.4l1.4,1.7l-0.2,0.3L12.9,16.9z"/>
	<path class="st82" d="M13.1,17.3l0.3-0.8l-0.6,0.4L13.1,17.3z"/>
	<path class="st16" d="M13.6,16.2l0.1,0.2l-0.2,0.2L13.6,16.2z"/>
	<path class="st83" d="M11.8,21l2.9,0.2l0.1-1l-1.7-2.8l1,2.2L11.8,21z"/>
	<path class="st84" d="M13.7,16.4l-0.2,0.2l-0.3,0.8l1.7,2.8l0.1-2.5L13.7,16.4z"/>
	<path class="st85" d="M12.2,14.5l1.1,0.1L14,15l-0.4,1.2L12.2,14.5z"/>
	<path class="st86" d="M14.9,15.5L14,15l-0.4,1.2l0.1,0.2L14.9,15.5z"/>
	<path class="st16" d="M14.9,17.6l-1.2-1.3l1.2-0.9V17.6z"/>
	<path class="st87" d="M12.2,14.5l-0.4-0.7l1.5,0.8L12.2,14.5z"/>
	<path class="st85" d="M14,13l-2.2,0.9l1.8,0.1L14,13z"/>
	<path class="st88" d="M13.3,14.6l-1.5-0.8l1.8,0.1L13.3,14.6z"/>
	<path class="st86" d="M14.4,13.9L14,13l-0.4,1H14.4z"/>
	<path class="st89" d="M13.3,14.6l1.1-0.7h-0.8L13.3,14.6z"/>
	<path class="st90" d="M14,15l0.4-1.1l-1.1,0.7L14,15z"/>
	<path class="st91" d="M14.9,15.5l-0.5-1.6L14,15L14.9,15.5z"/>
	<path class="st92" d="M15.1,13.2l-0.6,0.7l0.6,0.2V13.2z"/>
	<path class="st93" d="M14.9,15.5l0.2-1.4l-0.6-0.2L14.9,15.5z"/>
	<path class="st94" d="M11.7,33.2l-0.2,0.8l0.7,0.6L11.7,33.2z"/>
	<path class="st95" d="M12.7,33.9l-0.5,0.6l-0.5-1.4L12.7,33.9z"/>
	<path class="st96" d="M13.4,32.7l-1.7,0.5l1,0.7L13.4,32.7z"/>
	<path class="st97" d="M13.2,31.8l-1.5,1.4l1.7-0.5L13.2,31.8z"/>
	<path class="st31" d="M13.4,34l-0.7-0.2l0.7-1.2V34z"/>
	<path class="st98" d="M14.3,33l-0.9-0.3V34L14.3,33z"/>
	<path class="st96" d="M14.1,32.8l-0.7-0.1l0.9,0.3L14.1,32.8z"/>
	<path class="st99" d="M15.1,32.4l-1,0.4l0.2,0.2L15.1,32.4z"/>
	<path class="st100" d="M15.5,32.7l-0.4-0.3L14.3,33L15.5,32.7z"/>
	<path class="st101" d="M14.4,33.6l1.1-1v0.6L14.4,33.6z"/>
	<path class="st102" d="M15.5,33.9l-1-0.2l1.1-0.4L15.5,33.9z"/>
	<path class="st103" d="M15.6,33.2l-0.1-0.5L15.6,33.2L15.6,33.2z"/>
	<path class="st104" d="M15.5,33.9l0.2-0.7l-0.1,0.1L15.5,33.9z"/>
	<path class="st105" d="M15.9,32.9l-0.3-0.2l0.1,0.5L15.9,32.9z"/>
	<path class="st106" d="M16.3,33.2l-0.4-0.2l-0.2,0.2H16.3z"/>
	<path class="st107" d="M16,32.5l0.2,0.6l-0.4-0.2L16,32.5z"/>
	<path class="st16" d="M16.6,31.8l-0.7,0.3l-0.3,0.6l0.3,0.2L16.6,31.8z"/>
	<path class="st108" d="M15.1,32.4l0.7-0.2l-0.3,0.6L15.1,32.4z"/>
	<path class="st109" d="M16.6,31.8l0.8,0.2l-1.1,1.1L16,32.5L16.6,31.8z"/>
	<path class="st103" d="M18.1,32.4L17.4,32l-1.1,1.1L18.1,32.4z"/>
	<path class="st110" d="M16.6,31.8l0.2-0.1l0.6,0.3L16.6,31.8z"/>
	<path class="st111" d="M15.1,32.4l-0.6-0.6l1.4,0.3L15.1,32.4z"/>
	<path class="st112" d="M15,31.2l-0.5,0.6l1.4,0.3L15,31.2z"/>
	<path class="st113" d="M14.3,30.9l0.2,0.9l0.5-0.6L14.3,30.9z"/>
	<path class="st114" d="M13.1,29.2l-0.5,0.1l1.1,1.7L13.1,29.2z"/>
	<path class="st115" d="M15.3,29.6l-2.2-0.4l0.6,1.7h0.6L15.3,29.6z"/>
	<path class="st116" d="M15.3,30v-0.4l-1,1.4L15.3,30z"/>
	<path class="st117" d="M15,31.2l-0.7-0.3l1-1L15,31.2z"/>
	<path class="st103" d="M16.6,31.8l-0.3-0.3l0.2-0.2L16.6,31.8z"/>
	<path class="st118" d="M15.7,31.2l0.6,0.3l0.2-0.2v-0.2H15.7z"/>
	<path class="st119" d="M15.7,29.9v1.3l0.4-1.2L15.7,29.9z"/>
	<path class="st16" d="M16.4,31.2L16.1,30l-0.4,1.2H16.4z"/>
	<path class="st110" d="M17.1,31.2l-1-1.2l0.3,1.2v0.2L17.1,31.2z"/>
	<path class="st16" d="M16.6,31.8l0.2-0.1l-0.3-0.4L16.6,31.8z"/>
	<path class="st120" d="M18.9,30.9l-2.1,0.8l0.6,0.3L18.9,30.9z"/>
	<path class="st121" d="M18.6,30.6l-1.8,1.1l2.1-0.8L18.6,30.6z"/>
	<path class="st121" d="M15.3,30l0.4-0.5l-0.4,0.1V30z"/>
	<path class="st122" d="M17.3,30.2l-1.6-0.7l0.6-0.2L17.3,30.2z"/>
	<path class="st123" d="M17.8,30.1l-1.6-0.9l1,1L17.8,30.1z"/>
	<path class="st124" d="M17.8,30.5l-0.6-0.3l0.6-0.1V30.5z"/>
	<path class="st125" d="M18.6,30.6l-0.7-0.1v-0.4l0.2,0.1L18.6,30.6z"/>
	<path class="st126" d="M16.1,28.5l-0.8,1l0.4-0.1l0.6-0.2L16.1,28.5z"/>
	<path class="st16" d="M17.8,30.1l-0.6-1L17,29.3l-0.9-0.8l0.2,0.7L17.8,30.1z"/>
	<path class="st16" d="M13.1,29.2l3-0.6l-0.8,1L13.1,29.2z"/>
	<path class="st127" d="M17.8,30.1l0.1-0.4l-0.6-0.6L17.8,30.1z"/>
	<path class="st127" d="M18.1,30.2l-0.2-0.5l-0.1,0.4L18.1,30.2z"/>
	<path class="st128" d="M18.6,30.6l0.7-0.2l-1.2-0.2L18.6,30.6z"/>
	<path class="st129" d="M18.9,30.9l0.8-0.5l-1.1,0.2L18.9,30.9z"/>
	<path class="st130" d="M18.7,28.9l0.6,1.5L19,28.9H18.7z"/>
	<path class="st131" d="M19.7,30.4v-0.2L19,28.9l0.2,1.5H19.7z"/>
	<path class="st132" d="M13.1,29.2l-1.6-4.7l4.6,4.1L13.1,29.2z"/>
	<path class="st133" d="M17,29.3l-0.9-0.8l1.4-0.2L17,29.3z"/>
	<path class="st134" d="M17.3,29.1l0.2-0.8l-0.5,1L17.3,29.1z"/>
	<path class="st135" d="M17.9,29.7l-0.5-1.3l-0.2,0.6L17.9,29.7z"/>
	<path class="st136" d="M11.8,21L11,23.1l0.5,1.4l3.3,0.2L11.8,21z"/>
	<path class="st137" d="M14.7,21.1L11.8,21l2.9,3.7V21.1z"/>
	<path class="st16" d="M16.1,28.5l-4.6-4.1l3.3,0.2L16.1,28.5z"/>
	<path class="st138" d="M16.6,27.3l-1.9-2.5l1.4,3.8L16.6,27.3z"/>
	<path class="st139" d="M17.4,28.3l-0.8-1l-0.6,1.3L17.4,28.3z"/>
	<path class="st140" d="M15.1,13.2l1.2,1.4l-1.2-0.5V13.2z"/>
	<path class="st141" d="M14.9,15.5l0.2-1.4l1.2,0.5L14.9,15.5z"/>
	<path class="st142" d="M14.9,17.6l1-0.3l-1-1.8V17.6z"/>
	<path class="st143" d="M18.2,16.7l-3.3-1.2l1,1.8L18.2,16.7z"/>
	<path class="st16" d="M14.7,24.7l0.7-3.6h-0.7V24.7z"/>
	<path class="st144" d="M14.8,20.1l0.6,1h-0.7L14.8,20.1z"/>
	<path class="st16" d="M16.4,19.6l-1.5-1.9l-0.1,2.5l0.6,1L16.4,19.6z"/>
	<path class="st145" d="M15.9,17.3l-1,0.3l1.5,1.9l0.3-0.5L15.9,17.3z"/>
	<path class="st146" d="M18.2,16.7l-2.3,0.6l0.9,1.7L18.2,16.7z"/>
	<path class="st147" d="M17.9,21.3l0.2-4.6l-1.4,2.4L17.9,21.3z"/>
	<path class="st148" d="M16.4,19.6l0.3-0.5l1.2,2.2L16.4,19.6z"/>
	<path class="st149" d="M15.5,21.1l1-1.6l1.5,1.7L15.5,21.1z"/>
	<path class="st150" d="M14.7,24.7l0.7-3.6l2.2,3.8L14.7,24.7z"/>
	<path class="st151" d="M17.9,21.3l-2.5-0.2l2.2,3.8L17.9,21.3z"/>
	<path class="st16" d="M16.6,27.3l1-2.3l-2.9-0.2L16.6,27.3z"/>
	<path class="st152" d="M17.4,28.3l0.2-3.3l-1,2.3L17.4,28.3z"/>
	<path class="st16" d="M18.7,28.9l-1.3-0.6L19,27l0.6,0.1L19,27.9l0.2,0.5L19,28.9H18.7z"/>
	<path class="st16" d="M20.3,28l-1-0.4l-0.2-0.1l0.3-0.4L20.3,28z"/>
	<path class="st153" d="M19,27L17.7,25l-0.2,3.3L19,27z"/>
	<path class="st16" d="M20.3,25.8L17.7,25L19,27L20.3,25.8z"/>
	<path class="st154" d="M19.5,27.1L19,27l1.4-1.2L19.5,27.1z"/>
	<path class="st16" d="M20.3,27.3l-0.8-0.2l0.8-1.3V27.3z"/>
	<path class="st155" d="M20.3,28v-0.7l-0.8-0.2L20.3,28z"/>
	<path class="st156" d="M20.6,27.3L20.3,28v-0.7L20.6,27.3z"/>
	<path class="st157" d="M20.3,25.8l0.3,1.5l-0.3-0.1V25.8z"/>
	<path class="st158" d="M20.8,26.6l-0.5-0.8l0.3,1.5L20.8,26.6z"/>
	<path class="st156" d="M21.7,28.3l-1-1l0.2-0.7l1.2,1.7l-0.2,0.7L21.7,28.3z"/>
	<path class="st129" d="M18.9,30.9l1.5,0.9l-0.7-1.4L18.9,30.9z"/>
	<path class="st159" d="M20.5,30.9l-0.9-0.5l0.7,1.4L20.5,30.9z"/>
	<path class="st160" d="M21,31.6l-0.5-0.7l-0.2,0.9L21,31.6z"/>
	<path class="st161" d="M21,32v-0.3l-0.6,0.2L21,32z"/>
	<path class="st162" d="M21,32.7l-0.6-0.9L21,32V32.7z"/>
	<path class="st163" d="M21.7,32.1L21,32.7V32L21.7,32.1z"/>
	<path class="st16" d="M21,31.6V32l0.7,0.2L21,31.6z"/>
	<path class="st164" d="M22.3,30L21,31.6l0.7,0.5L22.3,30z"/>
	<path class="st165" d="M21.5,30L21,31.6l1.3-1.6H21.5z"/>
	<path class="st16" d="M22,29.4l-0.5,0.6h0.8L22,29.4z"/>
	<path class="st165" d="M21.8,29.1l-0.3,1l0.5-0.6L21.8,29.1z"/>
	<path class="st166" d="M22.2,29.2l-0.4-0.1l0.5,1L22.2,29.2z"/>
	<path class="st158" d="M22.1,27.2L22,28.4l-0.2,0.7l0.4,0.1L22.1,27.2z"/>
	<path class="st167" d="M22.6,27.3l-0.5-0.2l0.1,2L22.6,27.3z"/>
	<path class="st168" d="M20.3,25.8L21,25l-0.3,0.5l0.1,1.1L20.3,25.8z"/>
	<path class="st169" d="M17.7,25l2.7-0.8l-0.1,1.7L17.7,25z"/>
	<path class="st170" d="M21,25l-0.6-0.9l-0.1,1.7L21,25z"/>
	<path class="st171" d="M17.7,25l0.2-3.7l2.5,2.9L17.7,25z"/>
	<path class="st172" d="M20.4,21.3h-2.5l2.5,2.9V21.3z"/>
	<path class="st16" d="M21,25l-0.6-3.7v2.9L21,25z"/>
	<path class="st173" d="M22.3,21.3h-1.9L21,25L22.3,21.3z"/>
	<path class="st174" d="M17.9,21.3l0.2-4.6l2.3,2.5L17.9,21.3z"/>
	<path class="st175" d="M22.3,21.3l-1.8-2.1l-0.1,2.1H22.3z"/>
	<path class="st16" d="M17.9,21.3l2.5-2.1l-0.1,2.1H17.9z"/>
	<path class="st176" d="M14.9,15.5l1.4-1l1.9,2.1L14.9,15.5z"/>
	<path class="st177" d="M15.1,13.2l2.2-0.3l-1,1.7L15.1,13.2z"/>
	<path class="st178" d="M17.5,12.4l-2.5,0.8l2.2-0.3L17.5,12.4z"/>
	<path class="st179" d="M18.6,11.5l-1,0.9l-0.2,0.5l1.2-0.2L18.6,11.5z"/>
	<path class="st180" d="M19.2,12.6l-0.6-1l-0.1,1.1L19.2,12.6z"/>
	<path class="st181" d="M16.3,14.5l2.1-1.5l0.1-0.4l-1.2,0.2L16.3,14.5z"/>
	<path class="st182" d="M18.3,14.5l-2.1,0.1l2.1-1.5L18.3,14.5z"/>
	<path class="st183" d="M19.2,12.6l-0.7,0.1L18.4,13l-0.1,1.4L19.2,12.6z"/>
	<path class="st184" d="M18.2,16.7l-1.9-2.1l2.1-0.1L18.2,16.7z"/>
	<path class="st185" d="M20.5,14.5h-2.2l0.9-1.9L20.5,14.5z"/>
	<path class="st186" d="M18.2,16.7l0.2-2.2h2.2L18.2,16.7z"/>
	<path class="st187" d="M20.5,19.2l0.1-4.7l-2.4,2.2L20.5,19.2z"/>
	<path class="st188" d="M20.5,14.5l-0.1,4.7l1.8,2.1L20.5,14.5z"/>
	<path class="st189" d="M21,25l2.1-0.1l0.2-0.2l-1-3.5L21,25z"/>
	<path class="st190" d="M19.2,12.6l0.2-2.1l0.4,1.2L19.2,12.6z"/>
	<path class="st191" d="M19.8,9.6l-0.4,0.9l0.4,1.2l0.8-1.2L19.8,9.6z"/>
	<path class="st192" d="M19.2,12.6l0.9-0.2l-0.2-0.6L19.2,12.6z"/>
	<path class="st16" d="M20.6,11.3l-0.8,0.4l0.4-0.6L20.6,11.3z"/>
	<path class="st193" d="M20.6,10.5v0.8L20.2,11L20.6,10.5z"/>
	<path class="st194" d="M19.8,11.7l0.7,0.5l0.1-0.9L19.8,11.7z"/>
	<path class="st16" d="M20.1,12.3l0.5-0.2l-0.7-0.5L20.1,12.3z"/>
	<path class="st16" d="M20.5,14.5l-1.4-1.9l0.9-0.2L20.5,14.5z"/>
	<path class="st195" d="M20.5,12.2l-0.5,0.2l0.5,2.1V12.2z"/>
	<path class="st196" d="M21,9.3l-0.4,1.2l0.7,0.3L21,9.3z"/>
	<path class="st197" d="M20.6,11.3l0.7-0.5l-0.7-0.3V11.3z"/>
	<path class="st16" d="M21.6,11.9l-1-0.6l0.7-0.5L21.6,11.9z"/>
	<path class="st198" d="M20.5,12.2l0.1-0.9l1,0.6L20.5,12.2z"/>
	<path class="st199" d="M20.5,14.5l1.8-2.1l-1.8-0.2V14.5z"/>
	<path class="st16" d="M21.6,11.9l-1,0.2l1.8,0.2L21.6,11.9z"/>
	<path class="st192" d="M21.7,11l-0.4-0.2l0.2,1.1L21.7,11z"/>
	<path class="st191" d="M21.7,10.7l-0.4,0.1l1.2,0.9L21.7,10.7z"/>
	<path class="st16" d="M21.6,11.9l0.2-0.9l0.8,0.6L21.6,11.9z"/>
	<path class="st200" d="M22.4,12.4l0.4-0.4l-0.2-0.3l-1,0.2L22.4,12.4z"/>
	<path class="st201" d="M23.3,11.4l-0.8,0.3l0.2,0.3L23.3,11.4z"/>
	<path class="st202" d="M22.4,12.4l0.7,0.2L22.8,12L22.4,12.4z"/>
	<path class="st203" d="M20.5,14.5l3.6,1.6l-1.7-3.7L20.5,14.5z"/>
	<path class="st16" d="M23.3,11.4l0.2,1.2L22.8,12L23.3,11.4z"/>
	<path class="st204" d="M23.1,12.6l0.6,0.8l-0.2-0.8L22.8,12L23.1,12.6z"/>
	<path class="st205" d="M24.1,16.1l-1.7-3.7l1.4,1L24.1,16.1z"/>
	<path class="st206" d="M23.1,12.6l-0.7-0.2l1.4,1L23.1,12.6z"/>
	<path class="st207" d="M23.3,11.4l2.1,1.2h-1.8L23.3,11.4z"/>
	<path class="st208" d="M23.7,13.3l-0.2-0.8h1.8L23.7,13.3z"/>
	<path class="st209" d="M24.1,16.1l0.7-2l-1.1-0.7L24.1,16.1z"/>
	<path class="st210" d="M25.4,12.6l-1.7,0.8l1.1,0.7L25.4,12.6z"/>
	<path class="st211" d="M22.3,21.3l-1.7-6.8l3.6,1.6L22.3,21.3z"/>
	<path class="st212" d="M24.8,19.7l-0.7-3.7l-1.8,5.2L24.8,19.7z"/>
	<path class="st213" d="M25.3,22.8l-3-1.5l2.5-1.6L25.3,22.8z"/>
	<path class="st214" d="M23.3,24.8l-1-3.5l3,1.5L23.3,24.8z"/>
	<path class="st215" d="M21,25l0.7,1.1l1.4-1.2L21,25z"/>
	<path class="st216" d="M22.1,27.2l-0.5-0.5l0.1-0.6l1.4-1.2h0.2L22.1,27.2z"/>
	<path class="st217" d="M25.3,22.8l0.3,2L23.1,25L25.3,22.8z"/>
	<path class="st16" d="M22.1,27.2h0.8l-0.6-0.6L22.1,27.2z"/>
	<path class="st218" d="M23.2,25l-0.9,1.7l0.6,0.6L23.2,25z"/>
	<path class="st219" d="M23.9,27.3l-1-0.1l0.3-2.2L23.9,27.3z"/>
	<path class="st220" d="M24.6,27.7l-0.7-0.5L23.3,25l2.4-0.2l0.6,3L24.6,27.7z"/>
	<path class="st221" d="M22.1,27.2l0.5,0.2l0.9,1l0.2,0.5l0.2-0.2l-1-1.4H22.1z"/>
	<path class="st222" d="M23.9,27.3l0.1,1.3l0.6-0.8L23.9,27.3z"/>
	<path class="st223" d="M23.7,28.8h0.5L24,28.5L23.7,28.8z"/>
	<path class="st157" d="M24.6,27.7l-0.4,1L24,28.5L24.6,27.7z"/>
	<path class="st224" d="M25.1,29.3l-0.5-1.5l1.3,0.4L25.1,29.3z"/>
	<path class="st225" d="M26.2,27.8l-1.6-0.1l1.3,0.4L26.2,27.8z"/>
	<path class="st226" d="M25.7,29.1l-0.6,0.2l0.8-1.1L25.7,29.1z"/>
	<path class="st227" d="M23.7,28.8l0.2,0.6l0.3-0.6H23.7z"/>
	<path class="st156" d="M24.8,30l-0.5-0.4l-0.2-0.8l-0.3,0.6l0.6,0.6H24.8z"/>
	<path class="st226" d="M25.1,29.3L24.8,30l0.6,0.2L25.1,29.3z"/>
	<path class="st228" d="M24.4,30l0.3,1.5l0.3-0.6L24.4,30z"/>
	<path class="st229" d="M25.5,30.2L24.8,30h-0.4l0.6,1L25.5,30.2z"/>
	<path class="st230" d="M24.8,31.5l1.1,0.6l-0.5-0.7l0.1-1.2L24.8,31.5z"/>
	<path class="st231" d="M21,32.7l0.7-0.6l0.2,1L21,32.7z"/>
	<path class="st232" d="M22.3,34.5L21,32.7l1,0.5L22.3,34.5z"/>
	<path class="st233" d="M21.7,32.1l1,1.3L22,33.2L21.7,32.1z"/>
	<path class="st234" d="M22.3,34.5l0.4-1.1L22,33.2L22.3,34.5z"/>
	<path class="st16" d="M22.9,34.3l-0.6,0.2l0.4-1.1L22.9,34.3z"/>
	<path class="st235" d="M22.5,36.3l-0.2-1.7l0.6-0.2L22.5,36.3z"/>
	<path class="st236" d="M23.6,35.5l-0.7-1.3l-0.5,2L23.6,35.5z"/>
	<path class="st237" d="M23,36.7l-0.6-0.4l1.2-0.7L23,36.7z"/>
	<path class="st238" d="M24.4,36.6l-0.8-1L23,36.7L24.4,36.6z"/>
	<path class="st239" d="M24.4,39.1L23,36.7l1.4-0.1L24.4,39.1z"/>
	<path class="st240" d="M25.7,38.5l-1.3-1.9l-0.1,2.5L25.7,38.5z"/>
	<path class="st239" d="M25.9,40.2l-1.5-1.1l1.4-0.6L25.9,40.2z"/>
	<path class="st101" d="M24.1,40.7l0.2-1.6l1.5,1.1L24.1,40.7z"/>
	<path class="st241" d="M23.6,35.5l0.5-1.7l0.9,0.5l-0.6,2.3L23.6,35.5z"/>
	<path class="st242" d="M24.8,31.5l-0.6,2.3l0.8-0.2L24.8,31.5z"/>
	<path class="st243" d="M25.9,32.1l-1.1-0.6l0.2,2.1L25.9,32.1z"/>
	<path class="st244" d="M25,34.3l-0.1-0.7l1-1.4L25,34.3z"/>
	<path class="st238" d="M24.1,33.8l0.9,0.5l-0.1-0.7L24.1,33.8z"/>
	<path class="st119" d="M25.4,31.4l1.7-0.1l-1.3,0.8L25.4,31.4z"/>
	<path class="st245" d="M28.3,32.1h-2.5l0.7-0.5L28.3,32.1z"/>
	<path class="st16" d="M27.1,31.3l-0.6,0.3l0.3,0.1l0.6-0.2L27.1,31.3z"/>
	<path class="st246" d="M28.3,32.1l-0.8-0.6l-0.6,0.2L28.3,32.1z"/>
	<path class="st246" d="M27.1,31.3l1-0.6l0.2,0.2l-0.9,0.6L27.1,31.3z"/>
	<path class="st247" d="M25.5,30.2l-0.4-1l0.6-0.2l0.2,0.3L25.5,30.2z"/>
	<path class="st225" d="M26.2,28.8l-0.5,0.3l0.2,0.3L26.2,28.8z"/>
	<path class="st224" d="M26.7,29.3l-0.5-0.5l-0.3,0.6L26.7,29.3z"/>
	<path class="st248" d="M26.5,28.7l-0.3,0.1l0.5,0.5L26.5,28.7z"/>
	<path class="st16" d="M27.2,28.3l-0.6,1l-0.2-0.6L27.2,28.3z"/>
	<path class="st249" d="M26.2,28.1l0.6,0.4l0.5-0.2L26.2,28.1z"/>
	<path class="st225" d="M26.2,27.8v0.3l1,0.2L26.2,27.8z"/>
	<path class="st250" d="M25.4,12.6l0.6-1.8l0.5,1.8H25.4z"/>
	<path class="st16" d="M24.8,14.1l0.6-1.5l0.6,0.8L24.8,14.1z"/>
	<path class="st251" d="M26.4,12.6h-1l0.6,0.8l0.6-0.3L26.4,12.6z"/>
	<path class="st252" d="M26,10.7l1.4,1.8h-1h-1L26,10.7z"/>
	<path class="st253" d="M27.4,15.9l-2.5-1.8l1.7-1L27.4,15.9z"/>
	<path class="st254" d="M26.4,12.6l0.2,0.5l0.8-0.5H26.4z"/>
	<path class="st255" d="M27.4,15.9v-3.3L26.6,13L27.4,15.9z"/>
	<path class="st256" d="M24.1,16.1l0.7-2l2.5,1.8L24.1,16.1z"/>
	<path class="st257" d="M24.8,19.7l1.4-0.3l-2.1-3.3L24.8,19.7z"/>
	<path class="st258" d="M27.4,15.9l-1.1,3.5l-2.1-3.3L27.4,15.9z"/>
	<path class="st16" d="M25.3,22.8l-0.5-3.1l1.4-0.3L25.3,22.8z"/>
	<path class="st259" d="M27.3,21l-1-1.6l1.1-3.5L27.3,21z"/>
	<path class="st260" d="M25.3,22.8l2-1.8l-1-1.6L25.3,22.8z"/>
	<path class="st261" d="M27.3,22.7V21l-2,1.8L27.3,22.7z"/>
	<path class="st262" d="M27.4,12.6v3.3l2.9-1.8L27.4,12.6z"/>
	<path class="st263" d="M28.8,11.4l-0.9,0.1l-0.6,1L28.8,11.4z"/>
	<path class="st254" d="M29.1,11.9l-1.7,0.6l1.4-1.1L29.1,11.9z"/>
	<path class="st16" d="M30.2,14.1l-1.2-2.1l-1.7,0.6L30.2,14.1z"/>
	<path class="st264" d="M29.6,9.3l-0.8,2.1l1.8-0.2L29.6,9.3z"/>
	<path class="st265" d="M30.2,14.1l0.4-2.8l-1.6,0.6L30.2,14.1z"/>
	<path class="st266" d="M28.8,11.4l0.2,0.5l1.6-0.6L28.8,11.4z"/>
	<path class="st267" d="M30.2,14.1l1.1-1.2l-0.7-1.6L30.2,14.1z"/>
	<path class="st268" d="M32.4,10.8l-1.7,0.5l1.8,0.3L32.4,10.8z"/>
	<path class="st16" d="M31.4,12.9l1.1-1.3l-1.8-0.3L31.4,12.9z"/>
	<path class="st269" d="M33,11.4l-0.6-0.6l0.1,0.8L33,11.4z"/>
	<path class="st16" d="M27.4,15.9L27.3,21l2.5-3.5L27.4,15.9z"/>
	<path class="st270" d="M30.2,14.1l-0.4,3.4l-2.5-1.6L30.2,14.1z"/>
	<path class="st271" d="M32.2,16.5l-2.4,1l0.4-3.4L32.2,16.5z"/>
	<path class="st272" d="M32.4,15.3l-2.1-1.2l2,2.4L32.4,15.3z"/>
	<path class="st273" d="M27.3,21l2.4-2.2l0.2-1.3L27.3,21z"/>
	<path class="st274" d="M30.6,18l-0.7-0.5l-0.2,1.3L30.6,18z"/>
	<path class="st275" d="M32.2,16.5L30.6,18l-0.7-0.5L32.2,16.5z"/>
	<path class="st276" d="M27.3,22.7l1.9-0.2l0.5-3.7L27.3,21V22.7z"/>
	<path class="st16" d="M30.6,18l-0.9,0.8l-0.5,3.7l1.7-0.2L30.6,18z"/>
	<path class="st16" d="M31.8,18.9l-1.3-1l1.7-1.5L31.8,18.9z"/>
	<path class="st277" d="M31.4,12.9l1,2.4l-2.1-1.2L31.4,12.9z"/>
	<path class="st272" d="M32.5,11.6l-1.1,1.3l1,2.4l0.4-2L32.5,11.6z"/>
	<path class="st16" d="M33,11.4l0.2,0.4l-0.7-0.2L33,11.4z"/>
	<path class="st278" d="M32.8,13.3l0.2-1.5l-0.6-0.2L32.8,13.3z"/>
	<path class="st279" d="M33.2,11.8l1,2.8l-1.4-1.4l0.2-1.5L33.2,11.8z"/>
	<path class="st280" d="M35.3,9.7L33,11.4l1.7-0.1L35.3,9.7z"/>
	<path class="st281" d="M35.6,11.3l-0.3-1.6l-0.6,1.7L35.6,11.3z"/>
	<path class="st16" d="M34.5,12.1l0.2-0.7L33,11.4L34.5,12.1z"/>
	<path class="st282" d="M35.6,11.3l-1.1,0.8l0.2-0.7L35.6,11.3z"/>
	<path class="st283" d="M34.1,14.6l0.3-2.5l-1.3-0.2L34.1,14.6z"/>
	<path class="st284" d="M33,11.4l0.2,0.4l1.3,0.2L33,11.4z"/>
	<path class="st16" d="M32.8,13.3l0.3,2.4l1-1L32.8,13.3z"/>
	<path class="st285" d="M32.2,16.5l0.9-0.8l-0.3-2.4l-0.4,1.8L32.2,16.5z"/>
	<path class="st16" d="M33.5,17.2l-1.3-0.7l0.9-0.8L33.5,17.2z"/>
	<path class="st286" d="M34.1,16.7l-0.6,0.5l-0.4-1.5L34.1,16.7z"/>
	<path class="st287" d="M34.1,14.6l1.4,0.5l-2.5,0.6L34.1,14.6z"/>
	<path class="st288" d="M34.1,16.7l1.5-1.6l-2.5,0.6L34.1,16.7z"/>
	<path class="st289" d="M31.8,18.9l1.7-1.7l-1.3-0.7L31.8,18.9z"/>
	<path class="st290" d="M30.6,18l0.4,4.3h0.3l0.6-3.3L30.6,18z"/>
	<path class="st16" d="M25.3,22.8l0.3,2h1.7v-2.1L25.3,22.8z"/>
	<path class="st291" d="M29.2,22.5l-1.9,0.2v2.1l1.7-0.1L29.2,22.5z"/>
	<path class="st292" d="M25.6,24.8l0.6,3l1,0.5l0.1-3.5H25.6z"/>
	<path class="st293" d="M30.2,30.3l-1.6,0.1l-0.1,3.4l0.5-0.1l0.9-0.6L30.2,30.3z"/>
	<path class="st294" d="M31,22.3l-1.7,0.2l-0.2,1.1L31,22.3z"/>
	<path class="st295" d="M29,24.7l1.9-0.1l0.2-0.9L31,22.3l-1.9,1.4L29,24.7z"/>
	<path class="st296" d="M31.3,22.3L31,23.8L31,22.3H31.3z"/>
	<path class="st16" d="M31.8,18.9l1.6,3.1l-2.1,0.2L31.8,18.9z"/>
	<path class="st297" d="M29.9,33.2l2.3-2.6v-0.3l-2,0.1L29.9,33.2z"/>
	<path class="st296" d="M31,23.8l0.1,0.9h-0.2L31,23.8z"/>
	<path class="st250" d="M30.9,25l0.2-0.4h-0.2V25z"/>
	<path class="st298" d="M29.9,33.2L29.6,34l-0.5,0.1L29,34.7l0.6,0.2l0.6-0.3L29.9,33.2z"/>
	<path class="st299" d="M30.5,33.3l-0.6-0.2l0.2,1.4L30.5,33.3z"/>
	<path class="st300" d="M29.5,26.6l-0.3,1.3l-0.6-0.2L29.5,26.6z"/>
	<path class="st16" d="M31.6,33.5L30.8,32l1.4-1.5L31.6,33.5z"/>
	<path class="st301" d="M30.5,33.3l0.3-1.3l0.8,1.5L30.5,33.3z"/>
	<path class="st302" d="M30.1,34.6l1.5-1l-1.1-0.2L30.1,34.6z"/>
	<path class="st303" d="M32.2,30.5l-0.6,3l2.5-1.6L33,31.2l-0.6-1L32.2,30.5z"/>
	<path class="st304" d="M33.4,22l-2.3,2.6L31,23.8l0.2-1.5L33.4,22z"/>
	<path class="st305" d="M28.8,29.1l-0.6,1.7l0.2,0.2l0.6-1.5L28.8,29.1z"/>
	<path class="st306" d="M29.2,30.6l-0.8,0.3l0.2-0.4l0.7-0.4v0.2L29.2,30.6z"/>
	<path class="st249" d="M30.1,34.6l0.5,1.1l0.2-0.6L30.1,34.6z"/>
	<path class="st307" d="M30.3,28.1l-1.5,1l0.8,0.6L30.3,28.1z"/>
	<path class="st16" d="M30,30l0.3-2l-0.7,1.6L30,30z"/>
	<path class="st308" d="M29.3,30.1l0.3-0.5L30,30L29.3,30.1z"/>
	<path class="st309" d="M29.2,30.6l0.1-0.2v-0.2L30,30l-0.4,0.2l0.6-0.1l0.1,0.2L29.2,30.6z"/>
	<path class="st248" d="M30.3,28.1l0.4,1.3L30,30L30.3,28.1z"/>
	<path class="st248" d="M30.2,30.2L30,30l-0.4,0.2L30.2,30.2z"/>
	<path class="st246" d="M30.7,29.3L30.5,30L30,30L30.7,29.3z"/>
	<path class="st246" d="M30.3,30.4l0.2-0.4L30,30.1L30.3,30.4z"/>
	<path class="st310" d="M30.7,29.3L31,30h-0.5L30.7,29.3z"/>
	<path class="st311" d="M30.3,30.4l0.2-0.4H31l0.1,0.2L30.3,30.4z"/>
	<path class="st312" d="M27.5,31.5l2.1,0.6l-1.3,0.1L27.5,31.5z"/>
	<path class="st246" d="M29,32.9l-0.6-0.8h0.4L29,32.9z"/>
	<path class="st313" d="M29.6,32l-0.9,0.1l0.2,0.8L29.6,32z"/>
	<path class="st119" d="M29.5,32.5L29,32.9l0.6-0.9L29.5,32.5z"/>
	<path class="st246" d="M30.2,31.7L29.6,32l0.9-0.2L30.2,31.7z"/>
	<path class="st314" d="M29.5,32.5l0.1-0.5l0.9-0.2L31,32L29.5,32.5z"/>
	<path class="st315" d="M31,30.1l-0.7,0.2l0.4,0.3L31,30.1z"/>
	<path class="st316" d="M30.2,31.7l0.5-1V31l-0.2,0.8L30.2,31.7z"/>
	<path class="st317" d="M31,30.1l0.2,0.6L30.7,31v-0.3L31,30.1z"/>
	<path class="st318" d="M30.5,31.8l1-0.5L31,32L30.5,31.8z"/>
	<path class="st319" d="M31.8,31.6L31,32l0.5-0.6L31.8,31.6z"/>
	<path class="st320" d="M30.3,28.1l3.1-1.3l-0.6-0.4L30.3,28.1z"/>
	<path class="st16" d="M32,34.9l-0.4-1.4l3.1-1.2L32,34.9z"/>
	<path class="st321" d="M31,30l0.8-0.1l1.7-3.1l-2.7,2.5L31,30z"/>
	<path class="st16" d="M31.2,30.7l0.6-0.8L31,30L31.2,30.7z"/>
	<path class="st322" d="M33.4,26.8l-0.2,1.9l-1.4,1.2L33.4,26.8z"/>
	<path class="st16" d="M34,28.1l-0.6-1.4l-0.2,1.9L34,28.1z"/>
	<path class="st323" d="M31.8,29.9l2.6-0.5L34,28.1L31.8,29.9z"/>
	<path class="st324" d="M34.5,27.7l-0.2,1.7L34,28.1L34.5,27.7z"/>
	<path class="st325" d="M35.7,28.5l-1.1-0.9l-0.2,1.7L35.7,28.5z"/>
	<path class="st326" d="M31.8,29.9l0.2,0.3l0.6-0.1L31.8,29.9z"/>
	<path class="st327" d="M34.4,29.4l-2.6,0.5l0.9,0.2L34.4,29.4z"/>
	<path class="st328" d="M32,30.2l0.2,0.2l0.6,0.1l-0.1-0.4L32,30.2z"/>
	<path class="st329" d="M31.5,31.3l0.3-0.1l-0.1,0.4L31.5,31.3z"/>
	<path class="st318" d="M32.2,31.3l-0.3-0.1l-0.1,0.4l0.5-0.1L32.2,31.3z"/>
	<path class="st246" d="M32.7,31l-0.6,0.3l0.1,0.2l0.6-0.2L32.7,31z"/>
	<path class="st314" d="M31.8,31.6l0.8,1.1l-0.3-1.2L31.8,31.6z"/>
	<path class="st311" d="M32.7,30.5V31l0.5-0.1L32.7,30.5z"/>
	<path class="st311" d="M32.6,30.1l0.8,0.3l-0.7,0.1L32.6,30.1z"/>
	<path class="st16" d="M34.4,29.4l-1.7,0.7l0.8,0.3L34.4,29.4z"/>
	<path class="st330" d="M34.3,30.7l-0.9-0.2l1-1L34.3,30.7z"/>
	<path class="st331" d="M32.7,30.5l0.5,0.4l0.2-0.5L32.7,30.5z"/>
	<path class="st311" d="M32.9,31.3l0.3-0.4L32.7,31L32.9,31.3z"/>
	<path class="st16" d="M34.3,30.7l-1.1,0.2l0.2-0.5L34.3,30.7z"/>
	<path class="st332" d="M34.3,31.2l-0.6-0.1l0.6-0.5V31.2z"/>
	<path class="st333" d="M33.2,30.9l0.5,0.2l0.6-0.5L33.2,30.9z"/>
	<path class="st329" d="M32.9,31.3l0.4,0.1l-0.1-0.5L32.9,31.3z"/>
	<path class="st334" d="M33.7,31.2l-0.5-0.2l0.1,0.5L33.7,31.2z"/>
	<path class="st311" d="M34.3,31.2L34,31.4l-0.6,0.1l-0.2-0.1l0.4-0.2L34.3,31.2z"/>
	<path class="st16" d="M32.4,32.1h0.4l-0.2,0.6L32.4,32.1z"/>
	<path class="st335" d="M33.3,31.4l-0.5,0.7H33l0.5-0.6L33.3,31.4z"/>
	<path class="st336" d="M33.7,31.7l-0.2-0.2l0.6-0.1L33.7,31.7z"/>
	<path class="st337" d="M32.6,32.8l0.8-0.5L33,32.1h-0.2L32.6,32.8z"/>
	<path class="st313" d="M33.5,32L33,32.1l0.4,0.2L33.5,32z"/>
	<path class="st338" d="M33.7,31.7L33.5,32l0.1,0.2l0.4-0.8L33.7,31.7z"/>
	<path class="st339" d="M33.4,32.3l1.1,0.5l-0.9-0.6L33.5,32L33.4,32.3z"/>
	<path class="st340" d="M34.5,31.9l-0.6,0.5l0.6,0.4l-0.1-0.5L34.5,31.9z"/>
	<path class="st16" d="M34.7,31.3l-0.2,0.6l-0.1,0.4l0.3-0.5l0.7-0.2L34.7,31.3z"/>
	<path class="st341" d="M34.4,29.4l-0.1,1.3l0.4,0.6l0.7,0.2L34.4,29.4z"/>
	<path class="st342" d="M35.7,28.5l0.7,0.5l-2,0.4L35.7,28.5z"/>
	<path class="st16" d="M35.4,31.6l1-2.5l-2,0.4L35.4,31.6z"/>
	<path class="st343" d="M36.7,31.6h-1.3l1-2.5L36.7,31.6z"/>
	<path class="st245" d="M35.2,32.3l0.2-0.7l0.3,0.2L35.2,32.3z"/>
	<path class="st16" d="M36.7,31.6l-1,0.2l-0.3-0.2H36.7z"/>
	<path class="st335" d="M34.4,32.3l0.1,0.5l0.7-0.5H34.4z"/>
	<path class="st314" d="M35.4,34.3l-1-1.5l0.7-0.2L35.4,34.3z"/>
	<path class="st303" d="M34.7,31.2l-0.5,3l2.5-1.7l-1.2-0.8l-0.6-1L34.7,31.2z"/>
	<path class="st246" d="M35.3,31.6L34.8,32l0.1,0.2l0.6-0.2L35.3,31.6z"/>
	<path class="st333" d="M33.7,31.2l3.2,0.1l-3.7-0.3"/>
	<path class="st329" d="M33.2,30.9l2.3,1l-2.2-0.5"/>
	<path class="st337" d="M33,32.1l2.5,0.6l-2.9,0.1"/>
	<path class="st338" d="M33.6,32.2l2.9-0.2l-2.9-0.2"/>
	<path class="st339" d="M33.6,32.2l2.5,0.5l-2.8-0.4"/>
	<path class="st314" d="M38,34.8l-1-1.5l0.7-0.1L38,34.8z"/>
	<path class="st314" d="M35.2,32.3v0.3l-0.7,0.2L35.2,32.3z"/>
	<path class="st245" d="M27,26.9h-2.5l0.8-0.5L27,26.9z"/>
	<path class="st246" d="M27,26.9l-0.8-0.6l-0.7,0.2L27,26.9z"/>
	<path class="st246" d="M25.8,26.2l1-0.6l0.2,0.2l-0.9,0.6L25.8,26.2z"/>
	<path class="st293" d="M28.8,25.1l-1.6,0.1l-0.1,3.4l0.5-0.1l0.9-0.6L28.8,25.1z"/>
	<path class="st297" d="M28.5,28l2.2-2.6l0.1-0.3l-2,0.1L28.5,28z"/>
	<path class="st298" d="M28.5,28l-0.3,0.9l-0.4,0.1l-0.2,0.6l0.6,0.2l0.6-0.3L28.5,28z"/>
	<path class="st299" d="M29.1,28.1L28.5,28l0.2,1.4L29.1,28.1z"/>
	<path class="st16" d="M30.2,28.4l-0.8-1.5l1.3-1.5L30.2,28.4z"/>
	<path class="st301" d="M29.1,28.1l0.4-1.3l0.8,1.5L29.1,28.1z"/>
	<path class="st302" d="M28.7,29.4l1.5-1l-1.2-0.2L28.7,29.4z"/>
	<path class="st303" d="M30.7,25.4l-0.5,3l2.5-1.6L31.6,26L31,25L30.7,25.4z"/>
	<path class="st305" d="M27.5,23.9l-0.6,1.7l0.2,0.2l0.5-1.5L27.5,23.9z"/>
	<path class="st306" d="M27.9,25.4l-0.8,0.3l0.2-0.4l0.7-0.4v0.2L27.9,25.4z"/>
	<path class="st307" d="M29,22.9l-1.5,1l0.7,0.6L29,22.9z"/>
	<path class="st16" d="M28.7,24.9l0.3-2l-0.8,1.6L28.7,24.9z"/>
	<path class="st308" d="M27.9,25l0.2-0.5l0.5,0.4L27.9,25z"/>
	<path class="st309" d="M27.9,25.4l0.1-0.2V25l0.7-0.1l-0.4,0.2h0.6l0.1,0.1L27.9,25.4z"/>
	<path class="st248" d="M29,22.9l0.4,1.3l-0.7,0.7L29,22.9z"/>
	<path class="st248" d="M28.9,25.1l-0.2-0.2l-0.4,0.2H28.9z"/>
	<path class="st246" d="M29.4,24.2l-0.2,0.6l-0.5,0.1L29.4,24.2z"/>
	<path class="st246" d="M29,25.2l0.2-0.4l-0.5,0.1L29,25.2z"/>
	<path class="st310" d="M29.4,24.2l0.2,0.6h-0.5L29.4,24.2z"/>
	<path class="st311" d="M29,25.2l0.2-0.4h0.5V25L29,25.2z"/>
	<path class="st312" d="M26.2,26.3l2,0.6L27,26.9L26.2,26.3z"/>
	<path class="st246" d="M27.6,27.7L27,26.9h0.4L27.6,27.7z"/>
	<path class="st313" d="M28.2,26.9l-0.8,0.1l0.2,0.8L28.2,26.9z"/>
	<path class="st119" d="M28.2,27.3l-0.6,0.4l0.6-0.9V27.3z"/>
	<path class="st246" d="M28.9,26.6l-0.7,0.3l1-0.2L28.9,26.6z"/>
	<path class="st314" d="M28.2,27.3v-0.5l1-0.2l0.5,0.2L28.2,27.3z"/>
	<path class="st315" d="M29.6,25L29,25.2l0.4,0.4L29.6,25z"/>
	<path class="st316" d="M28.9,26.6l0.5-1v0.2l-0.2,0.8L28.9,26.6z"/>
	<path class="st317" d="M29.6,25l0.2,0.6l-0.5,0.2v-0.2L29.6,25z"/>
	<path class="st318" d="M29.1,26.6l1-0.5l-0.6,0.6L29.1,26.6z"/>
	<path class="st319" d="M30.4,26.5l-0.8,0.3l0.6-0.6L30.4,26.5z"/>
	<path class="st16" d="M30.6,29.7l-0.4-1.4l3.1-1.2L30.6,29.7z"/>
	<path class="st321" d="M29.6,24.8l0.7-0.1l1.7-3.1l-2.7,2.5L29.6,24.8z"/>
	<path class="st16" d="M29.9,25.6l0.5-0.9l-0.7,0.1L29.9,25.6z"/>
	<path class="st322" d="M32.1,21.6l-0.2,1.9l-1.5,1.2L32.1,21.6z"/>
	<path class="st16" d="M32.6,23l-0.5-1.4l-0.2,1.9L32.6,23z"/>
	<path class="st323" d="M30.3,24.7l2.7-0.5L32.6,23L30.3,24.7z"/>
	<path class="st324" d="M33.2,22.5L33,24.2L32.6,23L33.2,22.5z"/>
	<path class="st325" d="M34.3,23.4l-1.1-0.9L33,24.2L34.3,23.4z"/>
	<path class="st326" d="M30.3,24.7l0.3,0.3l0.6-0.1L30.3,24.7z"/>
	<path class="st327" d="M33,24.2l-2.7,0.5l1,0.2L33,24.2z"/>
	<path class="st328" d="M30.6,25l0.2,0.2l0.6,0.1L31.3,25L30.6,25z"/>
	<path class="st329" d="M30.2,26.2l0.3-0.1l-0.1,0.4L30.2,26.2z"/>
	<path class="st318" d="M30.8,26.2l-0.3-0.1l-0.1,0.4l0.5-0.1L30.8,26.2z"/>
	<path class="st246" d="M31.4,25.8l-0.6,0.3l0.1,0.2l0.6-0.2L31.4,25.8z"/>
	<path class="st314" d="M30.4,26.5l0.8,1.1l-0.3-1.2L30.4,26.5z"/>
	<path class="st311" d="M31.4,25.4v0.5l0.5-0.1L31.4,25.4z"/>
	<path class="st311" d="M31.3,25l0.8,0.3l-0.7,0.1L31.3,25z"/>
	<path class="st16" d="M33,24.2L31.3,25l0.8,0.3L33,24.2z"/>
	<path class="st330" d="M33,25.5l-0.9-0.2l1-1L33,25.5z"/>
	<path class="st331" d="M31.4,25.4l0.5,0.4l0.2-0.5L31.4,25.4z"/>
	<path class="st311" d="M31.5,26.2l0.3-0.4l-0.5,0.1L31.5,26.2z"/>
	<path class="st16" d="M33,25.5l-1.1,0.2l0.2-0.5L33,25.5z"/>
	<path class="st332" d="M33,26.1L32.3,26l0.6-0.5V26.1z"/>
	<path class="st333" d="M31.8,25.8l0.5,0.2l0.6-0.5L31.8,25.8z"/>
	<path class="st329" d="M31.5,26.2l0.4,0.1l-0.1-0.5L31.5,26.2z"/>
	<path class="st334" d="M32.3,26l-0.5-0.2l0.1,0.5L32.3,26z"/>
	<path class="st311" d="M33,26.1l-0.3,0.2L32,26.3l-0.1-0.1l0.4-0.2L33,26.1z"/>
	<path class="st16" d="M31,26.9h0.4l-0.2,0.6L31,26.9z"/>
	<path class="st335" d="M31.9,26.2l-0.5,0.7h0.2L31.9,26.2L31.9,26.2z"/>
	<path class="st336" d="M32.3,26.6L32,26.3l0.6-0.1L32.3,26.6z"/>
	<path class="st337" d="M31.2,27.6l0.8-0.5l-0.4-0.2h-0.2L31.2,27.6z"/>
	<path class="st313" d="M32.2,26.9l-0.6,0.1l0.4,0.2L32.2,26.9z"/>
	<path class="st338" d="M32.3,26.6l-0.2,0.3l0.1,0.2l0.4-0.8L32.3,26.6z"/>
	<path class="st339" d="M32,27.1l1.1,0.5L32.2,27l-0.1-0.2L32,27.1z"/>
	<path class="st340" d="M33.1,26.7l-0.6,0.5l0.6,0.4L33,27.1L33.1,26.7z"/>
	<path class="st16" d="M33.4,26.2l-0.2,0.6L33,27.1l0.4-0.5l0.7-0.2L33.4,26.2z"/>
	<path class="st341" d="M33,24.2L33,25.5l0.4,0.6l0.7,0.2L33,24.2z"/>
	<path class="st342" d="M34.3,23.4l0.7,0.5l-2,0.4L34.3,23.4z"/>
	<path class="st16" d="M34.1,26.4l1-2.5l-2,0.4L34.1,26.4z"/>
	<path class="st335" d="M33,27.1l0.2,0.5l0.7-0.5H33z"/>
	<path class="st314" d="M34.1,29.1l-1-1.5l0.7-0.2L34.1,29.1z"/>
	<path class="st303" d="M33.4,26l-0.5,3l2.5-1.7l-1.2-0.8l-0.6-0.9L33.4,26z"/>
	<path class="st246" d="M33.9,26.4l-0.5,0.4l0.1,0.2l0.6-0.2L33.9,26.4z"/>
	<path class="st333" d="M32.3,26l3.2,0.1l-3.7-0.3"/>
	<path class="st329" d="M31.8,25.8l2.3,1l-2.2-0.5"/>
	<path class="st337" d="M31.6,26.9l2.5,0.6l-2.9,0.1"/>
	<path class="st338" d="M32.2,27l2.9-0.2l-2.9-0.2"/>
	<path class="st339" d="M32.2,27l2.5,0.5L32,27.1"/>
	<path class="st314" d="M33.8,27.1v0.3l-0.7,0.2L33.8,27.1z"/>
	<path class="st344" d="M35.5,32.3h-0.3v0.3h0.5L35.5,32.3z"/>
	<path class="st319" d="M35.4,34.3l0.2-1.7h-0.5L35.4,34.3z"/>
	<path class="st337" d="M35.7,31.8l-0.6,0.5h0.3L35.7,31.8z"/>
	<path class="st335" d="M36.7,31.6l-0.2,0.6l0.5-0.5L36.7,31.6z"/>
	<path class="st345" d="M36.2,32.5l0.5-0.2l0.2-0.6l-0.5,0.5L36.2,32.5z"/>
	<path class="st319" d="M35.5,32.3l0.2,0.3l0.5-0.1L35.5,32.3z"/>
	<path class="st319" d="M36.8,32.7l-1.1-0.1l0.5-0.1L36.8,32.7z"/>
	<path class="st346" d="M36.5,34.7l-0.8-2.1l1.1,0.1L36.5,34.7z"/>
	<path class="st346" d="M37.1,32.5l-0.3,0.2l1,1.2L37.1,32.5z"/>
	<path class="st345" d="M36.5,34.7l1.3-0.8l-1-1.2L36.5,34.7z"/>
	<path class="st16" d="M37.6,31.8l-0.5,0.7l1.2-0.1L37.6,31.8z"/>
	<path class="st16" d="M37.7,33.9l-0.6-1.4l1.2-0.1l0.7,0.6L37.7,33.9z"/>
	<path class="st16" d="M38.3,34.5l-1.8,0.2l1.3-0.8L38.3,34.5z"/>
	<path class="st345" d="M39,33.1l-0.2,1.4l-0.5,0.1l-0.6-0.6L39,33.1z"/>
	<path class="st347" d="M36.5,34.7l2,1.9l0.2-1.7l-0.4-0.4L36.5,34.7z"/>
	<path class="st16" d="M38.8,34.4l-0.1,0.5l-0.4-0.4L38.8,34.4z"/>
	<path class="st347" d="M38.4,36.6l1.5-0.2l-1.3-1.5L38.4,36.6z"/>
	<path class="st348" d="M39,33.1l1.3,1.2l-1.5,0.2L39,33.1z"/>
	<path class="st16" d="M38.7,34.9l0.1-0.5l1.5-0.2L40,36.4L38.7,34.9z"/>
	<path class="st345" d="M41.5,35.4l-1.5,1l1.7,0.7L41.5,35.4z"/>
	<path class="st349" d="M42.4,36.3l-1-0.9l0.2,1.7L42.4,36.3z"/>
	<path class="st350" d="M40.3,34.3l1.2,1.1l-1.5,1L40.3,34.3z"/>
	<path class="st351" d="M39,33.1l3.3,1l-0.8,1.3L39,33.1z"/>
	<path class="st352" d="M43,34.3l-0.7-0.2l-0.8,1.3L43,34.3z"/>
	<path class="st353" d="M42.4,36.3l0.6-1.9l-1.5,1L42.4,36.3z"/>
	<path class="st16" d="M43.8,36.3h-1.4l0.6-1.9L43.8,36.3z"/>
	<path class="st354" d="M38.3,32.4l1.8-0.2L39,33.1L38.3,32.4z"/>
	<path class="st346" d="M42.3,34.1l-3.3-1l1.1-0.8l3.6-0.3L42.3,34.1z"/>
	<path class="st16" d="M43,34.3l-0.7-0.2l1.4-2.1L43,34.3z"/>
	<path class="st355" d="M44.6,31.8l-1,0.2L43,34.3l1.7-1.3L44.6,31.8z"/>
	<path class="st356" d="M44.9,34.6l-0.2-1.5L43,34.3L44.9,34.6z"/>
	<path class="st357" d="M43.8,36.3l1.1-1.7L43,34.3L43.8,36.3z"/>
	<path class="st358" d="M46.2,34.9l-1.4-0.3l1.1-0.2L46.2,34.9z"/>
	<path class="st359" d="M47.2,34L46,34.3l0.2,0.6L47.2,34z"/>
	<path class="st360" d="M44.9,34.6l-0.2-1.5l0.6-0.4L44.9,34.6z"/>
	<path class="st16" d="M46,34.3l-0.6-1.7l-0.5,1.9L46,34.3z"/>
	<path class="st124" d="M47.2,34l-1.8-1.4l0.6,1.7L47.2,34z"/>
	<path class="st361" d="M44.6,31.8l0.1,1.3l0.6-0.4l0.2-1L44.6,31.8z"/>
	<path class="st314" d="M46.3,31.7h-0.7l-0.2,1L46.3,31.7z"/>
	<path class="st362" d="M37.6,31.8l2.7-1.4l-0.2,1.8l-1.8,0.2L37.6,31.8z"/>
	<path class="st16" d="M36.7,31.6L36.4,29l1.5-0.2l-1,2.9L36.7,31.6z"/>
	<path class="st363" d="M37.6,31.2l-0.7,0.5l1-2.9L37.6,31.2z"/>
	<path class="st16" d="M39.6,30.1l-1.7-1.3l-0.2,2.4L39.6,30.1z"/>
	<path class="st364" d="M37.6,31.8l-0.6-0.2l0.8-0.5l1.9-1.1L37.6,31.8z"/>
	<path class="st365" d="M40.3,30.4L39.6,30l-2.1,1.7L40.3,30.4z"/>
	<path class="st16" d="M35.6,15.1l-0.2,1.8l-1,0.2v-0.7L35.6,15.1z"/>
	<path class="st366" d="M34.1,16.7l0.3-0.3v0.7L34.1,16.7z"/>
	<path class="st367" d="M33.5,17.2l0.6-0.5l0.3,0.4L33.5,17.2z"/>
	<path class="st16" d="M31.8,18.9l2.7,1.8l-1-3.6L31.8,18.9z"/>
	<path class="st368" d="M34.4,17.1L34,18.6l-0.5-1.4L34.4,17.1z"/>
	<path class="st369" d="M35.6,15.1l1.6,2.6l-1.7-0.8L35.6,15.1z"/>
	<path class="st16" d="M35.3,18.1l-1-1L34,18.6L35.3,18.1z"/>
	<path class="st370" d="M35.4,16.9l-1,0.2l1,1L35.4,16.9z"/>
	<path class="st371" d="M37.2,17.7L35.3,20l0.1-1.9l0.1-1.2L37.2,17.7z"/>
	<path class="st368" d="M34,18.6l0.6,2.1l0.7-0.7L34,18.6z"/>
	<path class="st372" d="M35.3,18.1L34,18.6l1.3,1.4L35.3,18.1z"/>
	<path class="st373" d="M31.8,18.9l1.6,3.1l1.1-1.3L31.8,18.9z"/>
	<path class="st16" d="M37.2,17.7l-0.3,1.4l-0.4-0.6L37.2,17.7z"/>
	<path class="st374" d="M38.7,17.3l-0.5,1l-1-0.6L38.7,17.3z"/>
	<path class="st375" d="M40,19.4l-1.8-1l0.5-1L40,19.4z"/>
	<path class="st376" d="M36.2,21.9l1-4.2l1,0.6L36.2,21.9z"/>
	<path class="st377" d="M40,19.4l-1.8-1l0.4,1.8L40,19.4z"/>
	<path class="st16" d="M36.2,21.9l2.4-1.7l-0.4-1.8L36.2,21.9z"/>
	<path class="st378" d="M36.5,18.6L35.3,20l-0.7,0.7l2.3-1.6L36.5,18.6z"/>
	<path class="st379" d="M35.1,21.1l0.1-0.7l1.7-1.2l-0.6,2.8L35.1,21.1z"/>
	<path class="st16" d="M34.5,20.7l0.6,0.3l0.1-0.7L34.5,20.7z"/>
	<path class="st16" d="M34.7,23.8L33.4,22l1.1-1.3L34.7,23.8z"/>
	<path class="st380" d="M31.1,24.6l2.3-2.6l1.3,1.8L31.1,24.6z"/>
	<path class="st381" d="M31.8,25.6l-0.6-1l3.6-0.1L31.8,25.6z"/>
	<path class="st16" d="M34.7,23.8l-3.6,0.8l3.6-0.1V23.8z"/>
	<path class="st382" d="M32.9,26.4l-1.1-0.8h2.4L32.9,26.4z"/>
	<path class="st383" d="M34.7,24.6l-2.9,1h2.4L34.7,24.6z"/>
	<path class="st384" d="M34.8,25.2l-0.1-0.6l-0.6,1L34.8,25.2z"/>
	<path class="st16" d="M33.4,26.8l0.7-1.2l-1.3,0.8L33.4,26.8z"/>
	<path class="st385" d="M34.5,20.7l0.2,3.8l0.1,0.6l0.1-1l0.2-3.2L34.5,20.7z"/>
	<path class="st386" d="M36.2,21.9l-1.1-0.9l-0.2,3.2L36.2,21.9z"/>
	<path class="st16" d="M34.9,24.6l1-0.1l0.4-2.5l-1.4,2.3V24.6z"/>
	<path class="st16" d="M34.8,25.2l1-0.7l-1,0.1L34.8,25.2z"/>
	<path class="st387" d="M34,28.1l-0.6-1.4l0.7-1.2l0.6-0.4l-0.2,2.5L34,28.1z"/>
	<path class="st388" d="M35.7,28.5l1.2-0.9h-2.3L35.7,28.5z"/>
	<path class="st382" d="M34.8,25.2l-0.2,2.5h2.3L34.8,25.2z"/>
	<path class="st389" d="M35.8,24.5l-1,0.7l2.7,0.9L35.8,24.5z"/>
	<path class="st16" d="M36.8,27.7l0.6-1.6l-2.7-0.9L36.8,27.7z"/>
	<path class="st16" d="M36.4,29l0.5-1.4l-1.2,0.9L36.4,29z"/>
	<path class="st390" d="M40,19.4l-1.4,0.8l-2.4,1.7l2.9-0.2L40,19.4z"/>
	<path class="st391" d="M40.2,21.6l-1,0.1l0.9-2.3L40.2,21.6z"/>
	<path class="st392" d="M35.8,24.5l0.4-2.5l1.7,1.1L35.8,24.5z"/>
	<path class="st393" d="M40.2,21.6l-4,0.3l1.7,1.1L40.2,21.6z"/>
	<path class="st394" d="M35.8,24.5l2.2-0.1L38,23.1L35.8,24.5z"/>
	<path class="st395" d="M38.4,23.4l-0.4,1L38,23.1L38.4,23.4z"/>
	<path class="st396" d="M38.8,22.5L38,23.1l0.5,0.3L38.8,22.5z"/>
	<path class="st16" d="M37.5,26.1l0.6-1.7l-2.2,0.1L37.5,26.1z"/>
	<path class="st397" d="M37.9,28.8L36.4,29l0.5-1.4L37.9,28.8z"/>
	<path class="st398" d="M37.5,26.1l0.5,0.2l-0.1,2.5l-1-1.1L37.5,26.1z"/>
	<path class="st399" d="M38,24.4L38,26.2l-0.5-0.2L38,24.4z"/>
	<path class="st400" d="M39.4,24l-0.6-1.5l-0.3,0.9L39.4,24z"/>
	<path class="st401" d="M38,24.4l0.4-1l1,0.6L38,24.4z"/>
	<path class="st402" d="M38.6,26.5L38,26.2l0.1-1.8h1.3L38.6,26.5z"/>
	<path class="st16" d="M39.4,24l-0.1,0.4H38L39.4,24z"/>
	<path class="st16" d="M40.2,21.6L39.4,24l-0.6-1.5L40.2,21.6z"/>
	<path class="st16" d="M38.6,26.5l-0.7,2.3l0.1-2.5L38.6,26.5z"/>
	<path class="st16" d="M39.3,24.4l0.1,2.4l-0.8-0.3L39.3,24.4z"/>
	<path class="st403" d="M37.9,28.8l1.7-0.3l-0.2-1.7l-0.8-0.3L37.9,28.8z"/>
	<path class="st16" d="M39.6,28.8h-1.7l1.7-0.3V28.8z"/>
	<path class="st404" d="M39.6,30.1l-0.1-1.3h-1.7L39.6,30.1z"/>
	<path class="st405" d="M40.1,32.3l3.5-2.3l-0.1-1.1l-3.3,1.6L40.1,32.3z"/>
	<path class="st16" d="M43.7,32l-0.1-2l-3.5,2.3L43.7,32z"/>
	<path class="st406" d="M43.5,28.9l1,0.6L43.6,30L43.5,28.9z"/>
	<path class="st406" d="M43.7,32l0.8-2.5L43.6,30L43.7,32z"/>
	<path class="st16" d="M44.6,31.8l-0.2-2.4L43.7,32L44.6,31.8z"/>
	<path class="st407" d="M45.6,31.7l0.3-1.4l-1.4-0.9l0.2,2.4L45.6,31.7z"/>
	<path class="st408" d="M46.2,28.7l-1.7,0.7l1.4,0.9L46.2,28.7z"/>
	<path class="st314" d="M45.6,31.7h0.7l-0.4-1.4L45.6,31.7z"/>
	<path class="st409" d="M39.6,30l2.1-1.2l-1.5,1.6L39.6,30z"/>
	<path class="st410" d="M43.5,28.9h-1.7l-1.5,1.6L43.5,28.9z"/>
	<path class="st16" d="M39.6,28.8l2.2,0.1l-2.1,1.2L39.6,28.8z"/>
	<path class="st411" d="M39.6,28.5l3.2-0.6l-1,1l-2.2-0.1V28.5z"/>
	<path class="st410" d="M43.5,28.9h-1.7l1-1L43.5,28.9z"/>
	<path class="st412" d="M43.9,27.7l-1.2,0.2l0.8,1L43.9,27.7z"/>
	<path class="st413" d="M39.4,26.8l3.3,1.1l-3.2,0.6L39.4,26.8z"/>
	<path class="st414" d="M41.6,26.6h1.6l-0.5,1.3L41.6,26.6z"/>
	<path class="st16" d="M39.4,26.8l3.3,1.1l-1.1-1.3L39.4,26.8z"/>
	<path class="st415" d="M43.9,27.7l-0.7-1l-0.5,1.3L43.9,27.7z"/>
	<path class="st416" d="M39.4,24l0.3,0.4l-0.3,2.4l-0.1-2.4L39.4,24z"/>
	<path class="st417" d="M41.6,26.6l-1.9-2.2l-0.3,2.4L41.6,26.6z"/>
	<path class="st16" d="M43.2,26.6L39.4,24l2.2,2.6H43.2z"/>
	<path class="st418" d="M40.2,21.6L39.4,24l0.5,0.3l1.9-0.1L40.2,21.6z"/>
	<path class="st419" d="M42.5,20.9l-2.3,0.7l2.5,0.3L42.5,20.9z"/>
	<path class="st420" d="M42.1,23.4l-1.9-1.7l2.5,0.3L42.1,23.4z"/>
	<path class="st421" d="M41.8,24.2l0.3-0.9l-1.9-1.7L41.8,24.2z"/>
	<path class="st422" d="M42.2,21l0.1-1.2l0.2,1.1L42.2,21z"/>
	<path class="st423" d="M44.1,20.4l-1.6,0.5l-0.2-1.1L44.1,20.4z"/>
	<path class="st424" d="M43.1,24.2l1-3.8l-1.6,0.5L43.1,24.2z"/>
	<path class="st425" d="M42.1,23.4l1,0.9l-0.4-2.3L42.1,23.4z"/>
	<path class="st426" d="M41.8,24.2h1.3l-1-0.9L41.8,24.2z"/>
	<path class="st427" d="M43.2,26.6l-1.4-2.4l-1.9,0.1L43.2,26.6z"/>
	<path class="st428" d="M43.1,24.2l0.2,2.4l-1.4-2.4H43.1z"/>
	<path class="st429" d="M44.4,24l-1.2,2.6l-0.2-2.4L44.4,24z"/>
	<path class="st430" d="M45.1,25.7v-0.9L44.4,24L45.1,25.7z"/>
	<path class="st431" d="M43.2,26.6l1.9-1l-1-1.1L43.2,26.6z"/>
	<path class="st16" d="M44.4,24l-0.2,0.6l1,1.1L44.4,24z"/>
	<path class="st250" d="M33.6,18.4c0-0.3,0.2-0.7,0.5-0.9l0.5-0.3c0.3-0.2,0.6-0.3,1-0.2c0.3,0.1,0.6,0.2,0.6,0.6
		c0.1,0.9,0.2,1,0.3,1.1s0.1,0.2,0.1,0.2s-1.1-0.2-0.8,0.3c0.3,0.5,1,0.4,0.4,1c-0.6,0.6-2.8,0.2-2.9-0.3c-0.1-0.6,1-0.4,1.3-0.9
		C34.8,18.7,33.6,18.7,33.6,18.4z"/>
	<path class="st281" d="M36,13l-0.4-1.6L35,13.1L36,13z"/>
	<path class="st282" d="M36,13l-1.2,0.9l0.2-0.8L36,13z"/>
	<path class="st287" d="M34.4,16.5L36,17l-2.7,0.6L34.4,16.5z"/>
	<path class="st288" d="M34.5,19.2L36,17l-2.7,0.6l0.1,0.8L34.5,19.2z"/>
	<path class="st16" d="M36,17l-0.2,1.7l-1.2,0.2v-0.6L36,17z"/>
	<path class="st369" d="M36,17l1.8,2.6l-2-0.9L36,17z"/>
	<path class="st16" d="M35.7,20l-1.1-1.1l-0.5,1.6L35.7,20z"/>
	<path class="st370" d="M35.8,18.8l-1.2,0.2l1.1,1.1L35.8,18.8z"/>
	<path class="st371" d="M37.8,19.6L35.6,22l0.2-2l0.1-1.3L37.8,19.6z"/>
	<path class="st372" d="M35.7,20l-1.6,0.5l1.4,1.5L35.7,20z"/>
	<path class="st16" d="M37.8,19.6l-0.4,1.5l-0.5-0.6L37.8,19.6z"/>
	<path class="st374" d="M39.4,19.2l-0.6,1.1l-1-0.6L39.4,19.2z"/>
	<path class="st375" d="M40.9,21.4l-2.1-1.1l0.6-1.1L40.9,21.4z"/>
	<path class="st376" d="M36.7,23.8l1.1-4.2l1,0.6L36.7,23.8z"/>
	<path class="st377" d="M40.9,21.4l-2.1-1.1l0.6,1.9L40.9,21.4z"/>
	<path class="st16" d="M36.7,23.8l2.7-1.7l-0.6-1.9L36.7,23.8z"/>
	<path class="st378" d="M36.9,20.5L35.6,22l-0.7,0.6l2.5-1.5L36.9,20.5z"/>
	<path class="st379" d="M32.8,20.7V20l1.9-1.2L34,21.5L32.8,20.7z"/>
	<path class="st386" d="M36.7,23.8l-1.3-0.8l-0.2,3.3L36.7,23.8z"/>
	<path class="st16" d="M35.2,26.6h1l0.5-2.7l-1.5,2.5V26.6z"/>
	<path class="st16" d="M35.1,27.2l1.1-0.6h-1L35.1,27.2z"/>
	<path class="st388" d="M36.1,30.6l1.4-0.9h-2.5L36.1,30.6z"/>
	<path class="st382" d="M35.1,27.2l-0.2,2.5h2.5L35.1,27.2z"/>
	<path class="st389" d="M36.2,26.6l-1.1,0.6l3,1L36.2,26.6z"/>
	<path class="st16" d="M37.4,29.7l0.7-1.6l-3-1L37.4,29.7z"/>
	<path class="st16" d="M36.8,31.2l0.6-1.4l-1.4,0.9L36.8,31.2z"/>
	<path class="st390" d="M40.9,21.4l-1.5,0.8l-2.7,1.7l3.2-0.2L40.9,21.4z"/>
	<path class="st391" d="M41.1,23.6l-1.2,0.1l1-2.3L41.1,23.6z"/>
	<path class="st392" d="M36.2,26.6l0.5-2.7l1.9,1.2L36.2,26.6z"/>
	<path class="st393" d="M41.1,23.6l-4.4,0.2l1.9,1.2L41.1,23.6z"/>
	<path class="st394" d="M36.2,26.6l2.5-0.1L38.6,25L36.2,26.6z"/>
	<path class="st395" d="M39.2,25.4l-0.4,1.1L38.6,25L39.2,25.4z"/>
	<path class="st396" d="M39.6,24.5l-1,0.6l0.6,0.3L39.6,24.5z"/>
	<path class="st16" d="M38.1,28.1l0.6-1.7l-2.5,0.1L38.1,28.1z"/>
	<path class="st397" d="M38.5,30.8l-1.7,0.3l0.6-1.4L38.5,30.8z"/>
	<path class="st398" d="M38.1,28.1l0.5,0.2l-0.1,2.5l-1.1-1.1L38.1,28.1z"/>
	<path class="st399" d="M38.8,26.5l-0.2,1.8l-0.5-0.2L38.8,26.5z"/>
	<path class="st400" d="M40.2,26l-0.6-1.5l-0.4,0.9L40.2,26z"/>
	<path class="st401" d="M38.8,26.5l0.4-1.1l1,0.6L38.8,26.5z"/>
	<path class="st402" d="M39.3,28.5l-0.7-0.2l0.2-1.8l1.4-0.1L39.3,28.5z"/>
	<path class="st16" d="M40.2,26l-0.1,0.4l-1.4,0.1L40.2,26z"/>
	<path class="st16" d="M41.1,23.6L40.2,26l-0.6-1.5L41.1,23.6z"/>
	<path class="st16" d="M39.3,28.5l-0.8,2.3l0.1-2.5L39.3,28.5z"/>
	<path class="st16" d="M40.1,26.4l0.2,2.5l-1-0.3L40.1,26.4z"/>
	<path class="st403" d="M38.5,30.8l1.8-0.3l-0.1-1.7l-1-0.3L38.5,30.8z"/>
	<path class="st412" d="M45.2,29.8L43.8,30l1,1L45.2,29.8z"/>
	<path class="st413" d="M40.3,28.9l3.6,1.1l-3.5,0.6L40.3,28.9z"/>
	<path class="st414" d="M42.7,28.7h1.7L43.8,30L42.7,28.7z"/>
	<path class="st16" d="M40.3,28.9l3.6,1.1l-1.2-1.3L40.3,28.9z"/>
	<path class="st415" d="M45.2,29.8l-0.8-1.1L43.8,30L45.2,29.8z"/>
	<path class="st416" d="M40.2,26l0.3,0.4l-0.2,2.5l-0.2-2.5L40.2,26z"/>
	<path class="st417" d="M42.7,28.7l-2.1-2.3l-0.2,2.5L42.7,28.7z"/>
	<path class="st16" d="M44.4,28.7L40.2,26l2.5,2.7H44.4z"/>
	<path class="st418" d="M41.1,23.6L40.2,26l0.6,0.4l2.1-0.1L41.1,23.6z"/>
	<path class="st419" d="M43.6,22.8l-2.5,0.8l2.8,0.2L43.6,22.8z"/>
	<path class="st420" d="M43.2,25.4l-2.1-1.8l2.8,0.2L43.2,25.4z"/>
	<path class="st421" d="M42.9,26.3l0.3-0.9l-2.1-1.8L42.9,26.3z"/>
	<path class="st422" d="M43.3,22.9l0.1-1.1l0.2,1L43.3,22.9z"/>
	<path class="st423" d="M45.4,22.4l-1.7,0.4l-0.2-1L45.4,22.4z"/>
	<path class="st424" d="M44.2,26.2l1.1-3.8l-1.7,0.4L44.2,26.2z"/>
	<path class="st425" d="M43.2,25.4l1,0.8l-0.4-2.4L43.2,25.4z"/>
	<path class="st426" d="M42.9,26.3l1.4-0.1l-1-0.8L42.9,26.3z"/>
	<path class="st427" d="M44.4,28.7l-1.5-2.4l-2.1,0.1L44.4,28.7z"/>
	<path class="st428" d="M44.2,26.2l0.2,2.5l-1.5-2.4L44.2,26.2z"/>
	<path class="st429" d="M45.8,26l-1.4,2.7l-0.2-2.5L45.8,26z"/>
	<path class="st430" d="M46.6,27.7v-0.9L45.8,26L46.6,27.7z"/>
	<path class="st431" d="M44.4,28.7l2.1-1l-1.1-1.2L44.4,28.7z"/>
	<path class="st16" d="M45.8,26l-0.3,0.6l1.1,1.2L45.8,26z"/>
	<path class="st250" d="M36,21.5c0,0-0.5-0.9-1.4-0.4c-0.7,0.3-1.4,0.8-1.6,1C33,22.1,33,22.2,33,22.3c0.1,0.1,0.2,0.2,0.4,0.2
		C33.8,22.3,35.6,22.1,36,21.5z"/>
	<path class="st392" d="M32.5,23.6L33,21l2.1,1.2L32.5,23.6z"/>
	<path class="st393" d="M37.9,20.7L33,21l2.1,1.2L37.9,20.7z"/>
	<path class="st250" d="M40.1,21c0.2-0.1,0.3-0.2,0.3-0.4s-0.1-0.3-0.4-0.4c-0.7-0.1-1.2-0.1-1.5-0.4c-0.2-0.3-0.8-0.1-0.8,0.2
		c0,0.3-0.9,0,0,0.9C38.4,21.6,39.7,21.2,40.1,21z"/>
	<path class="st281" d="M36,13l-0.4-1.6L35,13.1L36,13z"/>
	<path class="st282" d="M36,13l-1.2,0.9l0.2-0.8L36,13z"/>
	<path class="st287" d="M34.4,16.5L36,17l-2.7,0.6L34.4,16.5z"/>
	<path class="st288" d="M34.3,18.5L36,17l-2.7,0.6L34.3,18.5z"/>
	<path class="st16" d="M36,17l-0.2,1.7l-1.2,0.2v-0.6L36,17z"/>
	<path class="st369" d="M36,17l1.8,2.6l-2-0.9L36,17z"/>
	<path class="st16" d="M35.7,20l-1.1-1.1l-0.5,1.6L35.7,20z"/>
	<path class="st370" d="M35.8,18.8l-1.2,0.2l1.1,1.1L35.8,18.8z"/>
	<path class="st371" d="M37.8,19.6L35.6,22l0.2-2l0.1-1.3L37.8,19.6z"/>
	<path class="st372" d="M35.7,20l-1.6,0.5l1.4,1.5L35.7,20z"/>
	<path class="st16" d="M37.8,19.6l-0.4,1.5l-0.5-0.6L37.8,19.6z"/>
	<path class="st374" d="M39.4,19.2l-0.6,1.1l-1-0.6L39.4,19.2z"/>
	<path class="st375" d="M40.9,21.4l-2.1-1.1l0.6-1.1L40.9,21.4z"/>
	<path class="st376" d="M36.7,23.8l1.1-4.2l1,0.6L36.7,23.8z"/>
	<path class="st377" d="M40.9,21.4l-2.1-1.1l0.6,1.9L40.9,21.4z"/>
	<path class="st16" d="M36.7,23.8l2.7-1.7l-0.6-1.9L36.7,23.8z"/>
	<path class="st378" d="M36.9,20.5L35.6,22l-0.7,0.6l2.5-1.5L36.9,20.5z"/>
	<path class="st379" d="M35.4,23.1l0.1-0.8l1.9-1.1l-0.7,2.7L35.4,23.1z"/>
	<path class="st386" d="M36.7,23.8l-1.3-0.8l-0.2,3.3L36.7,23.8z"/>
	<path class="st16" d="M35.2,26.6h1l0.5-2.7l-1.5,2.5V26.6z"/>
	<path class="st16" d="M35.1,27.2l1.1-0.6h-1L35.1,27.2z"/>
	<path class="st388" d="M36.1,30.6l1.4-0.9h-2.5L36.1,30.6z"/>
	<path class="st382" d="M35.1,27.2l-0.2,2.5h2.5L35.1,27.2z"/>
	<path class="st389" d="M36.2,26.6l-1.1,0.6l3,1L36.2,26.6z"/>
	<path class="st16" d="M37.4,29.7l0.7-1.6l-3-1L37.4,29.7z"/>
	<path class="st16" d="M36.8,31.2l0.6-1.4l-1.4,0.9L36.8,31.2z"/>
	<path class="st390" d="M40.9,21.4l-1.5,0.8l-2.7,1.7l3.2-0.2L40.9,21.4z"/>
	<path class="st391" d="M41.1,23.6l-1.2,0.1l1-2.3L41.1,23.6z"/>
	<path class="st392" d="M36.2,26.6l0.5-2.7l1.9,1.2L36.2,26.6z"/>
	<path class="st393" d="M41.1,23.6l-4.4,0.2l1.9,1.2L41.1,23.6z"/>
	<path class="st394" d="M36.2,26.6l2.5-0.1L38.6,25L36.2,26.6z"/>
	<path class="st395" d="M39.2,25.4l-0.4,1.1L38.6,25L39.2,25.4z"/>
	<path class="st396" d="M39.6,24.5l-1,0.6l0.6,0.3L39.6,24.5z"/>
	<path class="st16" d="M38.1,28.1l0.6-1.7l-2.5,0.1L38.1,28.1z"/>
	<path class="st397" d="M38.5,30.8l-1.7,0.3l0.6-1.4L38.5,30.8z"/>
	<path class="st398" d="M38.1,28.1l0.5,0.2l-0.1,2.5l-1.1-1.1L38.1,28.1z"/>
	<path class="st399" d="M38.8,26.5l-0.2,1.8l-0.5-0.2L38.8,26.5z"/>
	<path class="st400" d="M40.2,26l-0.6-1.5l-0.4,0.9L40.2,26z"/>
	<path class="st401" d="M38.8,26.5l0.4-1.1l1,0.6L38.8,26.5z"/>
	<path class="st402" d="M39.3,28.5l-0.7-0.2l0.2-1.8l1.4-0.1L39.3,28.5z"/>
	<path class="st16" d="M40.2,26l-0.1,0.4l-1.4,0.1L40.2,26z"/>
	<path class="st16" d="M41.1,23.6L40.2,26l-0.6-1.5L41.1,23.6z"/>
	<path class="st16" d="M39.3,28.5l-0.8,2.3l0.1-2.5L39.3,28.5z"/>
	<path class="st16" d="M40.1,26.4l0.2,2.5l-1-0.3L40.1,26.4z"/>
	<path class="st403" d="M38.5,30.8l1.8-0.3l-0.1-1.7l-1-0.3L38.5,30.8z"/>
	<path class="st412" d="M45.2,29.8L43.8,30l1,1L45.2,29.8z"/>
	<path class="st413" d="M40.3,28.9l3.6,1.1l-3.5,0.6L40.3,28.9z"/>
	<path class="st414" d="M42.7,28.7h1.7L43.8,30L42.7,28.7z"/>
	<path class="st16" d="M40.3,28.9l3.6,1.1l-1.2-1.3L40.3,28.9z"/>
	<path class="st415" d="M45.2,29.8l-0.8-1.1L43.8,30L45.2,29.8z"/>
	<path class="st416" d="M40.2,26l0.3,0.4l-0.2,2.5l-0.2-2.5L40.2,26z"/>
	<path class="st417" d="M42.7,28.7l-2.1-2.3l-0.2,2.5L42.7,28.7z"/>
	<path class="st16" d="M44.4,28.7L40.2,26l2.5,2.7H44.4z"/>
	<path class="st418" d="M41.1,23.6L40.2,26l0.6,0.4l2.1-0.1L41.1,23.6z"/>
	<path class="st419" d="M43.6,22.8l-2.5,0.8l2.8,0.2L43.6,22.8z"/>
	<path class="st420" d="M43.2,25.4l-2.1-1.8l2.8,0.2L43.2,25.4z"/>
	<path class="st421" d="M42.9,26.3l0.3-0.9l-2.1-1.8L42.9,26.3z"/>
	<path class="st422" d="M43.3,22.9l0.1-1.1l0.2,1L43.3,22.9z"/>
	<path class="st423" d="M45.4,22.4l-1.7,0.4l-0.2-1L45.4,22.4z"/>
	<path class="st424" d="M44.2,26.2l1.1-3.8l-1.7,0.4L44.2,26.2z"/>
	<path class="st425" d="M43.2,25.4l1,0.8l-0.4-2.4L43.2,25.4z"/>
	<path class="st426" d="M42.9,26.3l1.4-0.1l-1-0.8L42.9,26.3z"/>
	<path class="st427" d="M44.4,28.7l-1.5-2.4l-2.1,0.1L44.4,28.7z"/>
	<path class="st428" d="M44.2,26.2l0.2,2.5l-1.5-2.4L44.2,26.2z"/>
	<path class="st429" d="M45.8,26l-1.4,2.7l-0.2-2.5L45.8,26z"/>
	<path class="st430" d="M46.6,27.7v-0.9L45.8,26L46.6,27.7z"/>
	<path class="st431" d="M44.4,28.7l2.1-1l-1.1-1.2L44.4,28.7z"/>
	<path class="st16" d="M45.8,26l-0.3,0.6l1.1,1.2L45.8,26z"/>
	<path class="st250" d="M36.3,23.4c-0.2,0-0.2-0.4,0-0.5c0.3,0,0.7-0.2,0.8-0.6c0.1-0.6,0.7-0.6,0.7-0.6s0.7-0.6,2.2,0.3
		c1.5,0.8,1-1.1,1.7,0.2c0.8,1.3-3.5,1.7-3.8,1.2c-0.3-0.6-0.7,0.2-1.2,0.1C36.5,23.5,36.4,23.5,36.3,23.4z"/>
	<path class="st281" d="M36,13l-0.4-1.6L35,13.1L36,13z"/>
	<path class="st282" d="M36,13l-1.2,0.9l0.2-0.8L36,13z"/>
	<path class="st287" d="M34.4,16.5L36,17l-2.7,0.6L34.4,16.5z"/>
	<path class="st288" d="M34.3,18.5L36,17l-2.7,0.6L34.3,18.5z"/>
	<path class="st16" d="M36,17l-0.2,1.7l-1.2,0.2v-0.6L36,17z"/>
	<path class="st369" d="M36,17l1.8,2.6l-2-0.9L36,17z"/>
	<path class="st16" d="M35.7,20l-1.1-1.1l-0.5,1.6L35.7,20z"/>
	<path class="st370" d="M35.8,18.8l-1.2,0.2l1.1,1.1L35.8,18.8z"/>
	<path class="st371" d="M37.8,19.6L35.6,22l0.2-2l0.1-1.3L37.8,19.6z"/>
	<path class="st372" d="M35.7,20l-1.6,0.5l1.4,1.5L35.7,20z"/>
	<path class="st16" d="M37.8,19.6l-0.4,1.5l-0.5-0.6L37.8,19.6z"/>
	<path class="st374" d="M39.4,19.2l-0.6,1.1l-1-0.6L39.4,19.2z"/>
	<path class="st375" d="M40.9,21.4l-2.1-1.1l0.6-1.1L40.9,21.4z"/>
	<path class="st376" d="M36.7,23.8l1.1-4.2l1,0.6L36.7,23.8z"/>
	<path class="st377" d="M40.9,21.4l-2.1-1.1l0.6,1.9L40.9,21.4z"/>
	<path class="st16" d="M36.7,23.8l2.7-1.7l-0.6-1.9L36.7,23.8z"/>
	<path class="st378" d="M36.9,20.5L35.6,22l-0.7,0.6l2.5-1.5L36.9,20.5z"/>
	<path class="st379" d="M35.4,23.1l0.1-0.8l1.9-1.1l-0.7,2.7L35.4,23.1z"/>
	<path class="st386" d="M36.7,23.8l-1.3-0.8l-0.2,3.3L36.7,23.8z"/>
	<path class="st16" d="M35.2,26.6h1l0.5-2.7l-1.5,2.5V26.6z"/>
	<path class="st16" d="M35.1,27.2l1.1-0.6h-1L35.1,27.2z"/>
	<path class="st388" d="M37.4,28.9l1.5-0.9h-2.9L37.4,28.9z"/>
	<path class="st382" d="M36.3,25.5L36.1,28h2.9L36.3,25.5z"/>
	<path class="st389" d="M37.6,24.8l-1.3,0.7l3.4,0.9L37.6,24.8z"/>
	<path class="st16" d="M38.9,28l0.8-1.6l-3.4-0.9L38.9,28z"/>
	<path class="st16" d="M38.3,29.4l0.6-1.4l-1.5,0.9L38.3,29.4z"/>
	<path class="st390" d="M42.8,19.6l-1.7,0.8l-3,1.7l3.6-0.2L42.8,19.6z"/>
	<path class="st391" d="M43.1,21.9l-1.4,0.1l1.1-2.3L43.1,21.9z"/>
	<path class="st392" d="M37.6,24.8l0.6-2.6l2.1,1.2L37.6,24.8z"/>
	<path class="st393" d="M43.1,21.9l-4.9,0.3l2.1,1.2L43.1,21.9z"/>
	<path class="st394" d="M37.6,24.8l2.9-0.1l-0.2-1.4L37.6,24.8z"/>
	<path class="st395" d="M40.9,23.6l-0.5,1.1l-0.2-1.4L40.9,23.6z"/>
	<path class="st396" d="M41.3,22.8l-1,0.6l0.6,0.2L41.3,22.8z"/>
	<path class="st16" d="M39.7,26.4l0.7-1.7l-2.9,0.1L39.7,26.4z"/>
	<path class="st397" d="M38.5,30.8l-1.7,0.3l0.6-1.4L38.5,30.8z"/>
	<path class="st398" d="M38.1,28.1l0.5,0.2l-0.1,2.5l-1.1-1.1L38.1,28.1z"/>
	<path class="st399" d="M38.8,26.5l-0.2,1.8l-0.5-0.2L38.8,26.5z"/>
	<path class="st400" d="M40.2,26l-0.6-1.5l-0.4,0.9L40.2,26z"/>
	<path class="st401" d="M38.8,26.5l0.4-1.1l1,0.6L38.8,26.5z"/>
	<path class="st402" d="M39.3,28.5l-0.7-0.2l0.2-1.8l1.4-0.1L39.3,28.5z"/>
	<path class="st16" d="M40.2,26l-0.1,0.4l-1.4,0.1L40.2,26z"/>
	<path class="st16" d="M41.1,23.6L40.2,26l-0.6-1.5L41.1,23.6z"/>
	<path class="st16" d="M39.3,28.5l-0.8,2.3l0.1-2.5L39.3,28.5z"/>
	<path class="st16" d="M40.1,26.4l0.2,2.5l-1-0.3L40.1,26.4z"/>
	<path class="st403" d="M38.5,30.8l1.8-0.3l-0.1-1.7l-1-0.3L38.5,30.8z"/>
	<path class="st412" d="M45.2,29.8L43.8,30l1,1L45.2,29.8z"/>
	<path class="st413" d="M40.3,28.9l3.6,1.1l-3.5,0.6L40.3,28.9z"/>
	<path class="st414" d="M42.7,28.7h1.7L43.8,30L42.7,28.7z"/>
	<path class="st16" d="M40.3,28.9l3.6,1.1l-1.2-1.3L40.3,28.9z"/>
	<path class="st415" d="M45.2,29.8l-0.8-1.1L43.8,30L45.2,29.8z"/>
	<path class="st416" d="M40.2,26l0.3,0.4l-0.2,2.5l-0.2-2.5L40.2,26z"/>
	<path class="st417" d="M42.7,28.7l-2.1-2.3l-0.2,2.5L42.7,28.7z"/>
	<path class="st16" d="M44.4,28.7L40.2,26l2.5,2.7H44.4z"/>
	<path class="st418" d="M41.1,23.6L40.2,26l0.6,0.4l2.1-0.1L41.1,23.6z"/>
	<path class="st419" d="M40.9,21.4l0.2,2.2l2.8,0.2L40.9,21.4z"/>
	<path class="st420" d="M43.2,25.4l-2.1-1.8l2.8,0.2L43.2,25.4z"/>
	<path class="st421" d="M42.9,26.3l0.3-0.9l-2.1-1.8L42.9,26.3z"/>
	<path class="st422" d="M43.3,22.9l0.1-1.1l0.2,1L43.3,22.9z"/>
	<path class="st423" d="M45.4,22.4l-1.7,0.4l-0.2-1L45.4,22.4z"/>
	<path class="st424" d="M44.2,26.2l1.1-3.8l-1.7,0.4L44.2,26.2z"/>
	<path class="st425" d="M43.2,25.4l1,0.8l-0.4-2.4L43.2,25.4z"/>
	<path class="st426" d="M42.9,26.3l1.4-0.1l-1-0.8L42.9,26.3z"/>
	<path class="st427" d="M44.4,28.7l-1.5-2.4l-2.1,0.1L44.4,28.7z"/>
	<path class="st428" d="M44.2,26.2l0.2,2.5l-1.5-2.4L44.2,26.2z"/>
	<path class="st429" d="M45.8,26l-1.4,2.7l-0.2-2.5L45.8,26z"/>
	<path class="st430" d="M46.6,27.7v-0.9L45.8,26L46.6,27.7z"/>
	<path class="st431" d="M44.4,28.7l2.1-1l-1.1-1.2L44.4,28.7z"/>
	<path class="st16" d="M45.8,26l-0.3,0.6l1.1,1.2L45.8,26z"/>
	<path class="st250" d="M39.6,25.9c0,0-1.6-0.5-1.4,0.6c0.2,1,0.3,1.4-0.2,1.4s-0.9,0.6-0.6,0.7c0.3,0.2,1.8-0.4,2.3-0.2
		c0.5,0.2,1-0.1,1.1-0.2c0.2-0.2,0.7-0.1,0.1-0.7s-1.1,0.2-1.3-0.3C39.4,26.6,40.1,26.2,39.6,25.9z"/>
	<path class="st281" d="M36,14.8l-0.4-1.7L35,14.9L36,14.8z"/>
	<path class="st282" d="M36,14.8l-1.2,0.8l0.2-0.7L36,14.8z"/>
	<path class="st287" d="M34.4,18.2l1.6,0.5l-2.7,0.6L34.4,18.2z"/>
	<path class="st288" d="M34.3,20.3l1.7-1.6l-2.7,0.6L34.3,20.3z"/>
	<path class="st16" d="M36,18.7l-0.2,1.8l-1.2,0.2V20L36,18.7z"/>
	<path class="st369" d="M36,18.7l1.8,2.7l-2-0.9L36,18.7z"/>
	<path class="st16" d="M35.7,21.8l-1.1-1.1l-0.5,1.6L35.7,21.8z"/>
	<path class="st370" d="M35.8,20.5l-1.2,0.2l1.1,1.1L35.8,20.5z"/>
	<path class="st371" d="M37.8,21.4l-2.2,2.3l0.2-1.9l0.1-1.3L37.8,21.4z"/>
	<path class="st372" d="M35.7,21.8l-1.6,0.5l1.4,1.4L35.7,21.8z"/>
	<path class="st16" d="M37.8,21.4l-0.4,1.4l-0.5-0.6L37.8,21.4z"/>
	<path class="st374" d="M39.4,20.9l-0.6,1l-1-0.6L39.4,20.9z"/>
	<path class="st375" d="M40.9,23.1l-2.1-1.1l0.6-1L40.9,23.1z"/>
	<path class="st376" d="M36.7,25.6l1.1-4.2l1,0.6L36.7,25.6z"/>
	<path class="st377" d="M40.9,23.1l-2.1-1.1l0.6,2L40.9,23.1z"/>
	<path class="st16" d="M36.7,25.6l2.7-1.7l-0.6-2L36.7,25.6z"/>
	<path class="st378" d="M36.9,22.3l-1.4,1.4l-0.7,0.7l2.5-1.6L36.9,22.3z"/>
	<path class="st379" d="M35.4,24.8l0.1-0.8l1.9-1.2l-0.7,2.8L35.4,24.8z"/>
	<path class="st386" d="M36.7,25.6l-1.3-0.8L35.2,28L36.7,25.6z"/>
	<path class="st16" d="M35.2,28.3l1-0.1l0.5-2.6L35.2,28V28.3z"/>
	<path class="st16" d="M35.1,28.9l1.1-0.7l-1,0.1L35.1,28.9z"/>
	<path class="st388" d="M36.1,32.4l1.4-1h-2.5L36.1,32.4z"/>
	<path class="st382" d="M35.1,28.9l-0.2,2.5h2.5L35.1,28.9z"/>
	<path class="st389" d="M36.2,28.2l-1.1,0.7l3,0.9L36.2,28.2z"/>
	<path class="st16" d="M37.4,31.4l0.7-1.6l-3-0.9L37.4,31.4z"/>
	<path class="st16" d="M36.8,32.8l0.6-1.4l-1.4,1L36.8,32.8z"/>
	<path class="st390" d="M40.9,23.1l-1.5,0.9l-2.7,1.7l3.2-0.2L40.9,23.1z"/>
	<path class="st391" d="M41.1,25.3l-1.2,0.1l1-2.3L41.1,25.3z"/>
	<path class="st392" d="M36.2,28.2l0.5-2.6l1.9,1.2L36.2,28.2z"/>
	<path class="st393" d="M41.1,25.3l-4.4,0.3l1.9,1.2L41.1,25.3z"/>
	<path class="st394" d="M36.2,28.2l2.5-0.1l-0.2-1.4L36.2,28.2z"/>
	<path class="st395" d="M39.2,27.1l-0.4,1l-0.2-1.4L39.2,27.1z"/>
	<path class="st396" d="M39.6,26.2l-1,0.6l0.6,0.3L39.6,26.2z"/>
	<path class="st16" d="M38.1,29.8l0.6-1.7l-2.5,0.1L38.1,29.8z"/>
	<path class="st397" d="M38.5,32.6l-1.7,0.2l0.6-1.4L38.5,32.6z"/>
	<path class="st398" d="M38.1,29.8l0.5,0.2l-0.1,2.5l-1.1-1.2L38.1,29.8z"/>
	<path class="st399" d="M38.8,28.1L38.6,30l-0.5-0.2L38.8,28.1z"/>
	<path class="st400" d="M40.2,27.7l-0.6-1.5l-0.4,0.9L40.2,27.7z"/>
	<path class="st401" d="M38.8,28.1l0.4-1l1,0.6L38.8,28.1z"/>
	<path class="st402" d="M39.3,30.2L38.6,30l0.2-1.9h1.4L39.3,30.2z"/>
	<path class="st16" d="M40.2,27.7l-0.1,0.4h-1.4L40.2,27.7z"/>
	<path class="st16" d="M41.1,25.3l-0.9,2.5l-0.6-1.5L41.1,25.3z"/>
	<path class="st16" d="M39.3,30.2l-0.8,2.4l0.1-2.5L39.3,30.2z"/>
	<path class="st16" d="M40.1,28.1l0.2,2.5l-1-0.4L40.1,28.1z"/>
	<path class="st403" d="M38.5,32.6l1.8-0.3l-0.1-1.7l-1-0.4L38.5,32.6z"/>
	<path class="st412" d="M45.2,31.5l-1.4,0.2l1,1L45.2,31.5z"/>
	<path class="st413" d="M40.3,30.6l3.6,1.1l-3.5,0.6L40.3,30.6z"/>
	<path class="st414" d="M42.7,30.4l1.7-0.1l-0.6,1.4L42.7,30.4z"/>
	<path class="st16" d="M40.3,30.6l3.6,1.1l-1.2-1.3L40.3,30.6z"/>
	<path class="st415" d="M45.2,31.5l-0.8-1.1l-0.6,1.4L45.2,31.5z"/>
	<path class="st416" d="M40.2,27.7l0.3,0.4l-0.2,2.5l-0.2-2.5L40.2,27.7z"/>
	<path class="st417" d="M42.7,30.4l-2.1-2.3l-0.2,2.5L42.7,30.4z"/>
	<path class="st16" d="M44.4,30.4l-4.2-2.6l2.5,2.7L44.4,30.4z"/>
	<path class="st418" d="M41.1,25.3l-0.9,2.5l0.6,0.3l2.1-0.1L41.1,25.3z"/>
	<path class="st419" d="M43.6,24.6l-2.5,0.7l2.8,0.3L43.6,24.6z"/>
	<path class="st420" d="M43.2,27.1l-2.1-1.8l2.8,0.3L43.2,27.1z"/>
	<path class="st421" d="M42.9,28l0.3-0.9l-2.1-1.8L42.9,28z"/>
	<path class="st422" d="M43.3,24.6l0.1-1.2l0.2,1.1L43.3,24.6z"/>
	<path class="st423" d="M45.4,24.1l-1.7,0.5l-0.2-1.1L45.4,24.1z"/>
	<path class="st424" d="M44.2,28l1.1-3.9l-1.7,0.5L44.2,28z"/>
	<path class="st425" d="M43.2,27.1l1,0.9l-0.4-2.4L43.2,27.1z"/>
	<path class="st426" d="M42.9,28h1.4l-1-0.9L42.9,28z"/>
	<path class="st427" d="M44.4,30.4L42.9,28l-2.1,0.1L44.4,30.4z"/>
	<path class="st428" d="M44.2,28l0.2,2.4L42.9,28H44.2z"/>
	<path class="st429" d="M45.8,27.7l-1.4,2.6L44.2,28L45.8,27.7z"/>
	<path class="st430" d="M46.6,29.4v-0.8l-0.8-0.9L46.6,29.4z"/>
	<path class="st431" d="M44.4,30.4l2.1-1l-1.1-1.1L44.4,30.4z"/>
	<path class="st16" d="M45.8,27.7l-0.3,0.6l1.1,1.1L45.8,27.7z"/>
	<path class="st250" d="M41.9,27.5c0,0-0.4-1.3,0.6-1.4c1-0.2,1.9,0,1.8,0.7c-0.1,0.7-1.4-0.2-1.6,0.2C42.4,27.7,42,27.8,41.9,27.5z
		"/>
	<path class="st281" d="M36,13l-0.4-1.6L35,13.1L36,13z"/>
	<path class="st282" d="M36,13l-1.2,0.9l0.2-0.8L36,13z"/>
	<path class="st287" d="M34.4,16.5L36,17l-2.7,0.6L34.4,16.5z"/>
	<path class="st288" d="M34.3,18.5L36,17l-2.7,0.6L34.3,18.5z"/>
	<path class="st16" d="M36,17l-0.2,1.7l-1.2,0.2v-0.6L36,17z"/>
	<path class="st369" d="M36,17l1.8,2.6l-2-0.9L36,17z"/>
	<path class="st16" d="M35.7,20l-1.1-1.1l-0.5,1.6L35.7,20z"/>
	<path class="st370" d="M35.8,18.8l-1.2,0.2l1.1,1.1L35.8,18.8z"/>
	<path class="st371" d="M37.8,19.6L35.6,22l0.2-2l0.1-1.3L37.8,19.6z"/>
	<path class="st372" d="M35.7,20l-1.6,0.5l1.4,1.5L35.7,20z"/>
	<path class="st16" d="M37.8,19.6l-0.4,1.5l-0.5-0.6L37.8,19.6z"/>
	<path class="st374" d="M39.4,19.2l-0.6,1.1l-1-0.6L39.4,19.2z"/>
	<path class="st375" d="M40.9,21.4l-2.1-1.1l0.6-1.1L40.9,21.4z"/>
	<path class="st376" d="M36.7,23.8l1.1-4.2l1,0.6L36.7,23.8z"/>
	<path class="st377" d="M40.9,21.4l-2.1-1.1l0.6,1.9L40.9,21.4z"/>
	<path class="st16" d="M36.7,23.8l2.7-1.7l-0.6-1.9L36.7,23.8z"/>
	<path class="st378" d="M36.9,20.5L35.6,22l-0.7,0.6l2.5-1.5L36.9,20.5z"/>
	<path class="st379" d="M35.4,23.1l0.1-0.8l1.9-1.1l-0.7,2.7L35.4,23.1z"/>
	<path class="st386" d="M36.7,23.8l-1.3-0.8l-0.2,3.3L36.7,23.8z"/>
	<path class="st16" d="M35.2,26.6h1l0.5-2.7l-1.5,2.5V26.6z"/>
	<path class="st16" d="M35.1,27.2l1.1-0.6h-1L35.1,27.2z"/>
	<path class="st388" d="M36.1,30.6l1.4-0.9h-2.5L36.1,30.6z"/>
	<path class="st382" d="M35.1,27.2l-0.2,2.5h2.5L35.1,27.2z"/>
	<path class="st389" d="M36.2,26.6l-1.1,0.6l3,1L36.2,26.6z"/>
	<path class="st16" d="M37.4,29.7l0.7-1.6l-3-1L37.4,29.7z"/>
	<path class="st16" d="M36.8,31.2l0.6-1.4l-1.4,0.9L36.8,31.2z"/>
	<path class="st390" d="M40.9,21.4l-1.5,0.8l-2.7,1.7l3.2-0.2L40.9,21.4z"/>
	<path class="st391" d="M41.1,23.6l-1.2,0.1l1-2.3L41.1,23.6z"/>
	<path class="st392" d="M36.2,26.6l0.5-2.7l1.9,1.2L36.2,26.6z"/>
	<path class="st393" d="M41.1,23.6l-4.4,0.2l1.9,1.2L41.1,23.6z"/>
	<path class="st394" d="M36.2,26.6l2.5-0.1L38.6,25L36.2,26.6z"/>
	<path class="st395" d="M39.2,25.4l-0.4,1.1L38.6,25L39.2,25.4z"/>
	<path class="st396" d="M39.6,24.5l-1,0.6l0.6,0.3L39.6,24.5z"/>
	<path class="st16" d="M38.1,28.1l0.6-1.7l-2.5,0.1L38.1,28.1z"/>
	<path class="st397" d="M38.5,30.8l-1.7,0.3l0.6-1.4L38.5,30.8z"/>
	<path class="st398" d="M38.1,28.1l0.5,0.2l-0.1,2.5l-1.1-1.1L38.1,28.1z"/>
	<path class="st399" d="M38.8,26.5l-0.2,1.8l-0.5-0.2L38.8,26.5z"/>
	<path class="st400" d="M40.2,26l-0.6-1.5l-0.4,0.9L40.2,26z"/>
	<path class="st401" d="M38.8,26.5l0.4-1.1l1,0.6L38.8,26.5z"/>
	<path class="st402" d="M39.3,28.5l-0.7-0.2l0.2-1.8l1.4-0.1L39.3,28.5z"/>
	<path class="st16" d="M40.2,26l-0.1,0.4l-1.4,0.1L40.2,26z"/>
	<path class="st16" d="M41.1,23.6L40.2,26l-0.6-1.5L41.1,23.6z"/>
	<path class="st16" d="M39.3,28.5l-0.8,2.3l0.1-2.5L39.3,28.5z"/>
	<path class="st16" d="M40.1,26.4l0.2,2.5l-1-0.3L40.1,26.4z"/>
	<path class="st403" d="M38.5,30.8l1.8-0.3l-0.1-1.7l-1-0.3L38.5,30.8z"/>
	<path class="st412" d="M45.2,29.8L43.8,30l1,1L45.2,29.8z"/>
	<path class="st413" d="M40.3,28.9l3.6,1.1l-3.5,0.6L40.3,28.9z"/>
	<path class="st414" d="M42.7,28.7h1.7L43.8,30L42.7,28.7z"/>
	<path class="st16" d="M40.3,28.9l3.6,1.1l-1.2-1.3L40.3,28.9z"/>
	<path class="st415" d="M45.2,29.8l-0.8-1.1L43.8,30L45.2,29.8z"/>
	<path class="st416" d="M40.2,26l0.3,0.4l-0.2,2.5l-0.2-2.5L40.2,26z"/>
	<path class="st417" d="M42.7,28.7l-2.1-2.3l-0.2,2.5L42.7,28.7z"/>
	<path class="st16" d="M44.4,28.7L40.2,26l2.5,2.7H44.4z"/>
	<path class="st418" d="M41.1,23.6L40.2,26l0.6,0.4l2.1-0.1L41.1,23.6z"/>
	<path class="st419" d="M43.6,22.8l-2.5,0.8l2.8,0.2L43.6,22.8z"/>
	<path class="st420" d="M43.2,25.4l-2.1-1.8l2.8,0.2L43.2,25.4z"/>
	<path class="st421" d="M42.9,26.3l0.3-0.9l-2.1-1.8L42.9,26.3z"/>
	<path class="st422" d="M43.3,22.9l0.1-1.1l0.2,1L43.3,22.9z"/>
	<path class="st423" d="M45.4,22.4l-1.7,0.4l-0.2-1L45.4,22.4z"/>
	<path class="st424" d="M44.2,26.2l1.1-3.8l-1.7,0.4L44.2,26.2z"/>
	<path class="st425" d="M43.2,25.4l1,0.8l-0.4-2.4L43.2,25.4z"/>
	<path class="st426" d="M42.9,26.3l1.4-0.1l-1-0.8L42.9,26.3z"/>
	<path class="st427" d="M44.4,28.7l-1.5-2.4l-2.1,0.1L44.4,28.7z"/>
	<path class="st428" d="M44.2,26.2l0.2,2.5l-1.5-2.4L44.2,26.2z"/>
	<path class="st429" d="M45.8,26l-1.4,2.7l-0.2-2.5L45.8,26z"/>
	<path class="st430" d="M46.6,27.7v-0.9L45.8,26L46.6,27.7z"/>
	<path class="st431" d="M44.4,28.7l2.1-1l-1.1-1.2L44.4,28.7z"/>
	<path class="st16" d="M45.8,26l-0.3,0.6l1.1,1.2L45.8,26z"/>
	<path class="st250" d="M42.8,29.7c-0.3,0-0.6-0.1-0.9-0.3c-0.3-0.3-0.8-0.6-1.4,0c-1.1,1,0.2,1.9,0.6,1.7c0.4-0.2,1.7-0.1,1.9,0
		c0.2,0.1,1,0.2,0.5-0.9C43.3,29.8,43.1,29.7,42.8,29.7z"/>
	<path class="st281" d="M36,13l-0.4-1.6L35,13.1L36,13z"/>
	<path class="st282" d="M36,13l-1.2,0.9l0.2-0.8L36,13z"/>
	<path class="st287" d="M34.4,16.5L36,17l-2.7,0.6L34.4,16.5z"/>
	<path class="st288" d="M34.3,18.5L36,17l-2.7,0.6L34.3,18.5z"/>
	<path class="st16" d="M36,17l-0.2,1.7l-1.2,0.2v-0.6L36,17z"/>
	<path class="st369" d="M36,17l1.8,2.6l-2-0.9L36,17z"/>
	<path class="st16" d="M35.7,20l-1.1-1.1l-0.5,1.6L35.7,20z"/>
	<path class="st370" d="M35.8,18.8l-1.2,0.2l1.1,1.1L35.8,18.8z"/>
	<path class="st371" d="M37.8,19.6L35.6,22l0.2-2l0.1-1.3L37.8,19.6z"/>
	<path class="st372" d="M35.7,20l-1.6,0.5l1.4,1.5L35.7,20z"/>
	<path class="st16" d="M37.8,19.6l-0.4,1.5l-0.5-0.6L37.8,19.6z"/>
	<path class="st374" d="M39.4,19.2l-0.6,1.1l-1-0.6L39.4,19.2z"/>
	<path class="st375" d="M40.9,21.4l-2.1-1.1l0.6-1.1L40.9,21.4z"/>
	<path class="st376" d="M36.7,23.8l1.1-4.2l1,0.6L36.7,23.8z"/>
	<path class="st377" d="M40.9,21.4l-2.1-1.1l0.6,1.9L40.9,21.4z"/>
	<path class="st16" d="M36.7,23.8l2.7-1.7l-0.6-1.9L36.7,23.8z"/>
	<path class="st378" d="M36.9,20.5L35.6,22l-0.7,0.6l2.5-1.5L36.9,20.5z"/>
	<path class="st379" d="M35.4,23.1l0.1-0.8l1.9-1.1l-0.7,2.7L35.4,23.1z"/>
	<path class="st386" d="M36.7,23.8l-1.3-0.8l-0.2,3.3L36.7,23.8z"/>
	<path class="st16" d="M35.2,26.6h1l0.5-2.7l-1.5,2.5V26.6z"/>
	<path class="st16" d="M35.1,27.2l1.1-0.6h-1L35.1,27.2z"/>
	<path class="st388" d="M36.1,30.6l1.4-0.9h-2.5L36.1,30.6z"/>
	<path class="st382" d="M35.1,27.2l-0.2,2.5h2.5L35.1,27.2z"/>
	<path class="st389" d="M36.2,26.6l-1.1,0.6l3,1L36.2,26.6z"/>
	<path class="st16" d="M37.4,29.7l0.7-1.6l-3-1L37.4,29.7z"/>
	<path class="st16" d="M36.8,31.2l0.6-1.4l-1.4,0.9L36.8,31.2z"/>
	<path class="st390" d="M40.9,21.4l-1.5,0.8l-2.7,1.7l3.2-0.2L40.9,21.4z"/>
	<path class="st391" d="M41.1,23.6l-1.2,0.1l1-2.3L41.1,23.6z"/>
	<path class="st392" d="M36.2,26.6l0.5-2.7l1.9,1.2L36.2,26.6z"/>
	<path class="st393" d="M41.1,23.6l-4.4,0.2l1.9,1.2L41.1,23.6z"/>
	<path class="st394" d="M36.2,26.6l2.5-0.1L38.6,25L36.2,26.6z"/>
	<path class="st395" d="M39.2,25.4l-0.4,1.1L38.6,25L39.2,25.4z"/>
	<path class="st396" d="M39.6,24.5l-1,0.6l0.6,0.3L39.6,24.5z"/>
	<path class="st16" d="M40.7,28.9l0.6-1.7l-2.5,0.1L40.7,28.9z"/>
	<path class="st397" d="M41.1,31.6l-1.7,0.2l0.6-1.4L41.1,31.6z"/>
	<path class="st398" d="M40.7,28.9l0.6,0.2l-0.2,2.6L40,30.4L40.7,28.9z"/>
	<path class="st399" d="M41.3,27.1L41.2,29l-0.6-0.2L41.3,27.1z"/>
	<path class="st400" d="M42.7,26.7l-0.6-1.5L41.8,26L42.7,26.7z"/>
	<path class="st401" d="M41.3,27.1l0.5-1.1l1,0.7L41.3,27.1z"/>
	<path class="st402" d="M41.9,29.3L41.2,29l0.1-1.9h1.4L41.9,29.3z"/>
	<path class="st16" d="M42.7,26.7l-0.1,0.4h-1.4L42.7,26.7z"/>
	<path class="st16" d="M43.6,24.2l-0.9,2.5l-0.6-1.5L43.6,24.2z"/>
	<path class="st16" d="M41.9,29.3l-0.8,2.4l0.2-2.6L41.9,29.3z"/>
	<path class="st16" d="M42.7,27.1l0.2,2.5l-1-0.3L42.7,27.1z"/>
	<path class="st403" d="M41.1,31.6l1.9-0.3l-0.2-1.7l-1-0.3L41.1,31.6z"/>
	<path class="st412" d="M47.8,30.5l-1.4,0.2l1,0.9L47.8,30.5z"/>
	<path class="st413" d="M42.8,29.6l3.7,1.2L43,31.3L42.8,29.6z"/>
	<path class="st414" d="M42.7,28.7h1.7L43.8,30L42.7,28.7z"/>
	<path class="st16" d="M40.3,28.9l3.6,1.1l-1.2-1.3L40.3,28.9z"/>
	<path class="st415" d="M45.2,29.8l-0.8-1.1L43.8,30L45.2,29.8z"/>
	<path class="st416" d="M40.2,26l0.3,0.4l-0.2,2.5l-0.2-2.5L40.2,26z"/>
	<path class="st417" d="M42.7,28.7l-2.1-2.3l-0.2,2.5L42.7,28.7z"/>
	<path class="st16" d="M44.4,28.7L40.2,26l2.5,2.7H44.4z"/>
	<path class="st418" d="M41.1,23.6L40.2,26l0.6,0.4l2.1-0.1L41.1,23.6z"/>
	<path class="st419" d="M43.6,22.8l-2.5,0.8l2.8,0.2L43.6,22.8z"/>
	<path class="st420" d="M43.2,25.4l-2.1-1.8l2.8,0.2L43.2,25.4z"/>
	<path class="st421" d="M42.9,26.3l0.3-0.9l-2.1-1.8L42.9,26.3z"/>
	<path class="st422" d="M43.3,22.9l0.1-1.1l0.2,1L43.3,22.9z"/>
	<path class="st423" d="M45.4,22.4l-1.7,0.4l-0.2-1L45.4,22.4z"/>
	<path class="st424" d="M44.2,26.2l1.1-3.8l-1.7,0.4L44.2,26.2z"/>
	<path class="st425" d="M43.2,25.4l1,0.8l-0.4-2.4L43.2,25.4z"/>
	<path class="st426" d="M42.9,26.3l1.4-0.1l-1-0.8L42.9,26.3z"/>
	<path class="st427" d="M44.4,28.7l-1.5-2.4l-2.1,0.1L44.4,28.7z"/>
	<path class="st428" d="M44.2,26.2l0.2,2.5l-1.5-2.4L44.2,26.2z"/>
	<path class="st429" d="M45.8,26l-1.4,2.7l-0.2-2.5L45.8,26z"/>
	<path class="st430" d="M46.6,27.7v-0.9L45.8,26L46.6,27.7z"/>
	<path class="st431" d="M44.4,28.7l2.1-1l-1.1-1.2L44.4,28.7z"/>
	<path class="st16" d="M45.8,26l-0.3,0.6l1.1,1.2L45.8,26z"/>
</g>
</svg>
