<svg width="58" height="81" viewBox="0 0 58 81" fill="none" xmlns="http://www.w3.org/2000/svg">
<g clip-path="url(#clip0_888_2579)">
<path d="M32.6002 62.4002H25.1002C24.6002 62.4002 24.2002 62.0002 24.2002 61.5002V49.9002C24.2002 49.6002 24.3002 49.4002 24.5002 49.2002C24.7002 49.0002 25.0002 48.9002 25.2002 49.0002C27.6002 49.4002 30.0002 49.4002 32.4002 49.0002C32.7002 49.0002 32.9002 49.0002 33.1002 49.2002C33.3002 49.4002 33.4002 49.6002 33.4002 49.9002V61.4002C33.6002 61.9002 33.2002 62.4002 32.6002 62.4002ZM26.1002 60.5002H31.7002V51.0002C29.8002 51.2002 28.0002 51.2002 26.1002 51.0002V60.5002Z" fill="#316D69"/>
<path d="M28.9 51.2004C27.6 51.2004 26.3 51.1004 25 50.9004C22.1 50.5004 19.4 49.5004 16.8 48.1004C16.6 48.0004 16.4 47.7004 16.3 47.5004C16.2 47.2004 16.3 47.0004 16.5 46.7004L24.1 36.9004C24.3 36.6004 24.8 36.5004 25.1 36.6004C26.3 37.0004 27.5 37.2004 28.7 37.2004C30 37.2004 31.4 37.0004 32.6 36.5004C33 36.4004 33.4 36.5004 33.7 36.8004L41.1 46.7004C41.3 46.9004 41.3 47.2004 41.3 47.5004C41.2 47.8004 41.1 48.0004 40.8 48.1004C38.2 49.5004 35.5 50.5004 32.6 50.9004C31.5 51.1004 30.2 51.2004 28.9 51.2004ZM18.7 47.0004C20.8 48.0004 23 48.7004 25.3 49.0004C27.7 49.4004 30.1 49.4004 32.5 49.0004C34.8 48.6004 37.1 47.9004 39.2 46.9004L32.8 38.4004C31.5 38.8004 30.2 39.0004 28.9 39.0004C27.7 39.0004 26.5 38.8004 25.3 38.5004L18.7 47.0004Z" fill="#BAB220"/>
<path d="M50.1998 38.6004C49.9998 38.6004 49.7998 38.5004 49.5998 38.4004L39.6998 31.0004C39.3998 30.8004 39.1998 30.3004 39.3998 29.9004C39.8998 28.6004 40.0998 27.3004 40.0998 26.0004C40.0998 24.7004 39.8998 23.3004 39.3998 22.1004C39.2998 21.7004 39.3998 21.3004 39.6998 21.0004L49.5998 13.6004C49.7998 13.4004 50.0998 13.4004 50.3998 13.4004C50.6998 13.5004 50.8998 13.6004 50.9998 13.9004C52.9998 17.6004 54.0998 21.8004 54.0998 26.0004C54.0998 30.2004 52.9998 34.4004 50.9998 38.1004C50.8998 38.3004 50.5998 38.5004 50.3998 38.6004C50.2998 38.6004 50.1998 38.6004 50.1998 38.6004ZM41.3998 29.9004L49.8998 36.3004C51.4998 33.1004 52.2998 29.6004 52.2998 26.0004C52.2998 22.4004 51.4998 18.9004 49.8998 15.7004L41.3998 22.1004C41.7998 23.4004 41.9998 24.7004 41.9998 26.0004C41.9998 27.3004 41.7998 28.6004 41.3998 29.9004Z" fill="#BAB220"/>
<path d="M7.6002 38.5002C7.5002 38.5002 7.5002 38.5002 7.4002 38.5002C7.1002 38.4002 6.9002 38.3002 6.8002 38.0002C4.8002 34.3002 3.7002 30.2002 3.7002 26.0002C3.7002 21.8002 4.8002 17.6002 6.8002 14.0002C6.9002 13.8002 7.2002 13.6002 7.4002 13.5002C7.7002 13.4002 7.9002 13.5002 8.2002 13.7002L18.0002 21.4002C18.3002 21.6002 18.4002 22.1002 18.3002 22.4002C17.9002 23.6002 17.7002 24.8002 17.7002 26.0002C17.7002 27.2002 17.9002 28.5002 18.3002 29.6002C18.4002 30.0002 18.3002 30.4002 18.0002 30.6002L8.2002 38.2002C8.0002 38.4002 7.8002 38.5002 7.6002 38.5002ZM7.9002 15.8002C6.4002 19.0002 5.6002 22.5002 5.6002 26.0002C5.6002 29.5002 6.4002 33.0002 7.9002 36.2002L16.3002 29.6002C16.0002 28.4002 15.8002 27.2002 15.8002 26.0002C15.8002 24.8002 16.0002 23.6002 16.3002 22.4002L7.9002 15.8002Z" fill="#BAB220"/>
<path d="M33.1 15.6008C33 15.6008 32.9 15.6008 32.8 15.5008C31.5 15.0008 30.2 14.8008 28.9 14.8008C27.7 14.8008 26.4 15.0008 25.3 15.4008C24.9 15.5008 24.5 15.4008 24.3 15.1008L16.7 5.30078C16.5 5.10078 16.5 4.80078 16.5 4.50078C16.6 4.20078 16.7 4.00078 17 3.90078C20.7 1.90078 24.8 0.800781 29 0.800781C33.2 0.800781 37.4 1.90078 41.1 3.90078C41.3 4.00078 41.5 4.30078 41.6 4.50078C41.7 4.80078 41.6 5.00078 41.4 5.30078L34 15.2008C33.7 15.4008 33.4 15.6008 33.1 15.6008ZM28.9 12.9008C30.2 12.9008 31.5 13.1008 32.8 13.5008L39.2 5.00078C36 3.50078 32.5 2.70078 28.9 2.70078C25.4 2.70078 21.9 3.50078 18.7 5.00078L25.3 13.4008C26.5 13.1008 27.7 12.9008 28.9 12.9008Z" fill="#BAB220"/>
<path d="M40.3002 31.2008C40.1002 31.2008 39.9002 31.1008 39.7002 31.0008L34.1002 26.8008C33.9002 26.6008 33.7002 26.3008 33.7002 26.1008C33.7002 25.8008 33.8002 25.5008 34.1002 25.4008L39.7002 21.2008C39.9002 21.0008 40.2002 21.0008 40.5002 21.1008C40.8002 21.2008 41.0002 21.4008 41.1002 21.7008C41.6002 23.2008 41.9002 24.7008 41.9002 26.3008C41.9002 27.9008 41.6002 29.4008 41.1002 30.9008C41.0002 31.2008 40.8002 31.4008 40.5002 31.5008C40.4002 31.1008 40.4002 31.2008 40.3002 31.2008ZM36.2002 26.0008L39.8002 28.7008C40.0002 27.8008 40.1002 26.9008 40.1002 26.0008C40.1002 25.1008 40.0002 24.2008 39.8002 23.3008L36.2002 26.0008Z" fill="#BAB220"/>
<path d="M28.8998 38.9996C27.4998 38.9996 25.9998 38.7996 24.6998 38.2996C24.3998 38.1996 24.1998 37.9996 24.0998 37.6996C23.9998 37.3996 24.0998 37.0996 24.2998 36.8996L28.4998 31.4996C28.6998 31.2996 28.9998 31.0996 29.1998 31.0996C29.4998 31.0996 29.7998 31.1996 29.8998 31.4996L33.8998 36.7996C34.0998 36.9996 34.0998 37.2996 33.9998 37.5996C33.8998 37.8996 33.6998 38.0996 33.3998 38.1996C31.9998 38.7996 30.4998 38.9996 28.8998 38.9996ZM26.5998 36.8996C28.2998 37.2996 29.9998 37.1996 31.5998 36.7996L29.1998 33.4996L26.5998 36.8996Z" fill="#BAB220"/>
<path d="M17.3998 30.9009C17.2998 30.9009 17.1998 30.9009 17.0998 30.9009C16.7998 30.8009 16.5998 30.6009 16.4998 30.3009C15.9998 28.9009 15.7998 27.501 15.7998 26.101C15.7998 24.701 15.9998 23.2009 16.4998 21.9009C16.5998 21.6009 16.7998 21.4009 17.0998 21.3009C17.3998 21.2009 17.6998 21.3009 17.8998 21.5009L22.9998 25.4009C23.1998 25.6009 23.3998 25.801 23.3998 26.101C23.3998 26.401 23.2998 26.7009 22.9998 26.8009L17.9998 30.701C17.7998 30.801 17.5998 30.9009 17.3998 30.9009ZM17.9998 23.601C17.7998 24.401 17.7998 25.2009 17.7998 25.9009C17.7998 26.7009 17.8998 27.501 17.9998 28.201L20.9998 25.9009L17.9998 23.601Z" fill="#BAB220"/>
<path d="M29.1996 20.9C28.8996 20.9 28.5996 20.8 28.4996 20.5L24.2996 15.1C24.0996 14.9 24.0996 14.5 24.0996 14.3C24.1996 14 24.3996 13.8 24.6996 13.7C26.0996 13.2 27.4996 13 28.8996 13C30.4996 13 31.9996 13.3 33.4996 13.8C33.7996 13.9 33.9996 14.1 34.0996 14.4C34.1996 14.7 34.0996 15 33.9996 15.2L29.9996 20.5C29.6996 20.7 29.4996 20.9 29.1996 20.9ZM26.5996 15L29.1996 18.3L31.5996 15C29.9996 14.7 28.1996 14.7 26.5996 15Z" fill="#BAB220"/>
<path d="M14.4004 52C14.2004 52 13.9004 51.9 13.7004 51.7L3.20039 41.2C3.00039 41 2.90039 40.7 2.90039 40.4C2.90039 40.1 3.00039 39.9 3.30039 39.7L21.0004 26L3.30039 12.2C3.10039 12 3.00039 11.8 2.90039 11.5C2.90039 11.2 3.00039 11 3.20039 10.8L13.7004 0.3C13.9004 0.1 14.2004 0 14.5004 0C14.8004 0 15.0004 0.1 15.2004 0.4L29.2004 18.4L42.7004 0.4C42.8004 0.2 43.1004 0 43.3004 0C43.6004 0 43.8004 0.1 44.0004 0.3L54.5004 10.8C54.7004 11 54.8004 11.3 54.8004 11.5C54.8004 11.8 54.6004 12 54.4004 12.2L36.2004 26L54.5004 39.8C54.7004 40 54.9004 40.2 54.9004 40.5C54.9004 40.8 54.8004 41 54.6004 41.2L44.1004 51.7C43.9004 51.9 43.6004 52 43.4004 52C43.1004 52 42.9004 51.8 42.7004 51.6L29.2004 33.6L15.2004 51.6C15.0004 51.8 14.7004 52 14.4004 52ZM5.30039 40.6L14.4004 49.7L28.5004 31.5C28.7004 31.3 29.0004 31.1 29.2004 31.1C29.5004 31.1 29.8004 31.2 29.9004 31.5L43.5004 49.6L52.5004 40.6L34.1004 26.7C33.9004 26.5 33.7004 26.2 33.7004 26C33.7004 25.7 33.8004 25.4 34.1004 25.3L52.6004 11.4L43.6004 2.4L29.9004 20.5C29.7004 20.7 29.5004 20.9 29.2004 20.9C28.9004 20.9 28.6004 20.8 28.5004 20.5L14.3004 2.3L5.20039 11.4L23.0004 25.3C23.2004 25.5 23.4004 25.7 23.4004 26C23.4004 26.3 23.3004 26.6 23.0004 26.7L5.30039 40.6Z" fill="#316D69"/>
<path d="M28.9004 32.5C25.3004 32.5 22.4004 29.6 22.4004 26C22.4004 22.4 25.3004 19.5 28.9004 19.5C32.5004 19.5 35.4004 22.4 35.4004 26C35.4004 29.6 32.5004 32.5 28.9004 32.5ZM28.9004 21.3C26.3004 21.3 24.2004 23.4 24.2004 26C24.2004 28.6 26.3004 30.7 28.9004 30.7C31.5004 30.7 33.6004 28.6 33.6004 26C33.6004 23.4 31.5004 21.3 28.9004 21.3Z" fill="#BAB220"/>
<path d="M42.0004 73.5H15.8004C15.3004 73.5 14.9004 73.1 14.9004 72.6V68.9C14.9004 64.3 18.7004 60.5 23.3004 60.5H34.5004C39.1004 60.5 42.9004 64.3 42.9004 68.9V72.6C42.9004 73.1 42.5004 73.5 42.0004 73.5ZM16.8004 71.7H41.0004V68.9C41.0004 65.3 38.1004 62.4 34.5004 62.4H23.3004C19.7004 62.4 16.8004 65.3 16.8004 68.9V71.7Z" fill="#316D69"/>
<path d="M56.9002 80.9996H0.900228C0.500228 80.9996 0.200228 80.7996 0.100228 80.4996C-0.0997721 80.1996 0.000227928 79.7996 0.200228 79.4996L5.80023 71.9996C6.00023 71.7996 6.30023 71.5996 6.50023 71.5996H51.3002C51.6002 71.5996 51.9002 71.6996 52.0002 71.9996L57.6002 79.3996C57.7002 79.5996 57.8002 79.7996 57.8002 79.9996C57.8002 80.5996 57.4002 80.9996 56.9002 80.9996ZM2.80023 79.0996H55.0002L50.8002 73.4996H7.00023L2.80023 79.0996Z" fill="#316D69"/>
<path d="M23.3004 68.8996C22.3004 68.8996 21.4004 68.0996 21.4004 66.9996C21.4004 65.8996 22.2004 65.0996 23.3004 65.0996C24.3004 65.0996 25.2004 65.8996 25.2004 66.9996C25.2004 67.9996 24.3004 68.8996 23.3004 68.8996Z" fill="#BAB220"/>
<path d="M28.9 68.8996C27.9 68.8996 27 68.0996 27 66.9996C27 65.8996 27.8 65.0996 28.9 65.0996C29.9 65.0996 30.8 65.8996 30.8 66.9996C30.8 67.9996 29.9 68.8996 28.9 68.8996Z" fill="#BAB220"/>
<path d="M34.4996 68.8996C33.4996 68.8996 32.5996 68.0996 32.5996 66.9996C32.5996 65.8996 33.3996 65.0996 34.4996 65.0996C35.4996 65.0996 36.3996 65.8996 36.3996 66.9996C36.3996 67.9996 35.4996 68.8996 34.4996 68.8996Z" fill="#BAB220"/>
</g>
<defs>
<clipPath id="clip0_888_2579">
<rect width="58" height="81" fill="white"/>
</clipPath>
</defs>
</svg>
