<svg width="82" height="62" viewBox="0 0 82 62" fill="none" xmlns="http://www.w3.org/2000/svg">
<path d="M53.1 61.8H2.1C1.5 61.8 1 61.3 1 60.7V29C1 28.7 1.1 28.4 1.3 28.2L20.4 9C20.8 8.6 21.5 8.6 22 9C22.2 9.2 22.3 9.5 22.3 9.8V26.3L39.5 9C39.9 8.6 40.6 8.6 41.1 9C41.3 9.2 41.4 9.5 41.4 9.8V27.9H52V8H50.8C50.2 8 49.7 7.5 49.7 6.9V2.1C49.7 1.5 50.2 1 50.8 1H73.3C73.9 1 74.4 1.5 74.4 2.1V6.9C74.4 7.5 73.9 8 73.3 8H72.1V27.9H79.9C80.5 27.9 81 28.4 81 29V60.6C81 61.2 80.5 61.7 79.9 61.7L53.1 61.8ZM30.8 59.5V40.6C30.8 40 31.3 39.5 31.9 39.5H46.7C47.3 39.5 47.8 40 47.8 40.6V59.5H52V30.2H40.4C39.8 30.2 39.3 29.7 39.3 29.1V12.5L22 29.8C21.8 30 21.5 30.1 21.2 30.1C20.6 30.1 20.1 29.6 20.1 29V12.5L3.2 29.5V59.5H8.8V40.6C8.8 40 9.3 39.5 9.9 39.5H24.7C25.3 39.5 25.8 40 25.8 40.6V59.5H30.8ZM45.6 59.5V41.7H33V59.5H45.6ZM23.7 59.5V41.7H11.1V59.5H23.7ZM72.1 30.2V59.6H78.8V30.2H72.1ZM54.2 59.5H69.8V29V6.9C69.8 6.3 70.3 5.8 70.9 5.8H72.1V3.3H51.9V5.8H53.1C53.7 5.8 54.2 6.3 54.2 6.9V59.5Z" fill="#316D69"/>
<mask id="mask0_888_2604" style="mask-type:luminance" maskUnits="userSpaceOnUse" x="1" y="1" width="80" height="61">
<path d="M53.1 61.8H2.1C1.5 61.8 1 61.3 1 60.7V29C1 28.7 1.1 28.4 1.3 28.2L20.4 9C20.8 8.6 21.5 8.6 22 9C22.2 9.2 22.3 9.5 22.3 9.8V26.3L39.5 9C39.9 8.6 40.6 8.6 41.1 9C41.3 9.2 41.4 9.5 41.4 9.8V27.9H52V8H50.8C50.2 8 49.7 7.5 49.7 6.9V2.1C49.7 1.5 50.2 1 50.8 1H73.3C73.9 1 74.4 1.5 74.4 2.1V6.9C74.4 7.5 73.9 8 73.3 8H72.1V27.9H79.9C80.5 27.9 81 28.4 81 29V60.6C81 61.2 80.5 61.7 79.9 61.7L53.1 61.8ZM30.8 59.5V40.6C30.8 40 31.3 39.5 31.9 39.5H46.7C47.3 39.5 47.8 40 47.8 40.6V59.5H52V30.2H40.4C39.8 30.2 39.3 29.7 39.3 29.1V12.5L22 29.8C21.8 30 21.5 30.1 21.2 30.1C20.6 30.1 20.1 29.6 20.1 29V12.5L3.2 29.5V59.5H8.8V40.6C8.8 40 9.3 39.5 9.9 39.5H24.7C25.3 39.5 25.8 40 25.8 40.6V59.5H30.8ZM45.6 59.5V41.7H33V59.5H45.6ZM23.7 59.5V41.7H11.1V59.5H23.7ZM72.1 30.2V59.6H78.8V30.2H72.1ZM54.2 59.5H69.8V29V6.9C69.8 6.3 70.3 5.8 70.9 5.8H72.1V3.3H51.9V5.8H53.1C53.7 5.8 54.2 6.3 54.2 6.9V59.5Z" fill="white"/>
</mask>
<g mask="url(#mask0_888_2604)">
<path d="M48.3996 38.6992H8.09961V59.5992H48.3996V38.6992Z" fill="#BAB220"/>
</g>
<path d="M53.1 61.8H2.1C1.5 61.8 1 61.3 1 60.7V29C1 28.7 1.1 28.4 1.3 28.2L20.4 9C20.8 8.6 21.5 8.6 22 9C22.2 9.2 22.3 9.5 22.3 9.8V26.3L39.5 9C39.9 8.6 40.6 8.6 41.1 9C41.3 9.2 41.4 9.5 41.4 9.8V27.9H52V8H50.8C50.2 8 49.7 7.5 49.7 6.9V2.1C49.7 1.5 50.2 1 50.8 1H73.3C73.9 1 74.4 1.5 74.4 2.1V6.9C74.4 7.5 73.9 8 73.3 8H72.1V27.9H79.9C80.5 27.9 81 28.4 81 29V60.6C81 61.2 80.5 61.7 79.9 61.7L53.1 61.8ZM30.8 59.5V40.6C30.8 40 31.3 39.5 31.9 39.5H46.7C47.3 39.5 47.8 40 47.8 40.6V59.5H52V30.2H40.4C39.8 30.2 39.3 29.7 39.3 29.1V12.5L22 29.8C21.8 30 21.5 30.1 21.2 30.1C20.6 30.1 20.1 29.6 20.1 29V12.5L3.2 29.5V59.5H8.8V40.6C8.8 40 9.3 39.5 9.9 39.5H24.7C25.3 39.5 25.8 40 25.8 40.6V59.5H30.8ZM45.6 59.5V41.7H33V59.5H45.6ZM23.7 59.5V41.7H11.1V59.5H23.7ZM72.1 30.2V59.6H78.8V30.2H72.1ZM54.2 59.5H69.8V29V6.9C69.8 6.3 70.3 5.8 70.9 5.8H72.1V3.3H51.9V5.8H53.1C53.7 5.8 54.2 6.3 54.2 6.9V59.5Z" stroke="white" stroke-width="0.2"/>
<path fill-rule="evenodd" clip-rule="evenodd" d="M65.8004 25.0996C64.8004 24.0996 63.5004 23.5996 62.1004 23.5996C60.7004 23.5996 59.3004 24.1996 58.4004 25.0996C57.4004 26.0996 56.9004 27.3996 56.9004 28.7996C56.9004 30.2996 57.5004 31.5996 58.4004 32.4996C59.4004 33.4996 60.7004 33.9996 62.1004 33.9996C63.5004 33.9996 64.9004 33.3996 65.8004 32.4996C66.8004 31.4996 67.3004 30.1996 67.3004 28.7996C67.4004 27.3996 66.8004 25.9996 65.8004 25.0996ZM64.3004 30.9996C63.8004 31.4996 63.0004 31.8996 62.2004 31.8996C61.4004 31.8996 60.6004 31.5996 60.1004 30.9996C59.6004 30.4996 59.2004 29.6996 59.2004 28.8996C59.2004 28.0996 59.5004 27.2996 60.1004 26.7996C60.6004 26.2996 61.4004 25.8996 62.2004 25.8996C63.0004 25.8996 63.8004 26.1996 64.3004 26.7996C64.8004 27.2996 65.2004 28.0996 65.2004 28.8996C65.1004 29.6996 64.8004 30.3996 64.3004 30.9996Z" fill="#BAB220" stroke="white" stroke-width="0.2"/>
<path fill-rule="evenodd" clip-rule="evenodd" d="M65.8004 12.0996C64.8004 11.0996 63.5004 10.5996 62.1004 10.5996C60.7004 10.5996 59.3004 11.1996 58.4004 12.0996C57.4004 13.0996 56.9004 14.3996 56.9004 15.7996C56.9004 17.2996 57.5004 18.5996 58.4004 19.4996C59.4004 20.4996 60.7004 20.9996 62.1004 20.9996C63.5004 20.9996 64.9004 20.3996 65.8004 19.4996C66.8004 18.4996 67.3004 17.1996 67.3004 15.7996C67.4004 14.3996 66.8004 13.0996 65.8004 12.0996ZM64.3004 17.9996C63.7004 18.5996 63.0004 18.8996 62.1004 18.8996C61.3004 18.8996 60.5004 18.5996 60.0004 17.9996C59.5004 17.4996 59.1004 16.6996 59.1004 15.8996C59.1004 15.0996 59.4004 14.2996 60.0004 13.7996C60.5004 13.2996 61.3004 12.8996 62.1004 12.8996C62.9004 12.8996 63.7004 13.1996 64.2004 13.7996C64.7004 14.2996 65.1004 15.0996 65.1004 15.8996C65.1004 16.6996 64.8004 17.4996 64.3004 17.9996Z" fill="#BAB220" stroke="white" stroke-width="0.2"/>
</svg>
