<svg width="80" height="81" viewBox="0 0 80 81" fill="none" xmlns="http://www.w3.org/2000/svg">
<mask id="mask0_888_2544" style="mask-type:luminance" maskUnits="userSpaceOnUse" x="0" y="0" width="80" height="81">
<path d="M80 0H0V81H80V0Z" fill="white"/>
</mask>
<g mask="url(#mask0_888_2544)">
<path d="M52.0998 8.29942C52.6998 7.89942 54.5998 6.99942 55.6998 7.49942C55.8998 7.59942 56.3998 7.79942 56.4998 8.99942C56.5998 9.29942 56.6998 9.59942 56.9998 9.69942C57.2998 9.79942 57.5998 9.89942 57.8998 9.69942C58.3998 9.39942 60.1998 8.79942 61.0998 9.29942C61.2998 9.39942 61.6998 9.59942 61.7998 10.6994C61.9998 11.8994 63.7998 11.6994 63.6998 10.4994C63.2998 7.09942 60.3998 6.79942 58.1998 7.59942C56.7998 3.89942 52.2998 5.99942 51.1998 6.69942C50.0998 7.39942 50.9998 8.89942 52.0998 8.29942Z" fill="#316D69"/>
<path d="M16.6998 14.7002C17.1998 14.9002 17.6998 14.6002 17.8998 14.1002C18.1998 13.3002 18.5998 13.2002 18.6998 13.2002C19.3998 13.0002 20.3998 13.5002 20.7998 13.7002C20.9998 13.9002 21.2998 13.9002 21.5998 13.8002C21.8998 13.7002 22.0998 13.5002 22.1998 13.3002C22.3998 12.9002 22.5998 12.3002 22.9998 12.3002C23.4998 12.2002 24.0998 12.8002 24.3998 13.0002C25.2998 13.9002 26.5998 12.6002 25.7998 11.7002C24.8998 10.7002 22.4998 9.30016 20.8998 11.7002C20.1998 11.4002 19.0998 11.1002 18.0998 11.5002C17.4998 11.7002 16.5998 12.2002 16.0998 13.6002C15.8998 14.0002 16.1998 14.5002 16.6998 14.7002Z" fill="#316D69"/>
<path d="M79.8002 48.6C79.6002 48.4 79.3002 48.2 79.1002 48.2H69.1002V44.7C70.0002 44.8 70.9002 44.6 71.8002 44.3C72.9002 43.8 74.9002 44.1 75.6002 44.2C76.0002 44.3 76.3002 44.1 76.5002 43.8C76.7002 43.5 76.8002 43.1 76.6002 42.8L74.9002 39.7C74.3002 38.6 72.7002 39.5 73.2002 40.6L74.0002 42.1C73.0002 42 71.9002 42.1 71.0002 42.5C70.4002 42.8 69.4002 42.8 68.3002 42.6C67.1002 42.4 66.3002 41.9 64.6002 41.9C63.8002 41.9 63.0002 42 62.3002 42.3C61.4002 42.7 59.8002 42.6 58.6002 42.5L61.2002 37.7C62.4002 37.8 63.5002 37.6 64.6002 37.2C66.1002 36.6 67.8002 37.1 68.7002 37.4C70.6002 38.1 73.0002 38.3 74.7002 37.1C75.1002 36.8 75.2002 36.3 75.0002 35.9L72.7002 31.6C72.1002 30.5 70.5002 31.4 71.0002 32.5L72.9002 36C71.7002 36.3 70.6002 36.1 69.4002 35.7C68.3002 35.3 66.1002 34.8 64.0002 35.5C63.1002 35.8 62.0002 35.9 60.8002 35.8C60.6002 35.8 60.5002 35.8 60.3002 35.7L63.5002 29.8C64.1002 29.8 64.7002 29.7 65.3002 29.4C66.3002 29 67.5002 29.4 68.0002 29.5C69.4002 30 71.3002 30.1 72.5002 29.2C72.9002 28.9 73.0002 28.4 72.8002 28L67.4002 18C67.2002 17.7 66.9002 17.5 66.6002 17.5C66.2002 17.5 65.9002 17.7 65.8002 18L60.4002 28C60.3002 28.3 60.2002 28.5 60.4002 28.8C60.5002 29.1 60.7002 29.3 61.0002 29.3C61.0002 29.3 61.3002 29.4 61.6002 29.5L58.0002 36.1C57.9002 36.4 57.8002 36.6 58.0002 36.9C58.1002 37.2 58.3002 37.4 58.6002 37.4C58.6002 37.4 58.9002 37.5 59.3002 37.6L56.4002 42.9C56.3002 43.2 56.2002 43.5 56.4002 43.7C56.5002 44 56.8002 44.2 57.0002 44.2C57.4002 44.3 61.1002 45.1 63.2002 44.1C63.4002 44 63.6002 43.9 63.8002 43.9V48.1H43.9002V42.7C45.4002 42.9 47.1002 42.8 48.6002 42.2C50.9002 41.2 55.1002 42 55.2002 42C55.6002 42.1 55.9002 41.9 56.1002 41.6C56.3002 41.3 56.4002 40.9 56.2002 40.6L53.0002 34.6C52.4002 33.5 50.8002 34.4 51.3002 35.5L53.7002 39.9C52.1002 39.7 49.6002 39.7 47.9002 40.4C46.4002 41 44.4002 40.9 43.2002 40.7C42.7002 40.6 42.2002 40.5 41.7002 40.4C40.2002 39.9 36.5002 39 33.7002 40.3C31.9002 41.2 28.5002 40.8 26.4002 40.5L31.2002 31.6C33.4002 31.8 35.3002 31.5 36.9002 30.9C41.6002 29.3 44.3002 32 48.3002 32C48.9002 32 49.4002 32 50.0002 31.9C51.3002 31.7 52.4002 31.3 53.2002 30.7C53.6002 30.4 53.7002 29.9 53.5002 29.5L49.2002 21.6C49.1002 21.4 48.9002 21.2 48.6002 21.1C48.4002 21 48.1002 21 47.9002 21.2C47.7002 21.3 47.5002 21.5 47.4002 21.8C47.3002 22 47.4002 22.3 47.5002 22.5L51.4002 29.6C50.5002 30 49.4002 30.1 48.4002 30.1C47.1002 30.1 45.9002 29.8 44.7002 29.4C43.0002 28.8 39.5002 27.9 36.3002 29.1C34.8002 29.7 32.9002 29.9 30.8002 29.6C30.2002 29.5 29.6002 29.4 29.1002 29.3L34.9002 18.6C36.0002 18.6 37.0002 18.4 38.0002 18.1C39.8002 17.4 41.8002 17.9 42.8002 18.3C44.9002 19.1 47.9002 19.2 49.6002 18C50.0002 17.7 50.1002 17.2 49.9002 16.8L40.9002 0.5C40.7002 0.2 40.4002 0 40.1002 0C39.8002 0 39.4002 0.2 39.3002 0.5L30.5002 16.8C30.4002 17.1 30.3002 17.3 30.5002 17.6C30.6002 17.9 30.8002 18.1 31.1002 18.1C31.7002 18.3 32.2002 18.4 32.8002 18.5L26.9002 29.5C26.8002 29.8 26.7002 30 26.8002 30.3C26.9002 30.6 27.1002 30.8 27.4002 30.8C28.0002 31 28.6002 31.1 29.2002 31.2L24.0002 40.8C23.9002 41.1 23.8002 41.4 24.0002 41.6C24.1002 41.9 24.4002 42.1 24.6002 42.1C24.9002 42.2 31.0002 43.6 34.4002 42C35.0002 41.7 35.6002 41.6 36.2002 41.6V48.2H16.2002V44.7C17.1002 44.8 18.0002 44.6 18.9002 44.3C20.0002 43.8 22.0002 44.1 22.7002 44.2C23.1002 44.3 23.4002 44.1 23.6002 43.8C23.8002 43.5 23.9002 43.1 23.7002 42.8L22.0002 39.8C21.4002 38.7 19.8002 39.6 20.3002 40.7L21.1002 42.2C20.1002 42.1 19.0002 42.2 18.1002 42.6C17.5002 42.9 16.5002 42.9 15.4002 42.7C14.2002 42.5 13.4002 42 11.7002 42C10.9002 42 10.1002 42.1 9.40017 42.4C8.50017 42.8 6.90017 42.7 5.70017 42.6L8.30017 37.8C9.50017 37.9 10.6002 37.7 11.7002 37.3C13.2002 36.7 14.9002 37.2 15.8002 37.5C17.7002 38.2 20.1002 38.4 21.8002 37.2C22.2002 36.9 22.3002 36.4 22.1002 36L19.8002 31.7C19.2002 30.6 17.6002 31.5 18.1002 32.6L20.0002 36.1C18.8002 36.4 17.7002 36.2 16.5002 35.8C15.4002 35.4 13.2002 34.9 11.1002 35.6C10.1002 36 8.70017 36.1 7.40017 35.8L10.6002 29.9C11.2002 29.9 11.8002 29.8 12.4002 29.5C13.4002 29.1 14.6002 29.5 15.1002 29.6C16.5002 30.1 18.4002 30.2 19.6002 29.3C20.0002 29 20.1002 28.5 19.9002 28.1L14.5002 18.1C14.3002 17.8 14.0002 17.6 13.7002 17.6C13.3002 17.6 13.0002 17.8 12.9002 18.1L7.50017 28.1C7.40017 28.4 7.30017 28.6 7.50017 28.9C7.60017 29.2 7.80017 29.4 8.10017 29.4C8.10017 29.4 8.40017 29.5 8.70017 29.6L5.30017 35.9C5.20017 36.2 5.10017 36.4 5.30017 36.7C5.40017 37 5.60017 37.2 5.90017 37.2C5.90017 37.2 6.20017 37.3 6.60017 37.4L3.70017 42.7C3.60017 43 3.50017 43.3 3.70017 43.5C3.80017 43.8 4.10017 44 4.30017 44C4.70017 44.1 8.40017 44.9 10.5002 43.9C10.7002 43.8 10.9002 43.8 11.1002 43.7V47.9H0.900168C0.600168 47.9 0.300168 48 0.200168 48.3C0.000167981 48.8 -0.099832 49.1 0.000167985 49.4C2.10017 58.3 7.20017 66.3 14.3002 72C30.8002 85.5 56.1002 83.5 70.3002 67.6C75.0002 62.4 78.3002 56.2 80.0002 49.3C80.1002 49.1 80.0002 48.8 79.8002 48.6ZM66.4002 20.8L70.4002 28.3C68.9002 28.5 67.9002 27.6 66.2002 27.6C65.6002 27.6 65.0002 27.7 64.5002 27.9C63.8002 28.1 63.1002 28.2 62.4002 28.1L66.4002 20.8ZM40.0002 2.9L47.5002 16.9C46.2002 17.3 44.6002 17.1 43.2002 16.6C42.2002 16.2 41.0002 16 39.8002 16C38.9002 16 38.1002 16.1 37.2002 16.4C35.6002 17 33.8002 16.8 32.7002 16.6L40.0002 2.9ZM13.5002 20.8L17.5002 28.3C16.0002 28.5 15.0002 27.6 13.3002 27.6C12.7002 27.6 12.1002 27.7 11.6002 27.9C10.9002 28.1 10.2002 28.2 9.50017 28.1L13.5002 20.8ZM65.6002 44.1C66.2002 44.2 66.7002 44.3 67.2002 44.5V48.3H65.6002V44.1ZM38.0002 41.7C39.4002 41.8 40.6002 42.3 41.9002 42.6V48.3H38.0002V41.7ZM12.7002 44.1C13.3002 44.2 13.8002 44.3 14.3002 44.5V48.3H12.7002V44.1ZM2.20017 50.1H29.7002C29.4002 52.5 28.3002 55 26.0002 56.1C23.1002 57.5 21.2002 58.9 20.3002 60.2C18.4002 62.6 22.5002 67.3 26.1002 68.5C27.4002 69 29.8002 70.2 30.5002 72.3C31.9002 76.6 38.0002 76.4 38.3002 76.4C38.4002 76.4 44.5002 76.2 50.0002 77.9C29.4002 83.5 7.30017 70.7 2.20017 50.1ZM52.9002 77C46.6002 74.2 38.6002 74.5 38.2002 74.5C38.1002 74.5 33.3002 74.7 32.3002 71.7C31.3002 68.9 28.4002 67.4 26.8002 66.8C25.7002 66.4 24.6002 65.7 23.7002 64.9C22.1002 63.4 21.4002 62 21.9002 61.3C22.6002 60.3 24.4002 59 26.9002 57.8C29.9002 56.4 31.4002 53.2 31.7002 50.1H64.2002C64.6002 51.1 64.8002 52.3 64.8002 53.4V53.5C64.9002 54.9 62.9002 57 59.7002 59C58.9002 59.5 58.3002 60 57.6002 60.6C55.7002 62.2 54.6002 64.7 54.5002 67.5C54.4002 68.9 53.6002 69.1 50.7002 69.1C49.7002 69.1 48.6002 69.1 47.5002 69.3C44.2002 70 42.0002 67 41.2002 65.2C40.9002 64.6 41.0002 64 41.4002 63.5C41.8002 62.9 42.5002 62.6 43.2002 62.5C44.9002 62.3 48.3002 61.7 51.5002 60.1C53.3002 59.2 54.6002 57.2 55.4002 54.4C55.7002 53.2 54.0002 52.7 53.6002 53.9C53.0002 56.2 52.0002 57.8 50.7002 58.4C47.7002 60 44.3002 60.5 43.0002 60.6C41.8002 60.7 40.7002 61.4 39.9002 62.3C39.5002 62.8 39.2002 63.4 39.2002 64C39.1002 64.6 39.2002 65.3 39.5002 65.9C40.8002 69.1 44.2002 71.9 47.9002 71.1C50.9002 70.5 56.1002 72 56.4002 67.5C56.5002 65.2 57.3002 63.3 58.9002 61.9C59.5002 61.4 60.1002 60.9 60.7002 60.5C63.5002 58.8 66.8002 56.1 66.7002 53.4C66.7002 52.3 66.5002 51.1 66.2002 50.1H78.0002C76.3002 56.3 73.2002 61.9 68.8002 66.6C64.3002 71.3 58.9002 74.9 52.9002 77Z" fill="#BAB220"/>
<mask id="mask1_888_2544" style="mask-type:luminance" maskUnits="userSpaceOnUse" x="-1" y="0" width="82" height="81">
<path d="M79.8002 48.6C79.6002 48.4 79.3002 48.2 79.1002 48.2H69.1002V44.7C70.0002 44.8 70.9002 44.6 71.8002 44.3C72.9002 43.8 74.9002 44.1 75.6002 44.2C76.0002 44.3 76.3002 44.1 76.5002 43.8C76.7002 43.5 76.8002 43.1 76.6002 42.8L74.9002 39.7C74.3002 38.6 72.7002 39.5 73.2002 40.6L74.0002 42.1C73.0002 42 71.9002 42.1 71.0002 42.5C70.4002 42.8 69.4002 42.8 68.3002 42.6C67.1002 42.4 66.3002 41.9 64.6002 41.9C63.8002 41.9 63.0002 42 62.3002 42.3C61.4002 42.7 59.8002 42.6 58.6002 42.5L61.2002 37.7C62.4002 37.8 63.5002 37.6 64.6002 37.2C66.1002 36.6 67.8002 37.1 68.7002 37.4C70.6002 38.1 73.0002 38.3 74.7002 37.1C75.1002 36.8 75.2002 36.3 75.0002 35.9L72.7002 31.6C72.1002 30.5 70.5002 31.4 71.0002 32.5L72.9002 36C71.7002 36.3 70.6002 36.1 69.4002 35.7C68.3002 35.3 66.1002 34.8 64.0002 35.5C63.1002 35.8 62.0002 35.9 60.8002 35.8C60.6002 35.8 60.5002 35.8 60.3002 35.7L63.5002 29.8C64.1002 29.8 64.7002 29.7 65.3002 29.4C66.3002 29 67.5002 29.4 68.0002 29.5C69.4002 30 71.3002 30.1 72.5002 29.2C72.9002 28.9 73.0002 28.4 72.8002 28L67.4002 18C67.2002 17.7 66.9002 17.5 66.6002 17.5C66.2002 17.5 65.9002 17.7 65.8002 18L60.4002 28C60.3002 28.3 60.2002 28.5 60.4002 28.8C60.5002 29.1 60.7002 29.3 61.0002 29.3C61.0002 29.3 61.3002 29.4 61.6002 29.5L58.0002 36.1C57.9002 36.4 57.8002 36.6 58.0002 36.9C58.1002 37.2 58.3002 37.4 58.6002 37.4C58.6002 37.4 58.9002 37.5 59.3002 37.6L56.4002 42.9C56.3002 43.2 56.2002 43.5 56.4002 43.7C56.5002 44 56.8002 44.2 57.0002 44.2C57.4002 44.3 61.1002 45.1 63.2002 44.1C63.4002 44 63.6002 43.9 63.8002 43.9V48.1H43.9002V42.7C45.4002 42.9 47.1002 42.8 48.6002 42.2C50.9002 41.2 55.1002 42 55.2002 42C55.6002 42.1 55.9002 41.9 56.1002 41.6C56.3002 41.3 56.4002 40.9 56.2002 40.6L53.0002 34.6C52.4002 33.5 50.8002 34.4 51.3002 35.5L53.7002 39.9C52.1002 39.7 49.6002 39.7 47.9002 40.4C46.4002 41 44.4002 40.9 43.2002 40.7C42.7002 40.6 42.2002 40.5 41.7002 40.4C40.2002 39.9 36.5002 39 33.7002 40.3C31.9002 41.2 28.5002 40.8 26.4002 40.5L31.2002 31.6C33.4002 31.8 35.3002 31.5 36.9002 30.9C41.6002 29.3 44.3002 32 48.3002 32C48.9002 32 49.4002 32 50.0002 31.9C51.3002 31.7 52.4002 31.3 53.2002 30.7C53.6002 30.4 53.7002 29.9 53.5002 29.5L49.2002 21.6C49.1002 21.4 48.9002 21.2 48.6002 21.1C48.4002 21 48.1002 21 47.9002 21.2C47.7002 21.3 47.5002 21.5 47.4002 21.8C47.3002 22 47.4002 22.3 47.5002 22.5L51.4002 29.6C50.5002 30 49.4002 30.1 48.4002 30.1C47.1002 30.1 45.9002 29.8 44.7002 29.4C43.0002 28.8 39.5002 27.9 36.3002 29.1C34.8002 29.7 32.9002 29.9 30.8002 29.6C30.2002 29.5 29.6002 29.4 29.1002 29.3L34.9002 18.6C36.0002 18.6 37.0002 18.4 38.0002 18.1C39.8002 17.4 41.8002 17.9 42.8002 18.3C44.9002 19.1 47.9002 19.2 49.6002 18C50.0002 17.7 50.1002 17.2 49.9002 16.8L40.9002 0.5C40.7002 0.2 40.4002 0 40.1002 0C39.8002 0 39.4002 0.2 39.3002 0.5L30.5002 16.8C30.4002 17.1 30.3002 17.3 30.5002 17.6C30.6002 17.9 30.8002 18.1 31.1002 18.1C31.7002 18.3 32.2002 18.4 32.8002 18.5L26.9002 29.5C26.8002 29.8 26.7002 30 26.8002 30.3C26.9002 30.6 27.1002 30.8 27.4002 30.8C28.0002 31 28.6002 31.1 29.2002 31.2L24.0002 40.8C23.9002 41.1 23.8002 41.4 24.0002 41.6C24.1002 41.9 24.4002 42.1 24.6002 42.1C24.9002 42.2 31.0002 43.6 34.4002 42C35.0002 41.7 35.6002 41.6 36.2002 41.6V48.2H16.2002V44.7C17.1002 44.8 18.0002 44.6 18.9002 44.3C20.0002 43.8 22.0002 44.1 22.7002 44.2C23.1002 44.3 23.4002 44.1 23.6002 43.8C23.8002 43.5 23.9002 43.1 23.7002 42.8L22.0002 39.8C21.4002 38.7 19.8002 39.6 20.3002 40.7L21.1002 42.2C20.1002 42.1 19.0002 42.2 18.1002 42.6C17.5002 42.9 16.5002 42.9 15.4002 42.7C14.2002 42.5 13.4002 42 11.7002 42C10.9002 42 10.1002 42.1 9.40017 42.4C8.50017 42.8 6.90017 42.7 5.70017 42.6L8.30017 37.8C9.50017 37.9 10.6002 37.7 11.7002 37.3C13.2002 36.7 14.9002 37.2 15.8002 37.5C17.7002 38.2 20.1002 38.4 21.8002 37.2C22.2002 36.9 22.3002 36.4 22.1002 36L19.8002 31.7C19.2002 30.6 17.6002 31.5 18.1002 32.6L20.0002 36.1C18.8002 36.4 17.7002 36.2 16.5002 35.8C15.4002 35.4 13.2002 34.9 11.1002 35.6C10.1002 36 8.70017 36.1 7.40017 35.8L10.6002 29.9C11.2002 29.9 11.8002 29.8 12.4002 29.5C13.4002 29.1 14.6002 29.5 15.1002 29.6C16.5002 30.1 18.4002 30.2 19.6002 29.3C20.0002 29 20.1002 28.5 19.9002 28.1L14.5002 18.1C14.3002 17.8 14.0002 17.6 13.7002 17.6C13.3002 17.6 13.0002 17.8 12.9002 18.1L7.50017 28.1C7.40017 28.4 7.30017 28.6 7.50017 28.9C7.60017 29.2 7.80017 29.4 8.10017 29.4C8.10017 29.4 8.40017 29.5 8.70017 29.6L5.30017 35.9C5.20017 36.2 5.10017 36.4 5.30017 36.7C5.40017 37 5.60017 37.2 5.90017 37.2C5.90017 37.2 6.20017 37.3 6.60017 37.4L3.70017 42.7C3.60017 43 3.50017 43.3 3.70017 43.5C3.80017 43.8 4.10017 44 4.30017 44C4.70017 44.1 8.40017 44.9 10.5002 43.9C10.7002 43.8 10.9002 43.8 11.1002 43.7V47.9H0.900168C0.600168 47.9 0.300168 48 0.200168 48.3C0.000167981 48.8 -0.099832 49.1 0.000167985 49.4C2.10017 58.3 7.20017 66.3 14.3002 72C30.8002 85.5 56.1002 83.5 70.3002 67.6C75.0002 62.4 78.3002 56.2 80.0002 49.3C80.1002 49.1 80.0002 48.8 79.8002 48.6ZM66.4002 20.8L70.4002 28.3C68.9002 28.5 67.9002 27.6 66.2002 27.6C65.6002 27.6 65.0002 27.7 64.5002 27.9C63.8002 28.1 63.1002 28.2 62.4002 28.1L66.4002 20.8ZM40.0002 2.9L47.5002 16.9C46.2002 17.3 44.6002 17.1 43.2002 16.6C42.2002 16.2 41.0002 16 39.8002 16C38.9002 16 38.1002 16.1 37.2002 16.4C35.6002 17 33.8002 16.8 32.7002 16.6L40.0002 2.9ZM13.5002 20.8L17.5002 28.3C16.0002 28.5 15.0002 27.6 13.3002 27.6C12.7002 27.6 12.1002 27.7 11.6002 27.9C10.9002 28.1 10.2002 28.2 9.50017 28.1L13.5002 20.8ZM65.6002 44.1C66.2002 44.2 66.7002 44.3 67.2002 44.5V48.3H65.6002V44.1ZM38.0002 41.7C39.4002 41.8 40.6002 42.3 41.9002 42.6V48.3H38.0002V41.7ZM12.7002 44.1C13.3002 44.2 13.8002 44.3 14.3002 44.5V48.3H12.7002V44.1ZM2.20017 50.1H29.7002C29.4002 52.5 28.3002 55 26.0002 56.1C23.1002 57.5 21.2002 58.9 20.3002 60.2C18.4002 62.6 22.5002 67.3 26.1002 68.5C27.4002 69 29.8002 70.2 30.5002 72.3C31.9002 76.6 38.0002 76.4 38.3002 76.4C38.4002 76.4 44.5002 76.2 50.0002 77.9C29.4002 83.5 7.30017 70.7 2.20017 50.1ZM52.9002 77C46.6002 74.2 38.6002 74.5 38.2002 74.5C38.1002 74.5 33.3002 74.7 32.3002 71.7C31.3002 68.9 28.4002 67.4 26.8002 66.8C25.7002 66.4 24.6002 65.7 23.7002 64.9C22.1002 63.4 21.4002 62 21.9002 61.3C22.6002 60.3 24.4002 59 26.9002 57.8C29.9002 56.4 31.4002 53.2 31.7002 50.1H64.2002C64.6002 51.1 64.8002 52.3 64.8002 53.4V53.5C64.9002 54.9 62.9002 57 59.7002 59C58.9002 59.5 58.3002 60 57.6002 60.6C55.7002 62.2 54.6002 64.7 54.5002 67.5C54.4002 68.9 53.6002 69.1 50.7002 69.1C49.7002 69.1 48.6002 69.1 47.5002 69.3C44.2002 70 42.0002 67 41.2002 65.2C40.9002 64.6 41.0002 64 41.4002 63.5C41.8002 62.9 42.5002 62.6 43.2002 62.5C44.9002 62.3 48.3002 61.7 51.5002 60.1C53.3002 59.2 54.6002 57.2 55.4002 54.4C55.7002 53.2 54.0002 52.7 53.6002 53.9C53.0002 56.2 52.0002 57.8 50.7002 58.4C47.7002 60 44.3002 60.5 43.0002 60.6C41.8002 60.7 40.7002 61.4 39.9002 62.3C39.5002 62.8 39.2002 63.4 39.2002 64C39.1002 64.6 39.2002 65.3 39.5002 65.9C40.8002 69.1 44.2002 71.9 47.9002 71.1C50.9002 70.5 56.1002 72 56.4002 67.5C56.5002 65.2 57.3002 63.3 58.9002 61.9C59.5002 61.4 60.1002 60.9 60.7002 60.5C63.5002 58.8 66.8002 56.1 66.7002 53.4C66.7002 52.3 66.5002 51.1 66.2002 50.1H78.0002C76.3002 56.3 73.2002 61.9 68.8002 66.6C64.3002 71.3 58.9002 74.9 52.9002 77Z" fill="white"/>
</mask>
<g mask="url(#mask1_888_2544)">
<path d="M81.2002 48.1992H-1.7998V82.6992H81.2002V48.1992Z" fill="#316D69"/>
</g>
</g>
</svg>
