<svg width="30" height="30" viewBox="0 0 30 30" fill="none" xmlns="http://www.w3.org/2000/svg">
<circle cx="15" cy="15" r="15" fill="#316D69"/>
<path d="M18.3673 12.6123L18.0612 15.0001H16.102V22.0409H13.1632V15.0001H11.6938V12.6123H13.1632V11.143C13.1632 9.18377 14.0204 8.02051 16.4081 8.02051H18.3673V10.4083H17.0816C16.1632 10.4083 16.102 10.7144 16.102 11.3879V12.6123H18.3673Z" fill="white"/>
<path d="M15 0C6.73469 0 0 6.73469 0 15C0 23.2653 6.73469 30 15 30C23.2653 30 30 23.2653 30 15C30 6.73469 23.2653 0 15 0ZM15 28.6531C7.46939 28.6531 1.34694 22.5306 1.34694 15C1.34694 7.46939 7.46939 1.34694 15 1.34694C22.5306 1.34694 28.6531 7.46939 28.6531 15C28.6531 22.5306 22.5306 28.6531 15 28.6531Z" fill="#316D69"/>
</svg>
