<?xml version="1.0" encoding="utf-8"?>
<!-- Generator: Adobe Illustrator 27.8.1, SVG Export Plug-In . SVG Version: 6.00 Build 0)  -->
<svg version="1.1" id="Layer_1" xmlns="http://www.w3.org/2000/svg" xmlns:xlink="http://www.w3.org/1999/xlink" x="0px" y="0px"
	 viewBox="0 0 177 83.6" style="enable-background:new 0 0 177 83.6;" xml:space="preserve">
<style type="text/css">
	.st0{fill:none;}
	.st1{fill:#FFFFFF;filter:url(#Adobe_OpacityMaskFilter);}
	.st2{mask:url(#mask0_905_2_00000021091062693028739730000012063191478566035896_);}
	.st3{fill:#316D69;}
	.st4{fill:#BAB220;}
	.st5{fill:#FFFFFF;}
	.st6{fill:#5EA304;}
	.st7{fill:#D9DD6C;}
	.st8{fill:#E8E365;}
	.st9{fill:#DFD72A;}
	.st10{fill:#E8DD43;}
	.st11{fill:#EFE864;}
	.st12{fill:#D0D01A;}
	.st13{fill:#F0E646;}
	.st14{fill:#F1EA77;}
	.st15{fill:#D5CB01;}
	.st16{fill:#DAD62D;}
	.st17{fill:#99B839;}
	.st18{fill:#C7D154;}
	.st19{fill:#D3CE00;}
	.st20{fill:#A7C54B;}
	.st21{fill:#9FBE32;}
	.st22{fill:#C0D461;}
	.st23{fill:#B3C60A;}
	.st24{fill:#ACC142;}
	.st25{fill:#C9C905;}
	.st26{fill:#D8D623;}
	.st27{fill:#C4C529;}
	.st28{fill:#C4CB2F;}
	.st29{fill:#C0C10B;}
	.st30{fill:#BCCA2C;}
	.st31{fill:#A1C036;}
	.st32{fill:#BFC94C;}
	.st33{fill:#B2C14C;}
	.st34{fill:#9DB929;}
	.st35{fill:#B7C742;}
	.st36{fill:#8BBC3F;}
	.st37{fill:#76AA2C;}
	.st38{fill:#75A02D;}
	.st39{fill:#87B426;}
	.st40{fill:#549D34;}
	.st41{fill:#78AB2A;}
	.st42{fill:#DBD952;}
	.st43{fill:#7EB02A;}
	.st44{fill:#DCD839;}
	.st45{fill:#7FAF29;}
	.st46{fill:#CFC806;}
	.st47{fill:#D6D235;}
	.st48{fill:#E9E23C;}
	.st49{fill:#1A8738;}
	.st50{fill:#D5D400;}
	.st51{fill:#D0CF25;}
	.st52{fill:#AEC64A;}
	.st53{fill:#C1D274;}
	.st54{fill:#CBD75B;}
	.st55{fill:#DDDC4C;}
	.st56{fill:#579333;}
	.st57{fill:#8AB625;}
	.st58{fill:#ABCB66;}
	.st59{fill:#DBD819;}
	.st60{fill:#C2C208;}
	.st61{fill:#92B523;}
	.st62{fill:#A3BD16;}
	.st63{fill:#CACF10;}
	.st64{fill:#D0D12D;}
	.st65{fill:#D1DA59;}
	.st66{fill:#95B621;}
	.st67{fill:#579A33;}
	.st68{fill:#78A42B;}
	.st69{fill:#6FB350;}
	.st70{fill:#DEE170;}
	.st71{fill:#D4D436;}
	.st72{fill:#D1DD91;}
	.st73{fill:#D1E1A2;}
	.st74{fill:#BDCA84;}
	.st75{fill:#BACD9F;}
	.st76{fill:#8FAA77;}
	.st77{fill:#669390;}
	.st78{fill:#337665;}
	.st79{fill:#147F79;}
	.st80{fill:#A3B583;}
	.st81{fill:#A0B688;}
	.st82{fill:#ADBDA3;}
	.st83{fill:#98AB7D;}
	.st84{fill:#BBC678;}
	.st85{fill:#B3BD7E;}
	.st86{fill:#8FB39A;}
	.st87{fill:#B5BE87;}
	.st88{fill:#BBC69E;}
	.st89{fill:#C7CFA6;}
	.st90{fill:#8A9B8B;}
	.st91{fill:#B0BB77;}
	.st92{fill:#A2AE66;}
	.st93{fill:#B6AF18;}
	.st94{fill:#A3AC1D;}
	.st95{fill:#B4B914;}
	.st96{fill:#AEC53F;}
	.st97{fill:#B8C10E;}
	.st98{fill:#C1CA21;}
	.st99{fill:#88B631;}
	.st100{fill:#58A545;}
	.st101{fill:#0D7737;}
	.st102{fill:#018C3B;}
	.st103{fill:#048238;}
	.st104{fill:#8FBC23;}
	.st105{fill:#2A8D3B;}
	.st106{fill:#158739;}
	.st107{fill:#0C8C39;}
	.st108{fill:#22933B;}
	.st109{fill:#429835;}
	.st110{fill:#358D36;}
	.st111{fill:#A3C115;}
	.st112{fill:#008B3A;}
	.st113{fill:#2E8E37;}
	.st114{fill:#469D3F;}
	.st115{fill:#267E34;}
	.st116{fill:#248E38;}
	.st117{fill:#4E9839;}
	.st118{fill:#78B357;}
	.st119{fill:#A9C942;}
	.st120{fill:#A8C012;}
	.st121{fill:#97BD32;}
	.st122{fill:#9EB71B;}
	.st123{fill:#90BE41;}
	.st124{fill:#75A72E;}
	.st125{fill:#95B523;}
	.st126{fill:#93B522;}
	.st127{fill:#98AF21;}
	.st128{fill:#7AA32B;}
	.st129{fill:#6DA42F;}
	.st130{fill:#128B3B;}
	.st131{fill:#00883A;}
	.st132{fill:#027D37;}
	.st133{fill:#8CA226;}
	.st134{fill:#8FB126;}
	.st135{fill:#94B52A;}
	.st136{fill:#ADC958;}
	.st137{fill:#D1CE41;}
	.st138{fill:#D5CC25;}
	.st139{fill:#A9C733;}
	.st140{fill:#8BAC27;}
	.st141{fill:#99A623;}
	.st142{fill:#B7BC45;}
	.st143{fill:#8DA229;}
	.st144{fill:#BFAF0E;}
	.st145{fill:#D5D100;}
	.st146{fill:#C1C860;}
	.st147{fill:#BCC538;}
	.st148{fill:#AFC235;}
	.st149{fill:#C4D06A;}
	.st150{fill:#CFCF3D;}
	.st151{fill:#D5CF00;}
	.st152{fill:#E5DD30;}
	.st153{fill:#A0AD1F;}
	.st154{fill:#D8CF02;}
	.st155{fill:#D8D843;}
	.st156{fill:#CDD96B;}
	.st157{fill:#D0D988;}
	.st158{fill:#D8E28B;}
	.st159{fill:#CCCD58;}
	.st160{fill:#519E34;}
	.st161{fill:#299437;}
	.st162{fill:#67AF59;}
	.st163{fill:#49A155;}
	.st164{fill:#098B41;}
	.st165{fill:#61AA50;}
	.st166{fill:#CBD059;}
	.st167{fill:#D6DD74;}
	.st168{fill:#A1B61D;}
	.st169{fill:#DBD00F;}
	.st170{fill:#E1DA41;}
	.st171{fill:#E3E896;}
	.st172{fill:#DEE061;}
	.st173{fill:#BFCC70;}
	.st174{fill:#C5D686;}
	.st175{fill:#91A826;}
	.st176{fill:#9CBA1A;}
	.st177{fill:#9DA222;}
	.st178{fill:#A6B222;}
	.st179{fill:#BFBD42;}
	.st180{fill:#5F872F;}
	.st181{fill:#8AAB28;}
	.st182{fill:#6E922E;}
	.st183{fill:#779B2D;}
	.st184{fill:#738D2A;}
	.st185{fill:#80A32B;}
	.st186{fill:#9AAB21;}
	.st187{fill:#53A133;}
	.st188{fill:#93B926;}
	.st189{fill:#C5D982;}
	.st190{fill:#D1D962;}
	.st191{fill:#80A22A;}
	.st192{fill:#CCD153;}
	.st193{fill:#B7B812;}
	.st194{fill:#C9C82F;}
	.st195{fill:#CDC719;}
	.st196{fill:#C4CD58;}
	.st197{fill:#9BC65C;}
	.st198{fill:#98BD4B;}
	.st199{fill:#B2BF10;}
	.st200{fill:#C5C106;}
	.st201{fill:#068037;}
	.st202{fill:#37A336;}
	.st203{fill:#73982E;}
	.st204{fill:#399E38;}
	.st205{fill:#099439;}
	.st206{fill:#328535;}
	.st207{fill:#289538;}
	.st208{fill:#6EA82F;}
	.st209{fill:#95BC21;}
	.st210{fill:#5DAC2F;}
	.st211{fill:#117C36;}
	.st212{fill:#A9C443;}
	.st213{fill:#7EB130;}
	.st214{fill:#4B9936;}
	.st215{fill:#7EAF53;}
	.st216{fill:#D5D460;}
	.st217{fill:#C9CA30;}
	.st218{fill:#277833;}
	.st219{fill:#E0E378;}
	.st220{fill:#BCD18E;}
	.st221{fill:#D4D647;}
	.st222{fill:#D4DC6F;}
	.st223{fill:#D1D76B;}
	.st224{fill:#BCC75E;}
	.st225{fill:#CFD25D;}
	.st226{fill:#DCE17A;}
	.st227{fill:#D5DE73;}
	.st228{fill:#D4D26B;}
	.st229{fill:#B3C741;}
	.st230{fill:#C2CB5E;}
	.st231{fill:#9BB93B;}
	.st232{fill:#2E9C47;}
	.st233{fill:#02693C;}
	.st234{fill:#269338;}
	.st235{fill:#017B3A;}
	.st236{fill:#006B3D;}
	.st237{fill:#017739;}
	.st238{fill:#00763C;}
	.st239{fill:#077C36;}
	.st240{fill:#01873A;}
	.st241{fill:#00823A;}
	.st242{fill:#067236;}
	.st243{fill:#B3C74B;}
	.st244{fill:#89B03D;}
	.st245{fill:#0F7D36;}
	.st246{fill:#95B722;}
	.st247{fill:#CDD778;}
	.st248{fill:#B0BF6E;}
	.st249{fill:#2E8A35;}
	.st250{fill:#CDD331;}
	.st251{fill:#75C914;}
	.st252{fill:#238765;}
	.st253{fill:#0C6D37;}
	.st254{fill:#215C3C;}
	.st255{fill:#55A1A1;}
	.st256{fill:#06826A;}
	.st257{fill:#349A37;}
	.st258{fill:#67A72F;}
	.st259{fill:#72B278;}
	.st260{fill:#208C38;}
	.st261{fill:#6BA666;}
	.st262{fill:#6BA785;}
	.st263{fill:#037655;}
	.st264{fill:#258991;}
	.st265{fill:#6CAA2D;}
	.st266{fill:#13898D;}
	.st267{fill:#007E61;}
	.st268{fill:#96C895;}
	.st269{fill:#449C5F;}
	.st270{fill:#0B8C5D;}
	.st271{fill:#00626D;}
	.st272{fill:#006F5C;}
	.st273{fill:#008364;}
	.st274{fill:#6DA0A1;}
	.st275{fill:#A2CD88;}
	.st276{fill:#299138;}
	.st277{fill:#79AC5D;}
	.st278{fill:#489E61;}
	.st279{fill:#007447;}
	.st280{fill:#00814B;}
	.st281{fill:#007342;}
	.st282{fill:#008359;}
	.st283{fill:#006E4B;}
	.st284{fill:#017A5B;}
	.st285{fill:#016E43;}
	.st286{fill:#2F974C;}
	.st287{fill:#51A05E;}
	.st288{fill:#016644;}
	.st289{fill:#007D50;}
	.st290{fill:#0A8371;}
	.st291{fill:#028238;}
	.st292{fill:#A1C0BB;}
	.st293{fill:#BFC956;}
	.st294{fill:#8AAD2F;}
	.st295{fill:#B6D1A8;}
	.st296{fill:#448D82;}
	.st297{fill:#9AB737;}
	.st298{fill:#A3C4A9;}
	.st299{fill:#D1D57E;}
	.st300{fill:#DBE199;}
	.st301{fill:#B6D0B5;}
	.st302{fill:#A5C38F;}
	.st303{fill:#C2CC53;}
	.st304{fill:#9FBE92;}
	.st305{fill:#0D6340;}
	.st306{fill:#CDD125;}
	.st307{fill:#C4D15F;}
	.st308{fill:#CFD57D;}
	.st309{fill:#DADB63;}
	.st310{fill:#99B83A;}
	.st311{fill:#2D6534;}
	.st312{fill:#619D57;}
	.st313{fill:#75942E;}
	.st314{fill:#B4CD93;}
	.st315{fill:#90B124;}
	.st316{fill:#BCCA5B;}
	.st317{fill:#92AA81;}
	.st318{fill:#DDE079;}
	.st319{fill:#769F37;}
	.st320{fill:#6BA849;}
	.st321{fill:#B5D1C5;}
	.st322{fill:#A6C3AF;}
	.st323{fill:#71A273;}
	.st324{fill:#85B085;}
	.st325{fill:#769E86;}
	.st326{fill:#80A78C;}
	.st327{fill:#589337;}
	.st328{fill:#8DBA7F;}
	.st329{fill:#88B37B;}
	.st330{fill:#5F915E;}
	.st331{fill:#1B7F36;}
	.st332{fill:#2D7631;}
	.st333{fill:#5FA255;}
	.st334{fill:#81A87C;}
	.st335{fill:#95B88F;}
	.st336{fill:#6C9249;}
	.st337{fill:#90B07E;}
	.st338{fill:#A0B572;}
	.st339{fill:#90AB82;}
	.st340{fill:#9ABD59;}
	.st341{fill:#A6BD91;}
	.st342{fill:#8FA76D;}
	.st343{fill:#A7C5BD;}
	.st344{fill:#B0C5A8;}
	.st345{fill:#91B024;}
	.st346{fill:#257834;}
	.st347{fill:#789D2C;}
	.st348{fill:#097E37;}
	.st349{fill:#2C8B37;}
	.st350{fill:#3C732F;}
	.st351{fill:#2B6036;}
	.st352{fill:#226635;}
	.st353{fill:#37692E;}
	.st354{fill:#016E3F;}
	.st355{fill:#9AB73A;}
	.st356{fill:#72992E;}
	.st357{fill:#5F9847;}
	.st358{fill:#59924B;}
	.st359{fill:#799E2C;}
	.st360{fill:#8CAC25;}
	.st361{fill:#538432;}
	.st362{fill:#A0B92A;}
	.st363{fill:#9AAD5B;}
	.st364{fill:#A3BDA4;}
	.st365{fill:#91AC8D;}
	.st366{fill:#A9BF91;}
	.st367{fill:#046343;}
	.st368{fill:#138D5C;}
	.st369{fill:#00745A;}
	.st370{fill:#016958;}
	.st371{fill:#027868;}
	.st372{fill:#007670;}
	.st373{fill:#1D877B;}
	.st374{fill:#61A977;}
	.st375{fill:#017278;}
	.st376{fill:#3C86A1;}
	.st377{fill:#00777D;}
	.st378{fill:#6399B1;}
	.st379{fill:#038078;}
	.st380{fill:#045D47;}
	.st381{fill:#7DB0AB;}
	.st382{fill:#609D95;}
	.st383{fill:#AACBC0;}
	.st384{fill:#72A48B;}
	.st385{fill:#8DB3A6;}
	.st386{fill:#5E9DA2;}
	.st387{fill:#5492A1;}
	.st388{fill:#7DA897;}
	.st389{fill:#9ABBAA;}
	.st390{fill:#A7C7BC;}
	.st391{fill:#40798A;}
	.st392{fill:#658D97;}
	.st393{fill:#5E968B;}
	.st394{fill:#7597A3;}
	.st395{fill:#5A8F87;}
	.st396{fill:#3B8180;}
	.st397{fill:#54848E;}
	.st398{fill:#8FADA5;}
	.st399{fill:#ACC4B8;}
	.st400{fill:#93B1B3;}
	.st401{fill:#628D93;}
	.st402{fill:#6D9594;}
	.st403{fill:#8FACAA;}
	.st404{fill:#67937A;}
	.st405{fill:#759169;}
	.st406{fill:#8AA94C;}
	.st407{fill:#84A729;}
	.st408{fill:#8FAA27;}
	.st409{fill:#99B222;}
	.st410{fill:#879E4C;}
	.st411{fill:#92AE57;}
	.st412{fill:#6EA68B;}
	.st413{fill:#559676;}
	.st414{fill:#75998F;}
	.st415{fill:#82AF90;}
	.st416{fill:#5C9C68;}
	.st417{fill:#A2BABA;}
	.st418{fill:#7DA099;}
	.st419{fill:#55709D;}
	.st420{fill:#9EBDB7;}
	.st421{fill:#90B490;}
	.st422{fill:#679A95;}
	.st423{fill:#7AA766;}
	.st424{fill:#81B175;}
	.st425{fill:#7FAA7C;}
	.st426{fill:#70A174;}
	.st427{fill:#9FC19E;}
	.st428{fill:#689088;}
	.st429{fill:#76A26F;}
	.st430{fill:#7CA75F;}
	.st431{fill:#468C36;}
	.st432{fill:#619531;}
</style>
<g>
	<rect x="0.2" y="0.3" class="st0" width="176.6" height="80.5"/>
	<defs>
		<filter id="Adobe_OpacityMaskFilter" filterUnits="userSpaceOnUse" x="0.2" y="0.3" width="176.6" height="68.3">
			<feColorMatrix  type="matrix" values="1 0 0 0 0  0 1 0 0 0  0 0 1 0 0  0 0 0 1 0"/>
		</filter>
	</defs>
	
		<mask maskUnits="userSpaceOnUse" x="0.2" y="0.3" width="176.6" height="68.3" id="mask0_905_2_00000021091062693028739730000012063191478566035896_">
		<path class="st1" d="M176.8,0.3H0.2v80.5h176.6V0.3z"/>
	</mask>
	<g class="st2">
		<path class="st3" d="M0.5,68.4V23.5h7.7v1.3H1.7v42.3h173.4l0.1-42.3H64.7v-1.3h111.8l-0.1,44.9H0.5z"/>
		<path class="st3" d="M176.2,23.8l-0.1,44.3H0.7V23.8H8v0.8H1.4v42.8h173.9l0.1-42.8H64.9v-0.8H176.2z M176.7,23.3h-0.5H64.9h-0.5
			v0.5v0.8v0.5h0.5h110l-0.1,41.8H2V25.1h6h0.5v-0.5v-0.8v-0.5H8H0.7H0.2v0.5v44.3v0.5h0.5h175.4h0.5v-0.5l0.1-44.3V23.3z"/>
		<path class="st3" d="M20.8,52.6c-0.6,0.8-1.2,1.4-2,1.7s-1.7,0.5-2.6,0.5c-2.3,0-4.1-0.8-5.4-2.3c-1.3-1.5-2-3.5-2-6.1
			c0-2.5,0.7-4.6,2-6c1.4-1.5,3.2-2.3,5.5-2.3c2,0,3.6,0.5,4.9,1.4c1.3,1,2,2.3,2.3,4h-2.2c-0.6,0-1.1-0.3-1.4-0.9
			c-0.2-0.4-0.5-0.7-0.9-1c-0.6-0.4-1.4-0.6-2.4-0.6c-1.3,0-2.4,0.5-3.1,1.4c-0.8,1-1.1,2.4-1.1,4c0,1.7,0.4,3.1,1.2,4
			c0.8,1,1.9,1.4,3.3,1.4c1,0,1.9-0.3,2.6-0.9c0.7-0.6,1.1-1.5,1.3-2.5h-1.9c-0.5,0-0.9-0.2-1.2-0.5c-0.3-0.3-0.5-0.7-0.5-1.2v-1.1
			h6.6v8.6h-0.9c-0.9,0-1.4-0.4-1.6-1.3L20.8,52.6z"/>
		<path class="st3" d="M24.1,54.5v-5.9c0-1.2,0.2-2.2,0.5-3c0.4-0.8,0.8-1.5,1.4-2s1.3-0.8,2-1c0.8-0.2,1.6-0.3,2.4-0.3
			c0.1,0,0.1,0,0.2,0s0.2,0,0.2,0v3.3h-1.1c-0.9,0-1.5,0.2-2,0.6c-0.4,0.4-0.6,1.1-0.6,2v6.3H24.1z"/>
		<path class="st3" d="M39.8,50.8h2.3c-0.3,1.3-1,2.3-1.9,2.9c-1,0.7-2.1,1.1-3.6,1.1c-1.7,0-3.1-0.6-4.1-1.7S31,50.4,31,48.4
			s0.5-3.5,1.4-4.6c1-1.1,2.3-1.7,4.1-1.7s3.3,0.6,4.3,1.7c1,1.1,1.5,2.7,1.5,4.7c0,0.1,0,0.2,0,0.3c0,0.1,0,0.2,0,0.2
			c0,0.2,0,0.3,0,0.3h-8c0,1,0.3,1.7,0.7,2.1c0.4,0.5,1,0.7,1.8,0.7c0.5,0,1-0.1,1.3-0.3c0.1,0,0.2-0.1,0.3-0.2
			c0.1-0.1,0.2-0.2,0.3-0.3c0-0.1,0.1-0.2,0.3-0.4C39.1,50.8,39.4,50.8,39.8,50.8z M34.3,47.2H39c-0.1-0.8-0.3-1.4-0.6-1.8
			c-0.4-0.4-1-0.6-1.7-0.6c-0.7,0-1.2,0.2-1.7,0.6C34.5,45.8,34.3,46.4,34.3,47.2z"/>
		<path class="st3" d="M51.3,50.8h2.3c-0.3,1.3-1,2.3-1.9,2.9c-1,0.7-2.1,1.1-3.6,1.1c-1.7,0-3.1-0.6-4.1-1.7s-1.5-2.7-1.5-4.7
			s0.5-3.5,1.4-4.6c1-1.1,2.3-1.7,4.1-1.7s3.3,0.6,4.3,1.7c1,1.1,1.5,2.7,1.5,4.7c0,0.1,0,0.2,0,0.3c0,0.1,0,0.2,0,0.2
			c0,0.2,0,0.3,0,0.3h-8c0,1,0.3,1.7,0.7,2.1c0.4,0.5,1,0.7,1.8,0.7c0.5,0,1-0.1,1.3-0.3c0.1,0,0.2-0.1,0.3-0.2
			c0.1-0.1,0.2-0.2,0.3-0.3c0-0.1,0.1-0.2,0.3-0.4C50.6,50.8,50.9,50.8,51.3,50.8z M45.8,47.2h4.7c-0.1-0.9-0.3-1.5-0.7-1.9
			c-0.4-0.4-1-0.6-1.7-0.6s-1.2,0.2-1.7,0.6C46,45.8,45.8,46.4,45.8,47.2z"/>
		<path class="st3" d="M65,54.5h-1.6c-0.5,0-0.8-0.1-1.1-0.4c-0.3-0.3-0.4-0.7-0.4-1.1v-6.3c0-0.7-0.2-1.3-0.7-1.6
			c-0.4-0.3-0.9-0.5-1.5-0.5c-0.6,0-1,0.2-1.5,0.5c-0.4,0.3-0.6,0.9-0.6,1.6v7.8h-3.2v-7.2c0-2.1,0.5-3.5,1.6-4.2
			c1.1-0.7,2.3-1.1,3.6-1.2c1.3,0,2.6,0.4,3.7,1.1s1.7,2.1,1.7,4.3V54.5z"/>
		<path class="st4" d="M176.8,23.3H71.9v45.3h104.9V23.3z"/>
		<path class="st5" d="M80.4,54.5V40.4c0-0.5,0.2-0.9,0.5-1.2c0.3-0.3,0.7-0.5,1.2-0.5h9.8v2.7h-8.3v3.4h6.2v1.1
			c0,0.5-0.2,0.9-0.5,1.2c-0.3,0.3-0.7,0.5-1.2,0.5h-4.5v4h8.3v2.9H80.4z"/>
		<path class="st5" d="M101,50.8h2.3c-0.3,1.3-1,2.3-1.9,2.9c-1,0.7-2.1,1.1-3.6,1.1c-1.7,0-3.1-0.6-4.1-1.7s-1.5-2.7-1.5-4.7
			s0.5-3.5,1.4-4.6c1-1.1,2.3-1.7,4.1-1.7s3.3,0.6,4.3,1.7c0.6,0.7,0.9,1.5,1.2,2.3H100c-0.2-0.3-0.3-0.5-0.5-0.7
			c-0.4-0.4-1-0.6-1.7-0.6c-0.7,0-1.2,0.2-1.7,0.6c-0.6,0.6-0.8,1.6-0.8,3c0,1.4,0.3,2.4,0.8,3c0.4,0.5,1,0.7,1.8,0.7
			c0.5,0,1-0.1,1.3-0.3c0.1,0,0.2-0.1,0.3-0.2c0.1-0.1,0.2-0.2,0.3-0.3c0.1-0.1,0.2-0.2,0.4-0.4C100.3,50.8,100.6,50.8,101,50.8z"/>
		<path class="st5" d="M105.3,53.4c-0.6-0.6-1.1-1.3-1.4-2.2c-0.3-0.9-0.4-1.9-0.4-2.9c0-0.8,0.1-1.7,0.3-2.5
			c0.2-0.8,0.6-1.5,1.1-2.1c0.8-0.9,1.8-1.5,3.1-1.6c1.3-0.2,2.4-0.1,3.4,0.3c1.2,0.5,2,1.3,2.6,2.4c0.5,1,0.8,2.2,0.8,3.5
			c0,1-0.1,1.8-0.3,2.5c-0.2,0.7-0.5,1.3-0.8,1.8c-0.7,1-1.7,1.6-2.8,1.9c-1,0.3-2,0.3-3.1,0.1C106.7,54.4,105.9,54,105.3,53.4z
			 M107.5,45.3c-0.6,0.7-0.9,1.8-0.9,3.2c0.1,1.4,0.3,2.4,0.8,2.9c0.2,0.2,0.5,0.5,1,0.6c0.5,0.2,0.9,0.2,1.4,0
			c0.5-0.1,0.9-0.5,1.3-1c0.4-0.6,0.6-1.4,0.6-2.7c0-1.1-0.2-1.9-0.5-2.5c-0.3-0.6-0.8-0.9-1.2-1.1c-0.5-0.2-0.9-0.2-1.4,0
			S107.7,45.1,107.5,45.3z"/>
		<path class="st5" d="M126,54.5h-1.6c-0.5,0-0.8-0.1-1.1-0.4c-0.3-0.3-0.4-0.7-0.4-1.1v-6.3c0-0.7-0.2-1.3-0.7-1.6
			c-0.4-0.3-0.9-0.5-1.5-0.5s-1,0.2-1.5,0.5c-0.4,0.3-0.6,0.9-0.6,1.6v7.8h-3.2v-7.2c0-2.1,0.5-3.5,1.6-4.2c1.1-0.7,2.3-1.1,3.6-1.2
			c1.3,0,2.6,0.4,3.7,1.1s1.7,2.1,1.7,4.3V54.5z"/>
		<path class="st5" d="M128,53.4c-0.6-0.6-1.1-1.3-1.4-2.2c-0.3-0.9-0.4-1.9-0.4-2.9c0-0.8,0.1-1.7,0.3-2.5c0.2-0.8,0.6-1.5,1.1-2.1
			c0.8-0.9,1.8-1.5,3.1-1.6c1.3-0.2,2.4-0.1,3.4,0.3c1.2,0.5,2,1.3,2.6,2.4c0.5,1,0.8,2.2,0.8,3.5c0,1-0.1,1.8-0.3,2.5
			s-0.5,1.3-0.8,1.8c-0.7,1-1.7,1.6-2.8,1.9c-1,0.3-2,0.3-3.1,0.1C129.4,54.4,128.6,54,128,53.4z M130.2,45.3
			c-0.6,0.7-0.9,1.8-0.9,3.2c0.1,1.4,0.3,2.4,0.8,2.9c0.2,0.2,0.5,0.5,1,0.6c0.5,0.2,0.9,0.2,1.4,0c0.5-0.1,0.9-0.5,1.3-1
			c0.4-0.6,0.6-1.4,0.6-2.7c0-1.1-0.2-1.9-0.5-2.5c-0.4-0.6-0.8-0.9-1.2-1.1c-0.5-0.2-0.9-0.2-1.4,0
			C130.7,44.9,130.4,45.1,130.2,45.3z"/>
		<path class="st5" d="M148.6,54.5h-3.2v-7.2v-0.6c0-0.7-0.2-1.3-0.7-1.6c-0.4-0.3-0.9-0.5-1.5-0.5s-1,0.2-1.5,0.5
			c-0.4,0.3-0.6,0.9-0.6,1.6v7.8h-3.2v-7.2c0-2.1,0.5-3.5,1.6-4.2c1.1-0.7,2.3-1.1,3.6-1.2c0.7,0,1.4,0.1,2.1,0.2
			c0.7,0.2,1.3,0.5,1.8,0.9c0.5-0.4,1-0.7,1.6-0.9c0.6-0.2,1.3-0.3,2-0.3c1.3,0,2.6,0.4,3.7,1.1c1.1,0.7,1.7,2.1,1.7,4.3v7.2h-1.6
			c-0.5,0-0.8-0.1-1.1-0.4c-0.3-0.3-0.4-0.7-0.4-1.1v-6.3c0-0.7-0.2-1.3-0.7-1.6c-0.4-0.3-0.9-0.5-1.5-0.5s-1.1,0.2-1.5,0.5
			s-0.7,0.9-0.7,1.6v0.6L148.6,54.5z"/>
		<path class="st5" d="M158.7,58.9v-2.6h0.9c0.6,0,1.1-0.1,1.4-0.4c0.4-0.3,0.4-0.8,0.2-1.4L157,42.3h3.5l2.5,8.6l2.2-7.5
			c0.2-0.7,0.7-1.1,1.5-1.1h2.2l-4.7,13.9c-0.4,1-0.8,1.7-1.4,2.2c-0.6,0.4-1.5,0.6-2.7,0.6c-0.1,0-0.2,0-0.3,0c-0.1,0-0.2,0-0.3,0
			c-0.1,0-0.2-0.1-0.3-0.1C159,58.9,158.8,58.9,158.7,58.9z"/>
		<path class="st6" d="M33.8,36.7c0,0,0.6-7.1-3.7-7.2c0,0-2.2-0.2-2.8,1.1c-0.6,1.3-2.2-0.6-2.2-1.7c0,0-0.7-0.4-1.8,0.7
			c-1,1.1-3.9,3.6-5.5,0c0,0-1.2-0.9-2.7-0.5c-1.5,0.4-2.7-0.5-2.2-1.5s1.1-0.5,0.9-2.7c0,0-1.4,0.1-1-1.2c0,0,0.2-0.4,1.1-0.2
			c0,0,0.9-0.3,0.1-1c-0.8-0.7-1.7-1.6-1-2.2c0,0,1.1-0.1,1.7,1.5c0,0,1.1,0.3,1.1-0.5c0,0-0.4-1.3-1.3-1.2v-1.3h1.7
			c0,0,0.6-0.8,0.2-1.9c-0.4-1.1-0.1-2.1,0.8-2c0.9,0.1,1.2-1.1,1.2-1.1s0.2-0.8,1-0.7c0.8,0.1,0.4-1.1,1.7-0.2
			c1.2,0.9,0.3-2.9,2.2-3.2c1.9-0.3,1.4,0,2.1-0.8c0.7-0.8,1.1-0.2,1.7-1.1s0.8-1.5,1.7-1.5c0.9,0,0.5,0.6,1.2,0.6
			c0.7-0.1,1.2-1.1,1.9,0.4c0.7,1.5,0.9-0.6,0.7-0.9c-0.2-0.3-0.5-2.8,1.2-2s1.9,0.1,1.9,0.1s1.1-0.4,2,0.4c0.9,0.8,2.4-0.6,3.8,0.3
			c0,0,0.7,0.6-0.4,1.3s1.7,0,0.7,1.6c0,0-2.5,0.6-2.7-1s-0.7-0.2-1.4-0.6c-0.7-0.4-2.6-1.7-3.3-1s0.9,0.6,1.8,1.4
			c0.9,0.7,0,1.1-0.8,0.8c-0.7-0.5-0.6,0.6-0.6,0.6s-0.7,1.3-3.6,1.2c0,0-1.1,0.1-0.8,1.9c0.3,1.8-1.3,1.6-1.3,1.6s-0.2,0.6,0.6,0.9
			c0,0,0,0.5-1,0.7c-0.9,0.2,0.1,1.7,1,1c0.9-0.7,2.3,0.8,2,1.4c-0.3,0.7,0.7,0.7-0.2,1.2c-1,0.5-1.8,0.5-1.2,1
			c0.6,0.5,1.2-0.5,2.3-0.6c1.1-0.1-0.1-1.6,0.2-2.1c0.3-0.6,0.4,0.3,1.1,0.4c0.6,0.1,1.3-0.4,0.6-1c-0.7-0.6-2.3-0.5-2.4-2.2
			c0,0-1.2-0.7-0.1-2.1c0,0,1-0.9,2.2,1.4c1.2,2.3,0.9,0.5,1.6,1.6s1.9,1,1.4-0.2c-0.5-1.1-1.1-1.9-0.6-1.8s1.6,1.6,1.9,0.1
			c0.3-1.5-2.1-2.3-0.4-2.8c1.7-0.5,3.3,0.7,3.3,0.7s1.2,1.1,2-0.2c0.8-1.3,1.1-2.7,2.4-2.2s1.5-0.5,2.2,0.5c0.7,1-1,0.6-1.8,1.6
			c-0.9,1-1,2.1-4.4,2.2c0,0-0.9-0.1-0.4,1s0.3,1.7,1.3,1.1c1.1-0.7,2.1-1,2.2-0.4c0.1,0.6,0.4,3.2-0.9,2.3c-1.3-0.9-1.1-0.3-2-0.3
			c-0.9,0-3.2,0.4-3.5-0.3c-0.3-0.7-1.6,0.1-1.2,1.5c0.4,1.3-1.4,0.9-1.6,0.8c-0.2-0.1-0.9,0.4-1.4,1.4s-0.9,2-0.2,2.1
			c0.7,0.1,0.9,0.5,0.6,1.1c-0.3,0.6,0.4,2,0.8,1.3c0.4-0.7,0.1-2.4,1-2.4c0.9,0,3.1,1.1,3,2.2c0,1.1-0.2,1.8-1.3,1.7
			c-1.1-0.1-2.2-0.2-2.8,0.3c-0.6,0.5-0.8,0.4-0.2,1.6c0.6,1.2,0,2.6,0,2.6s-0.4,3.2,1.1,4.3l0.6-0.1c0,0-0.4-2.3,1.7-2.6
			c2.1-0.4-1.7-2.3-1-4.1c0,0,0.3-1.7,2.1,1.8c0,0,0.4,1,1.1,0.6s2.2,0.1,2.2,0.1s0.7,0.1,0-0.9c-0.7-1-2.2-0.7-1.1-1.8
			c1.1-1.1-0.9-1-1-2c-0.1-1,0.8,0.4,2-0.2c1.3-0.6,1.7-2.7,1-3.4c-0.7-0.7-0.4,0.9-1.6,0.5c-1.3-0.4-2,0.1-2.2-1.4
			s-3.2,1.5-3.7-0.2c-0.5-1.7,0.9,0.4,1-1.2c0.1-1.6,1.4-1.2,1.7-0.8c0.4,0.4,1.3,0.5,1.7-0.2c0.4-0.7,1-1.7,2.2-0.6
			c1.2,1.1,1.8,2.1,2.6,1.4c0.8-0.7,1.4-1.8,3-0.6c1.6,1.2,1.3,1.9,0.5,2.2s-3.1,0-3,1.1s1.2,0.4,2.6,0.8c1.3,0.4,2.5,0.9,1.6,1.8
			c-0.9,0.9-2.2-0.2-3.1,0.7c-1,0.9-0.1,1.1-1.2,1.4c-1.1,0.2-1.9,0.7-1.8,1.3c0.2,0.6,1.8,0.5,1.8,0.5s1.3-0.5,3.2-0.2
			c1.9,0.3-0.6-2.4,2.2-1.8s3,2.6,1.9,2.4c-1.1-0.1-3.1-1.3-2.4,0.1c0.6,1.4-0.1,2.3-1.1,1.3s-3.3-1.2-3.7-0.4s0.4,0.9-1.3,1
			c-1.6,0.2-5-0.6-6.5,6h-4.5V36.7z"/>
		<path class="st7" d="M10.1,36.3L10,34.4l1.7,1.9H10.1z"/>
		<path class="st8" d="M12,33.8l-2,0.6l1.7,1.9L12,33.8z"/>
		<path class="st9" d="M10.2,32.1L9,32.7l1,1.7L10.2,32.1z"/>
		<path class="st10" d="M12,33.8l-1.8-1.7L10,34.4L12,33.8z"/>
		<path class="st11" d="M11.2,32.1h-1l1.8,1.7L11.2,32.1z"/>
		<path class="st12" d="M12.9,33.8H12l-0.8-1.7L12.9,33.8z"/>
		<path class="st13" d="M13.6,32.6l-2.4-0.5l1.7,1.7L13.6,32.6z"/>
		<path class="st14" d="M9.9,31.2l3.3-0.1l-2,1L9.9,31.2z"/>
		<path class="st15" d="M13.6,32.6l-0.4-1.5l-2,1L13.6,32.6z"/>
		<path class="st16" d="M9.9,31.2l0.1-1.5l0.8,0.2L9.9,31.2z"/>
		<path class="st17" d="M11.1,29.6l2.1,1.5l-3.3,0.1L11.1,29.6z"/>
		<path class="st18" d="M12.4,27.9L10,29.7l0.8,0.2L12.4,27.9z"/>
		<path class="st19" d="M13.2,31.1l-0.8-3.2l-1.3,1.7L13.2,31.1z"/>
		<path class="st20" d="M10,29.7v-2.5l2.4,0.7L10,29.7z"/>
		<path class="st21" d="M8.8,29.6l0.3-2l0.9-0.4v2.5L8.8,29.6z"/>
		<path class="st22" d="M7.9,26.2l0.9,3.4l0.3-2.8L7.9,26.2z"/>
		<path class="st17" d="M9.2,25.9l-1.3,0.3l1.2,0.6v0.8l0.9-0.4L9.2,25.9z"/>
		<path class="st23" d="M12.4,27.9l0.8,3.2l1.5-0.1L12.4,27.9z"/>
		<path class="st24" d="M13.6,32.6l-0.4-1.5l3.4-0.2L13.6,32.6z"/>
		<path class="st25" d="M14.3,33.8l-0.7-1.2l1.5,0.3L14.3,33.8z"/>
		<path class="st26" d="M16.6,30.9l-3,1.7l1.5,0.3L16.6,30.9z"/>
		<path class="st10" d="M16.5,32.2l0.1-1.3l-1.5,2L16.5,32.2z"/>
		<path class="st13" d="M14.3,33.8l0.8-0.9l1.4-0.7L14.3,33.8z"/>
		<path class="st27" d="M15.6,34.1l-0.7-0.8l0.6-0.4L15.6,34.1z"/>
		<path class="st27" d="M16.5,32.2l-0.3,0.9l-0.7-0.2L16.5,32.2z"/>
		<path class="st28" d="M17.2,33.2l-0.7-1l-0.3,0.9L17.2,33.2z"/>
		<path class="st10" d="M15.6,34.1l0.6-1l-0.7-0.2L15.6,34.1z"/>
		<path class="st29" d="M17.2,33.2l-1-0.1l-0.6,1L17.2,33.2z"/>
		<path class="st30" d="M17.8,31.1l-0.3-0.7l-0.9,0.5L17.8,31.1z"/>
		<path class="st17" d="M14.7,31l1-1.3l0.9,1.2L14.7,31z"/>
		<path class="st31" d="M17.5,30.4l-3.4-3.2l-1.7,0.7l2.3,3.1l1-1.3l0.9,1.2L17.5,30.4z"/>
		<path class="st32" d="M17.8,31.1l2.1-0.8L19,29.5L17.8,31.1z"/>
		<path class="st33" d="M17.5,30.4l1.5-0.9l-1.2,1.6L17.5,30.4z"/>
		<path class="st34" d="M14.1,27.2l1.6-0.7l1.8,3.9L14.1,27.2z"/>
		<path class="st35" d="M19,29.5l-3.3-3l1.8,3.9L19,29.5z"/>
		<path class="st36" d="M12.4,27.9l0.4-1.9l1.3,1.2L12.4,27.9z"/>
		<path class="st37" d="M11.6,25.9l1.2,0.1l-0.4,1.9L11.6,25.9z"/>
		<path class="st38" d="M15.7,26.5L12.8,26l1.3,1.2L15.7,26.5z"/>
		<path class="st17" d="M11.6,25.9l0.2-0.9l1,1L11.6,25.9z"/>
		<path class="st39" d="M13.2,24.3L11.8,25l1,1L13.2,24.3z"/>
		<path class="st40" d="M15.7,26.5l-2.5-2.2L12.8,26L15.7,26.5z"/>
		<path class="st41" d="M11.6,25.9l-1.1-1l1.3,0.1L11.6,25.9z"/>
		<path class="st17" d="M9.1,22.5l1.4,2.4l0.1-1L9.1,22.5z"/>
		<path class="st42" d="M11,24.3l-0.4-0.4l-0.1,1L11,24.3z"/>
		<path class="st43" d="M11.8,25L11,24.3l-0.5,0.6L11.8,25z"/>
		<path class="st42" d="M12,23.2L11.8,25L11,24.3L12,23.2z"/>
		<path class="st44" d="M9.1,22.5l1.6-0.5l-0.1,1.9L9.1,22.5z"/>
		<path class="st17" d="M12,23.2L10.7,22l-0.1,1.9l0.4,0.4L12,23.2z"/>
		<path class="st45" d="M11.8,25l0.2-1.8l1.2,1.1L11.8,25z"/>
		<path class="st46" d="M10.7,22l-1-3.6l1.4,3L10.7,22z"/>
		<path class="st47" d="M12.5,19.6l-2.8-1.2l1.4,3L12.5,19.6z"/>
		<path class="st42" d="M12,23.2L10.7,22l0.4-0.6L12,23.2z"/>
		<path class="st48" d="M12.5,19.6L12,23.2l-0.9-1.8L12.5,19.6z"/>
		<path class="st49" d="M13.2,24.3L12,23.2l1.7-1L13.2,24.3z"/>
		<path class="st17" d="M12.5,19.6l1.2,2.6l-1.7,1L12.5,19.6z"/>
		<path class="st17" d="M15.7,26.5l-2-4.3l-0.5,2.1L15.7,26.5z"/>
		<path class="st50" d="M12.5,19.6l2-2.1l1.2,9L12.5,19.6z"/>
		<path class="st51" d="M12.7,17.8l-0.2,1.8l2-2.1v-0.4L12.7,17.8z"/>
		<path class="st52" d="M11.1,17.3l0.4-1.2l1.2,1.7L11.1,17.3z"/>
		<path class="st53" d="M14.5,17.1l-0.2-1.4l-2.8,0.4l1.2,1.7L14.5,17.1z"/>
		<path class="st54" d="M15.1,16.9l-0.8-1.2l0.2,1.4L15.1,16.9z"/>
		<path class="st17" d="M14.5,17.5v-0.4l0.6-0.2L14.5,17.5z"/>
		<path class="st55" d="M15.7,26.5l2.1-5.7l-2.7-3.9l-0.6,0.6L15.7,26.5z"/>
		<path class="st56" d="M18.2,23l-0.4-2.2l-2.1,5.7L18.2,23z"/>
		<path class="st57" d="M18.9,25.8L18.2,23l-2.5,3.5L18.9,25.8z"/>
		<path class="st58" d="M19,29.5l-0.1-3.7l-3.2,0.7L19,29.5z"/>
		<path class="st59" d="M15.1,16.9l3.6,1.7l-0.9,2.2L15.1,16.9z"/>
		<path class="st60" d="M15.8,16.1l-0.7,0.8l3.6,1.7L15.8,16.1z"/>
		<path class="st17" d="M19,17.6l-3.2-1.5l2.9,2.5L19,17.6z"/>
		<path class="st61" d="M17.8,20.8l0.9-2.2l0.1,3.6L17.8,20.8z"/>
		<path class="st17" d="M18.2,23l-0.4-2.2l1,1.4L18.2,23z"/>
		<path class="st62" d="M18.9,25.8L18.2,23l0.6-0.8L18.9,25.8z"/>
		<path class="st63" d="M19,29.5l3.4-2l-3.5-1.7L19,29.5z"/>
		<path class="st64" d="M21.8,28.6l-0.3-0.5L19,29.5L21.8,28.6z"/>
		<path class="st65" d="M19.9,30.3l1.9-1.7L19,29.5L19.9,30.3z"/>
		<path class="st66" d="M22.4,27.5l-0.6,1.1l-0.3-0.5L22.4,27.5z"/>
		<path class="st67" d="M18.9,25.8l2.1-0.4l1.4,2.1L18.9,25.8z"/>
		<path class="st68" d="M18.8,22.2l2.2,3.2l-2.1,0.4L18.8,22.2z"/>
		<path class="st69" d="M18.7,18.6l0.9,0.8l2,5.9L21,25.4l-2.2-3.2L18.7,18.6z"/>
		<path class="st70" d="M19,17.6l0.6,1.8l-0.9-0.8L19,17.6z"/>
		<path class="st71" d="M15.8,16.1l1.8-2.6l1.4,4.1L15.8,16.1z"/>
		<path class="st72" d="M15.4,13.6l0.4,2.5l1.8-2.6L15.4,13.6z"/>
		<path class="st73" d="M16.8,12.6l-1.4,1l2.2-0.1L16.8,12.6z"/>
		<path class="st74" d="M19,17.6l1-2.6l-2.4-1.5L19,17.6z"/>
		<path class="st75" d="M17.6,11.9v1.6L20,15L17.6,11.9z"/>
		<path class="st76" d="M18.8,11.7l-1.2,0.2L20,15L18.8,11.7z"/>
		<path class="st77" d="M19,9.9l-0.2,1.8l2.6-1.8H19z"/>
		<path class="st78" d="M19.9,7.3L19,9.9h2.4L19.9,7.3z"/>
		<path class="st79" d="M20.5,6.9l-0.6,0.4l1.5,2.6L20.5,6.9z"/>
		<path class="st80" d="M18.8,11.7l2.6-1.8l0.3,0.5L18.8,11.7z"/>
		<path class="st17" d="M20,15l1.7-4.6l-2.9,1.3L20,15z"/>
		<path class="st81" d="M22.9,13.2L20,15l1.7-4.6L22.9,13.2z"/>
		<path class="st82" d="M21.4,9.9l-0.9-3L22.3,9l-0.2,0.4L21.4,9.9z"/>
		<path class="st83" d="M21.7,10.4l0.4-1l-0.7,0.5L21.7,10.4z"/>
		<path class="st17" d="M22.3,9l0.1,0.2l-0.3,0.2L22.3,9z"/>
		<path class="st84" d="M20,15l3.7,0.2l0.1-1.3l-2.1-3.5l1.2,2.8L20,15z"/>
		<path class="st85" d="M22.4,9.2l-0.3,0.2l-0.4,1l2.1,3.5l0.1-3.1L22.4,9.2z"/>
		<path class="st86" d="M20.5,6.9L21.9,7l0.9,0.5L22.3,9L20.5,6.9z"/>
		<path class="st87" d="M23.9,8.1l-1.1-0.6L22.3,9l0.1,0.2L23.9,8.1z"/>
		<path class="st17" d="M23.9,10.8l-1.5-1.6l1.5-1.1V10.8z"/>
		<path class="st88" d="M20.5,6.9L20,6l1.9,1L20.5,6.9z"/>
		<path class="st86" d="M22.8,4.9L20,6l2.3,0.1L22.8,4.9z"/>
		<path class="st89" d="M21.9,7L20,6l2.3,0.1L21.9,7z"/>
		<path class="st87" d="M23.3,6.1l-0.5-1.2l-0.5,1.2H23.3z"/>
		<path class="st90" d="M21.9,7l1.4-0.9h-1L21.9,7z"/>
		<path class="st91" d="M22.8,7.5l0.5-1.4L21.9,7L22.8,7.5z"/>
		<path class="st92" d="M23.9,8.1l-0.6-2l-0.5,1.4L23.9,8.1z"/>
		<path class="st93" d="M24.1,5.2l-0.8,0.9l0.8,0.2V5.2z"/>
		<path class="st94" d="M23.9,8.1l0.2-1.8l-0.8-0.2L23.9,8.1z"/>
		<path class="st95" d="M19.9,30.3l-0.3,1l0.9,0.7L19.9,30.3z"/>
		<path class="st96" d="M21.1,31.2L20.5,32l-0.6-1.7L21.1,31.2z"/>
		<path class="st97" d="M22,29.7l-2.1,0.6l1.2,0.9L22,29.7z"/>
		<path class="st98" d="M21.8,28.6l-1.9,1.7l2.1-0.6L21.8,28.6z"/>
		<path class="st32" d="M22,31.4l-0.9-0.2l0.9-1.5V31.4z"/>
		<path class="st99" d="M23.1,30.1L22,29.7v1.7L23.1,30.1z"/>
		<path class="st97" d="M22.9,29.8L22,29.7l1.1,0.4L22.9,29.8z"/>
		<path class="st100" d="M24.2,29.3l-1.3,0.5l0.2,0.3L24.2,29.3z"/>
		<path class="st101" d="M24.7,29.7l-0.5-0.4l-1.1,0.8L24.7,29.7z"/>
		<path class="st102" d="M23.3,30.9l1.4-1.2v0.7L23.3,30.9z"/>
		<path class="st103" d="M24.6,31.2l-1.3-0.3l1.4-0.5L24.6,31.2z"/>
		<path class="st104" d="M24.8,30.3l-0.1-0.6v0.7L24.8,30.3z"/>
		<path class="st105" d="M24.6,31.2l0.2-0.9l-0.1,0.1L24.6,31.2z"/>
		<path class="st106" d="M25.1,30l-0.4-0.3l0.1,0.6L25.1,30z"/>
		<path class="st107" d="M25.6,30.3L25.1,30l-0.3,0.3H25.6z"/>
		<path class="st108" d="M25.3,29.5l0.3,0.8L25.1,30L25.3,29.5z"/>
		<path class="st17" d="M26,28.6L25.1,29l-0.4,0.7l0.4,0.3L26,28.6z"/>
		<path class="st109" d="M24.2,29.3l0.9-0.3l-0.4,0.7L24.2,29.3z"/>
		<path class="st110" d="M26,28.6l1,0.3l-1.4,1.4l-0.3-0.8L26,28.6z"/>
		<path class="st104" d="M27.9,29.3L27,28.9l-1.4,1.4L27.9,29.3z"/>
		<path class="st111" d="M26,28.6l0.2-0.1l0.8,0.4L26,28.6z"/>
		<path class="st112" d="M24.2,29.3l-0.8-0.7l1.7,0.4L24.2,29.3z"/>
		<path class="st113" d="M24,27.9l-0.6,0.7l1.7,0.4L24,27.9z"/>
		<path class="st114" d="M23.1,27.5l0.3,1.1l0.6-0.7L23.1,27.5z"/>
		<path class="st115" d="M21.6,25.3L21,25.4l1.4,2.1L21.6,25.3z"/>
		<path class="st116" d="M24.4,25.8l-2.8-0.5l0.8,2.2h0.7L24.4,25.8z"/>
		<path class="st117" d="M24.4,26.3v-0.5l-1.3,1.7L24.4,26.3z"/>
		<path class="st118" d="M24,27.9l-0.9-0.4l1.3-1.2L24,27.9z"/>
		<path class="st104" d="M26,28.6l-0.4-0.4l0.2-0.2L26,28.6z"/>
		<path class="st119" d="M24.9,27.8l0.7,0.4l0.2-0.2v-0.2H24.9z"/>
		<path class="st120" d="M24.9,26.2v1.6l0.5-1.5L24.9,26.2z"/>
		<path class="st17" d="M25.8,27.8l-0.4-1.5l-0.5,1.5H25.8z"/>
		<path class="st111" d="M26.7,27.8l-1.3-1.5l0.4,1.5V28L26.7,27.8z"/>
		<path class="st17" d="M26,28.6l0.2-0.1L25.8,28L26,28.6z"/>
		<path class="st121" d="M28.9,27.5l-2.7,1l0.8,0.4L28.9,27.5z"/>
		<path class="st122" d="M28.5,27.1l-2.3,1.4l2.7-1L28.5,27.1z"/>
		<path class="st122" d="M24.4,26.3l0.5-0.6l-0.5,0.1V26.3z"/>
		<path class="st123" d="M26.9,26.6l-2-0.9l0.7-0.3L26.9,26.6z"/>
		<path class="st124" d="M27.6,26.5l-2-1.1l1.3,1.2L27.6,26.5z"/>
		<path class="st125" d="M27.6,27l-0.7-0.4l0.7-0.1V27z"/>
		<path class="st126" d="M28.5,27.1L27.6,27v-0.5l0.3,0.1L28.5,27.1z"/>
		<path class="st127" d="M25.4,24.5l-1,1.3l0.5-0.1l0.7-0.3L25.4,24.5z"/>
		<path class="st17" d="M27.6,26.5l-0.7-1.3l-0.4,0.3l-1.1-1l0.2,0.9L27.6,26.5z"/>
		<path class="st17" d="M21.6,25.3l3.8-0.8l-1,1.3L21.6,25.3z"/>
		<path class="st128" d="M27.6,26.5l0.1-0.5l-0.8-0.8L27.6,26.5z"/>
		<path class="st128" d="M27.9,26.6L27.7,26l-0.1,0.5L27.9,26.6z"/>
		<path class="st129" d="M28.5,27.1l0.9-0.2l-1.5-0.3L28.5,27.1z"/>
		<path class="st130" d="M28.9,27.5l1-0.6l-1.4,0.2L28.9,27.5z"/>
		<path class="st131" d="M28.7,25l0.7,1.9L29.1,25H28.7z"/>
		<path class="st132" d="M29.9,26.9v-0.3L29.1,25l0.3,1.9H29.9z"/>
		<path class="st133" d="M21.6,25.3l-2-5.9l5.8,5.1L21.6,25.3z"/>
		<path class="st134" d="M26.5,25.5l-1.1-1l1.7-0.3L26.5,25.5z"/>
		<path class="st135" d="M26.9,25.2l0.2-1l-0.6,1.3L26.9,25.2z"/>
		<path class="st136" d="M27.7,26l-0.6-1.6l-0.2,0.8L27.7,26z"/>
		<path class="st137" d="M20,15l-1,2.6l0.6,1.8l4.1,0.3L20,15z"/>
		<path class="st138" d="M23.7,15.2L20,15l3.7,4.7V15.2z"/>
		<path class="st17" d="M25.4,24.5l-5.8-5.1l4.1,0.3L25.4,24.5z"/>
		<path class="st139" d="M26.1,22.9l-2.4-3.2l1.7,4.8L26.1,22.9z"/>
		<path class="st140" d="M27.1,24.2l-1-1.3l-0.7,1.6L27.1,24.2z"/>
		<path class="st141" d="M24.1,5.2l1.5,1.7l-1.5-0.6V5.2z"/>
		<path class="st142" d="M23.9,8.1l0.2-1.8l1.5,0.6L23.9,8.1z"/>
		<path class="st143" d="M23.9,10.8l1.2-0.4l-1.2-2.3V10.8z"/>
		<path class="st144" d="M28,9.6l-4.1-1.5l1.2,2.3L28,9.6z"/>
		<path class="st17" d="M23.7,19.7l0.9-4.5h-0.9V19.7z"/>
		<path class="st145" d="M23.8,13.9l0.8,1.3h-0.9L23.8,13.9z"/>
		<path class="st17" d="M25.8,13.2l-1.9-2.4l-0.1,3.1l0.8,1.3L25.8,13.2z"/>
		<path class="st146" d="M25.1,10.4l-1.2,0.4l1.9,2.4l0.4-0.6L25.1,10.4z"/>
		<path class="st147" d="M28,9.6l-2.9,0.8l1.1,2.2L28,9.6z"/>
		<path class="st148" d="M27.7,15.4L28,9.6l-1.8,3L27.7,15.4z"/>
		<path class="st149" d="M25.8,13.2l0.4-0.6l1.5,2.8L25.8,13.2z"/>
		<path class="st150" d="M24.6,15.2l1.2-2l1.9,2.2L24.6,15.2z"/>
		<path class="st151" d="M23.7,19.7l0.9-4.5l2.8,4.8L23.7,19.7z"/>
		<path class="st152" d="M27.7,15.4l-3.1-0.2l2.8,4.8L27.7,15.4z"/>
		<path class="st17" d="M26.1,22.9l1.3-2.9l-3.7-0.3L26.1,22.9z"/>
		<path class="st153" d="M27.1,24.2l0.3-4.2l-1.3,2.9L27.1,24.2z"/>
		<path class="st17" d="M28.7,25l-1.6-0.8l1.9-1.6l0.7,0.1l-0.7,1l0.3,0.6L29.1,25H28.7z"/>
		<path class="st17" d="M30.7,23.8l-1.2-0.5l-0.2-0.1l0.4-0.5L30.7,23.8z"/>
		<path class="st154" d="M29,22.6L27.4,20l-0.3,4.2L29,22.6z"/>
		<path class="st17" d="M30.7,21.1L27.4,20l1.6,2.6L30.7,21.1z"/>
		<path class="st155" d="M29.7,22.7L29,22.6l1.7-1.5L29.7,22.7z"/>
		<path class="st17" d="M30.7,22.9l-1-0.2l1-1.6V22.9z"/>
		<path class="st156" d="M30.7,23.8v-0.9l-1-0.2L30.7,23.8z"/>
		<path class="st157" d="M31.1,23l-0.4,0.8v-0.9L31.1,23z"/>
		<path class="st158" d="M30.7,21.1l0.4,1.9l-0.4-0.1V21.1z"/>
		<path class="st159" d="M31.3,22.1l-0.6-1l0.4,1.9L31.3,22.1z"/>
		<path class="st157" d="M32.4,24.2L31.1,23l0.2-0.9l1.5,2.2l-0.2,0.9L32.4,24.2z"/>
		<path class="st130" d="M28.9,27.5l1.9,1.1l-0.9-1.7L28.9,27.5z"/>
		<path class="st160" d="M31,27.5l-1.1-0.6l0.9,1.7L31,27.5z"/>
		<path class="st161" d="M31.6,28.4L31,27.5l-0.2,1.1L31.6,28.4z"/>
		<path class="st162" d="M31.6,28.8v-0.4l-0.8,0.2L31.6,28.8z"/>
		<path class="st163" d="M31.6,29.7l-0.8-1.1l0.8,0.2V29.7z"/>
		<path class="st164" d="M32.5,29l-0.9,0.7v-0.9L32.5,29z"/>
		<path class="st17" d="M31.6,28.4v0.4l0.9,0.2L31.6,28.4z"/>
		<path class="st165" d="M33.2,26.4l-1.6,2l0.9,0.6L33.2,26.4z"/>
		<path class="st166" d="M32.2,26.4l-0.6,2l1.6-2H32.2z"/>
		<path class="st17" d="M32.8,25.6l-0.6,0.8h1L32.8,25.6z"/>
		<path class="st166" d="M32.6,25.2l-0.4,1.2l0.6-0.8L32.6,25.2z"/>
		<path class="st167" d="M33.1,25.3l-0.5-0.1l0.6,1.2L33.1,25.3z"/>
		<path class="st159" d="M33,22.8l-0.2,1.5l-0.2,0.9l0.5,0.1L33,22.8z"/>
		<path class="st168" d="M33.6,23L33,22.8l0.1,2.5L33.6,23z"/>
		<path class="st169" d="M30.7,21.1l0.9-1l-0.4,0.6l0.1,1.4L30.7,21.1z"/>
		<path class="st170" d="M27.4,20l3.4-1l-0.1,2.1L27.4,20z"/>
		<path class="st171" d="M31.6,20.1L30.8,19l-0.1,2.1L31.6,20.1z"/>
		<path class="st172" d="M27.4,20l0.3-4.6l3.1,3.6L27.4,20z"/>
		<path class="st173" d="M30.8,15.4h-3.1l3.1,3.6V15.4z"/>
		<path class="st17" d="M31.6,20.1l-0.8-4.7V19L31.6,20.1z"/>
		<path class="st174" d="M33.2,15.4h-2.4l0.8,4.7L33.2,15.4z"/>
		<path class="st175" d="M27.7,15.4L28,9.6l2.9,3.1L27.7,15.4z"/>
		<path class="st176" d="M33.2,15.4l-2.3-2.7l-0.1,2.7H33.2z"/>
		<path class="st17" d="M27.7,15.4l3.2-2.7l-0.1,2.7H27.7z"/>
		<path class="st177" d="M23.9,8.1l1.7-1.2L28,9.6L23.9,8.1z"/>
		<path class="st178" d="M24.1,5.2l2.8-0.4l-1.3,2.1L24.1,5.2z"/>
		<path class="st179" d="M27.2,4.2l-3.1,1l2.8-0.4L27.2,4.2z"/>
		<path class="st180" d="M28.5,3.1l-1.3,1.1l-0.3,0.6l1.5-0.3L28.5,3.1z"/>
		<path class="st181" d="M29.3,4.4l-0.8-1.3l-0.1,1.4L29.3,4.4z"/>
		<path class="st182" d="M25.6,6.9L28.3,5l0.1-0.5l-1.5,0.3L25.6,6.9z"/>
		<path class="st183" d="M28.2,6.8l-2.6,0.1L28.3,5L28.2,6.8z"/>
		<path class="st184" d="M29.3,4.4l-0.9,0.1L28.3,5l-0.1,1.8L29.3,4.4z"/>
		<path class="st185" d="M28,9.6l-2.4-2.7l2.6-0.1L28,9.6z"/>
		<path class="st186" d="M31,6.8h-2.8l1.1-2.4L31,6.8z"/>
		<path class="st187" d="M28,9.6l0.2-2.8H31L28,9.6z"/>
		<path class="st188" d="M30.9,12.7L31,6.8l-3,2.8L30.9,12.7z"/>
		<path class="st189" d="M31,6.8l-0.1,5.9l2.3,2.7L31,6.8z"/>
		<path class="st190" d="M31.6,20.1l2.6-0.1l0.2-0.2l-1.2-4.4L31.6,20.1z"/>
		<path class="st191" d="M29.3,4.4l0.3-2.6l0.5,1.5L29.3,4.4z"/>
		<path class="st192" d="M30.1,0.7l-0.5,1.1l0.5,1.5l1-1.5L30.1,0.7z"/>
		<path class="st193" d="M29.3,4.4l1.1-0.3l-0.3-0.8L29.3,4.4z"/>
		<path class="st17" d="M31.1,2.8l-1,0.5l0.5-0.8L31.1,2.8z"/>
		<path class="st194" d="M31.1,1.8v1l-0.5-0.3L31.1,1.8z"/>
		<path class="st195" d="M30.1,3.3L31,3.9l0.1-1.1L30.1,3.3z"/>
		<path class="st17" d="M30.4,4.1L31,3.9l-0.9-0.6L30.4,4.1z"/>
		<path class="st17" d="M31,6.8l-1.7-2.4l1.1-0.3L31,6.8z"/>
		<path class="st196" d="M31,3.9l-0.6,0.2L31,6.8V3.9z"/>
		<path class="st197" d="M31.6,0.3l-0.5,1.5L32,2.2L31.6,0.3z"/>
		<path class="st198" d="M31.1,2.8L32,2.2l-0.9-0.4V2.8z"/>
		<path class="st17" d="M32.3,3.6l-1.2-0.8L32,2.2L32.3,3.6z"/>
		<path class="st199" d="M31,3.9l0.1-1.1l1.2,0.8L31,3.9z"/>
		<path class="st200" d="M31,6.8l2.3-2.6L31,3.9V6.8z"/>
		<path class="st17" d="M32.3,3.6L31,3.9l2.3,0.3L32.3,3.6z"/>
		<path class="st193" d="M32.5,2.5L32,2.2l0.3,1.4L32.5,2.5z"/>
		<path class="st192" d="M32.5,2.1L32,2.2l1.5,1.1L32.5,2.1z"/>
		<path class="st17" d="M32.3,3.6l0.2-1.1l1,0.8L32.3,3.6z"/>
		<path class="st201" d="M33.3,4.2l0.5-0.5l-0.3-0.4l-1.2,0.3L33.3,4.2z"/>
		<path class="st202" d="M34.5,2.9l-1,0.4l0.3,0.4L34.5,2.9z"/>
		<path class="st203" d="M33.3,4.2l0.9,0.2l-0.4-0.7L33.3,4.2z"/>
		<path class="st204" d="M31,6.8l4.5,2l-2.2-4.6L31,6.8z"/>
		<path class="st17" d="M34.5,2.9l0.3,1.5l-1-0.7L34.5,2.9z"/>
		<path class="st205" d="M34.2,4.4l0.8,1l-0.2-1l-1-0.7L34.2,4.4z"/>
		<path class="st206" d="M35.5,8.8l-2.2-4.6L35,5.4L35.5,8.8z"/>
		<path class="st207" d="M34.2,4.4l-0.9-0.2L35,5.4L34.2,4.4z"/>
		<path class="st208" d="M34.5,2.9l2.6,1.5h-2.3L34.5,2.9z"/>
		<path class="st209" d="M35,5.4l-0.2-1h2.3L35,5.4z"/>
		<path class="st210" d="M35.5,8.8l0.9-2.5L35,5.4L35.5,8.8z"/>
		<path class="st211" d="M37.1,4.4l-2.1,1l1.4,0.9L37.1,4.4z"/>
		<path class="st212" d="M33.2,15.4L31,6.8l4.5,2L33.2,15.4z"/>
		<path class="st213" d="M36.4,13.4l-0.9-4.6l-2.3,6.6L36.4,13.4z"/>
		<path class="st214" d="M37,17.3l-3.8-1.9l3.2-2L37,17.3z"/>
		<path class="st215" d="M34.4,19.8l-1.2-4.4l3.8,1.9L34.4,19.8z"/>
		<path class="st216" d="M31.6,20.1l0.9,1.4l1.7-1.5L31.6,20.1z"/>
		<path class="st217" d="M33,22.8l-0.6-0.6l0.1-0.7l1.7-1.5h0.2L33,22.8z"/>
		<path class="st218" d="M37,17.3l0.4,2.5L34.2,20L37,17.3z"/>
		<path class="st17" d="M33,22.8h1l-0.7-0.7L33,22.8z"/>
		<path class="st219" d="M34.4,20l-1.1,2.1l0.7,0.7L34.4,20z"/>
		<path class="st220" d="M35.2,22.9L34,22.8l0.4-2.8L35.2,22.9z"/>
		<path class="st221" d="M36.1,23.5l-0.9-0.6L34.4,20l3-0.2l0.7,3.8L36.1,23.5z"/>
		<path class="st222" d="M33,22.8l0.6,0.2l1.1,1.2l0.3,0.6l0.3-0.3L34,22.8H33z"/>
		<path class="st223" d="M35.2,22.9l0.1,1.6l0.8-1L35.2,22.9z"/>
		<path class="st224" d="M35,24.8h0.6l-0.3-0.3L35,24.8z"/>
		<path class="st158" d="M36.1,23.5l-0.5,1.3l-0.3-0.3L36.1,23.5z"/>
		<path class="st225" d="M36.7,25.4l-0.6-1.9l1.6,0.5L36.7,25.4z"/>
		<path class="st226" d="M38.1,23.6l-2-0.1l1.6,0.5L38.1,23.6z"/>
		<path class="st227" d="M37.5,25.2l-0.8,0.2l1-1.4L37.5,25.2z"/>
		<path class="st228" d="M35,24.8l0.2,0.7l0.4-0.7H35z"/>
		<path class="st157" d="M36.4,26.3l-0.6-0.5l-0.2-1l-0.4,0.7l0.7,0.8H36.4z"/>
		<path class="st227" d="M36.7,25.4l-0.3,0.9l0.8,0.3L36.7,25.4z"/>
		<path class="st229" d="M35.9,26.3l0.4,1.9l0.4-0.7L35.9,26.3z"/>
		<path class="st230" d="M37.2,26.6l-0.8-0.3h-0.5l0.8,1.2L37.2,26.6z"/>
		<path class="st231" d="M36.3,28.2l1.4,0.8l-0.6-0.9l0.1-1.5L36.3,28.2z"/>
		<path class="st232" d="M31.6,29.7l0.9-0.7l0.3,1.3L31.6,29.7z"/>
		<path class="st233" d="M33.2,32l-1.6-2.3l1.2,0.6L33.2,32z"/>
		<path class="st234" d="M32.5,29l1.2,1.6l-0.9-0.3L32.5,29z"/>
		<path class="st235" d="M33.2,32l0.5-1.4l-0.9-0.3L33.2,32z"/>
		<path class="st17" d="M34,31.7L33.2,32l0.5-1.4L34,31.7z"/>
		<path class="st236" d="M33.4,34.2L33.2,32l0.8-0.3L33.4,34.2z"/>
		<path class="st237" d="M34.9,33.3L34,31.7l-0.6,2.5L34.9,33.3z"/>
		<path class="st238" d="M34.1,34.7l-0.7-0.5l1.5-0.9L34.1,34.7z"/>
		<path class="st239" d="M35.9,34.6l-1-1.3l-0.8,1.4L35.9,34.6z"/>
		<path class="st240" d="M35.8,37.8l-1.7-3.1l1.8-0.1L35.8,37.8z"/>
		<path class="st241" d="M37.5,37l-1.6-2.4l-0.1,3.2L37.5,37z"/>
		<path class="st240" d="M37.7,39.2l-1.9-1.4l1.7-0.8L37.7,39.2z"/>
		<path class="st102" d="M35.5,39.8l0.3-2l1.9,1.4L35.5,39.8z"/>
		<path class="st242" d="M34.9,33.3l0.6-2.2l1.1,0.6l-0.7,2.9L34.9,33.3z"/>
		<path class="st243" d="M36.3,28.2l-0.8,2.9l1-0.3L36.3,28.2z"/>
		<path class="st244" d="M37.7,29l-1.4-0.8l0.2,2.6L37.7,29z"/>
		<path class="st245" d="M36.6,31.7l-0.1-0.9l1.2-1.8L36.6,31.7z"/>
		<path class="st239" d="M35.5,31.1l1.1,0.6l-0.1-0.9L35.5,31.1z"/>
		<path class="st120" d="M37.1,28.1l2.2-0.1l-1.6,1L37.1,28.1z"/>
		<path class="st246" d="M40.8,29h-3.1l0.9-0.6L40.8,29z"/>
		<path class="st17" d="M39.3,28l-0.7,0.4l0.4,0.1l0.8-0.3L39.3,28z"/>
		<path class="st247" d="M40.8,29l-1-0.8L39,28.5L40.8,29z"/>
		<path class="st247" d="M39.3,28l1.3-0.7l0.3,0.2l-1.1,0.7L39.3,28z"/>
		<path class="st248" d="M37.2,26.6l-0.5-1.2l0.8-0.2l0.2,0.4L37.2,26.6z"/>
		<path class="st226" d="M38.1,24.8l-0.6,0.4l0.2,0.4L38.1,24.8z"/>
		<path class="st225" d="M38.7,25.4l-0.6-0.6l-0.4,0.8L38.7,25.4z"/>
		<path class="st249" d="M38.5,24.7l-0.4,0.1l0.6,0.6L38.5,24.7z"/>
		<path class="st17" d="M39.4,24.2l-0.7,1.2l-0.2-0.7L39.4,24.2z"/>
		<path class="st250" d="M38.1,24l0.7,0.5l0.6-0.3L38.1,24z"/>
		<path class="st226" d="M38.1,23.6V24l1.3,0.2L38.1,23.6z"/>
		<path class="st251" d="M37.1,4.4l0.7-2.3l0.6,2.3H37.1z"/>
		<path class="st17" d="M36.4,6.3l0.7-1.9l0.8,1L36.4,6.3z"/>
		<path class="st252" d="M38.4,4.4h-1.3l0.8,1L38.6,5L38.4,4.4z"/>
		<path class="st253" d="M37.8,2.1l1.8,2.3h-1.2h-1.3L37.8,2.1z"/>
		<path class="st254" d="M39.6,8.6l-3.2-2.3L38.6,5L39.6,8.6z"/>
		<path class="st255" d="M38.4,4.4L38.6,5l1-0.6H38.4z"/>
		<path class="st256" d="M39.6,8.6V4.4l-1,0.6L39.6,8.6z"/>
		<path class="st257" d="M35.5,8.8l0.9-2.5l3.2,2.3L35.5,8.8z"/>
		<path class="st258" d="M36.4,13.4l1.8-0.4l-2.7-4.2L36.4,13.4z"/>
		<path class="st259" d="M39.6,8.6L38.2,13l-2.7-4.2L39.6,8.6z"/>
		<path class="st17" d="M37,17.3l-0.6-3.9l1.8-0.4L37,17.3z"/>
		<path class="st260" d="M39.5,15l-1.3-2l1.4-4.4L39.5,15z"/>
		<path class="st261" d="M37,17.3l2.5-2.3l-1.3-2L37,17.3z"/>
		<path class="st262" d="M39.5,17.1V15L37,17.3L39.5,17.1z"/>
		<path class="st263" d="M39.6,4.4v4.2l3.6-2.3L39.6,4.4z"/>
		<path class="st264" d="M41.4,3l-1.1,0.1l-0.7,1.3L41.4,3z"/>
		<path class="st255" d="M41.7,3.6l-2.1,0.8L41.4,3L41.7,3.6z"/>
		<path class="st17" d="M43.2,6.3l-1.5-2.7l-2.1,0.8L43.2,6.3z"/>
		<path class="st265" d="M42.4,0.3l-1,2.7l2.3-0.2L42.4,0.3z"/>
		<path class="st266" d="M43.2,6.3l0.5-3.5l-2,0.8L43.2,6.3z"/>
		<path class="st267" d="M41.4,3l0.3,0.6l2-0.8L41.4,3z"/>
		<path class="st268" d="M43.2,6.3l1.4-1.5l-0.9-2L43.2,6.3z"/>
		<path class="st269" d="M45.9,2.2l-2.2,0.6L46,3.2L45.9,2.2z"/>
		<path class="st17" d="M44.6,4.8L46,3.2l-2.3-0.4L44.6,4.8z"/>
		<path class="st270" d="M46.7,3l-0.8-0.8l0.1,1L46.7,3z"/>
		<path class="st17" d="M39.6,8.6L39.5,15l3.2-4.4L39.6,8.6z"/>
		<path class="st271" d="M43.2,6.3l-0.5,4.3l-3.1-2L43.2,6.3z"/>
		<path class="st272" d="M45.7,9.3l-3,1.3l0.5-4.3L45.7,9.3z"/>
		<path class="st273" d="M45.9,7.8l-2.7-1.5l2.5,3L45.9,7.8z"/>
		<path class="st274" d="M39.5,15l3-2.8l0.2-1.6L39.5,15z"/>
		<path class="st275" d="M43.6,11.2l-0.9-0.6l-0.2,1.6L43.6,11.2z"/>
		<path class="st276" d="M45.7,9.3l-2.1,1.9l-0.9-0.6L45.7,9.3z"/>
		<path class="st277" d="M39.5,17.1l2.4-0.2l0.6-4.7l-3,2.8V17.1z"/>
		<path class="st17" d="M43.6,11.2l-1.1,1l-0.6,4.7l2.2-0.3L43.6,11.2z"/>
		<path class="st17" d="M45.2,12.4l-1.6-1.2l2.1-1.9L45.2,12.4z"/>
		<path class="st278" d="M44.6,4.8l1.3,3l-2.7-1.5L44.6,4.8z"/>
		<path class="st273" d="M46,3.2l-1.4,1.6l1.3,3l0.5-2.5L46,3.2z"/>
		<path class="st17" d="M46.7,3l0.2,0.5L46,3.2L46.7,3z"/>
		<path class="st279" d="M46.4,5.3l0.3-1.9L46,3.2L46.4,5.3z"/>
		<path class="st280" d="M46.9,3.5L48.1,7l-1.7-1.7l0.3-1.9L46.9,3.5z"/>
		<path class="st281" d="M49.5,0.8L46.7,3l2.1-0.1L49.5,0.8z"/>
		<path class="st282" d="M49.9,2.8l-0.4-2l-0.7,2.1L49.9,2.8z"/>
		<path class="st17" d="M48.5,3.8l0.3-0.9L46.7,3L48.5,3.8z"/>
		<path class="st283" d="M49.9,2.8l-1.4,1l0.3-0.9L49.9,2.8z"/>
		<path class="st284" d="M48.1,7l0.4-3.2l-1.6-0.3L48.1,7z"/>
		<path class="st285" d="M46.7,3l0.2,0.5l1.6,0.3L46.7,3z"/>
		<path class="st17" d="M46.4,5.3l0.4,3L48.1,7L46.4,5.3z"/>
		<path class="st286" d="M45.7,9.3l1.1-1l-0.4-3l-0.5,2.3L45.7,9.3z"/>
		<path class="st17" d="M47.3,10.2l-1.6-0.9l1.1-1L47.3,10.2z"/>
		<path class="st287" d="M48,9.6l-0.7,0.6l-0.5-1.9L48,9.6z"/>
		<path class="st288" d="M48.1,7l1.8,0.6l-3.1,0.7L48.1,7z"/>
		<path class="st289" d="M48,9.6l1.9-2l-3.1,0.7L48,9.6z"/>
		<path class="st290" d="M45.2,12.4l2.1-2.2l-1.6-0.9L45.2,12.4z"/>
		<path class="st291" d="M43.6,11.2l0.5,5.4h0.4l0.7-4.2L43.6,11.2z"/>
		<path class="st17" d="M37,17.3l0.4,2.5h2.1v-2.7L37,17.3z"/>
		<path class="st292" d="M41.9,16.9l-2.4,0.2v2.7l2.1-0.1L41.9,16.9z"/>
		<path class="st293" d="M37.4,19.8l0.7,3.8l1.3,0.6l0.1-4.4H37.4z"/>
		<path class="st294" d="M43.1,26.7l-2,0.1L41,31.1l0.6-0.1l1.1-0.7L43.1,26.7z"/>
		<path class="st295" d="M44.1,16.6l-2.2,0.3l-0.2,1.4L44.1,16.6z"/>
		<path class="st296" d="M41.6,19.7l2.4-0.1l0.2-1.1l-0.1-1.9l-2.4,1.7L41.6,19.7z"/>
		<path class="st297" d="M44.5,16.6l-0.3,1.9l-0.1-1.9H44.5z"/>
		<path class="st17" d="M45.2,12.4l2,3.9l-2.7,0.3L45.2,12.4z"/>
		<path class="st298" d="M42.7,30.3l2.9-3.3v-0.4l-2.5,0.1L42.7,30.3z"/>
		<path class="st297" d="M44.2,18.5l0.1,1.1H44L44.2,18.5z"/>
		<path class="st251" d="M44,20.1l0.3-0.5H44V20.1z"/>
		<path class="st299" d="M42.7,30.3l-0.3,1.1l-0.6,0.1l-0.2,0.7l0.7,0.3l0.7-0.4L42.7,30.3z"/>
		<path class="st300" d="M43.5,30.5l-0.8-0.2l0.3,1.8L43.5,30.5z"/>
		<path class="st301" d="M42.3,22l-0.4,1.6l-0.8-0.2L42.3,22z"/>
		<path class="st17" d="M44.9,30.8l-1-1.9l1.7-1.9L44.9,30.8z"/>
		<path class="st302" d="M43.5,30.5l0.4-1.6l1,1.9L43.5,30.5z"/>
		<path class="st303" d="M43,32.1l1.9-1.3l-1.4-0.3L43,32.1z"/>
		<path class="st304" d="M45.6,27l-0.7,3.8l3.2-2l-1.4-1l-0.8-1.2L45.6,27z"/>
		<path class="st305" d="M47.2,16.3l-2.9,3.3l-0.1-1.1l0.3-1.9L47.2,16.3z"/>
		<path class="st306" d="M41.4,25.2l-0.8,2.1l0.3,0.2l0.7-1.9L41.4,25.2z"/>
		<path class="st307" d="M41.9,27.1l-1,0.4l0.2-0.5l0.9-0.5v0.3L41.9,27.1z"/>
		<path class="st250" d="M43,32.1l0.6,1.4l0.3-0.7L43,32.1z"/>
		<path class="st308" d="M43.3,23.9l-1.9,1.3l1,0.7L43.3,23.9z"/>
		<path class="st17" d="M42.9,26.4l0.4-2.5l-0.9,2L42.9,26.4z"/>
		<path class="st309" d="M42,26.5l0.4-0.6l0.5,0.5L42,26.5z"/>
		<path class="st310" d="M41.9,27.1l0.1-0.3v-0.3l0.9-0.1l-0.5,0.3l0.8-0.1l0.1,0.2L41.9,27.1z"/>
		<path class="st249" d="M43.3,23.9l0.5,1.6l-0.9,0.9L43.3,23.9z"/>
		<path class="st249" d="M43.2,26.6l-0.3-0.2l-0.5,0.3L43.2,26.6z"/>
		<path class="st247" d="M43.8,25.5l-0.3,0.8l-0.6,0.1L43.8,25.5z"/>
		<path class="st247" d="M43.3,26.8l0.2-0.5l-0.6,0.1L43.3,26.8z"/>
		<path class="st311" d="M43.8,25.5l0.3,0.8h-0.6L43.8,25.5z"/>
		<path class="st312" d="M43.3,26.8l0.2-0.5h0.6l0.1,0.2L43.3,26.8z"/>
		<path class="st313" d="M39.8,28.2l2.6,0.7L40.8,29L39.8,28.2z"/>
		<path class="st247" d="M41.6,30l-0.8-1h0.5L41.6,30z"/>
		<path class="st314" d="M42.4,28.9L41.3,29l0.3,1L42.4,28.9z"/>
		<path class="st120" d="M42.3,29.5L41.6,30l0.8-1.1L42.3,29.5z"/>
		<path class="st247" d="M43.2,28.5l-0.8,0.4l1.1-0.3L43.2,28.5z"/>
		<path class="st315" d="M42.3,29.5l0.1-0.6l1.1-0.3l0.7,0.2L42.3,29.5z"/>
		<path class="st316" d="M44.2,26.5l-0.9,0.3l0.5,0.4L44.2,26.5z"/>
		<path class="st317" d="M43.2,28.5l0.6-1.3v0.4l-0.3,1L43.2,28.5z"/>
		<path class="st318" d="M44.2,26.5l0.2,0.7l-0.6,0.4v-0.4L44.2,26.5z"/>
		<path class="st319" d="M43.5,28.6l1.3-0.6l-0.6,0.8L43.5,28.6z"/>
		<path class="st320" d="M45.1,28.4l-0.9,0.4l0.6-0.8L45.1,28.4z"/>
		<path class="st321" d="M43.3,23.9l3.9-1.6l-0.7-0.5L43.3,23.9z"/>
		<path class="st17" d="M45.4,32.5l-0.5-1.7l3.9-1.5L45.4,32.5z"/>
		<path class="st322" d="M44.1,26.3l1-0.1l2.1-3.9l-3.4,3.2L44.1,26.3z"/>
		<path class="st17" d="M44.4,27.2l0.7-1l-1,0.1L44.4,27.2z"/>
		<path class="st323" d="M47.2,22.3l-0.3,2.4l-1.8,1.5L47.2,22.3z"/>
		<path class="st17" d="M47.9,24l-0.7-1.7l-0.3,2.4L47.9,24z"/>
		<path class="st324" d="M45.1,26.2l3.3-0.6L47.9,24L45.1,26.2z"/>
		<path class="st325" d="M48.6,23.4l-0.2,2.2L47.9,24L48.6,23.4z"/>
		<path class="st326" d="M50,24.5l-1.4-1.1l-0.2,2.2L50,24.5z"/>
		<path class="st327" d="M45.1,26.2l0.3,0.4l0.8-0.1L45.1,26.2z"/>
		<path class="st328" d="M48.4,25.6l-3.3,0.6l1.1,0.3L48.4,25.6z"/>
		<path class="st329" d="M45.4,26.6l0.2,0.3l0.7,0.1l-0.1-0.5L45.4,26.6z"/>
		<path class="st330" d="M44.8,28l0.4-0.1l-0.1,0.5L44.8,28z"/>
		<path class="st319" d="M45.6,28l-0.4-0.1l-0.1,0.5l0.6-0.1L45.6,28z"/>
		<path class="st247" d="M46.3,27.6L45.6,28l0.1,0.3l0.8-0.3L46.3,27.6z"/>
		<path class="st315" d="M45.1,28.4l1,1.4l-0.4-1.5L45.1,28.4z"/>
		<path class="st312" d="M46.3,27v0.6l0.6-0.1L46.3,27z"/>
		<path class="st312" d="M46.2,26.5l1,0.4L46.3,27L46.2,26.5z"/>
		<path class="st17" d="M48.4,25.6l-2.2,0.9l1,0.4L48.4,25.6z"/>
		<path class="st331" d="M48.3,27.2l-1.1-0.3l1.2-1.3L48.3,27.2z"/>
		<path class="st332" d="M46.3,27l0.6,0.5l0.3-0.6L46.3,27z"/>
		<path class="st312" d="M46.5,28l0.4-0.5l-0.6,0.1L46.5,28z"/>
		<path class="st17" d="M48.3,27.2l-1.4,0.3l0.3-0.6L48.3,27.2z"/>
		<path class="st333" d="M48.3,27.9l-0.8-0.1l0.8-0.6V27.9z"/>
		<path class="st334" d="M46.9,27.5l0.6,0.3l0.8-0.6L46.9,27.5z"/>
		<path class="st330" d="M46.5,28l0.5,0.1l-0.1-0.6L46.5,28z"/>
		<path class="st335" d="M47.5,27.8l-0.6-0.3l0.1,0.6L47.5,27.8z"/>
		<path class="st312" d="M48.3,27.9l-0.4,0.2l-0.7,0.1L47,28.1l0.5-0.3L48.3,27.9z"/>
		<path class="st17" d="M45.9,29h0.5l-0.3,0.8L45.9,29z"/>
		<path class="st336" d="M47,28.1L46.4,29h0.2l0.6-0.8L47,28.1z"/>
		<path class="st337" d="M47.5,28.5l-0.3-0.3l0.7-0.1L47.5,28.5z"/>
		<path class="st338" d="M46.1,29.8l1-0.6L46.6,29h-0.2L46.1,29.8z"/>
		<path class="st314" d="M47.3,28.9L46.6,29l0.5,0.2L47.3,28.9z"/>
		<path class="st339" d="M47.5,28.5l-0.2,0.4l0.1,0.2l0.5-1L47.5,28.5z"/>
		<path class="st340" d="M47.1,29.2l1.4,0.6l-1.1-0.7l-0.1-0.2L47.1,29.2z"/>
		<path class="st341" d="M48.5,28.7l-0.7,0.6l0.7,0.5l-0.1-0.6L48.5,28.7z"/>
		<path class="st17" d="M48.8,28l-0.3,0.7l-0.1,0.5l0.4-0.6l0.9-0.3L48.8,28z"/>
		<path class="st342" d="M48.4,25.6l-0.1,1.6l0.5,0.8l0.9,0.3L48.4,25.6z"/>
		<path class="st343" d="M50,24.5l0.9,0.6l-2.5,0.5L50,24.5z"/>
		<path class="st17" d="M49.7,28.3l1.2-3.2l-2.5,0.5L49.7,28.3z"/>
		<path class="st344" d="M51.3,28.3h-1.6l1.2-3.2L51.3,28.3z"/>
		<path class="st246" d="M49.4,29.2l0.3-0.9l0.4,0.3L49.4,29.2z"/>
		<path class="st17" d="M51.3,28.3l-1.2,0.3l-0.4-0.3H51.3z"/>
		<path class="st336" d="M48.4,29.2l0.1,0.6l0.9-0.6H48.4z"/>
		<path class="st315" d="M49.7,31.7l-1.2-1.9l0.9-0.2L49.7,31.7z"/>
		<path class="st304" d="M48.8,27.8l-0.6,3.8l3.2-2.1l-1.5-1l-0.7-1.2L48.8,27.8z"/>
		<path class="st247" d="M49.6,28.3l-0.7,0.5L49,29l0.8-0.3L49.6,28.3z"/>
		<path class="st334" d="M47.5,27.8l4,0.1l-4.6-0.4"/>
		<path class="st330" d="M46.9,27.5l2.9,1.2L47,28.1"/>
		<path class="st338" d="M46.6,29l3.1,0.7l-3.6,0.1"/>
		<path class="st339" d="M47.4,29.1l3.7-0.3l-3.6-0.3"/>
		<path class="st340" d="M47.4,29.1l3.2,0.6l-3.5-0.5"/>
		<path class="st315" d="M53,32.4l-1.2-1.9l0.9-0.1L53,32.4z"/>
		<path class="st315" d="M49.4,29.2v0.4l-0.9,0.2L49.4,29.2z"/>
		<path class="st246" d="M39.1,22.5h-3.2l1-0.6L39.1,22.5z"/>
		<path class="st247" d="M39.1,22.5l-1-0.8L37.2,22L39.1,22.5z"/>
		<path class="st247" d="M37.6,21.5l1.3-0.7l0.3,0.2l-1.1,0.7L37.6,21.5z"/>
		<path class="st294" d="M41.4,20.2l-2,0.1l-0.1,4.3l0.6-0.1l1.1-0.7L41.4,20.2z"/>
		<path class="st298" d="M41,23.8l2.8-3.3l0.1-0.4l-2.5,0.1L41,23.8z"/>
		<path class="st299" d="M41,23.8l-0.4,1.1L40.1,25l-0.2,0.7l0.7,0.3l0.7-0.4L41,23.8z"/>
		<path class="st300" d="M41.7,24L41,23.8l0.3,1.8L41.7,24z"/>
		<path class="st17" d="M43.2,24.3l-1-1.9l1.6-1.9L43.2,24.3z"/>
		<path class="st302" d="M41.7,24l0.5-1.6l1,1.9L41.7,24z"/>
		<path class="st303" d="M41.3,25.6l1.9-1.3L41.7,24L41.3,25.6z"/>
		<path class="st304" d="M43.8,20.5l-0.6,3.8l3.2-2l-1.5-1l-0.7-1.2L43.8,20.5z"/>
		<path class="st306" d="M39.7,18.7l-0.8,2.1l0.3,0.2l0.6-1.9L39.7,18.7z"/>
		<path class="st307" d="M40.2,20.6l-1,0.4l0.2-0.5l0.9-0.5v0.3L40.2,20.6z"/>
		<path class="st308" d="M41.6,17.4l-1.9,1.3l0.9,0.7L41.6,17.4z"/>
		<path class="st17" d="M41.2,19.9l0.4-2.5l-1,2L41.2,19.9z"/>
		<path class="st309" d="M40.3,20l0.3-0.6l0.6,0.5L40.3,20z"/>
		<path class="st310" d="M40.2,20.6l0.1-0.3V20l0.9-0.1l-0.5,0.3h0.8l0.1,0.1L40.2,20.6z"/>
		<path class="st249" d="M41.6,17.4l0.5,1.6l-0.9,0.9L41.6,17.4z"/>
		<path class="st249" d="M41.5,20.2l-0.3-0.3l-0.5,0.3H41.5z"/>
		<path class="st247" d="M42.1,19l-0.3,0.8l-0.6,0.1L42.1,19z"/>
		<path class="st247" d="M41.6,20.3l0.2-0.5l-0.6,0.1L41.6,20.3z"/>
		<path class="st311" d="M42.1,19l0.3,0.8h-0.6L42.1,19z"/>
		<path class="st312" d="M41.6,20.3l0.2-0.5h0.6V20L41.6,20.3z"/>
		<path class="st313" d="M38.1,21.7l2.5,0.7l-1.5,0.1L38.1,21.7z"/>
		<path class="st247" d="M39.9,23.5l-0.8-1h0.5L39.9,23.5z"/>
		<path class="st314" d="M40.6,22.4l-1,0.1l0.3,1L40.6,22.4z"/>
		<path class="st120" d="M40.6,23l-0.7,0.5l0.7-1.1V23z"/>
		<path class="st247" d="M41.5,22l-0.9,0.4l1.2-0.3L41.5,22z"/>
		<path class="st315" d="M40.6,23v-0.6l1.2-0.3l0.6,0.2L40.6,23z"/>
		<path class="st316" d="M42.4,20l-0.8,0.3l0.5,0.5L42.4,20z"/>
		<path class="st317" d="M41.5,22l0.6-1.2v0.3l-0.3,1L41.5,22z"/>
		<path class="st318" d="M42.4,20l0.3,0.8l-0.6,0.3v-0.3L42.4,20z"/>
		<path class="st319" d="M41.8,22.1l1.3-0.6l-0.7,0.8L41.8,22.1z"/>
		<path class="st320" d="M43.4,21.9l-1,0.4l0.7-0.8L43.4,21.9z"/>
		<path class="st17" d="M43.7,26l-0.5-1.7l3.9-1.5L43.7,26z"/>
		<path class="st322" d="M42.4,19.8l0.9-0.1l2.2-3.9L42.1,19L42.4,19.8z"/>
		<path class="st17" d="M42.7,20.8l0.6-1.1l-0.9,0.1L42.7,20.8z"/>
		<path class="st323" d="M45.5,15.8l-0.3,2.4l-1.9,1.5L45.5,15.8z"/>
		<path class="st17" d="M46.1,17.5l-0.6-1.7l-0.3,2.4L46.1,17.5z"/>
		<path class="st324" d="M43.3,19.7l3.4-0.6l-0.6-1.6L43.3,19.7z"/>
		<path class="st325" d="M46.9,16.9l-0.2,2.2l-0.6-1.6L46.9,16.9z"/>
		<path class="st326" d="M48.3,18l-1.4-1.1l-0.2,2.2L48.3,18z"/>
		<path class="st327" d="M43.3,19.7l0.4,0.4l0.8-0.1L43.3,19.7z"/>
		<path class="st328" d="M46.7,19.1l-3.4,0.6l1.2,0.3L46.7,19.1z"/>
		<path class="st329" d="M43.7,20.1l0.2,0.3l0.7,0.1L44.5,20L43.7,20.1z"/>
		<path class="st330" d="M43.1,21.5l0.4-0.1l-0.1,0.5L43.1,21.5z"/>
		<path class="st319" d="M43.9,21.5l-0.4-0.1l-0.1,0.5l0.6-0.1L43.9,21.5z"/>
		<path class="st247" d="M44.6,21.1l-0.7,0.4l0.1,0.3l0.8-0.3L44.6,21.1z"/>
		<path class="st315" d="M43.4,21.9l1,1.4L44,21.8L43.4,21.9z"/>
		<path class="st312" d="M44.6,20.5v0.6l0.6-0.1L44.6,20.5z"/>
		<path class="st312" d="M44.5,20l1,0.4l-0.9,0.1L44.5,20z"/>
		<path class="st17" d="M46.7,19.1L44.5,20l1,0.4L46.7,19.1z"/>
		<path class="st331" d="M46.6,20.7l-1.1-0.3l1.2-1.3L46.6,20.7z"/>
		<path class="st332" d="M44.6,20.5l0.6,0.5l0.3-0.6L44.6,20.5z"/>
		<path class="st312" d="M44.8,21.5l0.4-0.5l-0.6,0.1L44.8,21.5z"/>
		<path class="st17" d="M46.6,20.7L45.2,21l0.3-0.6L46.6,20.7z"/>
		<path class="st333" d="M46.6,21.4l-0.8-0.1l0.8-0.6V21.4z"/>
		<path class="st334" d="M45.2,21l0.6,0.3l0.8-0.6L45.2,21z"/>
		<path class="st330" d="M44.8,21.5l0.5,0.1L45.2,21L44.8,21.5z"/>
		<path class="st335" d="M45.8,21.3L45.2,21l0.1,0.6L45.8,21.3z"/>
		<path class="st312" d="M46.6,21.4l-0.4,0.2l-0.8,0.1l-0.1-0.1l0.5-0.3L46.6,21.4z"/>
		<path class="st17" d="M44.2,22.5h0.5l-0.3,0.8L44.2,22.5z"/>
		<path class="st336" d="M45.3,21.6l-0.6,0.9h0.2l0.5-0.8L45.3,21.6z"/>
		<path class="st337" d="M45.8,22l-0.4-0.3l0.8-0.1L45.8,22z"/>
		<path class="st338" d="M44.4,23.3l1-0.6l-0.5-0.2h-0.2L44.4,23.3z"/>
		<path class="st314" d="M45.6,22.4l-0.7,0.1l0.5,0.2L45.6,22.4z"/>
		<path class="st339" d="M45.8,22l-0.2,0.4l0.1,0.2l0.5-1L45.8,22z"/>
		<path class="st340" d="M45.4,22.7l1.4,0.6l-1.1-0.7l-0.1-0.2L45.4,22.7z"/>
		<path class="st341" d="M46.8,22.2l-0.7,0.6l0.7,0.5l-0.2-0.6L46.8,22.2z"/>
		<path class="st17" d="M47.1,21.5l-0.3,0.7l-0.2,0.5l0.5-0.6l0.9-0.3L47.1,21.5z"/>
		<path class="st342" d="M46.7,19.1l-0.1,1.6l0.5,0.8l0.9,0.3L46.7,19.1z"/>
		<path class="st343" d="M48.3,18l0.9,0.6l-2.5,0.5L48.3,18z"/>
		<path class="st17" d="M48,21.8l1.2-3.2l-2.5,0.5L48,21.8z"/>
		<path class="st336" d="M46.6,22.7l0.2,0.6l0.9-0.6H46.6z"/>
		<path class="st315" d="M48,25.2l-1.2-1.9l0.9-0.2L48,25.2z"/>
		<path class="st304" d="M47.1,21.3l-0.6,3.8l3.2-2.1l-1.5-1l-0.7-1.1L47.1,21.3z"/>
		<path class="st247" d="M47.8,21.8l-0.6,0.5l0.1,0.2l0.8-0.3L47.8,21.8z"/>
		<path class="st334" d="M45.8,21.3l4,0.1L45.2,21"/>
		<path class="st330" d="M45.2,21l2.9,1.2l-2.8-0.6"/>
		<path class="st338" d="M44.9,22.5l3.1,0.7l-3.6,0.1"/>
		<path class="st339" d="M45.7,22.6l3.7-0.3L45.8,22"/>
		<path class="st340" d="M45.7,22.6l3.2,0.6l-3.5-0.5"/>
		<path class="st315" d="M47.7,22.7v0.4l-0.9,0.2L47.7,22.7z"/>
		<path class="st345" d="M49.8,29.2h-0.4v0.4H50L49.8,29.2z"/>
		<path class="st320" d="M49.7,31.7l0.3-2.1h-0.6L49.7,31.7z"/>
		<path class="st338" d="M50.1,28.6l-0.7,0.6h0.4L50.1,28.6z"/>
		<path class="st336" d="M51.3,28.3L51,29l0.6-0.6L51.3,28.3z"/>
		<path class="st346" d="M50.7,29.5l0.6-0.3l0.3-0.8L51,29L50.7,29.5z"/>
		<path class="st320" d="M49.8,29.2l0.2,0.4l0.6-0.1L49.8,29.2z"/>
		<path class="st320" d="M51.4,29.7L50,29.6l0.6-0.1L51.4,29.7z"/>
		<path class="st347" d="M51,32.2l-1-2.6l1.4,0.1L51,32.2z"/>
		<path class="st347" d="M51.8,29.5l-0.4,0.2l1.2,1.5L51.8,29.5z"/>
		<path class="st346" d="M51,32.2l1.6-1l-1.2-1.5L51,32.2z"/>
		<path class="st17" d="M52.4,28.6l-0.6,0.9l1.5-0.1L52.4,28.6z"/>
		<path class="st17" d="M52.6,31.2l-0.8-1.7l1.5-0.1l0.9,0.8L52.6,31.2z"/>
		<path class="st17" d="M53.3,32L51,32.2l1.6-1L53.3,32z"/>
		<path class="st346" d="M54.2,30.2l-0.3,1.7L53.3,32l-0.7-0.8L54.2,30.2z"/>
		<path class="st348" d="M51,32.2l2.5,2.4l0.3-2.1L53.3,32L51,32.2z"/>
		<path class="st17" d="M53.9,31.9l-0.1,0.6L53.3,32L53.9,31.9z"/>
		<path class="st348" d="M53.5,34.6l1.9-0.2l-1.6-1.9L53.5,34.6z"/>
		<path class="st349" d="M54.2,30.2l1.6,1.5l-1.9,0.2L54.2,30.2z"/>
		<path class="st17" d="M53.8,32.5l0.1-0.6l1.9-0.2l-0.4,2.7L53.8,32.5z"/>
		<path class="st346" d="M57.3,33.1l-1.9,1.3l2.2,0.9L57.3,33.1z"/>
		<path class="st350" d="M58.5,34.2l-1.2-1.1l0.3,2.2L58.5,34.2z"/>
		<path class="st351" d="M55.8,31.7l1.5,1.4l-1.9,1.3L55.8,31.7z"/>
		<path class="st352" d="M54.2,30.2l4.1,1.3l-1,1.6L54.2,30.2z"/>
		<path class="st353" d="M59.2,31.8l-0.9-0.3l-1,1.6L59.2,31.8z"/>
		<path class="st354" d="M58.5,34.2l0.7-2.4l-1.9,1.3L58.5,34.2z"/>
		<path class="st17" d="M60.2,34.2h-1.7l0.7-2.4L60.2,34.2z"/>
		<path class="st355" d="M53.3,29.4l2.3-0.2l-1.4,1L53.3,29.4z"/>
		<path class="st347" d="M58.3,31.5l-4.1-1.3l1.4-1l4.5-0.4L58.3,31.5z"/>
		<path class="st17" d="M59.2,31.8l-0.9-0.3l1.8-2.7L59.2,31.8z"/>
		<path class="st356" d="M61.3,28.6l-1.2,0.2l-0.9,3l2.2-1.6L61.3,28.6z"/>
		<path class="st357" d="M61.6,32.1l-0.2-1.9l-2.2,1.6L61.6,32.1z"/>
		<path class="st358" d="M60.2,34.2l1.4-2.1l-2.4-0.3L60.2,34.2z"/>
		<path class="st359" d="M63.3,32.5l-1.7-0.4l1.4-0.3L63.3,32.5z"/>
		<path class="st360" d="M64.5,31.4L63,31.8l0.3,0.7L64.5,31.4z"/>
		<path class="st361" d="M61.6,32.1l-0.2-1.9l0.8-0.5L61.6,32.1z"/>
		<path class="st17" d="M63,31.8l-0.8-2.1l-0.6,2.4L63,31.8z"/>
		<path class="st125" d="M64.5,31.4l-2.3-1.7l0.8,2.1L64.5,31.4z"/>
		<path class="st362" d="M61.3,28.6l0.1,1.6l0.8-0.5l0.3-1.2L61.3,28.6z"/>
		<path class="st315" d="M63.4,28.5h-0.9l-0.3,1.2L63.4,28.5z"/>
		<path class="st363" d="M52.4,28.6l3.4-1.7l-0.2,2.3l-2.3,0.2L52.4,28.6z"/>
		<path class="st17" d="M51.3,28.3l-0.4-3.2l1.9-0.3l-1.2,3.6L51.3,28.3z"/>
		<path class="st364" d="M52.5,27.8l-0.9,0.6l1.2-3.6L52.5,27.8z"/>
		<path class="st17" d="M55,26.4l-2.2-1.6l-0.3,3L55,26.4z"/>
		<path class="st365" d="M52.4,28.6l-0.8-0.2l1-0.6l2.4-1.4L52.4,28.6z"/>
		<path class="st366" d="M55.8,26.9L55,26.4l-2.6,2.2L55.8,26.9z"/>
		<path class="st17" d="M49.9,7.6l-0.2,2.3l-1.3,0.2V9.2L49.9,7.6z"/>
		<path class="st367" d="M48,9.6l0.4-0.4v0.9L48,9.6z"/>
		<path class="st368" d="M47.3,10.2L48,9.6l0.4,0.5L47.3,10.2z"/>
		<path class="st17" d="M45.2,12.4l3.4,2.3l-1.3-4.5L45.2,12.4z"/>
		<path class="st369" d="M48.4,10.1L47.9,12l-0.6-1.8L48.4,10.1z"/>
		<path class="st370" d="M49.9,7.6l2,3.3l-2.2-1L49.9,7.6z"/>
		<path class="st17" d="M49.6,11.4l-1.2-1.3L47.9,12L49.6,11.4z"/>
		<path class="st371" d="M49.7,9.9l-1.3,0.2l1.2,1.3L49.7,9.9z"/>
		<path class="st372" d="M51.9,10.9l-2.4,2.9l0.1-2.4l0.1-1.5L51.9,10.9z"/>
		<path class="st369" d="M47.9,12l0.7,2.7l0.9-0.9L47.9,12z"/>
		<path class="st373" d="M49.6,11.4L47.9,12l1.6,1.8L49.6,11.4z"/>
		<path class="st374" d="M45.2,12.4l2,3.9l1.4-1.6L45.2,12.4z"/>
		<path class="st17" d="M51.9,10.9l-0.4,1.8L51,12L51.9,10.9z"/>
		<path class="st375" d="M53.8,10.4l-0.6,1.3l-1.3-0.8L53.8,10.4z"/>
		<path class="st376" d="M55.5,13l-2.3-1.3l0.6-1.3L55.5,13z"/>
		<path class="st377" d="M50.7,16.2l1.2-5.3l1.3,0.8L50.7,16.2z"/>
		<path class="st378" d="M55.5,13l-2.3-1.3l0.5,2.3L55.5,13z"/>
		<path class="st17" d="M50.7,16.2l3-2.2l-0.5-2.3L50.7,16.2z"/>
		<path class="st379" d="M51,12l-1.5,1.8l-0.9,0.9l2.9-2L51,12z"/>
		<path class="st380" d="M49.3,15.1l0.1-0.9l2.1-1.5l-0.8,3.5L49.3,15.1z"/>
		<path class="st17" d="M48.6,14.7l0.7,0.4l0.1-0.9L48.6,14.7z"/>
		<path class="st17" d="M48.8,18.6l-1.6-2.3l1.4-1.6L48.8,18.6z"/>
		<path class="st381" d="M44.3,19.6l2.9-3.3l1.6,2.3L44.3,19.6z"/>
		<path class="st382" d="M45.1,20.8l-0.8-1.2l4.5-0.1L45.1,20.8z"/>
		<path class="st17" d="M48.8,18.6l-4.5,1l4.5-0.1V18.6z"/>
		<path class="st383" d="M46.5,21.8l-1.4-1h3L46.5,21.8z"/>
		<path class="st384" d="M48.8,19.5l-3.7,1.3h3L48.8,19.5z"/>
		<path class="st385" d="M48.9,20.3l-0.1-0.8l-0.7,1.3L48.9,20.3z"/>
		<path class="st17" d="M47.2,22.3l0.9-1.5l-1.6,1L47.2,22.3z"/>
		<path class="st386" d="M48.6,14.7l0.2,4.8l0.1,0.8l0.1-1.2l0.3-4L48.6,14.7z"/>
		<path class="st387" d="M50.7,16.2l-1.4-1.1l-0.3,4L50.7,16.2z"/>
		<path class="st17" d="M49,19.5l1.2-0.1l0.5-3.2L49,19.1V19.5z"/>
		<path class="st17" d="M48.9,20.3l1.3-0.9L49,19.5L48.9,20.3z"/>
		<path class="st388" d="M47.9,24l-0.7-1.7l0.9-1.5l0.8-0.5l-0.3,3.1L47.9,24z"/>
		<path class="st389" d="M50,24.5l1.5-1.1h-2.9L50,24.5z"/>
		<path class="st383" d="M48.9,20.3l-0.3,3.1h2.9L48.9,20.3z"/>
		<path class="st390" d="M50.2,19.4l-1.3,0.9l3.4,1.1L50.2,19.4z"/>
		<path class="st17" d="M51.5,23.4l0.8-2l-3.4-1.1L51.5,23.4z"/>
		<path class="st17" d="M50.9,25.1l0.6-1.7L50,24.5L50.9,25.1z"/>
		<path class="st391" d="M55.5,13l-1.8,1l-3,2.2l3.7-0.3L55.5,13z"/>
		<path class="st392" d="M55.7,15.8l-1.3,0.1l1.1-2.9L55.7,15.8z"/>
		<path class="st393" d="M50.2,19.4l0.5-3.2l2.2,1.4L50.2,19.4z"/>
		<path class="st394" d="M55.7,15.8l-5,0.4l2.2,1.4L55.7,15.8z"/>
		<path class="st395" d="M50.2,19.4l2.8-0.1l-0.1-1.7L50.2,19.4z"/>
		<path class="st396" d="M53.5,18L53,19.3l-0.1-1.7L53.5,18z"/>
		<path class="st397" d="M53.9,16.9l-1,0.7l0.6,0.4L53.9,16.9z"/>
		<path class="st17" d="M52.3,21.4l0.7-2.1l-2.8,0.1L52.3,21.4z"/>
		<path class="st398" d="M52.8,24.8l-1.9,0.3l0.6-1.7L52.8,24.8z"/>
		<path class="st399" d="M52.3,21.4l0.6,0.2l-0.1,3.2l-1.3-1.4L52.3,21.4z"/>
		<path class="st400" d="M53,19.3l-0.1,2.3l-0.6-0.2L53,19.3z"/>
		<path class="st401" d="M54.7,18.8l-0.8-1.9L53.5,18L54.7,18.8z"/>
		<path class="st402" d="M53,19.3l0.5-1.3l1.2,0.8L53,19.3z"/>
		<path class="st403" d="M53.7,21.9l-0.8-0.3l0.1-2.3h1.6L53.7,21.9z"/>
		<path class="st17" d="M54.7,18.8l-0.1,0.5H53L54.7,18.8z"/>
		<path class="st17" d="M55.7,15.8l-1,3l-0.8-1.9L55.7,15.8z"/>
		<path class="st17" d="M53.7,21.9l-0.9,2.9l0.1-3.2L53.7,21.9z"/>
		<path class="st17" d="M54.6,19.3l0.1,3l-1-0.4L54.6,19.3z"/>
		<path class="st404" d="M52.8,24.8l2.1-0.4l-0.2-2.1l-1-0.4L52.8,24.8z"/>
		<path class="st17" d="M54.9,24.8h-2.1l2.1-0.4V24.8z"/>
		<path class="st405" d="M55,26.4l-0.1-1.6h-2.1L55,26.4z"/>
		<path class="st406" d="M55.6,29.2l4.4-2.9l-0.1-1.4l-4.1,2L55.6,29.2z"/>
		<path class="st17" d="M60.1,28.8L60,26.3l-4.4,2.9L60.1,28.8z"/>
		<path class="st407" d="M59.9,24.9l1.2,0.7L60,26.3L59.9,24.9z"/>
		<path class="st407" d="M60.1,28.8l1-3.2L60,26.3L60.1,28.8z"/>
		<path class="st17" d="M61.3,28.6l-0.2-3l-1,3.2L61.3,28.6z"/>
		<path class="st408" d="M62.5,28.5l0.4-1.8l-1.8-1.1l0.2,3L62.5,28.5z"/>
		<path class="st409" d="M63.2,24.7l-2.1,0.9l1.8,1.1L63.2,24.7z"/>
		<path class="st315" d="M62.5,28.5h0.9l-0.5-1.8L62.5,28.5z"/>
		<path class="st410" d="M55,26.4l2.7-1.5l-1.9,2L55,26.4z"/>
		<path class="st411" d="M59.9,24.9h-2.2l-1.9,2L59.9,24.9z"/>
		<path class="st17" d="M54.9,24.8l2.8,0.1L55,26.4L54.9,24.8z"/>
		<path class="st412" d="M54.9,24.4l4-0.7l-1.2,1.2l-2.8-0.1V24.4z"/>
		<path class="st411" d="M59.9,24.9h-2.2l1.2-1.2L59.9,24.9z"/>
		<path class="st413" d="M60.4,23.4l-1.5,0.3l1,1.2L60.4,23.4z"/>
		<path class="st414" d="M54.7,22.3l4.2,1.4l-4,0.7L54.7,22.3z"/>
		<path class="st415" d="M57.5,22.1h2l-0.6,1.6L57.5,22.1z"/>
		<path class="st17" d="M54.7,22.3l4.2,1.4l-1.4-1.6L54.7,22.3z"/>
		<path class="st416" d="M60.4,23.4l-0.9-1.3l-0.6,1.6L60.4,23.4z"/>
		<path class="st417" d="M54.7,18.8l0.4,0.5l-0.4,3l-0.1-3L54.7,18.8z"/>
		<path class="st418" d="M57.5,22.1l-2.4-2.8l-0.4,3L57.5,22.1z"/>
		<path class="st17" d="M59.5,22.1l-4.8-3.3l2.8,3.3H59.5z"/>
		<path class="st419" d="M55.7,15.8l-1,3l0.6,0.4l2.4-0.1L55.7,15.8z"/>
		<path class="st420" d="M58.6,14.9l-2.9,0.9l3.1,0.4L58.6,14.9z"/>
		<path class="st421" d="M58.1,18l-2.4-2.2l3.1,0.4L58.1,18z"/>
		<path class="st422" d="M57.7,19.1l0.4-1.1l-2.4-2.2L57.7,19.1z"/>
		<path class="st423" d="M58.2,15l0.1-1.5l0.3,1.4L58.2,15z"/>
		<path class="st424" d="M60.6,14.3l-2,0.6l-0.3-1.4L60.6,14.3z"/>
		<path class="st425" d="M59.3,19.1l1.3-4.8l-2,0.6L59.3,19.1z"/>
		<path class="st426" d="M58.1,18l1.2,1.1l-0.5-2.9L58.1,18z"/>
		<path class="st427" d="M57.7,19.1h1.6L58.1,18L57.7,19.1z"/>
		<path class="st428" d="M59.5,22.1l-1.8-3l-2.4,0.1L59.5,22.1z"/>
		<path class="st429" d="M59.3,19.1l0.2,3l-1.8-3H59.3z"/>
		<path class="st430" d="M61,18.8l-1.5,3.3l-0.2-3L61,18.8z"/>
		<path class="st431" d="M61.9,20.9v-1.1l-0.9-1L61.9,20.9z"/>
		<path class="st432" d="M59.5,22.1l2.4-1.2l-1.2-1.4L59.5,22.1z"/>
		<path class="st17" d="M61,18.8l-0.3,0.7l1.2,1.4L61,18.8z"/>
		<path class="st251" d="M47.4,11.8c0-0.4,0.2-0.9,0.6-1.1l0.6-0.4C49,10,49.4,9.9,49.9,10c0.4,0.1,0.7,0.3,0.8,0.8
			c0.1,1.1,0.2,1.3,0.4,1.4s0.1,0.3,0.1,0.3s-1.4-0.2-1,0.4c0.4,0.6,1.3,0.5,0.5,1.2c-0.8,0.7-3.5,0.2-3.6-0.4
			c-0.1-0.7,1.3-0.5,1.6-1.1C48.9,12.1,47.4,12.1,47.4,11.8z"/>
		<path class="st282" d="M50.4,5l-0.5-2l-0.7,2.1L50.4,5z"/>
		<path class="st283" d="M50.4,5l-1.5,1.1l0.3-1L50.4,5z"/>
		<path class="st288" d="M48.4,9.3l2,0.7L47,10.7L48.4,9.3z"/>
		<path class="st289" d="M48.6,12.7l1.8-2.7L47,10.7l0.1,1L48.6,12.7z"/>
		<path class="st17" d="M50.4,10l-0.2,2.2l-1.5,0.2v-0.8L50.4,10z"/>
		<path class="st370" d="M50.4,10l2.3,3.3l-2.5-1.1L50.4,10z"/>
		<path class="st17" d="M50.1,13.8l-1.4-1.4l-0.6,2L50.1,13.8z"/>
		<path class="st371" d="M50.2,12.2l-1.5,0.2l1.4,1.4L50.2,12.2z"/>
		<path class="st372" d="M52.7,13.3l-2.8,3l0.2-2.5l0.1-1.6L52.7,13.3z"/>
		<path class="st373" d="M50.1,13.8l-2,0.6l1.8,1.9L50.1,13.8z"/>
		<path class="st17" d="M52.7,13.3l-0.5,1.9l-0.6-0.8L52.7,13.3z"/>
		<path class="st375" d="M54.7,12.7L54,14.1l-1.3-0.8L54.7,12.7z"/>
		<path class="st376" d="M56.6,15.5L54,14.1l0.7-1.4L56.6,15.5z"/>
		<path class="st377" d="M51.3,18.6l1.4-5.3l1.3,0.8L51.3,18.6z"/>
		<path class="st378" d="M56.6,15.5L54,14.1l0.7,2.4L56.6,15.5z"/>
		<path class="st17" d="M51.3,18.6l3.4-2.1L54,14.1L51.3,18.6z"/>
		<path class="st379" d="M51.6,14.4l-1.7,1.9L49,17.1l3.2-1.9L51.6,14.4z"/>
		<path class="st380" d="M46.4,14.6v-0.9l2.4-1.5l-0.9,3.5L46.4,14.6z"/>
		<path class="st387" d="M51.3,18.6l-1.6-1l-0.3,4.1L51.3,18.6z"/>
		<path class="st17" d="M49.4,22h1.3l0.6-3.4l-1.9,3.1V22z"/>
		<path class="st17" d="M49.3,22.8l1.4-0.8h-1.3L49.3,22.8z"/>
		<path class="st389" d="M50.5,27.1l1.7-1.1H49L50.5,27.1z"/>
		<path class="st383" d="M49.3,22.8L49,26h3.2L49.3,22.8z"/>
		<path class="st390" d="M50.7,22l-1.4,0.8l3.8,1.2L50.7,22z"/>
		<path class="st17" d="M52.2,26l0.9-2l-3.8-1.2L52.2,26z"/>
		<path class="st17" d="M51.5,27.8l0.7-1.8l-1.7,1.1L51.5,27.8z"/>
		<path class="st391" d="M56.6,15.5l-1.9,1l-3.4,2.1l4-0.2L56.6,15.5z"/>
		<path class="st392" d="M56.8,18.3l-1.5,0.1l1.3-2.9L56.8,18.3z"/>
		<path class="st393" d="M50.7,22l0.6-3.4l2.4,1.5L50.7,22z"/>
		<path class="st394" d="M56.8,18.3l-5.5,0.3l2.4,1.5L56.8,18.3z"/>
		<path class="st395" d="M50.7,22l3.2-0.1l-0.2-1.8L50.7,22z"/>
		<path class="st396" d="M54.4,20.5l-0.5,1.4l-0.2-1.8L54.4,20.5z"/>
		<path class="st397" d="M54.9,19.4l-1.2,0.7l0.7,0.4L54.9,19.4z"/>
		<path class="st17" d="M53.1,24l0.8-2.1L50.7,22L53.1,24z"/>
		<path class="st398" d="M53.6,27.4l-2.1,0.4l0.7-1.8L53.6,27.4z"/>
		<path class="st399" d="M53.1,24l0.6,0.2l-0.1,3.2L52.2,26L53.1,24z"/>
		<path class="st400" d="M53.9,21.9l-0.2,2.3L53.1,24L53.9,21.9z"/>
		<path class="st401" d="M55.7,21.3l-0.8-1.9l-0.5,1.1L55.7,21.3z"/>
		<path class="st402" d="M53.9,21.9l0.5-1.4l1.3,0.8L53.9,21.9z"/>
		<path class="st403" d="M54.6,24.5l-0.9-0.3l0.2-2.3l1.7-0.1L54.6,24.5z"/>
		<path class="st17" d="M55.7,21.3l-0.1,0.5l-1.7,0.1L55.7,21.3z"/>
		<path class="st17" d="M56.8,18.3l-1.1,3l-0.8-1.9L56.8,18.3z"/>
		<path class="st17" d="M54.6,24.5l-1,2.9l0.1-3.2L54.6,24.5z"/>
		<path class="st17" d="M55.6,21.8l0.2,3.1l-1.2-0.4L55.6,21.8z"/>
		<path class="st404" d="M53.6,27.4l2.3-0.4l-0.1-2.1l-1.2-0.4L53.6,27.4z"/>
		<path class="st413" d="M62,26.1l-1.7,0.2l1.2,1.2L62,26.1z"/>
		<path class="st414" d="M55.8,24.9l4.5,1.4L55.9,27L55.8,24.9z"/>
		<path class="st415" d="M58.8,24.7H61l-0.7,1.6L58.8,24.7z"/>
		<path class="st17" d="M55.8,24.9l4.5,1.4l-1.5-1.6L55.8,24.9z"/>
		<path class="st416" d="M62,26.1l-1-1.4l-0.7,1.6L62,26.1z"/>
		<path class="st417" d="M55.7,21.3l0.4,0.5l-0.3,3.1l-0.2-3.1L55.7,21.3z"/>
		<path class="st418" d="M58.8,24.7l-2.7-2.9l-0.3,3.1L58.8,24.7z"/>
		<path class="st17" d="M61,24.7l-5.3-3.4l3.1,3.4H61z"/>
		<path class="st419" d="M56.8,18.3l-1.1,3l0.7,0.5l2.7-0.1L56.8,18.3z"/>
		<path class="st420" d="M60,17.3l-3.2,1l3.5,0.3L60,17.3z"/>
		<path class="st421" d="M59.5,20.6l-2.7-2.3l3.5,0.3L59.5,20.6z"/>
		<path class="st422" d="M59.1,21.7l0.4-1.1l-2.7-2.3L59.1,21.7z"/>
		<path class="st423" d="M59.6,17.4l0.1-1.4l0.3,1.3L59.6,17.4z"/>
		<path class="st424" d="M62.2,16.8L60,17.3L59.7,16L62.2,16.8z"/>
		<path class="st425" d="M60.8,21.6l1.4-4.8L60,17.3L60.8,21.6z"/>
		<path class="st426" d="M59.5,20.6l1.3,1l-0.5-3L59.5,20.6z"/>
		<path class="st427" d="M59.1,21.7l1.7-0.1l-1.3-1L59.1,21.7z"/>
		<path class="st428" d="M61,24.7l-1.9-3l-2.7,0.1L61,24.7z"/>
		<path class="st429" d="M60.8,21.6l0.2,3.1l-1.9-3L60.8,21.6z"/>
		<path class="st430" d="M62.7,21.3L61,24.7l-0.2-3.1L62.7,21.3z"/>
		<path class="st431" d="M63.7,23.5v-1.1l-1-1.1L63.7,23.5z"/>
		<path class="st432" d="M61,24.7l2.7-1.2L62.3,22L61,24.7z"/>
		<path class="st17" d="M62.7,21.3L62.3,22l1.4,1.5L62.7,21.3z"/>
		<path class="st251" d="M50.4,15.6c0,0-0.6-1.1-1.7-0.5c-0.9,0.4-1.7,1-2,1.2c-0.1,0.1-0.1,0.2-0.1,0.3c0.1,0.1,0.2,0.2,0.5,0.2
			C47.7,16.7,49.9,16.4,50.4,15.6z"/>
		<path class="st393" d="M46,18.3l0.7-3.3l2.7,1.5L46,18.3z"/>
		<path class="st394" d="M52.8,14.6L46.7,15l2.7,1.5L52.8,14.6z"/>
		<path class="st251" d="M55.6,15c0.2-0.1,0.4-0.3,0.4-0.5c0-0.2-0.1-0.4-0.5-0.5c-0.9-0.1-1.5-0.1-1.9-0.5c-0.3-0.4-1-0.1-1,0.3
			c0,0.4-1.1,0,0,1.1C53.5,15.8,55.1,15.3,55.6,15z"/>
		<path class="st282" d="M50.4,5l-0.5-2l-0.7,2.1L50.4,5z"/>
		<path class="st283" d="M50.4,5l-1.5,1.1l0.3-1L50.4,5z"/>
		<path class="st288" d="M48.4,9.3l2,0.7L47,10.7L48.4,9.3z"/>
		<path class="st289" d="M48.3,11.9l2.1-1.9L47,10.7L48.3,11.9z"/>
		<path class="st17" d="M50.4,10l-0.2,2.2l-1.5,0.2v-0.8L50.4,10z"/>
		<path class="st370" d="M50.4,10l2.3,3.3l-2.5-1.1L50.4,10z"/>
		<path class="st17" d="M50.1,13.8l-1.4-1.4l-0.6,2L50.1,13.8z"/>
		<path class="st371" d="M50.2,12.2l-1.5,0.2l1.4,1.4L50.2,12.2z"/>
		<path class="st372" d="M52.7,13.3l-2.8,3l0.2-2.5l0.1-1.6L52.7,13.3z"/>
		<path class="st373" d="M50.1,13.8l-2,0.6l1.8,1.9L50.1,13.8z"/>
		<path class="st17" d="M52.7,13.3l-0.5,1.9l-0.6-0.8L52.7,13.3z"/>
		<path class="st375" d="M54.7,12.7L54,14.1l-1.3-0.8L54.7,12.7z"/>
		<path class="st376" d="M56.6,15.5L54,14.1l0.7-1.4L56.6,15.5z"/>
		<path class="st377" d="M51.3,18.6l1.4-5.3l1.3,0.8L51.3,18.6z"/>
		<path class="st378" d="M56.6,15.5L54,14.1l0.7,2.4L56.6,15.5z"/>
		<path class="st17" d="M51.3,18.6l3.4-2.1L54,14.1L51.3,18.6z"/>
		<path class="st379" d="M51.6,14.4l-1.7,1.9L49,17.1l3.2-1.9L51.6,14.4z"/>
		<path class="st380" d="M49.7,17.6l0.1-1l2.4-1.4l-0.9,3.4L49.7,17.6z"/>
		<path class="st387" d="M51.3,18.6l-1.6-1l-0.3,4.1L51.3,18.6z"/>
		<path class="st17" d="M49.4,22h1.3l0.6-3.4l-1.9,3.1V22z"/>
		<path class="st17" d="M49.3,22.8l1.4-0.8h-1.3L49.3,22.8z"/>
		<path class="st389" d="M50.5,27.1l1.7-1.1H49L50.5,27.1z"/>
		<path class="st383" d="M49.3,22.8L49,26h3.2L49.3,22.8z"/>
		<path class="st390" d="M50.7,22l-1.4,0.8l3.8,1.2L50.7,22z"/>
		<path class="st17" d="M52.2,26l0.9-2l-3.8-1.2L52.2,26z"/>
		<path class="st17" d="M51.5,27.8l0.7-1.8l-1.7,1.1L51.5,27.8z"/>
		<path class="st391" d="M56.6,15.5l-1.9,1l-3.4,2.1l4-0.2L56.6,15.5z"/>
		<path class="st392" d="M56.8,18.3l-1.5,0.1l1.3-2.9L56.8,18.3z"/>
		<path class="st393" d="M50.7,22l0.6-3.4l2.4,1.5L50.7,22z"/>
		<path class="st394" d="M56.8,18.3l-5.5,0.3l2.4,1.5L56.8,18.3z"/>
		<path class="st395" d="M50.7,22l3.2-0.1l-0.2-1.8L50.7,22z"/>
		<path class="st396" d="M54.4,20.5l-0.5,1.4l-0.2-1.8L54.4,20.5z"/>
		<path class="st397" d="M54.9,19.4l-1.2,0.7l0.7,0.4L54.9,19.4z"/>
		<path class="st17" d="M53.1,24l0.8-2.1L50.7,22L53.1,24z"/>
		<path class="st398" d="M53.6,27.4l-2.1,0.4l0.7-1.8L53.6,27.4z"/>
		<path class="st399" d="M53.1,24l0.6,0.2l-0.1,3.2L52.2,26L53.1,24z"/>
		<path class="st400" d="M53.9,21.9l-0.2,2.3L53.1,24L53.9,21.9z"/>
		<path class="st401" d="M55.7,21.3l-0.8-1.9l-0.5,1.1L55.7,21.3z"/>
		<path class="st402" d="M53.9,21.9l0.5-1.4l1.3,0.8L53.9,21.9z"/>
		<path class="st403" d="M54.6,24.5l-0.9-0.3l0.2-2.3l1.7-0.1L54.6,24.5z"/>
		<path class="st17" d="M55.7,21.3l-0.1,0.5l-1.7,0.1L55.7,21.3z"/>
		<path class="st17" d="M56.8,18.3l-1.1,3l-0.8-1.9L56.8,18.3z"/>
		<path class="st17" d="M54.6,24.5l-1,2.9l0.1-3.2L54.6,24.5z"/>
		<path class="st17" d="M55.6,21.8l0.2,3.1l-1.2-0.4L55.6,21.8z"/>
		<path class="st404" d="M53.6,27.4l2.3-0.4l-0.1-2.1l-1.2-0.4L53.6,27.4z"/>
		<path class="st413" d="M62,26.1l-1.7,0.2l1.2,1.2L62,26.1z"/>
		<path class="st414" d="M55.8,24.9l4.5,1.4L55.9,27L55.8,24.9z"/>
		<path class="st415" d="M58.8,24.7H61l-0.7,1.6L58.8,24.7z"/>
		<path class="st17" d="M55.8,24.9l4.5,1.4l-1.5-1.6L55.8,24.9z"/>
		<path class="st416" d="M62,26.1l-1-1.4l-0.7,1.6L62,26.1z"/>
		<path class="st417" d="M55.7,21.3l0.4,0.5l-0.3,3.1l-0.2-3.1L55.7,21.3z"/>
		<path class="st418" d="M58.8,24.7l-2.7-2.9l-0.3,3.1L58.8,24.7z"/>
		<path class="st17" d="M61,24.7l-5.3-3.4l3.1,3.4H61z"/>
		<path class="st419" d="M56.8,18.3l-1.1,3l0.7,0.5l2.7-0.1L56.8,18.3z"/>
		<path class="st420" d="M60,17.3l-3.2,1l3.5,0.3L60,17.3z"/>
		<path class="st421" d="M59.5,20.6l-2.7-2.3l3.5,0.3L59.5,20.6z"/>
		<path class="st422" d="M59.1,21.7l0.4-1.1l-2.7-2.3L59.1,21.7z"/>
		<path class="st423" d="M59.6,17.4l0.1-1.4l0.3,1.3L59.6,17.4z"/>
		<path class="st424" d="M62.2,16.8L60,17.3L59.7,16L62.2,16.8z"/>
		<path class="st425" d="M60.8,21.6l1.4-4.8L60,17.3L60.8,21.6z"/>
		<path class="st426" d="M59.5,20.6l1.3,1l-0.5-3L59.5,20.6z"/>
		<path class="st427" d="M59.1,21.7l1.7-0.1l-1.3-1L59.1,21.7z"/>
		<path class="st428" d="M61,24.7l-1.9-3l-2.7,0.1L61,24.7z"/>
		<path class="st429" d="M60.8,21.6l0.2,3.1l-1.9-3L60.8,21.6z"/>
		<path class="st430" d="M62.7,21.3L61,24.7l-0.2-3.1L62.7,21.3z"/>
		<path class="st431" d="M63.7,23.5v-1.1l-1-1.1L63.7,23.5z"/>
		<path class="st432" d="M61,24.7l2.7-1.2L62.3,22L61,24.7z"/>
		<path class="st17" d="M62.7,21.3L62.3,22l1.4,1.5L62.7,21.3z"/>
		<path class="st251" d="M50.8,18.1c-0.3,0-0.3-0.5,0-0.6c0.4,0,0.9-0.2,1-0.7c0.1-0.7,0.9-0.8,0.9-0.8s0.9-0.7,2.8,0.4
			c1.9,1,1.2-1.4,2.2,0.2c1,1.6-4.4,2.1-4.8,1.5c-0.4-0.7-0.9,0.3-1.5,0.1C51.1,18.2,50.9,18.2,50.8,18.1z"/>
		<path class="st282" d="M50.4,5l-0.5-2l-0.7,2.1L50.4,5z"/>
		<path class="st283" d="M50.4,5l-1.5,1.1l0.3-1L50.4,5z"/>
		<path class="st288" d="M48.4,9.3l2,0.7L47,10.7L48.4,9.3z"/>
		<path class="st289" d="M48.3,11.9l2.1-1.9L47,10.7L48.3,11.9z"/>
		<path class="st17" d="M50.4,10l-0.2,2.2l-1.5,0.2v-0.8L50.4,10z"/>
		<path class="st370" d="M50.4,10l2.3,3.3l-2.5-1.1L50.4,10z"/>
		<path class="st17" d="M50.1,13.8l-1.4-1.4l-0.6,2L50.1,13.8z"/>
		<path class="st371" d="M50.2,12.2l-1.5,0.2l1.4,1.4L50.2,12.2z"/>
		<path class="st372" d="M52.7,13.3l-2.8,3l0.2-2.5l0.1-1.6L52.7,13.3z"/>
		<path class="st373" d="M50.1,13.8l-2,0.6l1.8,1.9L50.1,13.8z"/>
		<path class="st17" d="M52.7,13.3l-0.5,1.9l-0.6-0.8L52.7,13.3z"/>
		<path class="st375" d="M54.7,12.7L54,14.1l-1.3-0.8L54.7,12.7z"/>
		<path class="st376" d="M56.6,15.5L54,14.1l0.7-1.4L56.6,15.5z"/>
		<path class="st377" d="M51.3,18.6l1.4-5.3l1.3,0.8L51.3,18.6z"/>
		<path class="st378" d="M56.6,15.5L54,14.1l0.7,2.4L56.6,15.5z"/>
		<path class="st17" d="M51.3,18.6l3.4-2.1L54,14.1L51.3,18.6z"/>
		<path class="st379" d="M51.6,14.4l-1.7,1.9L49,17.1l3.2-1.9L51.6,14.4z"/>
		<path class="st380" d="M49.7,17.6l0.1-1l2.4-1.4l-0.9,3.4L49.7,17.6z"/>
		<path class="st387" d="M51.3,18.6l-1.6-1l-0.3,4.1L51.3,18.6z"/>
		<path class="st17" d="M49.4,22h1.3l0.6-3.4l-1.9,3.1V22z"/>
		<path class="st17" d="M49.3,22.8l1.4-0.8h-1.3L49.3,22.8z"/>
		<path class="st389" d="M52.2,24.9l1.9-1.1h-3.6L52.2,24.9z"/>
		<path class="st383" d="M50.8,20.7l-0.3,3.1h3.6L50.8,20.7z"/>
		<path class="st390" d="M52.4,19.8l-1.6,0.9l4.3,1.1L52.4,19.8z"/>
		<path class="st17" d="M54.1,23.8l1-2l-4.3-1.1L54.1,23.8z"/>
		<path class="st17" d="M53.3,25.6l0.8-1.8l-1.9,1.1L53.3,25.6z"/>
		<path class="st391" d="M59,13.3l-2.1,1l-3.8,2.2l4.5-0.3L59,13.3z"/>
		<path class="st392" d="M59.3,16.1l-1.7,0.1l1.4-2.9L59.3,16.1z"/>
		<path class="st393" d="M52.4,19.8l0.7-3.3l2.7,1.5L52.4,19.8z"/>
		<path class="st394" d="M59.3,16.1l-6.2,0.4l2.7,1.5L59.3,16.1z"/>
		<path class="st395" d="M52.4,19.8l3.6-0.1L55.8,18L52.4,19.8z"/>
		<path class="st396" d="M56.6,18.3L56,19.7L55.8,18L56.6,18.3z"/>
		<path class="st397" d="M57.1,17.3L55.8,18l0.8,0.3L57.1,17.3z"/>
		<path class="st17" d="M55.1,21.8l0.9-2.1l-3.6,0.1L55.1,21.8z"/>
		<path class="st398" d="M53.6,27.4l-2.1,0.4l0.7-1.8L53.6,27.4z"/>
		<path class="st399" d="M53.1,24l0.6,0.2l-0.1,3.2L52.2,26L53.1,24z"/>
		<path class="st400" d="M53.9,21.9l-0.2,2.3L53.1,24L53.9,21.9z"/>
		<path class="st401" d="M55.7,21.3l-0.8-1.9l-0.5,1.1L55.7,21.3z"/>
		<path class="st402" d="M53.9,21.9l0.5-1.4l1.3,0.8L53.9,21.9z"/>
		<path class="st403" d="M54.6,24.5l-0.9-0.3l0.2-2.3l1.7-0.1L54.6,24.5z"/>
		<path class="st17" d="M55.7,21.3l-0.1,0.5l-1.7,0.1L55.7,21.3z"/>
		<path class="st17" d="M56.8,18.3l-1.1,3l-0.8-1.9L56.8,18.3z"/>
		<path class="st17" d="M54.6,24.5l-1,2.9l0.1-3.2L54.6,24.5z"/>
		<path class="st17" d="M55.6,21.8l0.2,3.1l-1.2-0.4L55.6,21.8z"/>
		<path class="st404" d="M53.6,27.4l2.3-0.4l-0.1-2.1l-1.2-0.4L53.6,27.4z"/>
		<path class="st413" d="M62,26.1l-1.7,0.2l1.2,1.2L62,26.1z"/>
		<path class="st414" d="M55.8,24.9l4.5,1.4L55.9,27L55.8,24.9z"/>
		<path class="st415" d="M58.8,24.7H61l-0.7,1.6L58.8,24.7z"/>
		<path class="st17" d="M55.8,24.9l4.5,1.4l-1.5-1.6L55.8,24.9z"/>
		<path class="st416" d="M62,26.1l-1-1.4l-0.7,1.6L62,26.1z"/>
		<path class="st417" d="M55.7,21.3l0.4,0.5l-0.3,3.1l-0.2-3.1L55.7,21.3z"/>
		<path class="st418" d="M58.8,24.7l-2.7-2.9l-0.3,3.1L58.8,24.7z"/>
		<path class="st17" d="M61,24.7l-5.3-3.4l3.1,3.4H61z"/>
		<path class="st419" d="M56.8,18.3l-1.1,3l0.7,0.5l2.7-0.1L56.8,18.3z"/>
		<path class="st420" d="M56.6,15.5l0.2,2.8l3.5,0.3L56.6,15.5z"/>
		<path class="st421" d="M59.5,20.6l-2.7-2.3l3.5,0.3L59.5,20.6z"/>
		<path class="st422" d="M59.1,21.7l0.4-1.1l-2.7-2.3L59.1,21.7z"/>
		<path class="st423" d="M59.6,17.4l0.1-1.4l0.3,1.3L59.6,17.4z"/>
		<path class="st424" d="M62.2,16.8L60,17.3L59.7,16L62.2,16.8z"/>
		<path class="st425" d="M60.8,21.6l1.4-4.8L60,17.3L60.8,21.6z"/>
		<path class="st426" d="M59.5,20.6l1.3,1l-0.5-3L59.5,20.6z"/>
		<path class="st427" d="M59.1,21.7l1.7-0.1l-1.3-1L59.1,21.7z"/>
		<path class="st428" d="M61,24.7l-1.9-3l-2.7,0.1L61,24.7z"/>
		<path class="st429" d="M60.8,21.6l0.2,3.1l-1.9-3L60.8,21.6z"/>
		<path class="st430" d="M62.7,21.3L61,24.7l-0.2-3.1L62.7,21.3z"/>
		<path class="st431" d="M63.7,23.5v-1.1l-1-1.1L63.7,23.5z"/>
		<path class="st432" d="M61,24.7l2.7-1.2L62.3,22L61,24.7z"/>
		<path class="st17" d="M62.7,21.3L62.3,22l1.4,1.5L62.7,21.3z"/>
		<path class="st251" d="M54.9,21.2c0,0-2-0.6-1.7,0.7c0.3,1.3,0.4,1.7-0.3,1.7s-1.1,0.7-0.7,0.9c0.4,0.2,2.3-0.5,2.9-0.2
			s1.2-0.1,1.4-0.3c0.2-0.2,0.9-0.1,0.1-0.9c-0.8-0.8-1.4,0.2-1.6-0.4C54.7,22.1,55.6,21.6,54.9,21.2z"/>
		<path class="st282" d="M50.4,7.2l-0.5-2.1l-0.7,2.2L50.4,7.2z"/>
		<path class="st283" d="M50.4,7.2l-1.5,1l0.3-0.9L50.4,7.2z"/>
		<path class="st288" d="M48.4,11.5l2,0.6L47,12.8L48.4,11.5z"/>
		<path class="st289" d="M48.3,14.1l2.1-2L47,12.8L48.3,14.1z"/>
		<path class="st17" d="M50.4,12.1l-0.2,2.3l-1.5,0.2v-0.9L50.4,12.1z"/>
		<path class="st370" d="M50.4,12.1l2.3,3.4l-2.5-1.1L50.4,12.1z"/>
		<path class="st17" d="M50.1,16l-1.4-1.4l-0.6,2L50.1,16z"/>
		<path class="st371" d="M50.2,14.4l-1.5,0.2l1.4,1.4L50.2,14.4z"/>
		<path class="st372" d="M52.7,15.5l-2.8,2.9l0.2-2.4l0.1-1.6L52.7,15.5z"/>
		<path class="st373" d="M50.1,16l-2,0.6l1.8,1.8L50.1,16z"/>
		<path class="st17" d="M52.7,15.5l-0.5,1.8l-0.6-0.7L52.7,15.5z"/>
		<path class="st375" d="M54.7,14.9L54,16.2l-1.3-0.7L54.7,14.9z"/>
		<path class="st376" d="M56.6,17.6L54,16.2l0.7-1.3L56.6,17.6z"/>
		<path class="st377" d="M51.3,20.8l1.4-5.3l1.3,0.7L51.3,20.8z"/>
		<path class="st378" d="M56.6,17.6L54,16.2l0.7,2.5L56.6,17.6z"/>
		<path class="st17" d="M51.3,20.8l3.4-2.1L54,16.2L51.3,20.8z"/>
		<path class="st379" d="M51.6,16.6l-1.7,1.8L49,19.3l3.2-2L51.6,16.6z"/>
		<path class="st380" d="M49.7,19.8l0.1-1l2.4-1.5l-0.9,3.5L49.7,19.8z"/>
		<path class="st387" d="M51.3,20.8l-1.6-1l-0.3,4L51.3,20.8z"/>
		<path class="st17" d="M49.4,24.2l1.3-0.1l0.6-3.3l-1.9,3V24.2z"/>
		<path class="st17" d="M49.3,25l1.4-0.9l-1.3,0.1L49.3,25z"/>
		<path class="st389" d="M50.5,29.3l1.7-1.2H49L50.5,29.3z"/>
		<path class="st383" d="M49.3,25L49,28.1h3.2L49.3,25z"/>
		<path class="st390" d="M50.7,24.1L49.3,25l3.8,1.1L50.7,24.1z"/>
		<path class="st17" d="M52.2,28.1l0.9-2L49.3,25L52.2,28.1z"/>
		<path class="st17" d="M51.5,29.9l0.7-1.8l-1.7,1.2L51.5,29.9z"/>
		<path class="st391" d="M56.6,17.6l-1.9,1.1l-3.4,2.1l4-0.3L56.6,17.6z"/>
		<path class="st392" d="M56.8,20.4l-1.5,0.1l1.3-2.9L56.8,20.4z"/>
		<path class="st393" d="M50.7,24.1l0.6-3.3l2.4,1.5L50.7,24.1z"/>
		<path class="st394" d="M56.8,20.4l-5.5,0.4l2.4,1.5L56.8,20.4z"/>
		<path class="st395" d="M50.7,24.1l3.2-0.1l-0.2-1.7L50.7,24.1z"/>
		<path class="st396" d="M54.4,22.7L53.9,24l-0.2-1.7L54.4,22.7z"/>
		<path class="st397" d="M54.9,21.6l-1.2,0.7l0.7,0.4L54.9,21.6z"/>
		<path class="st17" d="M53.1,26.1l0.8-2.1l-3.2,0.1L53.1,26.1z"/>
		<path class="st398" d="M53.6,29.6l-2.1,0.3l0.7-1.8L53.6,29.6z"/>
		<path class="st399" d="M53.1,26.1l0.6,0.3l-0.1,3.2l-1.4-1.5L53.1,26.1z"/>
		<path class="st400" d="M53.9,24l-0.2,2.4l-0.6-0.3L53.9,24z"/>
		<path class="st401" d="M55.7,23.5l-0.8-1.9l-0.5,1.1L55.7,23.5z"/>
		<path class="st402" d="M53.9,24l0.5-1.3l1.3,0.8L53.9,24z"/>
		<path class="st403" d="M54.6,26.6l-0.9-0.2l0.2-2.4h1.7L54.6,26.6z"/>
		<path class="st17" d="M55.7,23.5L55.6,24h-1.7L55.7,23.5z"/>
		<path class="st17" d="M56.8,20.4l-1.1,3.1l-0.8-1.9L56.8,20.4z"/>
		<path class="st17" d="M54.6,26.6l-1,3l0.1-3.2L54.6,26.6z"/>
		<path class="st17" d="M55.6,24l0.2,3.1l-1.2-0.5L55.6,24z"/>
		<path class="st404" d="M53.6,29.6l2.3-0.4l-0.1-2.1l-1.2-0.5L53.6,29.6z"/>
		<path class="st413" d="M62,28.2l-1.7,0.3l1.2,1.2L62,28.2z"/>
		<path class="st414" d="M55.8,27.1l4.5,1.4l-4.4,0.7L55.8,27.1z"/>
		<path class="st415" d="M58.8,26.9l2.2-0.1l-0.7,1.7L58.8,26.9z"/>
		<path class="st17" d="M55.8,27.1l4.5,1.4l-1.5-1.6L55.8,27.1z"/>
		<path class="st416" d="M62,28.2l-1-1.4l-0.7,1.7L62,28.2z"/>
		<path class="st417" d="M55.7,23.5l0.4,0.5l-0.3,3.1L55.6,24L55.7,23.5z"/>
		<path class="st418" d="M58.8,26.9L56.1,24l-0.3,3.1L58.8,26.9z"/>
		<path class="st17" d="M61,26.8l-5.3-3.3l3.1,3.4L61,26.8z"/>
		<path class="st419" d="M56.8,20.4l-1.1,3.1l0.7,0.4l2.7-0.1L56.8,20.4z"/>
		<path class="st420" d="M60,19.5l-3.2,0.9l3.5,0.4L60,19.5z"/>
		<path class="st421" d="M59.5,22.7l-2.7-2.3l3.5,0.4L59.5,22.7z"/>
		<path class="st422" d="M59.1,23.8l0.4-1.1l-2.7-2.3L59.1,23.8z"/>
		<path class="st423" d="M59.6,19.6l0.1-1.5l0.3,1.4L59.6,19.6z"/>
		<path class="st424" d="M62.2,18.9L60,19.5l-0.3-1.4L62.2,18.9z"/>
		<path class="st425" d="M60.8,23.8l1.4-4.9L60,19.5L60.8,23.8z"/>
		<path class="st426" d="M59.5,22.7l1.3,1.1l-0.5-3L59.5,22.7z"/>
		<path class="st427" d="M59.1,23.8h1.7l-1.3-1.1L59.1,23.8z"/>
		<path class="st428" d="M61,26.8l-1.9-3l-2.7,0.1L61,26.8z"/>
		<path class="st429" d="M60.8,23.8l0.2,3l-1.9-3H60.8z"/>
		<path class="st430" d="M62.7,23.5L61,26.8l-0.2-3L62.7,23.5z"/>
		<path class="st431" d="M63.7,25.6v-1l-1-1.1L63.7,25.6z"/>
		<path class="st432" d="M61,26.8l2.7-1.2l-1.4-1.4L61,26.8z"/>
		<path class="st17" d="M62.7,23.5l-0.4,0.7l1.4,1.4L62.7,23.5z"/>
		<path class="st251" d="M57.8,23.2c0,0-0.5-1.6,0.7-1.8c1.2-0.2,2.4,0,2.3,0.9c-0.1,0.9-1.8-0.3-2,0.3C58.5,23.4,58,23.6,57.8,23.2
			z"/>
		<path class="st282" d="M50.4,5l-0.5-2l-0.7,2.1L50.4,5z"/>
		<path class="st283" d="M50.4,5l-1.5,1.1l0.3-1L50.4,5z"/>
		<path class="st288" d="M48.4,9.3l2,0.7L47,10.7L48.4,9.3z"/>
		<path class="st289" d="M48.3,11.9l2.1-1.9L47,10.7L48.3,11.9z"/>
		<path class="st17" d="M50.4,10l-0.2,2.2l-1.5,0.2v-0.8L50.4,10z"/>
		<path class="st370" d="M50.4,10l2.3,3.3l-2.5-1.1L50.4,10z"/>
		<path class="st17" d="M50.1,13.8l-1.4-1.4l-0.6,2L50.1,13.8z"/>
		<path class="st371" d="M50.2,12.2l-1.5,0.2l1.4,1.4L50.2,12.2z"/>
		<path class="st372" d="M52.7,13.3l-2.8,3l0.2-2.5l0.1-1.6L52.7,13.3z"/>
		<path class="st373" d="M50.1,13.8l-2,0.6l1.8,1.9L50.1,13.8z"/>
		<path class="st17" d="M52.7,13.3l-0.5,1.9l-0.6-0.8L52.7,13.3z"/>
		<path class="st375" d="M54.7,12.7L54,14.1l-1.3-0.8L54.7,12.7z"/>
		<path class="st376" d="M56.6,15.5L54,14.1l0.7-1.4L56.6,15.5z"/>
		<path class="st377" d="M51.3,18.6l1.4-5.3l1.3,0.8L51.3,18.6z"/>
		<path class="st378" d="M56.6,15.5L54,14.1l0.7,2.4L56.6,15.5z"/>
		<path class="st17" d="M51.3,18.6l3.4-2.1L54,14.1L51.3,18.6z"/>
		<path class="st379" d="M51.6,14.4l-1.7,1.9L49,17.1l3.2-1.9L51.6,14.4z"/>
		<path class="st380" d="M49.7,17.6l0.1-1l2.4-1.4l-0.9,3.4L49.7,17.6z"/>
		<path class="st387" d="M51.3,18.6l-1.6-1l-0.3,4.1L51.3,18.6z"/>
		<path class="st17" d="M49.4,22h1.3l0.6-3.4l-1.9,3.1V22z"/>
		<path class="st17" d="M49.3,22.8l1.4-0.8h-1.3L49.3,22.8z"/>
		<path class="st389" d="M50.5,27.1l1.7-1.1H49L50.5,27.1z"/>
		<path class="st383" d="M49.3,22.8L49,26h3.2L49.3,22.8z"/>
		<path class="st390" d="M50.7,22l-1.4,0.8l3.8,1.2L50.7,22z"/>
		<path class="st17" d="M52.2,26l0.9-2l-3.8-1.2L52.2,26z"/>
		<path class="st17" d="M51.5,27.8l0.7-1.8l-1.7,1.1L51.5,27.8z"/>
		<path class="st391" d="M56.6,15.5l-1.9,1l-3.4,2.1l4-0.2L56.6,15.5z"/>
		<path class="st392" d="M56.8,18.3l-1.5,0.1l1.3-2.9L56.8,18.3z"/>
		<path class="st393" d="M50.7,22l0.6-3.4l2.4,1.5L50.7,22z"/>
		<path class="st394" d="M56.8,18.3l-5.5,0.3l2.4,1.5L56.8,18.3z"/>
		<path class="st395" d="M50.7,22l3.2-0.1l-0.2-1.8L50.7,22z"/>
		<path class="st396" d="M54.4,20.5l-0.5,1.4l-0.2-1.8L54.4,20.5z"/>
		<path class="st397" d="M54.9,19.4l-1.2,0.7l0.7,0.4L54.9,19.4z"/>
		<path class="st17" d="M53.1,24l0.8-2.1L50.7,22L53.1,24z"/>
		<path class="st398" d="M53.6,27.4l-2.1,0.4l0.7-1.8L53.6,27.4z"/>
		<path class="st399" d="M53.1,24l0.6,0.2l-0.1,3.2L52.2,26L53.1,24z"/>
		<path class="st400" d="M53.9,21.9l-0.2,2.3L53.1,24L53.9,21.9z"/>
		<path class="st401" d="M55.7,21.3l-0.8-1.9l-0.5,1.1L55.7,21.3z"/>
		<path class="st402" d="M53.9,21.9l0.5-1.4l1.3,0.8L53.9,21.9z"/>
		<path class="st403" d="M54.6,24.5l-0.9-0.3l0.2-2.3l1.7-0.1L54.6,24.5z"/>
		<path class="st17" d="M55.7,21.3l-0.1,0.5l-1.7,0.1L55.7,21.3z"/>
		<path class="st17" d="M56.8,18.3l-1.1,3l-0.8-1.9L56.8,18.3z"/>
		<path class="st17" d="M54.6,24.5l-1,2.9l0.1-3.2L54.6,24.5z"/>
		<path class="st17" d="M55.6,21.8l0.2,3.1l-1.2-0.4L55.6,21.8z"/>
		<path class="st404" d="M53.6,27.4l2.3-0.4l-0.1-2.1l-1.2-0.4L53.6,27.4z"/>
		<path class="st413" d="M62,26.1l-1.7,0.2l1.2,1.2L62,26.1z"/>
		<path class="st414" d="M55.8,24.9l4.5,1.4L55.9,27L55.8,24.9z"/>
		<path class="st415" d="M58.8,24.7H61l-0.7,1.6L58.8,24.7z"/>
		<path class="st17" d="M55.8,24.9l4.5,1.4l-1.5-1.6L55.8,24.9z"/>
		<path class="st416" d="M62,26.1l-1-1.4l-0.7,1.6L62,26.1z"/>
		<path class="st417" d="M55.7,21.3l0.4,0.5l-0.3,3.1l-0.2-3.1L55.7,21.3z"/>
		<path class="st418" d="M58.8,24.7l-2.7-2.9l-0.3,3.1L58.8,24.7z"/>
		<path class="st17" d="M61,24.7l-5.3-3.4l3.1,3.4H61z"/>
		<path class="st419" d="M56.8,18.3l-1.1,3l0.7,0.5l2.7-0.1L56.8,18.3z"/>
		<path class="st420" d="M60,17.3l-3.2,1l3.5,0.3L60,17.3z"/>
		<path class="st421" d="M59.5,20.6l-2.7-2.3l3.5,0.3L59.5,20.6z"/>
		<path class="st422" d="M59.1,21.7l0.4-1.1l-2.7-2.3L59.1,21.7z"/>
		<path class="st423" d="M59.6,17.4l0.1-1.4l0.3,1.3L59.6,17.4z"/>
		<path class="st424" d="M62.2,16.8L60,17.3L59.7,16L62.2,16.8z"/>
		<path class="st425" d="M60.8,21.6l1.4-4.8L60,17.3L60.8,21.6z"/>
		<path class="st426" d="M59.5,20.6l1.3,1l-0.5-3L59.5,20.6z"/>
		<path class="st427" d="M59.1,21.7l1.7-0.1l-1.3-1L59.1,21.7z"/>
		<path class="st428" d="M61,24.7l-1.9-3l-2.7,0.1L61,24.7z"/>
		<path class="st429" d="M60.8,21.6l0.2,3.1l-1.9-3L60.8,21.6z"/>
		<path class="st430" d="M62.7,21.3L61,24.7l-0.2-3.1L62.7,21.3z"/>
		<path class="st431" d="M63.7,23.5v-1.1l-1-1.1L63.7,23.5z"/>
		<path class="st432" d="M61,24.7l2.7-1.2L62.3,22L61,24.7z"/>
		<path class="st17" d="M62.7,21.3L62.3,22l1.4,1.5L62.7,21.3z"/>
		<path class="st251" d="M59,26c-0.4,0-0.8-0.1-1.1-0.4c-0.4-0.4-1-0.7-1.8,0c-1.4,1.3,0.2,2.4,0.7,2.2c0.5-0.2,2.2-0.1,2.4,0
			c0.2,0.1,1.2,0.2,0.6-1.1C59.6,26.1,59.3,26,59,26z"/>
		<path class="st282" d="M50.4,5l-0.5-2l-0.7,2.1L50.4,5z"/>
		<path class="st283" d="M50.4,5l-1.5,1.1l0.3-1L50.4,5z"/>
		<path class="st288" d="M48.4,9.3l2,0.7L47,10.7L48.4,9.3z"/>
		<path class="st289" d="M48.3,11.9l2.1-1.9L47,10.7L48.3,11.9z"/>
		<path class="st17" d="M50.4,10l-0.2,2.2l-1.5,0.2v-0.8L50.4,10z"/>
		<path class="st370" d="M50.4,10l2.3,3.3l-2.5-1.1L50.4,10z"/>
		<path class="st17" d="M50.1,13.8l-1.4-1.4l-0.6,2L50.1,13.8z"/>
		<path class="st371" d="M50.2,12.2l-1.5,0.2l1.4,1.4L50.2,12.2z"/>
		<path class="st372" d="M52.7,13.3l-2.8,3l0.2-2.5l0.1-1.6L52.7,13.3z"/>
		<path class="st373" d="M50.1,13.8l-2,0.6l1.8,1.9L50.1,13.8z"/>
		<path class="st17" d="M52.7,13.3l-0.5,1.9l-0.6-0.8L52.7,13.3z"/>
		<path class="st375" d="M54.7,12.7L54,14.1l-1.3-0.8L54.7,12.7z"/>
		<path class="st376" d="M56.6,15.5L54,14.1l0.7-1.4L56.6,15.5z"/>
		<path class="st377" d="M51.3,18.6l1.4-5.3l1.3,0.8L51.3,18.6z"/>
		<path class="st378" d="M56.6,15.5L54,14.1l0.7,2.4L56.6,15.5z"/>
		<path class="st17" d="M51.3,18.6l3.4-2.1L54,14.1L51.3,18.6z"/>
		<path class="st379" d="M51.6,14.4l-1.7,1.9L49,17.1l3.2-1.9L51.6,14.4z"/>
		<path class="st380" d="M49.7,17.6l0.1-1l2.4-1.4l-0.9,3.4L49.7,17.6z"/>
		<path class="st387" d="M51.3,18.6l-1.6-1l-0.3,4.1L51.3,18.6z"/>
		<path class="st17" d="M49.4,22h1.3l0.6-3.4l-1.9,3.1V22z"/>
		<path class="st17" d="M49.3,22.8l1.4-0.8h-1.3L49.3,22.8z"/>
		<path class="st389" d="M50.5,27.1l1.7-1.1H49L50.5,27.1z"/>
		<path class="st383" d="M49.3,22.8L49,26h3.2L49.3,22.8z"/>
		<path class="st390" d="M50.7,22l-1.4,0.8l3.8,1.2L50.7,22z"/>
		<path class="st17" d="M52.2,26l0.9-2l-3.8-1.2L52.2,26z"/>
		<path class="st17" d="M51.5,27.8l0.7-1.8l-1.7,1.1L51.5,27.8z"/>
		<path class="st391" d="M56.6,15.5l-1.9,1l-3.4,2.1l4-0.2L56.6,15.5z"/>
		<path class="st392" d="M56.8,18.3l-1.5,0.1l1.3-2.9L56.8,18.3z"/>
		<path class="st393" d="M50.7,22l0.6-3.4l2.4,1.5L50.7,22z"/>
		<path class="st394" d="M56.8,18.3l-5.5,0.3l2.4,1.5L56.8,18.3z"/>
		<path class="st395" d="M50.7,22l3.2-0.1l-0.2-1.8L50.7,22z"/>
		<path class="st396" d="M54.4,20.5l-0.5,1.4l-0.2-1.8L54.4,20.5z"/>
		<path class="st397" d="M54.9,19.4l-1.2,0.7l0.7,0.4L54.9,19.4z"/>
		<path class="st17" d="M56.3,24.9l0.8-2.2l-3.2,0.1L56.3,24.9z"/>
		<path class="st398" d="M56.8,28.4l-2.1,0.3l0.7-1.8L56.8,28.4z"/>
		<path class="st399" d="M56.3,24.9l0.7,0.2l-0.2,3.3l-1.4-1.5L56.3,24.9z"/>
		<path class="st400" d="M57.1,22.7L57,25.1l-0.7-0.2L57.1,22.7z"/>
		<path class="st401" d="M58.9,22.2l-0.8-1.9l-0.4,1L58.9,22.2z"/>
		<path class="st402" d="M57.1,22.7l0.6-1.4l1.2,0.9L57.1,22.7z"/>
		<path class="st403" d="M57.8,25.4L57,25.1l0.1-2.4h1.7L57.8,25.4z"/>
		<path class="st17" d="M58.9,22.2l-0.1,0.5h-1.7L58.9,22.2z"/>
		<path class="st17" d="M60,19.1l-1.1,3.1l-0.8-1.9L60,19.1z"/>
		<path class="st17" d="M57.8,25.4l-1,3l0.2-3.3L57.8,25.4z"/>
		<path class="st17" d="M58.8,22.7l0.2,3.1l-1.2-0.4L58.8,22.7z"/>
		<path class="st404" d="M56.8,28.4l2.4-0.4L59,25.8l-1.2-0.4L56.8,28.4z"/>
		<path class="st413" d="M65.3,27l-1.7,0.3l1.2,1.1L65.3,27z"/>
		<path class="st414" d="M59,25.8l4.6,1.5L59.2,28L59,25.8z"/>
		<path class="st415" d="M58.8,24.7H61l-0.7,1.6L58.8,24.7z"/>
		<path class="st17" d="M55.8,24.9l4.5,1.4l-1.5-1.6L55.8,24.9z"/>
		<path class="st416" d="M62,26.1l-1-1.4l-0.7,1.6L62,26.1z"/>
		<path class="st417" d="M55.7,21.3l0.4,0.5l-0.3,3.1l-0.2-3.1L55.7,21.3z"/>
		<path class="st418" d="M58.8,24.7l-2.7-2.9l-0.3,3.1L58.8,24.7z"/>
		<path class="st17" d="M61,24.7l-5.3-3.4l3.1,3.4H61z"/>
		<path class="st419" d="M56.8,18.3l-1.1,3l0.7,0.5l2.7-0.1L56.8,18.3z"/>
		<path class="st420" d="M60,17.3l-3.2,1l3.5,0.3L60,17.3z"/>
		<path class="st421" d="M59.5,20.6l-2.7-2.3l3.5,0.3L59.5,20.6z"/>
		<path class="st422" d="M59.1,21.7l0.4-1.1l-2.7-2.3L59.1,21.7z"/>
		<path class="st423" d="M59.6,17.4l0.1-1.4l0.3,1.3L59.6,17.4z"/>
		<path class="st424" d="M62.2,16.8L60,17.3L59.7,16L62.2,16.8z"/>
		<path class="st425" d="M60.8,21.6l1.4-4.8L60,17.3L60.8,21.6z"/>
		<path class="st426" d="M59.5,20.6l1.3,1l-0.5-3L59.5,20.6z"/>
		<path class="st427" d="M59.1,21.7l1.7-0.1l-1.3-1L59.1,21.7z"/>
		<path class="st428" d="M61,24.7l-1.9-3l-2.7,0.1L61,24.7z"/>
		<path class="st429" d="M60.8,21.6l0.2,3.1l-1.9-3L60.8,21.6z"/>
		<path class="st430" d="M62.7,21.3L61,24.7l-0.2-3.1L62.7,21.3z"/>
		<path class="st431" d="M63.7,23.5v-1.1l-1-1.1L63.7,23.5z"/>
		<path class="st432" d="M61,24.7l2.7-1.2L62.3,22L61,24.7z"/>
		<path class="st17" d="M62.7,21.3L62.3,22l1.4,1.5L62.7,21.3z"/>
	</g>
	<g>
		<path class="st3" d="M2.2,79.5v3.6h-2v-9.9H4c1.1,0,2,0.3,2.7,0.9s1,1.3,1,2.3s-0.3,1.7-1,2.3C6,79.2,5.1,79.5,4,79.5H2.2z
			 M2.2,78H4c0.6,0,1-0.2,1.3-0.5c0.3-0.3,0.4-0.7,0.4-1.2c0-0.5-0.1-0.9-0.4-1.2C5,74.8,4.6,74.7,4,74.7H2.2V78z"/>
		<path class="st3" d="M21.7,81h-3.2l-0.7,2.1h-2.1l3.4-9.9h2l3.3,9.9h-2.1L21.7,81z M19,79.4h2.2l-1.1-3.5h0L19,79.4z"/>
		<path class="st3" d="M36.1,79.1v4h-2v-9.9h3.4c1.1,0,2,0.3,2.7,0.8c0.6,0.5,1,1.2,1,2.2c0,0.5-0.1,0.9-0.4,1.3
			c-0.3,0.4-0.7,0.7-1.2,0.9c0.6,0.2,1,0.5,1.3,0.9c0.3,0.4,0.4,0.9,0.4,1.5v0.7c0,0.3,0,0.6,0.1,0.9c0.1,0.3,0.2,0.5,0.4,0.7v0.1
			h-2.1c-0.2-0.1-0.3-0.4-0.4-0.7c-0.1-0.3-0.1-0.7-0.1-1v-0.7c0-0.5-0.1-0.9-0.4-1.2c-0.3-0.3-0.7-0.4-1.2-0.4H36.1z M36.1,77.6
			h1.4c0.6,0,1-0.1,1.2-0.4c0.3-0.2,0.4-0.6,0.4-1.1c0-0.5-0.1-0.8-0.4-1.1c-0.3-0.3-0.7-0.4-1.2-0.4h-1.4V77.6z"/>
		<path class="st3" d="M58.3,74.7h-2.8v8.4h-2v-8.4h-2.8v-1.5h7.6V74.7z"/>
		<path class="st3" d="M76.1,83.1h-2l-4-6.7l0,0v6.7h-2v-9.9h2l4,6.7l0,0v-6.7h2V83.1z"/>
		<path class="st3" d="M92.3,78.7h-3.7v2.8H93v1.5h-6.4v-9.9h6.4v1.5h-4.4v2.5h3.7V78.7z"/>
		<path class="st3" d="M105,79.1v4h-2v-9.9h3.4c1.1,0,2,0.3,2.7,0.8c0.6,0.5,1,1.2,1,2.2c0,0.5-0.1,0.9-0.4,1.3
			c-0.3,0.4-0.7,0.7-1.2,0.9c0.6,0.2,1,0.5,1.3,0.9c0.3,0.4,0.4,0.9,0.4,1.5v0.7c0,0.3,0,0.6,0.1,0.9c0.1,0.3,0.2,0.5,0.4,0.7v0.1
			h-2.1c-0.2-0.1-0.3-0.4-0.4-0.7c-0.1-0.3-0.1-0.7-0.1-1v-0.7c0-0.5-0.1-0.9-0.4-1.2c-0.3-0.3-0.7-0.4-1.2-0.4H105z M105,77.6h1.4
			c0.6,0,1-0.1,1.2-0.4s0.4-0.6,0.4-1.1c0-0.5-0.1-0.8-0.4-1.1c-0.3-0.3-0.7-0.4-1.2-0.4H105V77.6z"/>
		<path class="st3" d="M125.8,80.5c0-0.4-0.1-0.7-0.4-0.9c-0.3-0.2-0.7-0.5-1.4-0.7c-1.1-0.3-2-0.8-2.6-1.2
			c-0.6-0.5-0.9-1.1-0.9-1.9c0-0.8,0.3-1.5,1-2c0.7-0.5,1.5-0.8,2.6-0.8c1.1,0,2,0.3,2.7,0.8c0.7,0.6,1,1.3,1,2.2l0,0h-1.9
			c0-0.5-0.2-0.9-0.5-1.1c-0.3-0.3-0.7-0.4-1.3-0.4c-0.5,0-0.9,0.1-1.1,0.4s-0.4,0.5-0.4,0.9c0,0.3,0.1,0.6,0.4,0.8
			c0.3,0.2,0.8,0.4,1.5,0.7c1.1,0.3,1.9,0.7,2.5,1.2c0.6,0.5,0.9,1.2,0.9,2c0,0.9-0.3,1.5-1,2c-0.7,0.5-1.5,0.7-2.6,0.7
			c-1.1,0-2-0.3-2.8-0.8c-0.8-0.5-1.1-1.3-1.1-2.4l0,0h1.9c0,0.6,0.2,1,0.5,1.3c0.3,0.3,0.8,0.4,1.4,0.4c0.5,0,0.9-0.1,1.2-0.3
			C125.6,81.2,125.8,80.9,125.8,80.5z"/>
		<path class="st3" d="M145.9,83.1h-2V79h-4v4.1h-2v-9.9h2v4.3h4v-4.3h2V83.1z"/>
		<path class="st3" d="M158.6,83.1h-2v-9.9h2V83.1z"/>
		<path class="st3" d="M171.2,79.5v3.6h-2v-9.9h3.8c1.1,0,2,0.3,2.7,0.9c0.7,0.6,1,1.3,1,2.3s-0.3,1.7-1,2.3
			c-0.7,0.6-1.6,0.9-2.7,0.9H171.2z M171.2,78h1.8c0.6,0,1-0.2,1.3-0.5c0.3-0.3,0.4-0.7,0.4-1.2c0-0.5-0.1-0.9-0.4-1.2
			c-0.3-0.3-0.7-0.5-1.3-0.5h-1.8V78z"/>
	</g>
</g>
</svg>
