<svg width="30" height="30" viewBox="0 0 30 30" fill="none" xmlns="http://www.w3.org/2000/svg">
<circle cx="15" cy="15" r="15" fill="#316D69"/>
<path d="M15 0C6.73469 0 0 6.73469 0 15C0 23.2653 6.73469 30 15 30C23.2653 30 30 23.2653 30 15C30 6.73469 23.2653 0 15 0ZM15 28.6531C7.46939 28.6531 1.34694 22.5306 1.34694 15C1.34694 7.46939 7.46939 1.34694 15 1.34694C22.5306 1.34694 28.6531 7.46939 28.6531 15C28.6531 22.5306 22.5306 28.6531 15 28.6531Z" fill="#316D69"/>
<path d="M21.796 16.652V21.7948H18.796V17.0193C18.796 15.7948 18.3062 14.9377 17.2654 14.9377C16.4694 14.9377 16.0409 15.4887 15.796 16.101C15.7347 16.2846 15.7347 16.5908 15.7347 16.8357V21.8561H12.7347C12.7347 21.8561 12.796 13.3459 12.7347 12.6112H15.7347V14.0805C15.9184 13.4683 16.8368 12.5499 18.3674 12.5499C20.3266 12.4887 21.796 13.7744 21.796 16.652Z" fill="white"/>
<path d="M11.3877 9.79496C11.3877 10.7133 10.7754 11.3868 9.79582 11.3868C8.81622 11.3868 8.20398 10.6521 8.20398 9.79496C8.20398 8.87659 8.81622 8.20312 9.85704 8.20312C10.7754 8.20312 11.3877 8.87659 11.3877 9.79496Z" fill="white"/>
<path d="M11.1428 12.5498H8.51013V21.7947H11.1428V12.5498Z" fill="white"/>
<path d="M12.796 21.7954C12.796 21.7954 12.8572 13.2852 12.796 12.5505H15.796V14.0199C15.9797 13.4076 16.8981 12.4893 18.4287 12.4893C20.3266 12.4893 21.796 13.8362 21.796 16.7137V21.8566H18.796V17.0811C18.796 15.8566 18.3062 14.9995 17.2654 14.9995C16.4695 14.9995 16.0409 15.5505 15.796 16.1627C15.7348 16.3464 15.7348 16.6525 15.7348 16.8974V21.9178H12.796V21.7954Z" fill="white"/>
</svg>
