<?xml version="1.0" encoding="utf-8"?>
<!-- Generator: Adobe Illustrator 27.8.1, SVG Export Plug-In . SVG Version: 6.00 Build 0)  -->
<svg version="1.1" id="Layer_1" xmlns="http://www.w3.org/2000/svg" xmlns:xlink="http://www.w3.org/1999/xlink" x="0px" y="0px"
	 viewBox="0 0 50 50" style="enable-background:new 0 0 50 50;" xml:space="preserve">
<style type="text/css">
	.st0{display:none;}
	.st1{display:inline;fill:#FDC70A;}
	.st2{display:inline;fill:#11B482;}
	.st3{fill:url(#SVGID_1_);}
	.st4{fill:url(#SVGID_00000027601128717880303190000008618798479743553415_);}
	.st5{fill:url(#SVGID_00000139254464567408825940000016965686792851666085_);}
	.st6{fill:url(#SVGID_00000011024750904805573860000017547078340758458502_);}
	.st7{fill:url(#SVGID_00000111189931005158876950000012503659141602508162_);}
	.st8{fill:url(#SVGID_00000124163501794186322660000012134341506774902182_);}
	.st9{fill:url(#SVGID_00000090977515309906289200000005288098313785304475_);}
	.st10{fill:url(#SVGID_00000096040577308588458520000005146201426233444531_);}
	.st11{fill:url(#SVGID_00000077281777811890717310000000412259443130257812_);}
	.st12{fill:url(#SVGID_00000074442956112902105660000014372164980897979286_);}
	.st13{fill:url(#SVGID_00000168815102956740077880000012298043690488868257_);}
	.st14{fill:url(#SVGID_00000139982821629116596050000013983470469089833356_);}
	.st15{fill:url(#SVGID_00000098216866990035496910000010236815889226646959_);}
	.st16{fill:url(#SVGID_00000098187340949660545750000006664633698462541247_);}
	.st17{fill:url(#SVGID_00000128462634664099892590000006682085418742482337_);}
	.st18{fill:url(#SVGID_00000013173248408413061960000003553465602685554064_);}
	.st19{fill:url(#SVGID_00000178202063732078432880000013947318220397670817_);}
</style>
<g class="st0">
	<path class="st1" d="M0.5,40.2c0.4-0.5,0.8-0.9,1.1-1.4c1.2-1.6,2.2-3.3,2.7-5.3c0.3-0.9,0.4-1.8,0.6-2.6c0-0.2,0-0.2-0.2-0.3
		c-1.6-1-1.5-3.3,0.2-4.1c0.2-0.1,0.2-0.2,0.2-0.3c0-1.1,0.1-2.1,0.3-3.2c0.3-1.4,1-2.6,2-3.7l0.1-0.1c-0.6-0.2-1.1-0.4-1.7-0.6
		c-1.2-0.4-2.4-0.8-3.5-1.2C2,17.3,1.8,17.2,1.6,17c-0.4-0.3-0.4-0.6,0-0.9c0.2-0.2,0.5-0.4,0.8-0.5c4.1-1.4,8.2-2.8,12.4-4.2
		c3.1-1.1,6.3-2.1,9.4-3.2c1.4-0.5,1-0.5,2.5,0c3.3,1.2,6.7,2.3,10.1,3.5c2.8,1,5.6,1.9,8.4,2.9c1,0.3,2,0.7,3,1
		c0.3,0.1,0.7,0.3,0.9,0.5c0.4,0.3,0.4,0.7,0,0.9c-0.2,0.2-0.5,0.3-0.8,0.4c-2.9,1-5.7,2-8.6,3c-2.7,0.9-5.4,1.9-8.1,2.8
		c-1.8,0.6-3.6,1.2-5.4,1.9c-0.5,0.2-0.9,0-1.4-0.1c-3.4-1.2-6.8-2.3-10.3-3.5c-0.4-0.1-0.9-0.3-1.4-0.5c0.1,0,0.2-0.1,0.2-0.1
		c3.9-1.6,7.8-3.1,11.7-4.7c0.2-0.1,0.4-0.2,0.6-0.2c0.6-0.3,0.9-0.9,0.6-1.5c-0.2-0.6-0.9-0.8-1.5-0.6c-0.8,0.3-1.6,0.6-2.4,1
		c-2.8,1.1-5.6,2.3-8.3,3.4c-1.2,0.5-2.4,1-3.7,1.5C9.9,20,9.4,20.5,8.9,21c-0.9,1.1-1.3,2.3-1.4,3.7c-0.1,0.5-0.1,1.1-0.1,1.6
		c0,0.1,0.1,0.2,0.1,0.3c1.3,0.9,1.3,2.8,0.1,3.7c-0.1,0.1-0.1,0.2-0.1,0.3c0.1,1.1,0.1,2.1,0.2,3.2c0.1,1.6,0,3.1-0.4,4.6
		c-0.5,1.6-1.4,2.8-3,3.6c-0.1,0-0.2,0.1-0.3,0.1c0,0,0,0-0.1,0S3.7,42,3.7,42c-0.7-0.3-1.3-0.6-2-1C1.3,40.8,0.9,40.5,0.5,40.2
		L0.5,40.2z"/>
	<path class="st1" d="M41,22.9c0,0.1,0,0.2,0,0.3c0,2.4,0,4.8,0,7.2c0,0.6-0.2,1-0.6,1.4c-0.3,0.5-0.8,0.7-1.3,1
		c-2.7,1.3-5.5,2.3-8.4,2.8c-2.4,0.4-4.8,0.6-7.3,0.4c-2.8-0.2-5.6-0.7-8.2-1.7c-1.2-0.4-2.3-1-3.4-1.5c-0.4-0.2-0.6-0.7-0.8-1.1
		c0,0,0-0.1,0.1-0.2c1.1-1.5,1-3.6-0.2-4.9c0,0-0.1-0.1-0.1-0.2c0-1.1,0-2.2,0-3.4c0.6,0.2,1.2,0.4,1.8,0.6c2.2,0.8,4.5,1.5,6.7,2.3
		c1.9,0.6,3.8,1.3,5.7,2c0.5,0.2,0.9,0.2,1.4,0c2.3-0.8,4.6-1.6,6.9-2.4c2.5-0.8,4.9-1.7,7.4-2.5C40.7,22.9,40.8,22.9,41,22.9z"/>
</g>
<g class="st0">
	<path class="st2" d="M44,37.5c-1-6-4-10.6-9.2-13.8c-0.6-0.3-1.2-0.6-1.8-1c-2.7,7.3-5.3,14.5-8,21.7h-0.1
		c-2.7-7.2-5.3-14.4-8-21.7c-0.2,0.1-0.4,0.2-0.6,0.3c-5.6,3-9,7.6-10.2,13.8c-0.2,1-0.3,2.1-0.3,3.1c0.1,1.5,1,2.6,1.9,3.6
		c1.7,1.7,3.8,3,6,3.9c4.1,1.7,8.3,2.4,12.7,2.2c3.9-0.2,7.6-1.1,11.1-2.8c2-1,3.9-2.3,5.3-4c0.7-0.9,1.2-1.8,1.2-2.9
		C44.1,38.9,44.1,38.2,44,37.5z"/>
	<path class="st2" d="M25,21.5c5.7,0.1,10.5-4.6,10.5-10.4c0.1-5.7-4.7-10.5-10.3-10.6c-5.8-0.1-10.6,4.6-10.7,10.3
		C14.4,16.7,19,21.4,25,21.5z"/>
	<path class="st2" d="M26.8,24.1c-0.6-0.6-1.2-1.3-1.9-2c-0.6,0.7-1.2,1.3-1.8,2c0.7,0.6,1.3,1.2,1.9,1.8
		C25.6,25.4,26.2,24.8,26.8,24.1z"/>
	<path class="st2" d="M24.1,37.9c0.1,0.2,0.2,0.4,0.2,0.6c0.2,0.5,0.4,1,0.7,1.7l0,0l0,0l2.8-7.2l-1.5-5.9L25,26.2l-1.4,1l-1.3,5.9
		L24.1,37.9z"/>
</g>
<g>
	<linearGradient id="SVGID_1_" gradientUnits="userSpaceOnUse" x1="11.9295" y1="37.3298" x2="45.1379" y2="37.3298">
		<stop  offset="5.327789e-09" style="stop-color:#326E6A"/>
		<stop  offset="1" style="stop-color:#368789"/>
	</linearGradient>
	<path class="st3" d="M28,38c1.2,0,2.5,0,3.7,0c0.9,0,1.6-0.2,2.4-0.6c2.8-1.6,5.6-3.2,8.3-4.8c0.4-0.2,0.8-0.4,1.4-0.3
		c0.7,0.2,1.2,0.6,1.3,1.3c0.1,0.7-0.1,1.3-0.8,1.7c-1.3,0.8-2.7,1.6-4.1,2.4c-2.3,1.3-4.6,2.6-6.8,4c-2.7,1.6-5.5,2-8.6,1.6
		c-2.9-0.4-5.9-0.7-8.8-1c-1.2-0.1-2.5-0.1-3.7-0.1c-0.3,0-0.4-0.1-0.4-0.4c0-2.4,0-4.9,0-7.3c0-0.3,0.1-0.5,0.4-0.4
		c0.4,0.1,0.8-0.1,1.2-0.3c1.1-0.6,2.1-1.4,3.3-1.7c2-0.6,4.1-0.7,6,0.2c2,0.9,4,1.3,6.1,1.1c0.8-0.1,1.7,0,2.5,0
		c1,0,1.7,0.7,1.7,1.6c0,0.9-0.7,1.6-1.7,1.6c-2.5,0-5.1,0-7.6,0c-0.4,0-0.5,0.1-0.5,0.5c0,1.2,0,1.2,1.2,1.2C25.7,38,26.9,38,28,38
		z"/>
	
		<linearGradient id="SVGID_00000117645522386670923280000005259948899177451405_" gradientUnits="userSpaceOnUse" x1="5.3992" y1="38.3891" x2="10.3128" y2="38.3891">
		<stop  offset="5.327789e-09" style="stop-color:#326E6A"/>
		<stop  offset="1" style="stop-color:#368789"/>
	</linearGradient>
	<path style="fill:url(#SVGID_00000117645522386670923280000005259948899177451405_);" d="M5.4,38.3c0-1.6,0-3.2,0-4.8
		c0-0.3,0.1-0.4,0.4-0.4c1.4,0,2.7,0,4.1,0c0.3,0,0.4,0.1,0.4,0.4c0,3.3,0,6.5,0,9.8c0,0.3-0.1,0.4-0.4,0.4c-1.4,0-2.7,0-4.1,0
		c-0.3,0-0.4-0.1-0.4-0.4C5.4,41.6,5.4,40,5.4,38.3z M8.7,42.1c0-0.9,0-0.9-0.8-0.9C7,41.2,7,41.2,7,42c0,0.9,0,0.9,0.8,0.9
		C8.7,42.9,8.7,42.9,8.7,42.1z"/>
	
		<linearGradient id="SVGID_00000014606158902904027080000001200891499865062016_" gradientUnits="userSpaceOnUse" x1="21.2054" y1="21.3818" x2="28.7916" y2="21.3818">
		<stop  offset="5.327789e-09" style="stop-color:#326E6A"/>
		<stop  offset="1" style="stop-color:#368789"/>
	</linearGradient>
	<path style="fill:url(#SVGID_00000014606158902904027080000001200891499865062016_);" d="M28.8,15.1c-1.3,4.2-2.5,8.3-3.7,12.5
		c0,0-0.1,0-0.1,0c-1.2-4.1-2.5-8.3-3.7-12.5C23.7,15.1,26.2,15.1,28.8,15.1z"/>
	
		<linearGradient id="SVGID_00000111872592899085047020000005740557711125892790_" gradientUnits="userSpaceOnUse" x1="26.936" y1="21.1882" x2="37.8609" y2="21.1882">
		<stop  offset="5.327789e-09" style="stop-color:#326E6A"/>
		<stop  offset="1" style="stop-color:#368789"/>
	</linearGradient>
	<path style="fill:url(#SVGID_00000111872592899085047020000005740557711125892790_);" d="M37.9,15.1c-3.7,4.1-7.3,8.1-10.9,12.1
		c0-0.2,0-0.3,0.1-0.4c1.1-3.8,2.3-7.6,3.4-11.3c0.1-0.2,0.1-0.4,0.4-0.4C33.1,15.1,35.4,15.1,37.9,15.1z"/>
	
		<linearGradient id="SVGID_00000021818882667991524140000009863150644986800284_" gradientUnits="userSpaceOnUse" x1="12.2387" y1="21.187" x2="23.0676" y2="21.187">
		<stop  offset="5.327789e-09" style="stop-color:#326E6A"/>
		<stop  offset="1" style="stop-color:#368789"/>
	</linearGradient>
	<path style="fill:url(#SVGID_00000021818882667991524140000009863150644986800284_);" d="M23.1,27.3c-3.7-4.1-7.2-8-10.8-12
		c0.1-0.2,0.2-0.1,0.4-0.1c2.2,0,4.3,0,6.5,0c0.3,0,0.4,0,0.5,0.3c1.1,3.8,2.3,7.7,3.4,11.5C23.1,27,23.1,27.1,23.1,27.3z"/>
	
		<linearGradient id="SVGID_00000044150967606278604380000014318178728394097834_" gradientUnits="userSpaceOnUse" x1="0.5035" y1="38.3899" x2="3.7821" y2="38.3899">
		<stop  offset="5.327789e-09" style="stop-color:#326E6A"/>
		<stop  offset="1" style="stop-color:#368789"/>
	</linearGradient>
	<path style="fill:url(#SVGID_00000044150967606278604380000014318178728394097834_);" d="M3.8,38.4c0,1.4,0,2.7,0,4.1
		c0,0.3-0.1,0.4-0.4,0.4c-0.8,0-1.7,0-2.5,0c-0.3,0-0.4-0.1-0.4-0.4c0-2.7,0-5.5,0-8.2c0-0.3,0.1-0.4,0.4-0.4c0.8,0,1.7,0,2.5,0
		c0.3,0,0.4,0.1,0.4,0.4C3.8,35.6,3.8,37,3.8,38.4z"/>
	
		<linearGradient id="SVGID_00000001664835931585282850000001546091971645805193_" gradientUnits="userSpaceOnUse" x1="16.671" y1="9.8603" x2="23.53" y2="9.8603">
		<stop  offset="5.327789e-09" style="stop-color:#326E6A"/>
		<stop  offset="1" style="stop-color:#368789"/>
	</linearGradient>
	<path style="fill:url(#SVGID_00000001664835931585282850000001546091971645805193_);" d="M23.5,7c-1.1,1.9-2.3,3.8-3.4,5.7
		c-1.2-1.9-2.3-3.8-3.4-5.7C19,7,21.2,7,23.5,7z"/>
	
		<linearGradient id="SVGID_00000051354500494104174000000011975466966054714005_" gradientUnits="userSpaceOnUse" x1="26.4561" y1="9.8511" x2="33.3349" y2="9.8511">
		<stop  offset="5.327789e-09" style="stop-color:#326E6A"/>
		<stop  offset="1" style="stop-color:#368789"/>
	</linearGradient>
	<path style="fill:url(#SVGID_00000051354500494104174000000011975466966054714005_);" d="M26.5,7c2.3,0,4.6,0,6.9,0
		c-1.1,1.9-2.3,3.8-3.4,5.7C28.7,10.8,27.6,8.9,26.5,7z"/>
	
		<linearGradient id="SVGID_00000115490445108270308580000017182756227567859589_" gradientUnits="userSpaceOnUse" x1="11.7584" y1="10.6033" x2="18.6516" y2="10.6033">
		<stop  offset="5.327789e-09" style="stop-color:#326E6A"/>
		<stop  offset="1" style="stop-color:#368789"/>
	</linearGradient>
	<path style="fill:url(#SVGID_00000115490445108270308580000017182756227567859589_);" d="M18.7,13.5c-2.3,0-4.6,0-6.9,0
		c1.2-1.9,2.3-3.8,3.4-5.7C16.4,9.7,17.5,11.5,18.7,13.5z"/>
	
		<linearGradient id="SVGID_00000050629309121579374660000010576132063478434732_" gradientUnits="userSpaceOnUse" x1="21.5537" y1="10.6039" x2="28.4481" y2="10.6039">
		<stop  offset="5.327789e-09" style="stop-color:#326E6A"/>
		<stop  offset="1" style="stop-color:#368789"/>
	</linearGradient>
	<path style="fill:url(#SVGID_00000050629309121579374660000010576132063478434732_);" d="M28.4,13.5c-2.3,0-4.6,0-6.9,0
		c1.2-1.9,2.3-3.8,3.4-5.7C26.2,9.7,27.3,11.5,28.4,13.5z"/>
	
		<linearGradient id="SVGID_00000073683200409999987380000009031732338321618833_" gradientUnits="userSpaceOnUse" x1="31.3494" y1="10.6034" x2="38.2429" y2="10.6034">
		<stop  offset="5.327789e-09" style="stop-color:#326E6A"/>
		<stop  offset="1" style="stop-color:#368789"/>
	</linearGradient>
	<path style="fill:url(#SVGID_00000073683200409999987380000009031732338321618833_);" d="M38.2,13.5c-2.3,0-4.6,0-6.9,0
		c1.2-1.9,2.3-3.8,3.4-5.7C36,9.7,37.1,11.5,38.2,13.5z"/>
	
		<linearGradient id="SVGID_00000018942631621501947790000009491853369154663318_" gradientUnits="userSpaceOnUse" x1="0.5" y1="14.3056" x2="7.0494" y2="14.3056">
		<stop  offset="5.327789e-09" style="stop-color:#326E6A"/>
		<stop  offset="1" style="stop-color:#368789"/>
	</linearGradient>
	<path style="fill:url(#SVGID_00000018942631621501947790000009491853369154663318_);" d="M3.7,15.1c-0.9,0-1.9,0-2.8,0
		c-0.3,0-0.4-0.1-0.4-0.4c0-1.2,0-1.2,1.2-1.2c1.6,0,3.3,0,4.9,0c0.4,0,0.5,0.1,0.4,0.4c0,1.2,0,1.2-1.2,1.2
		C5.2,15.1,4.5,15.1,3.7,15.1z"/>
	
		<linearGradient id="SVGID_00000176034431233978538030000010319040856290605992_" gradientUnits="userSpaceOnUse" x1="42.9492" y1="14.3076" x2="49.5" y2="14.3076">
		<stop  offset="5.327789e-09" style="stop-color:#326E6A"/>
		<stop  offset="1" style="stop-color:#368789"/>
	</linearGradient>
	<path style="fill:url(#SVGID_00000176034431233978538030000010319040856290605992_);" d="M46.2,13.5c0.9,0,1.9,0,2.8,0
		c0.3,0,0.4,0,0.4,0.4c0,1.3,0,1.3-1.2,1.3c-1.6,0-3.3,0-4.9,0c-0.3,0-0.4-0.1-0.4-0.4c0-1.2,0-1.2,1.2-1.2
		C44.8,13.5,45.5,13.5,46.2,13.5z"/>
	
		<linearGradient id="SVGID_00000152958535406496179880000013153872010874096809_" gradientUnits="userSpaceOnUse" x1="1.0673" y1="8.2417" x2="7.3158" y2="8.2417">
		<stop  offset="5.327789e-09" style="stop-color:#326E6A"/>
		<stop  offset="1" style="stop-color:#368789"/>
	</linearGradient>
	<path style="fill:url(#SVGID_00000152958535406496179880000013153872010874096809_);" d="M7.3,8.8C7.1,9.2,7,9.6,6.8,10
		c-0.1,0.2-0.2,0.1-0.3,0C4.7,9.3,3,8.6,1.3,7.8C1.1,7.7,1,7.7,1.1,7.4c0.5-1.3,0.5-1.3,1.7-0.8C4.2,7.3,5.6,7.9,7,8.5
		C7.1,8.6,7.3,8.6,7.3,8.8z"/>
	
		<linearGradient id="SVGID_00000093163510555717639810000008786514570985084347_" gradientUnits="userSpaceOnUse" x1="42.7669" y1="8.196" x2="48.9493" y2="8.196">
		<stop  offset="5.327789e-09" style="stop-color:#326E6A"/>
		<stop  offset="1" style="stop-color:#368789"/>
	</linearGradient>
	<path style="fill:url(#SVGID_00000093163510555717639810000008786514570985084347_);" d="M48.9,7.6c0,0.2-0.2,0.2-0.2,0.2
		C47,8.6,45.3,9.3,43.6,10c-0.2,0.1-0.3,0-0.4-0.2c-0.6-1.2-0.6-1.2,0.6-1.7c1.4-0.6,2.8-1.2,4.2-1.8c0.4-0.2,0.5-0.1,0.6,0.3
		C48.7,7,48.8,7.3,48.9,7.6z"/>
	
		<linearGradient id="SVGID_00000137844501701550982100000012689975319550901919_" gradientUnits="userSpaceOnUse" x1="1.1464" y1="20.4364" x2="7.3166" y2="20.4364">
		<stop  offset="5.327789e-09" style="stop-color:#326E6A"/>
		<stop  offset="1" style="stop-color:#368789"/>
	</linearGradient>
	<path style="fill:url(#SVGID_00000137844501701550982100000012689975319550901919_);" d="M7.3,19.8c0,0.2-0.1,0.2-0.2,0.2
		c-1.7,0.7-3.5,1.5-5.2,2.2c-0.2,0.1-0.3,0.1-0.4-0.1c0,0,0,0,0,0c-0.6-1.2-0.6-1.2,0.6-1.7c1.4-0.6,2.8-1.2,4.2-1.8
		c0.3-0.1,0.4-0.1,0.5,0.2C7,19.2,7.2,19.5,7.3,19.8z"/>
	
		<linearGradient id="SVGID_00000052795571875133443820000007547679046748030645_" gradientUnits="userSpaceOnUse" x1="42.7028" y1="20.4976" x2="48.9565" y2="20.4976">
		<stop  offset="5.327789e-09" style="stop-color:#326E6A"/>
		<stop  offset="1" style="stop-color:#368789"/>
	</linearGradient>
	<path style="fill:url(#SVGID_00000052795571875133443820000007547679046748030645_);" d="M49,21c-0.2,0.4-0.4,0.9-0.6,1.3
		c-0.1,0.1-0.2,0-0.3,0c-1.7-0.7-3.4-1.5-5.1-2.2c-0.2-0.1-0.2-0.2-0.2-0.4c0.5-1.2,0.5-1.2,1.7-0.7c1.4,0.6,2.8,1.2,4.2,1.8
		C48.7,20.8,48.9,20.8,49,21z"/>
</g>
</svg>
