<svg width="30" height="30" viewBox="0 0 30 30" fill="none" xmlns="http://www.w3.org/2000/svg">
<circle cx="15" cy="15" r="15" fill="#316D69"/>
<path d="M15 0C6.73469 0 0 6.73469 0 15C0 23.2653 6.73469 30 15 30C23.2653 30 30 23.2653 30 15C30 6.73469 23.2653 0 15 0ZM15 28.6531C7.46939 28.6531 1.34694 22.5306 1.34694 15C1.34694 7.46939 7.46939 1.34694 15 1.34694C22.5306 1.34694 28.6531 7.46939 28.6531 15C28.6531 22.5306 22.5306 28.6531 15 28.6531Z" fill="#316D69"/>
<path d="M8.63257 21.1224C8.69379 21.0612 8.69379 21 8.69379 21C9.06114 20.6327 9.42849 20.2041 9.79583 19.8367C10.2244 19.3469 10.7142 18.8571 11.1428 18.3673C11.6326 17.8163 12.1836 17.2653 12.6734 16.7755C12.9795 16.4694 13.2244 16.1633 13.5305 15.8571C13.5918 15.7959 13.5918 15.7347 13.5305 15.6735C13.2856 15.3673 13.0407 15 12.7958 14.6939C12.4285 14.1429 11.9999 13.6531 11.6326 13.102C11.204 12.551 10.8366 12 10.4081 11.449C9.91828 10.7755 9.42849 10.102 8.93869 9.42857C8.87747 9.30612 8.75502 9.2449 8.69379 9.12245C8.63257 9.06122 8.63257 9 8.75502 9C8.87747 9 9.06114 9 9.18359 9C10.1632 9 11.0815 9 12.0611 9C12.1836 9 12.306 9.06122 12.3673 9.18367C12.7346 9.73469 13.1632 10.2857 13.5305 10.7755C13.8367 11.1429 14.1428 11.5714 14.4489 11.9388C14.8162 12.4286 15.1836 12.9184 15.5509 13.4082C15.6734 13.5306 15.7346 13.5918 15.8571 13.4082C16.3469 12.8571 16.8979 12.3673 17.3877 11.8163C17.8775 11.2653 18.3673 10.7143 18.9183 10.2245C19.2856 9.85714 19.653 9.4898 19.9591 9.12245C20.0203 9.06122 20.0815 9.06122 20.204 9.06122C20.3877 9.06122 20.6326 9.06122 20.8162 9.06122C20.8775 9.06122 20.9387 9.06122 20.9387 9.12245C20.9387 9.18367 20.9387 9.2449 20.8775 9.2449C20.6326 9.4898 20.3877 9.73469 20.1428 9.97959C19.4693 10.7143 18.7346 11.449 18.0611 12.2449C17.4489 12.8571 16.8979 13.5306 16.2856 14.2041C16.2244 14.2653 16.2244 14.3265 16.2856 14.3878C16.4693 14.6327 16.653 14.8776 16.8366 15.1224C17.0815 15.4286 17.2652 15.7347 17.5101 16.0408C17.755 16.3469 17.9999 16.7143 18.2448 17.0204C18.5509 17.3878 18.7958 17.8163 19.102 18.1837C19.4081 18.6122 19.7754 19.0408 20.0815 19.4694C20.4489 19.898 20.755 20.3878 21.1224 20.8775C21.1836 20.9388 21.2448 21.0612 21.306 21.1837C21.3673 21.2449 21.306 21.3061 21.2448 21.3061C21.1836 21.3061 21.1224 21.3061 21.1224 21.3061C20.0815 21.3061 19.0407 21.3061 17.9387 21.3061C17.8162 21.3061 17.6938 21.2449 17.6326 21.1837C17.2652 20.6939 16.8979 20.2041 16.5305 19.7143C16.2244 19.3469 15.9795 18.9796 15.6734 18.6122C15.3673 18.1837 15.0611 17.7551 14.755 17.3265C14.5713 17.0816 14.3877 16.8367 14.204 16.5918C14.1428 16.4694 14.0815 16.4694 13.9591 16.5918C13.3469 17.2653 12.7346 17.8775 12.1224 18.551C11.5713 19.1633 10.9591 19.7755 10.4081 20.3878C10.1632 20.6327 9.91828 20.9388 9.67338 21.1837C9.61216 21.0612 9.55094 21.1224 9.48971 21.1224C9.24481 21.1224 8.99992 21.1224 8.75502 21.1224C8.75502 21.1224 8.69379 21.1224 8.63257 21.1224ZM19.0407 20.3878C19.2856 20.3878 19.5918 20.3878 19.8367 20.3878C19.8979 20.3878 19.8979 20.3878 19.9591 20.3878C19.9591 20.3265 19.9591 20.3265 19.8979 20.2653C19.7754 20.0816 19.5918 19.8367 19.4693 19.6531C18.9795 19.0408 18.5509 18.4286 18.0611 17.7551C17.5101 17.0204 17.0203 16.3469 16.4693 15.6122C15.9795 15 15.5509 14.3878 15.0611 13.7755C14.8162 13.4694 14.5713 13.1633 14.3264 12.7959C13.9591 12.3061 13.653 11.8776 13.2856 11.3878C13.0407 11.0816 12.7958 10.7143 12.5509 10.4082C12.3673 10.1633 12.1836 9.91837 11.9999 9.67347C11.9387 9.61224 11.8775 9.61225 11.8162 9.61225C11.2652 9.61225 10.7754 9.61225 10.2244 9.61225C10.102 9.61225 10.102 9.67347 10.1632 9.73469C10.2244 9.79592 10.2856 9.85714 10.3469 9.91837C10.7142 10.4082 11.0815 10.898 11.4489 11.3878C11.6326 11.6939 11.8775 11.9388 12.0611 12.2449C12.3673 12.6122 12.6122 12.9796 12.9183 13.3469C13.1632 13.7143 13.4693 14.0816 13.7142 14.449C14.0815 14.8776 14.3877 15.3673 14.755 15.7959C15.0611 16.2245 15.3673 16.5918 15.6734 17.0204C16.102 17.5714 16.4693 18.1224 16.8979 18.6122C17.3264 19.1633 17.6938 19.6531 18.0611 20.2041C18.1224 20.2653 18.1836 20.3265 18.2448 20.3265C18.4897 20.3878 18.7958 20.3878 19.0407 20.3878Z" fill="white"/>
</svg>
